<?xml version="1.0" standalone="no"?>
<!DOCTYPE svg PUBLIC "-//W3C//DTD SVG 1.1//EN" "http://www.w3.org/Graphics/SVG/1.1/DTD/svg11.dtd" >
<svg xmlns="http://www.w3.org/2000/svg" xmlns:xlink="http://www.w3.org/1999/xlink" version="1.1">
<metadata></metadata>
<defs>
<font id="gill_sansmedium" horiz-adv-x="1024" >
<font-face units-per-em="2048" ascent="1397" descent="-651" />
<missing-glyph horiz-adv-x="569" />
<glyph unicode="&#xfb01;" d="M27 766v154h137q-6 231 90 363t299 132q84 0 149 -24t104 -65.5t59 -93t22 -110.5h-172q-8 22 -12 31t-19 32.5t-30.5 35.5t-44 23t-62.5 11q-47 0 -83.5 -15.5t-57 -41.5t-35 -60.5t-18.5 -71.5t-7 -75t0 -71h205v-154h-205v-766h-182v766h-137zM715 0v920h172v-920 h-172z" />
<glyph unicode="&#xfb02;" d="M18 766v154h142v45q0 197 63 297q103 153 275 153q62 0 123 -18v-166q-47 14 -82 14q-52 0 -99.5 -22t-72.5 -66q-29 -51 -29 -192v-45h209v-154h-209v-766h-178v766h-142zM711 0v1397h184v-1397h-184z" />
<glyph unicode="&#xfb03;" horiz-adv-x="1556" d="M8 766v154h131v51q0 199 64 299q98 145 280 145q62 0 123 -18v-168q-67 10 -98 10q-39 0 -69.5 -9.5t-50 -23t-33.5 -37.5t-21 -43.5t-10.5 -52t-4 -51t-0.5 -51.5v-51h371q1 30 1.5 48t4.5 61t10.5 72t20.5 72.5t32.5 74t48.5 64.5t67 54.5t88.5 34.5t113.5 14 q76 0 136.5 -18.5t97.5 -47.5t62 -69t35.5 -78.5t12.5 -79.5h-180q-9 27 -17.5 44t-27 40t-50.5 35t-75 12q-47 0 -82.5 -15.5t-56.5 -44.5t-34.5 -59.5t-18.5 -73t-6.5 -72t-0.5 -68.5h207v-154h-207v-766h-182v766h-371v-766h-180v766h-131zM1247 0v920h180v-920h-180z " />
<glyph unicode="&#xfb04;" horiz-adv-x="1556" d="M20 762v158h130v41q0 76 2 114t16 91.5t43 99.5q43 72 118.5 110.5t164.5 38.5q63 0 112 -18v-168q-42 10 -90 10q-30 0 -54.5 -5.5t-42.5 -13t-32 -23t-23.5 -28t-15.5 -35.5t-9 -38.5t-5 -44t-2 -44v-46.5v-41h366v114q0 73 21 140t61 121.5t107.5 87t152.5 32.5 q58 0 117 -18v-168q-65 10 -108 10q-45 0 -86 -22t-64 -70q-18 -42 -18 -186v-41h209v-158h-209v-762h-183v762h-366v-762h-182v762h-130zM1249 0v1397h178v-1397h-178z" />
<glyph horiz-adv-x="0" />
<glyph horiz-adv-x="682" />
<glyph unicode=" "  horiz-adv-x="569" />
<glyph unicode="&#x09;" horiz-adv-x="569" />
<glyph unicode="&#xa0;" horiz-adv-x="569" />
<glyph unicode="!" horiz-adv-x="555" d="M152 104q0 52 34 89.5t90 37.5q57 0 91 -38.5t34 -86.5q0 -49 -33 -86.5t-89 -37.5q-50 0 -88.5 34t-38.5 88zM164 1122q0 293 115 293q112 0 112 -285q0 -259 -69 -626q-2 -21 -15.5 -61t-25.5 -40q-36 0 -76.5 264t-40.5 455z" />
<glyph unicode="&#x22;" horiz-adv-x="724" d="M94 1153v244h205v-244l-47 -274h-111zM426 1153v244h205v-244l-47 -274h-111z" />
<glyph unicode="#" horiz-adv-x="1366" d="M86 205v145h215l72 348h-287v142h315l84 399h148l-82 -399h397l84 399h144l-82 -399h186v-142h-217l-72 -348h289v-145h-317l-84 -395h-146l82 395h-397l-82 -395h-148l82 395h-184zM446 350h400l72 348h-398z" />
<glyph unicode="$" horiz-adv-x="1110" d="M104 125v252q64 -58 122 -98.5t109 -62.5t81.5 -31.5t72.5 -18.5v440q-109 31 -187 75.5t-119 95.5t-59 100.5t-18 101.5q0 57 23 114t67.5 109.5t120.5 90t172 48.5v74h168v-74q199 -30 306 -120v-230q-62 65 -145 109.5t-161 60.5v-405q178 -49 274.5 -155t96.5 -232 q0 -46 -10 -90.5t-36 -93t-66.5 -87.5t-107 -71t-151.5 -47v-222h-168v222q-181 18 -385 145zM305 991q0 -64 44 -104t140 -78v352q-87 -8 -135.5 -62t-48.5 -108zM657 168q170 41 170 176q0 38 -11 66.5t-39 52.5t-50.5 38t-69.5 38v-371z" />
<glyph unicode="%" horiz-adv-x="1449" d="M117 1102q0 129 91 220t220 91t220 -91t91 -220t-91 -220t-220 -91t-220 91t-91 220zM217 -18l920 1435h153l-919 -1435h-154zM264 1100q0 -68 47 -115t115 -47t115 47t47 115t-47 115t-115 47t-115 -47t-47 -115zM776 297q0 129 91 220t220 91t220.5 -91t91.5 -220 t-91.5 -220t-220.5 -91t-220 91t-91 220zM924 295q0 -68 47 -115t114 -47t114.5 47.5t47.5 114.5t-47.5 114.5t-114.5 47.5t-114 -47t-47 -115z" />
<glyph unicode="&#x26;" horiz-adv-x="1280" d="M57 309q0 109 75.5 212t254.5 204q-35 36 -66 77.5t-61.5 111.5t-30.5 135q0 55 19 108.5t58 102.5t109.5 79.5t162.5 30.5q73 0 133 -19.5t99 -51t66 -72.5t38.5 -82.5t11.5 -83.5q0 -53 -20 -104.5t-45 -87t-67 -75t-65.5 -57t-60.5 -43.5l196 -225q88 100 150 225h200 q-71 -187 -227 -366l283 -328h-256l-162 190q-94 -81 -123 -98q-181 -110 -323 -110q-88 0 -166.5 39t-130.5 115.5t-52 172.5zM258 317q0 -57 48.5 -101t123.5 -44q62 0 132.5 34.5t121.5 82.5l45 41l-227 262l-88 -62q-156 -107 -156 -213zM426 1067q0 -39 17.5 -82 t42.5 -76t42 -52.5t27 -27.5q182 110 182 228q0 60 -44.5 101.5t-112.5 41.5q-65 0 -109.5 -38t-44.5 -95z" />
<glyph unicode="'" horiz-adv-x="382" d="M90 1153v244h205v-244l-47 -274h-113z" />
<glyph unicode="(" horiz-adv-x="661" d="M131 471q0 93 14 183.5t33.5 162t55.5 150t64.5 129.5t76 120t74 103.5t75.5 95.5h113q-38 -57 -57 -86.5t-56 -94t-57.5 -113t-47.5 -126.5t-41.5 -152t-25 -173t-10.5 -205q0 -260 73.5 -500t221.5 -436h-113q-131 163 -189 252t-110 217q-94 232 -94 473z" />
<glyph unicode=")" horiz-adv-x="661" d="M25 -471q38 56 57.5 86.5t55.5 94.5t56.5 112.5t47.5 126t41.5 152t25 172.5t10.5 204q0 261 -73 501.5t-221 436.5h112q133 -168 190.5 -255t108.5 -214q94 -232 94 -473q0 -93 -14 -183.5t-33.5 -162t-55.5 -150t-64.5 -129.5t-76 -120t-74 -103.5t-75.5 -95.5h-112z " />
<glyph unicode="*" horiz-adv-x="854" d="M35 827q0 21 11 38t33 30.5t38 20.5t41 16l202 72q-4 16 -4 24q0 13 4 23l-231 86q-90 32 -90 86q0 30 22 52.5t48 22.5q32 0 92 -53l174 -164q19 19 39 21l-39 207q-15 66 -15 92q0 9 1.5 18.5t7 27.5t21.5 29t40 11q23 0 38.5 -11t21 -28t7 -25.5t1.5 -15.5 q0 -13 -13 -98l-41 -207q24 0 41 -21l172 164q6 6 18.5 16t36 22.5t40.5 12.5q27 0 46 -20t19 -51q0 -36 -22.5 -56.5t-77.5 -38.5l-219 -79q4 -16 4 -25q0 -10 -4 -22l207 -72q112 -42 112 -105q0 -20 -18 -44.5t-49 -24.5q-46 0 -115 69l-150 148q-17 -21 -41 -21l41 -211 q0 -1 4.5 -36t4.5 -58q0 -86 -72 -86q-33 0 -49.5 26.5t-16.5 61.5q0 37 9 58q0 3 4.5 16.5t5.5 17.5l39 211q-18 0 -39 21l-160 -148q-72 -67 -113 -67q-33 0 -50 23.5t-17 43.5z" />
<glyph unicode="+" horiz-adv-x="1193" d="M113 614v168h401v400h168v-400h399v-168h-399v-399h-168v399h-401z" />
<glyph unicode="," horiz-adv-x="448" d="M78 131q0 53 36.5 93t86.5 40q63 0 101 -57t38 -135q0 -13 -1.5 -27t-7 -47.5t-21.5 -64.5t-40.5 -65.5t-68.5 -64t-101 -47.5v37q48 48 64.5 93.5t19.5 113.5q-106 33 -106 131z" />
<glyph unicode="-" horiz-adv-x="661" d="M82 356v195h498v-195h-498z" />
<glyph unicode="." horiz-adv-x="448" d="M102 102q0 52 36.5 86.5t84.5 34.5t85.5 -34.5t37.5 -86.5q0 -51 -36 -85.5t-87 -34.5q-50 0 -85.5 34.5t-35.5 85.5z" />
<glyph unicode="/" horiz-adv-x="575" d="M14 -18l402 1433h145l-401 -1433h-146z" />
<glyph unicode="0" d="M61 698q0 172 39.5 312t105 226.5t146.5 132.5t168 46q125 0 226 -89.5t159 -253t58 -370.5q0 -325 -128 -522.5t-323 -197.5q-199 0 -325 194t-126 522zM262 702q0 -124 16.5 -220.5t41.5 -153.5t59 -93.5t65.5 -49.5t65.5 -13t67 14t67.5 51t59.5 93.5t41.5 151 t16.5 214.5q0 135 -21 237.5t-49.5 156t-66.5 86t-64 41t-49 8.5q-38 0 -72.5 -17t-67.5 -57t-57 -99t-38.5 -149t-14.5 -201z" />
<glyph unicode="1" d="M414 0v1397h200v-1397h-200z" />
<glyph unicode="2" d="M70 0v14q108 130 173 211t160 209.5t150 222.5q49 82 74.5 150t25.5 149q0 59 -16.5 105.5t-42 75t-59 47.5t-64 26t-59.5 7q-85 0 -167.5 -50t-146.5 -139v254q44 35 82 59.5t109.5 49t146.5 24.5q181 0 299.5 -121t118.5 -309q0 -56 -12.5 -114t-28.5 -106t-53 -111.5 t-63.5 -106t-82.5 -115.5t-89 -113.5t-103 -125.5h532v-193h-884z" />
<glyph unicode="3" d="M131 61v218q158 -99 307 -99q41 0 78 11.5t70 36t53 68.5t20 103q0 45 -13.5 83.5t-45 72.5t-90.5 54t-141 20v184q280 0 280 211q0 37 -13.5 72.5t-40.5 67t-75.5 50.5t-111.5 19q-109 0 -242 -68v191q118 59 266 59q181 0 297.5 -96.5t116.5 -278.5q0 -57 -13.5 -105.5 t-31 -78.5t-45.5 -56t-45.5 -38t-42.5 -25q71 -24 118 -80t64.5 -118.5t17.5 -132.5q0 -127 -60.5 -225t-156.5 -148.5t-209 -50.5q-161 0 -311 79z" />
<glyph unicode="4" d="M23 459v88l704 868h82v-784h156v-172h-156v-459h-195v459h-591zM291 631h323v405z" />
<glyph unicode="5" d="M102 68v206q150 -98 295 -98q126 0 211.5 72.5t85.5 181.5q0 57 -24 103.5t-59.5 75t-80.5 47.5t-84 26.5t-73 7.5q-122 0 -166 -20v727h620v-178h-438v-353q152 8 268.5 -47.5t178 -157t61.5 -231.5q0 -190 -125.5 -319t-339.5 -129q-164 0 -330 86z" />
<glyph unicode="6" d="M90 485q0 172 67.5 345t194.5 323q46 55 98.5 103.5t90 77.5t108.5 81l121 -153q-92 -59 -165.5 -125t-115 -116t-75.5 -110t-45.5 -89.5t-26.5 -71.5q109 57 221 57q160 0 274.5 -114.5t114.5 -289.5q0 -177 -123 -299t-297 -122q-56 0 -113 14.5t-117.5 51.5t-106.5 92 t-75.5 144.5t-29.5 200.5zM291 436q0 -67 23 -120.5t59.5 -84.5t78 -47t83.5 -16q90 0 155.5 62.5t65.5 166.5q0 59 -22.5 104.5t-59 71t-77.5 38t-83 12.5q-47 0 -91 -14t-65.5 -27t-58.5 -39q-8 -50 -8 -107z" />
<glyph unicode="7" d="M100 1206v191h904l-633 -1415l-178 77l512 1147h-605z" />
<glyph unicode="8" d="M66 385q0 149 102 256q39 39 96 72q-26 21 -40.5 34t-42 44.5t-42.5 61t-28 74.5t-13 95q0 112 58.5 202.5t155.5 140.5t210 50q109 0 204 -49t153.5 -140t58.5 -202q0 -191 -174 -311q25 -15 42 -27t49 -42t51.5 -62.5t35.5 -85.5t16 -113q0 -167 -123 -284t-321 -117 q-196 0 -322 119.5t-126 283.5zM268 393q0 -89 64.5 -154t183.5 -65q117 0 178.5 65.5t61.5 155.5q0 86 -63 151.5t-183 65.5q-64 0 -113 -21t-76 -55t-40 -70.5t-13 -72.5zM295 1018q0 -50 22.5 -92t56.5 -67t72.5 -38.5t73.5 -13.5q82 0 150.5 57.5t68.5 151.5 q0 82 -59 145.5t-162 63.5q-95 0 -159 -57t-64 -150z" />
<glyph unicode="9" d="M74 999q0 105 50.5 199.5t148 155.5t219.5 61q136 0 240 -68t158 -183.5t54 -258.5q0 -256 -160 -514.5t-401 -408.5l-123 147q36 22 74.5 50.5t95 80t103 107t90 132t63.5 154.5q-98 -59 -223 -59q-84 0 -158 34.5t-124 91t-78.5 129.5t-28.5 150zM272 999 q0 -68 39 -121t91 -77.5t104 -24.5q105 0 219 76q10 82 10 109q0 44 -12.5 88.5t-39 86t-75 67.5t-112.5 26q-60 0 -106 -23.5t-70.5 -60.5t-36 -74t-11.5 -72z" />
<glyph unicode=":" horiz-adv-x="448" d="M94 104q0 52 37 87.5t84 35.5q48 0 85.5 -35t37.5 -88q0 -52 -36.5 -87t-86.5 -35t-85.5 35t-35.5 87zM111 815q0 54 36 88.5t84 34.5t85.5 -35t37.5 -88q0 -51 -36.5 -87t-86.5 -36t-85 35.5t-35 87.5z" />
<glyph unicode=";" horiz-adv-x="468" d="M102 131q0 53 35.5 93t87.5 40q63 0 101.5 -57t38.5 -135q0 -13 -1.5 -27t-7 -47.5t-21.5 -64.5t-40.5 -65.5t-68.5 -64t-101 -47.5v37q48 48 64.5 93.5t19.5 113.5q-107 33 -107 131zM123 815q0 54 37 88.5t86 34.5q48 0 84.5 -35t36.5 -88q0 -51 -35.5 -87t-85.5 -36 t-86.5 35.5t-36.5 87.5z" />
<glyph unicode="&#x3c;" horiz-adv-x="1193" d="M113 616v168l968 410v-178l-770 -316l770 -319v-178z" />
<glyph unicode="=" horiz-adv-x="1193" d="M113 391v168h968v-168h-968zM113 838v168h968v-168h-968z" />
<glyph unicode="&#x3e;" horiz-adv-x="1193" d="M113 203v178l770 315l-770 320v178l968 -414v-168z" />
<glyph unicode="?" horiz-adv-x="681" d="M133 1198l131 219q123 -7 185 -43q75 -43 110 -114t35 -142q0 -57 -12.5 -110.5t-42 -112.5t-53.5 -98.5t-70 -110.5q-131 -204 -131 -285q0 -25 6 -43q-19 8 -32 15t-32.5 22.5t-32 34.5t-21.5 50t-9 69q0 50 17.5 100.5t39.5 89t80 131.5q84 134 84 226q0 41 -15 70 t-39 42t-44.5 18t-40.5 5q-14 0 -27 -2t-27 -6.5t-21 -7t-21.5 -9.5t-16.5 -8zM193 102q0 55 37 90t85 35q45 0 84 -32.5t39 -90.5q0 -54 -37 -88t-88 -34q-48 0 -84 33t-36 87z" />
<glyph unicode="@" horiz-adv-x="2068" d="M111 426q0 87 14.5 179t49 193t86 193.5t132 177t180 146.5t236.5 98.5t295 36.5q163 0 303 -43.5t239.5 -119t170 -175t105 -212t34.5 -230.5q0 -97 -24 -188.5t-61 -160t-86 -128.5t-93.5 -99t-89.5 -67q-112 -74 -248 -74q-50 0 -87 12t-55.5 27.5t-30.5 42 t-14.5 42.5t-5.5 42q-147 -166 -307 -166q-155 0 -258.5 130t-103.5 318q0 151 70 298.5t192 244t258 96.5q28 0 57 -5.5t73.5 -21.5t89.5 -56.5t81 -100.5l35 156h180l-146 -672q-30 -153 -30 -156q0 -30 23 -47.5t46 -17.5q34 0 82.5 24t101.5 73t98.5 113.5t75 155.5 t29.5 189q0 184 -97 329.5t-259.5 223.5t-357.5 78q-191 0 -350.5 -71t-264 -191t-162 -275t-57.5 -326q0 -124 26.5 -229t72 -182.5t111 -139t140 -102t161 -67t172.5 -37.5t177 -11q124 0 233.5 22.5t183 54.5t135.5 75.5t95 78t58 70.5h180q-9 -19 -23.5 -42.5t-52 -70 t-82 -88t-118 -89t-157.5 -81.5t-201.5 -56.5t-248.5 -22.5q-210 0 -381 48.5t-287 132t-194.5 199t-113.5 246t-35 275.5zM678 387q0 -131 65 -208t148 -77q66 0 132.5 41.5t117.5 109.5t82.5 161.5t31.5 191.5q0 136 -66.5 211.5t-164.5 75.5q-65 0 -122.5 -35t-97.5 -90 t-69 -123t-43 -134.5t-14 -123.5z" />
<glyph unicode="A" horiz-adv-x="1366" d="M0 0l600 1405h141l625 -1405h-205l-186 412h-594l-176 -412h-205zM459 592h434l-225 506z" />
<glyph unicode="B" horiz-adv-x="1150" d="M154 0v1397h366q152 0 234 -31q106 -39 170.5 -124t64.5 -208q0 -204 -213 -295q153 -29 243.5 -126.5t90.5 -231.5q0 -65 -20.5 -121t-50.5 -93t-69.5 -67t-70.5 -45.5t-61 -25.5q-57 -20 -112.5 -24.5t-184.5 -4.5h-387zM352 178h199q153 0 207 21q72 27 108.5 83 t36.5 117q0 33 -10.5 66.5t-42 69t-80.5 55.5q-65 28 -229 28h-189v-440zM352 799h133q135 0 189 32q41 21 74.5 67t33.5 120q0 59 -26 105.5t-72 68.5q-57 27 -199 27h-133v-420z" />
<glyph unicode="C" horiz-adv-x="1449" d="M98 696q0 143 56.5 274.5t155 229.5t240.5 156.5t304 58.5q224 0 489 -115v-215q-245 140 -483 140q-123 0 -228.5 -43.5t-175.5 -116.5t-109.5 -169.5t-39.5 -201.5q0 -100 35.5 -192.5t102 -167.5t175 -120.5t242.5 -45.5q257 0 496 156v-220q-225 -122 -508 -122 q-150 0 -276.5 43t-212.5 114.5t-146.5 164.5t-88.5 192.5t-28 199.5z" />
<glyph unicode="D" horiz-adv-x="1536" d="M156 0v1397h471q70 0 118 -3t129 -15t156.5 -44t140.5 -82q122 -93 195.5 -237.5t73.5 -317.5q0 -100 -27.5 -192.5t-65 -154.5t-88.5 -117t-86 -82t-69 -48q-60 -37 -126.5 -60t-140.5 -31.5t-119 -10.5t-120 -2h-442zM354 180h258q255 0 387 80q107 67 170.5 187.5 t63.5 261.5q0 67 -16 131t-49 126t-91 114.5t-135 86.5q-54 24 -113 36t-101.5 14t-121.5 2h-252v-1039z" />
<glyph unicode="E" horiz-adv-x="1067" d="M154 0v1397h792v-178h-592v-426h572v-179h-572v-434h611v-180h-811z" />
<glyph unicode="F" horiz-adv-x="960" d="M156 0v1397h745v-180h-545v-388h545v-180h-545v-649h-200z" />
<glyph unicode="G" horiz-adv-x="1515" d="M102 686q0 111 32 217.5t96.5 199t154 162t211.5 110t262 40.5q133 0 242.5 -30t249.5 -89v-204q-250 145 -496 145q-105 0 -202.5 -38.5t-173.5 -106.5t-121.5 -171t-45.5 -223q0 -115 40.5 -214.5t113 -171.5t177.5 -113t230 -41q73 0 136 13.5t170 47.5v291h-269v176 h469v-590q-257 -114 -512 -114q-156 0 -286.5 43t-217 113.5t-146.5 163t-87 189.5t-27 195z" />
<glyph unicode="H" horiz-adv-x="1492" d="M154 0v1397h200v-604h783v604h202v-1397h-202v608h-783v-608h-200z" />
<glyph unicode="I" horiz-adv-x="512" d="M156 0v1397h200v-1397h-200z" />
<glyph unicode="J" horiz-adv-x="512" d="M-127 -281h26q45 0 75 3q40 3 74.5 15.5t53 33.5t32 59t18 87.5t4.5 123.5v1356h200v-1379q0 -148 -24.5 -238.5t-93.5 -158.5q-99 -94 -263 -94q-5 0 -65 6z" />
<glyph unicode="K" horiz-adv-x="1343" d="M154 0v1397h202v-639l588 639h250l-606 -662l755 -735h-274l-713 690v-690h-202z" />
<glyph unicode="L" horiz-adv-x="1003" d="M152 0v1397h202v-1215h629v-182h-831z" />
<glyph unicode="M" horiz-adv-x="1599" d="M150 0v1397h188l465 -574l463 574h186v-1397h-201v1087l-430 -540h-37l-434 540v-1087h-200z" />
<glyph unicode="N" horiz-adv-x="1599" d="M160 0v1397h162l942 -1084v1084h190v-1397h-172l-934 1075v-1075h-188z" />
<glyph unicode="O" horiz-adv-x="1685" d="M92 694q0 140 50.5 269t143.5 230t237 161.5t317 60.5q169 0 313 -59t239 -158t148 -228t53 -270q0 -149 -55.5 -281t-154.5 -228.5t-242.5 -152.5t-311.5 -56q-161 0 -299.5 56.5t-234 153t-149.5 227t-54 275.5zM299 694q0 -154 75 -275.5t198 -186t270 -64.5 q114 0 225 44.5t182 121.5q64 70 102 172.5t38 195.5q0 71 -20.5 143.5t-65 141t-107 122t-153 86t-195.5 32.5q-95 0 -176.5 -23t-140 -63.5t-104 -92.5t-73 -112.5t-41.5 -121t-14 -120.5z" />
<glyph unicode="P" horiz-adv-x="1044" d="M143 0v1397h361q65 0 97 -1t84 -7t84.5 -18t72 -35t73.5 -58q109 -109 109 -277q0 -169 -117 -282q-66 -63 -159 -88t-256 -25h-148v-606h-201zM344 784h160q54 0 82.5 1t69.5 10t69 26q92 55 92 185q0 99 -61 155q-43 41 -91.5 50.5t-168.5 9.5h-152v-437z" />
<glyph unicode="Q" horiz-adv-x="1685" d="M90 694q0 205 96 369.5t268 258t388 93.5q171 0 315 -59t238.5 -158t147 -227.5t52.5 -268.5q0 -167 -71.5 -314.5t-204.5 -250.5t-305 -137q90 -38 138.5 -56.5t129 -39.5t141.5 -21q66 0 140 27l-201 -195q-313 14 -686 285q-112 19 -215.5 76t-187 144t-133.5 210.5 t-50 263.5zM297 694q0 -225 155.5 -375.5t389.5 -150.5q160 0 286.5 75.5t192 195.5t65.5 259q0 67 -17.5 136.5t-59 141t-102 126.5t-155.5 90t-210 35q-116 0 -211.5 -36t-156 -92t-102 -128.5t-58.5 -141.5t-17 -135z" />
<glyph unicode="R" horiz-adv-x="1236" d="M160 0v1397h350q138 0 240 -45q108 -45 163.5 -138.5t55.5 -205.5q0 -122 -60 -211t-174 -133q37 -24 72 -57.5t61 -63t61.5 -81t55.5 -83.5t62 -100q53 -87 190 -279h-238q-15 22 -137.5 210t-148.5 222q-40 51 -75.5 85.5t-61 52.5t-57.5 26.5t-51 10t-56 1.5h-54v-608 h-198zM358 786h78q137 0 195 21q66 26 99.5 82t33.5 119q0 61 -29 112t-78 74q-67 33 -237 33h-62v-441z" />
<glyph unicode="S" horiz-adv-x="937" d="M84 1044q0 161 113 266t299 105q172 0 321 -98v-227q-150 145 -328 145q-100 0 -160.5 -47t-60.5 -115q0 -75 56 -131q49 -49 219 -149q22 -13 73 -43q117 -70 181 -156q75 -96 75 -232q0 -167 -111 -273.5t-294 -106.5q-206 0 -377 129v254q165 -205 377 -205 q85 0 151 50t66 134q0 41 -18.5 80.5t-49.5 70.5t-58.5 52t-57.5 39q-181 109 -242 152t-104 98q-70 90 -70 208z" />
<glyph unicode="T" horiz-adv-x="1236" d="M35 1221v176h1167v-176h-487v-1221h-201v1221h-479z" />
<glyph unicode="U" horiz-adv-x="1449" d="M125 604v793h201v-793q0 -141 17.5 -208t70.5 -120q112 -116 313 -116q79 0 144.5 18.5t107.5 49t66.5 58.5t41.5 58q39 71 39 260v793h199v-793q0 -56 -1 -89t-9 -93t-23.5 -103t-47.5 -94.5t-77 -91.5q-170 -151 -440 -151q-162 0 -304 59.5t-220 183.5 q-36 56 -54.5 136t-21 126.5t-2.5 116.5z" />
<glyph unicode="V" horiz-adv-x="1236" d="M0 1397h201l420 -981l417 981h199l-590 -1405h-45z" />
<glyph unicode="W" horiz-adv-x="2134" d="M0 1397h201l385 -963l387 963h190l389 -963l381 963h199l-565 -1405h-43l-457 1138l-461 -1138h-43z" />
<glyph unicode="X" horiz-adv-x="1449" d="M4 0l602 723l-559 674h244l438 -533l436 533h242l-557 -674l596 -723h-242l-475 578l-481 -578h-244z" />
<glyph unicode="Y" horiz-adv-x="1236" d="M0 1397h242l374 -482l379 482h242l-516 -658v-739h-205v739z" />
<glyph unicode="Z" horiz-adv-x="1323" d="M25 0l895 1221h-838v176h1204l-893 -1221h893v-176h-1261z" />
<glyph unicode="[" horiz-adv-x="681" d="M176 -453v1850h477v-166h-280v-1520h280v-164h-477z" />
<glyph unicode="\" horiz-adv-x="575" d="M14 1415h146l401 -1433h-145z" />
<glyph unicode="]" horiz-adv-x="681" d="M31 -289h278v1522h-278v164h475v-1850h-475v164z" />
<glyph unicode="^" horiz-adv-x="960" d="M53 596l355 801h145l354 -801h-182l-246 598l-241 -598h-185z" />
<glyph unicode="_" d="M-12 -154h1048v-102h-1048v102z" />
<glyph unicode="`" horiz-adv-x="681" d="M123 1337h205l137 -301h-113z" />
<glyph unicode="a" horiz-adv-x="874" d="M61 207q0 51 20.5 94t42 68t75 53.5t77 38t89.5 33.5q7 3 10 4l162 57v49q0 85 -40.5 123.5t-125.5 38.5q-162 0 -291 -152v199q107 125 305 125q148 0 241 -76.5t93 -226.5v-473q0 -47 35 -47q31 0 96 49v-111q-65 -42 -99.5 -56.5t-76.5 -14.5q-60 0 -93.5 22.5 t-45.5 71.5q-119 -94 -248 -94q-99 0 -162.5 66.5t-63.5 158.5zM246 240q0 -57 37 -93t94 -36q82 0 160 75v269q-55 -19 -91 -32.5t-78 -34.5t-65.5 -41t-40 -47.5t-16.5 -59.5z" />
<glyph unicode="b" d="M121 51v1346h182v-543q113 84 254 84q120 0 211 -63.5t137.5 -169.5t46.5 -236q0 -118 -38.5 -212.5t-104.5 -154t-151 -91t-181 -31.5q-90 0 -190.5 19.5t-165.5 51.5zM303 182q90 -28 193 -28q44 0 89 16.5t87.5 50.5t69 96.5t26.5 143.5q0 147 -76 228t-182 81 t-207 -90v-498z" />
<glyph unicode="c" horiz-adv-x="894" d="M78 455q0 69 15.5 136t50.5 130.5t86 111t129 76.5t173 29q55 0 108.5 -11t81.5 -21.5t77 -31.5v-194q-37 24 -64 39t-82 32t-110 17q-68 0 -123.5 -27.5t-89 -72t-51 -98t-17.5 -109.5q0 -60 18.5 -113.5t55 -97.5t99 -70t143.5 -26q107 0 241 61v-180q-1 0 -20 -7 t-29 -10t-32 -9.5t-40 -10t-43 -8t-51 -6.5t-53 -2q-115 0 -207 38t-149 104t-87 150.5t-30 180.5z" />
<glyph unicode="d" horiz-adv-x="1044" d="M90 475q0 144 66 251.5t167.5 159.5t219.5 52q100 0 198 -37v496h185v-1397h-389q-103 0 -184 33t-129 82.5t-79.5 115.5t-43 125.5t-11.5 118.5zM274 453q0 -108 38 -174.5t98 -96.5q35 -18 74.5 -23t117.5 -5h139v585q-84 43 -170 43q-126 0 -211.5 -83t-85.5 -246z " />
<glyph unicode="e" horiz-adv-x="980" d="M82 465q0 213 120.5 343t309.5 130q157 0 262 -99.5t129 -256.5q10 -61 10 -138h-647q2 -53 21 -103t54 -92t92.5 -67.5t129.5 -25.5q182 0 334 112v-178q-34 -22 -58.5 -35.5t-70.5 -33t-104.5 -29.5t-126.5 -10q-89 0 -166 25.5t-152 103.5q-137 142 -137 354zM270 553 h463q-1 20 -3.5 39t-16.5 56t-35.5 63.5t-65.5 47.5t-102 21q-46 0 -93.5 -19.5t-82.5 -58.5q-50 -54 -64 -149z" />
<glyph unicode="f" horiz-adv-x="532" d="M18 756v164h129v55q0 149 48 258q42 83 115.5 132.5t160.5 49.5q65 0 135 -18v-178q-40 16 -84 16q-31 0 -56.5 -6t-44 -14.5t-33 -24t-24 -29t-16 -35.5t-9.5 -37t-5 -39.5t-2 -37.5v-37v-55h164v-164h-164v-756h-185v756h-129z" />
<glyph unicode="g" horiz-adv-x="874" d="M0 -193q0 102 55.5 163.5t175.5 90.5q-92 57 -92 117q0 44 40 80t106 51v4q-101 43 -154 117q-49 70 -49 172q0 148 107.5 233t293.5 85h379v-142h-188q54 -54 75 -98t21 -102q0 -54 -26 -113.5t-60 -93.5q-41 -43 -109.5 -66.5t-124 -29t-97.5 -23.5t-42 -55 q0 -36 66.5 -62.5t214.5 -56.5q266 -53 266 -256q0 -137 -115 -215t-319 -78q-186 0 -305 78t-119 200zM172 -184q0 -69 66 -105.5t190 -36.5q120 0 187 35t67 98q0 41 -30.5 72t-78.5 46.5t-96.5 22.5t-95.5 7q-92 0 -150.5 -39t-58.5 -100zM246 596q0 -75 50.5 -121.5 t133.5 -46.5q77 0 126.5 48.5t49.5 123.5q0 66 -53 114t-125 48q-75 0 -128.5 -49t-53.5 -117z" />
<glyph unicode="h" d="M125 0v1397h182v-598q55 65 128.5 102t154.5 37q97 0 170 -50t104 -124q35 -85 35 -240v-524h-182v569q0 83 -33 142q-24 39 -63.5 61.5t-81.5 22.5q-63 0 -116 -32.5t-116 -103.5v-659h-182z" />
<glyph unicode="i" horiz-adv-x="448" d="M117 1200q0 40 31 73.5t75 33.5q45 0 77 -32t32 -75t-32.5 -75.5t-76.5 -32.5q-48 0 -77 34.5t-29 73.5zM133 0v920h182v-920h-182z" />
<glyph unicode="j" horiz-adv-x="448" d="M-12 -338q11 4 20.5 8.5t18 10t16 10.5t14 11.5t11 10.5t10 10.5t7.5 9.5t6.5 8.5t4.5 6.5q15 25 21.5 54.5t7 52.5t0.5 100v965h184v-975q0 -46 -0.5 -69.5t-4 -65.5t-10 -66.5t-20 -59t-32.5 -58.5t-49 -50t-68 -47zM106 1200q0 40 31.5 73.5t75.5 33.5q41 0 75 -29 t34 -78q0 -44 -29 -76t-78 -32q-50 0 -79.5 35t-29.5 73z" />
<glyph unicode="k" horiz-adv-x="980" d="M127 0v1397h184v-1397h-184zM319 469l408 451h217l-393 -451l473 -469h-244z" />
<glyph unicode="l" horiz-adv-x="448" d="M133 0v1397h182v-1397h-182z" />
<glyph unicode="m" horiz-adv-x="1579" d="M121 0v920h180v-121q78 78 140 108.5t134 30.5q84 0 155.5 -43.5t115.5 -122.5q92 92 157.5 129t145.5 37q149 0 228 -95t79 -270v-573h-180v561q0 107 -50.5 164t-140.5 57q-52 0 -108 -31.5t-98 -82.5v-668h-181v551q0 51 -7 89t-25.5 72.5t-56.5 53t-93 18.5 q-117 0 -215 -116v-668h-180z" />
<glyph unicode="n" d="M125 0v920h186v-117q59 66 134 100.5t143 34.5q26 0 55 -5.5t67 -20t74.5 -45.5t63.5 -76q26 -40 38.5 -96t12.5 -171v-524h-184v524q0 86 -7.5 126.5t-41.5 78.5q-51 57 -138 57q-62 0 -118.5 -34t-98.5 -95v-657h-186z" />
<glyph unicode="o" horiz-adv-x="1130" d="M74 461q0 130 58.5 237.5t173 173.5t263.5 66q209 0 348.5 -133t139.5 -348q0 -95 -29.5 -175t-79 -134.5t-114 -92.5t-133 -55.5t-138.5 -17.5q-144 0 -256.5 65t-172.5 174t-60 240zM260 459q0 -83 28.5 -146t75 -98t98 -52.5t105.5 -17.5q135 0 219 88t84 228 q0 66 -20 120.5t-51.5 89.5t-73.5 59t-83.5 34t-82.5 10q-128 0 -213.5 -84t-85.5 -231z" />
<glyph unicode="p" d="M117 -471v1391h319q27 0 64.5 -2t122.5 -21.5t141 -54.5q58 -37 98.5 -89.5t59 -108t25.5 -99.5t7 -86q0 -204 -127 -340.5t-329 -136.5q-15 0 -29.5 0.5t-28.5 2.5l-24.5 3.5t-23.5 5t-20.5 5.5t-20 6.5t-17 6t-17 6t-14.5 5.5v-494h-186zM303 184q84 -43 176 -43 q125 0 207 87t82 231q0 60 -14.5 107.5t-35.5 77.5t-54.5 51.5t-60.5 31.5t-65.5 16t-57.5 6.5t-48 0.5h-129v-566z" />
<glyph unicode="q" d="M72 451q0 58 12.5 116.5t46.5 123.5t87 114.5t142 82t203 32.5h342v-1391h-180v487q-109 -34 -201 -34q-123 0 -225 56t-164.5 164.5t-62.5 248.5zM256 455q0 -138 83 -229t220 -91q34 0 59 6t107 33v576h-115q-53 0 -82 -1t-69 -10t-68 -26q-135 -89 -135 -258z" />
<glyph unicode="r" horiz-adv-x="790" d="M121 0v920h182v-211q32 50 52 77.5t57.5 69t78.5 62t87 20.5q107 0 215 -104l-97 -160q-29 29 -79 59.5t-97 30.5q-28 0 -63 -15.5t-70.5 -46.5t-59.5 -89t-24 -132v-481h-182z" />
<glyph unicode="s" horiz-adv-x="788" d="M84 66v196q89 -61 169 -91t124 -30q49 0 94 26.5t45 68.5q0 24 -8.5 42.5t-31.5 37t-41.5 30t-59.5 33.5q-55 30 -89 51t-76 53t-65 61t-39 69t-16 85q0 103 81.5 171.5t211.5 68.5q137 0 279 -76v-180q-81 50 -143.5 74t-123.5 24q-59 0 -87.5 -25.5t-28.5 -56.5 q0 -39 37.5 -69t144.5 -90q11 -6 16 -9q230 -126 230 -288q0 -29 -8.5 -60.5t-31 -68t-56.5 -65t-91.5 -47.5t-128.5 -19q-87 0 -154 21t-153 63z" />
<glyph unicode="t" horiz-adv-x="710" d="M0 756v18l342 336v-190h291v-164h-291v-402q2 -89 7 -116.5t26 -51.5q37 -39 98 -39q99 0 207 66v-170q-112 -61 -236 -61q-59 0 -128 27.5t-111 88.5q-21 32 -31.5 79.5t-12 80t-1.5 90.5v408h-160z" />
<glyph unicode="u" d="M123 395v525h184v-525q0 -30 0.5 -48t4 -49t10.5 -50.5t20.5 -43.5t33 -38t49.5 -23.5t69 -9.5q63 0 120 34.5t99 94.5v658h184v-920h-184v117q-60 -66 -135.5 -100.5t-143.5 -34.5q-26 0 -55 5.5t-67 20t-74.5 45.5t-63.5 76q-26 40 -38.5 95.5t-12.5 170.5z" />
<glyph unicode="v" horiz-adv-x="894" d="M6 920h199l248 -566l239 566h197l-406 -938h-61z" />
<glyph unicode="w" horiz-adv-x="1472" d="M0 920h195l241 -558l234 558h135l233 -558l240 558h195l-406 -938h-57l-273 643l-268 -643h-59z" />
<glyph unicode="x" d="M0 0l387 467l-387 453h229l273 -316l262 316h233l-379 -453l406 -467h-233l-289 330l-273 -330h-229z" />
<glyph unicode="y" horiz-adv-x="894" d="M0 920h207l248 -519l237 519h205l-651 -1391h-203l313 668z" />
<glyph unicode="z" horiz-adv-x="854" d="M23 0l483 750h-463v170h786l-487 -752h487v-168h-806z" />
<glyph unicode="{" horiz-adv-x="681" d="M57 383v158q34 1 61.5 8.5t47.5 18.5t35.5 31t26 37.5t17.5 47.5t11 51.5t5.5 58.5t2 60t0.5 64q1 99 2.5 139.5t7.5 97t20 89.5t38 65q25 31 56 50.5t68.5 27t61 9t62.5 1.5h57v-152h-33q-124 0 -147 -52t-23 -294q0 -90 -9.5 -157t-25.5 -111t-44 -77t-57.5 -52.5 t-74.5 -40.5q45 -18 78 -42.5t56 -48.5t37.5 -68.5t22.5 -76t12 -99.5t4.5 -111t0.5 -136q0 -67 7.5 -106t29 -60.5t51 -28t82.5 -6.5h33v-153h-57q-33 0 -51 0.5t-53 6t-56.5 15t-50.5 30t-46.5 49.5t-32.5 74t-20 103q-4 33 -7 190.5t-3 158.5q-13 226 -203 231z" />
<glyph unicode="|" horiz-adv-x="532" d="M188 -475v1872h156v-1872h-156z" />
<glyph unicode="}" horiz-adv-x="681" d="M47 -322h31q125 0 148.5 52t23.5 293q0 113 13 188.5t42.5 123.5t63.5 74t90 52q-45 18 -77.5 43t-55 49t-37.5 68.5t-23 76t-11.5 99t-4 111t-0.5 136.5q0 88 -16.5 130.5t-50.5 56.5t-105 14h-31v152h55q33 0 51.5 -0.5t53.5 -6t57 -15.5t51 -30.5t46.5 -49t32.5 -74 t20 -103.5q2 -31 4.5 -182.5t3.5 -165.5q13 -224 203 -229v-158q-59 -2 -99.5 -25t-61 -51.5t-31 -86t-12.5 -97t-3 -114.5v-5q0 -178 -10.5 -254t-57.5 -137q-24 -31 -54.5 -50.5t-68.5 -27t-61.5 -9t-63.5 -1.5h-55v153z" />
<glyph unicode="~" horiz-adv-x="1193" d="M86 537v202q57 64 131.5 92.5t147.5 28.5q111 0 272 -69q94 -40 132 -52t81 -12q123 0 258 135v-211q-118 -114 -277 -114q-108 0 -243 61q-60 27 -89.5 39.5t-72 23.5t-80.5 11q-42 0 -79 -10.5t-73.5 -36t-53 -39.5t-54.5 -49z" />
<glyph unicode="&#xa1;" horiz-adv-x="555" d="M152 924q0 48 34.5 85.5t89.5 37.5q50 0 87.5 -34t37.5 -89q0 -51 -33 -89t-89 -38q-57 0 -92 38.5t-35 88.5zM162 -106q0 266 71 626q2 22 16 61.5t27 39.5q34 0 73.5 -266t39.5 -455q0 -293 -113 -293q-114 0 -114 287z" />
<glyph unicode="&#xa2;" horiz-adv-x="894" d="M78 446q0 218 123 355t338 137q52 0 79 -6l121 338h95l-129 -359q78 -29 92 -39v-192q-65 52 -150 74l-209 -576q75 -26 125 -26q63 0 134.5 17t119.5 46v-176q-147 -59 -278 -59q-92 0 -162 20l-141 -389h-97l158 428q-33 19 -65.5 48.5t-70 78t-60.5 122t-23 158.5z M262 455q0 -142 100 -232l197 545q-126 5 -211.5 -78.5t-85.5 -234.5z" />
<glyph unicode="&#xa3;" horiz-adv-x="1087" d="M121 -18l162 604h-148v178h195q24 87 51.5 164.5t74 170.5t100 159.5t129.5 111.5t161 45q38 0 74 -8l114 -213q-27 17 -76 23q-40 8 -73 8q-220 0 -338 -398l-21 -63h156v-178h-209l-102 -387q40 4 75 4q117 0 185 -13q83 -15 110.5 -18.5t71.5 -3.5q129 0 203 45v-195 q-110 -36 -205 -36q-72 0 -225 26q-53 8 -150 8q-176 0 -315 -34z" />
<glyph unicode="&#xa4;" horiz-adv-x="1130" d="M74 328l139 135q-72 113 -72 235q0 123 72 236l-139 137l114 119l140 -141q105 73 237 73q129 0 238 -73l139 141l115 -119l-139 -137q71 -112 71 -236q0 -123 -71 -235l139 -135l-115 -119l-139 139q-110 -74 -238 -74q-131 0 -237 74l-140 -139zM305 698 q0 -107 76 -183.5t182 -76.5q107 0 183.5 76.5t76.5 183.5t-76.5 183.5t-183.5 76.5q-106 0 -182 -76.5t-76 -183.5z" />
<glyph unicode="&#xa5;" horiz-adv-x="1130" d="M-2 1466h201l288 -516q50 -89 76 -153q14 33 82 161l275 508h213l-404 -710h340v-144h-412v-149h412v-144h-412v-319h-180v319h-416v144h416v149h-416v144h342z" />
<glyph unicode="&#xa6;" horiz-adv-x="532" d="M188 291h156v-766h-156v766zM188 633v764h156v-764h-156z" />
<glyph unicode="&#xa7;" horiz-adv-x="831" d="M66 618q0 56 15 105t42 87t41.5 54t36.5 37q-58 97 -58 197q0 33 8.5 71.5t31 83t55.5 80t89 59t126 23.5q39 0 79 -9t78 -28t62 -54.5t24 -82.5q0 -53 -31 -83t-75 -30q-42 0 -62 28t-20 58l2 27q0 15 -15.5 29t-48.5 14q-55 0 -96 -33.5t-41 -105.5q0 -129 180 -299 q96 -89 133.5 -129.5t73.5 -100.5q70 -115 70 -233q0 -100 -40 -172.5t-112 -144.5q72 -104 72 -226q0 -127 -89 -219t-226 -92q-104 0 -173 50t-69 132q0 48 30.5 87.5t82.5 39.5q40 0 69 -25.5t29 -72.5q0 -3 -3 -21.5t-3 -21.5q0 -16 14.5 -26.5t32.5 -10.5 q55 0 101 41.5t46 108.5q0 27 -7.5 55t-27.5 60.5t-34.5 54t-48 58.5t-46.5 51t-51 54q-44 45 -69.5 72.5t-64 78.5t-59.5 95t-37.5 104.5t-16.5 124.5zM221 633q0 -44 14 -84.5t48 -87t62 -79t85 -91.5l100 -107q23 23 49.5 71.5t26.5 100.5q0 75 -44 142t-177 194l-98 94 q-23 -27 -32.5 -40.5t-21.5 -45t-12 -67.5z" />
<glyph unicode="&#xa8;" horiz-adv-x="681" d="M55 1192q0 38 28.5 66t66.5 28t66 -28t28 -66t-28 -66t-66 -28t-66.5 28t-28.5 66zM440 1192q0 38 28.5 66t66.5 28t66 -28t28 -66t-28 -66t-66 -28t-66.5 28t-28.5 66z" />
<glyph unicode="&#xa9;" horiz-adv-x="1515" d="M2 662q0 206 102 379.5t276 273.5t378 100q153 0 292 -59.5t240 -160t161 -240t60 -293.5q0 -205 -100.5 -379t-274 -275.5t-378.5 -101.5q-154 0 -294 60t-241 161t-161 241t-60 294zM129 662q0 -128 49.5 -245t134 -201.5t201 -134.5t244.5 -50q127 0 243.5 50 t200.5 134.5t134 201.5t50 245q0 129 -50 245.5t-134.5 200t-200.5 133t-243 49.5q-170 0 -314.5 -83.5t-229.5 -228t-85 -316.5zM362 659q0 197 107.5 310.5t296.5 113.5q123 0 215 -58.5t127 -176.5l-119 -29q-23 58 -63 94q-67 60 -164 60q-69 0 -121.5 -28t-82 -75 t-44 -101.5t-14.5 -113.5q0 -152 70.5 -230.5t181.5 -78.5q20 0 42.5 3.5t55 15.5t59.5 31.5t52.5 56.5t37.5 86l123 -37q-22 -94 -81 -157.5t-130 -89.5t-153 -26q-176 0 -286 114.5t-110 315.5z" />
<glyph unicode="&#xaa;" horiz-adv-x="575" d="M31 981q0 32 16.5 60t37 45t54.5 33t53.5 22.5t49.5 15.5l92 27v26q0 17 -2 28t-9.5 27.5t-28 25.5t-52.5 9q-33 0 -63 -9t-58.5 -30t-41 -31.5t-38.5 -35.5v141q109 80 217 80q48 0 99.5 -19t78.5 -53q17 -20 26 -49.5t10 -50.5t1 -59v-211q0 -24 2 -32.5t12 -8.5 q11 0 72 41v-88q-27 -17 -42 -25t-39 -15t-50 -7q-71 0 -94 47q-70 -47 -154 -47q-64 0 -106.5 43t-42.5 100zM172 997q0 -30 19 -49.5t53 -19.5q7 0 14.5 1t13 2t13 4.5t11 5t11 6t9 5.5l10.5 7l8 6v147l-64 -22q-57 -21 -77.5 -41.5t-20.5 -51.5z" />
<glyph unicode="&#xab;" horiz-adv-x="1003" d="M57 461l303 459h181l-303 -459l303 -461h-181zM475 461l301 459h180l-303 -459l303 -461h-180z" />
<glyph unicode="&#xac;" horiz-adv-x="1193" d="M113 838v168h968v-615h-168v447h-800z" />
<glyph unicode="&#xad;" horiz-adv-x="661" d="M82 356v195h498v-195h-498z" />
<glyph unicode="&#xae;" horiz-adv-x="1515" d="M2 662q0 206 102 379.5t276 273.5t378 100q153 0 292 -59.5t240 -160t161 -240t60 -293.5q0 -205 -100.5 -379t-274 -275.5t-378.5 -101.5q-154 0 -294 60t-241 161t-161 241t-60 294zM129 662q0 -128 49.5 -245t134 -201.5t201 -134.5t244.5 -50q127 0 243.5 50 t200.5 134.5t134 201.5t50 245q0 129 -50 245.5t-134.5 200t-200.5 133t-243 49.5q-170 0 -314.5 -83.5t-229.5 -228t-85 -316.5zM426 244v811h281q61 0 98 -2t87.5 -15t82.5 -39q78 -68 78 -163q0 -36 -13 -72.5t-39.5 -71t-73 -58.5t-106.5 -28q42 -16 81.5 -55 t107.5 -150l98 -157h-160l-71 129q-75 133 -120 174t-122 41h-78v-344h-131zM557 700h160q27 0 44.5 1t49.5 7.5t51.5 18.5t35 37t15.5 61q0 25 -7.5 44t-18.5 31.5t-30.5 21t-34.5 13t-40 6.5t-38 2.5t-37 0.5h-150v-244z" />
<glyph unicode="&#xaf;" horiz-adv-x="681" d="M2 1116v150h678v-150h-678z" />
<glyph unicode="&#xb0;" horiz-adv-x="811" d="M127 1139q0 115 81.5 195.5t197.5 80.5t196 -80.5t80 -195.5q0 -117 -81 -198t-195 -81q-115 0 -197 81.5t-82 197.5zM236 1139q0 -70 50.5 -120t119.5 -50t118 50t49 120q0 69 -49 118.5t-118 49.5q-70 0 -120 -49.5t-50 -118.5z" />
<glyph unicode="&#xb1;" horiz-adv-x="1193" d="M113 -25v168h968v-168h-968zM113 637v168h401v401h168v-401h399v-168h-399v-399h-168v399h-401z" />
<glyph unicode="&#xb2;" horiz-adv-x="661" d="M57 559v14q140 140 254 285q53 66 71.5 110t18.5 87q0 47 -24 77t-51 39t-56 9q-104 0 -194 -119v160q93 73 209 73q113 0 186.5 -64t73.5 -163q0 -49 -18.5 -98t-60.5 -105t-74 -92t-95 -102h307v-111h-547z" />
<glyph unicode="&#xb3;" horiz-adv-x="661" d="M94 594v129q102 -59 193 -59q13 0 27.5 2.5t38 11.5t38.5 32t15 58q0 25 -7 44t-22 30.5t-29 19t-38 11.5t-37.5 5.5t-39.5 2.5v106q25 0 41.5 1t42.5 6t42 15.5t28 31t12 49.5q0 39 -31.5 68.5t-97.5 29.5q-31 0 -62 -7t-45.5 -13t-47.5 -21v113q71 34 168 34 q48 0 91.5 -10.5t81.5 -32t60.5 -61.5t22.5 -94q0 -104 -97 -154q38 -14 63.5 -39.5t34 -55t11 -44.5t2.5 -31q0 -98 -77.5 -160.5t-188.5 -62.5q-87 0 -193 45z" />
<glyph unicode="&#xb4;" horiz-adv-x="681" d="M209 1036l135 301h203l-225 -301h-113z" />
<glyph unicode="&#xb5;" horiz-adv-x="1130" d="M166 -469v1389h180v-668q18 -23 32.5 -37.5t41.5 -37t61.5 -34.5t73.5 -12q16 0 37.5 4t53 18.5t56 38t42 67.5t16.5 101v560h182v-641l-2 -56q3 -30 17.5 -44.5t35.5 -14.5q42 0 94 31v-144q-154 -69 -237 -69q-29 0 -48 9t-27.5 26t-11 30.5t-3.5 32.5 q-23 -23 -36.5 -35t-39.5 -30t-55 -26.5t-62 -8.5q-35 0 -63.5 8t-57.5 30t-46.5 38.5t-53.5 54.5v-580h-180z" />
<glyph unicode="&#xb6;" horiz-adv-x="1110" d="M2 975q0 125 56 226.5t165 148.5q49 22 99.5 33t78 12.5t72.5 1.5h633v-172h-143v-1700h-166v1700h-224v-1700h-167v1044q-100 5 -179 40.5t-127 92t-73 126t-25 147.5z" />
<glyph unicode="&#xb7;" horiz-adv-x="532" d="M156 707q0 47 32.5 79.5t77.5 32.5q46 0 78.5 -33t32.5 -79t-32.5 -78.5t-78.5 -32.5t-78 32.5t-32 78.5z" />
<glyph unicode="&#xb8;" horiz-adv-x="681" d="M207 -231q56 -5 63 -5q22 0 44.5 4t43.5 17.5t21 34.5q0 23 -16.5 37t-40 16t-39 2t-23.5 -2l51 143h117l-14 -49q62 -15 87 -55t25 -80q0 -42 -24 -82.5t-56 -62.5q-55 -37 -174 -37q-44 0 -65 6v113z" />
<glyph unicode="&#xb9;" horiz-adv-x="661" d="M260 559v727h141v-727h-141z" />
<glyph unicode="&#xba;" horiz-adv-x="747" d="M47 1126q0 122 91 205.5t235 83.5q146 0 236.5 -83.5t90.5 -205.5q0 -121 -91 -203.5t-236 -82.5q-144 0 -235 82.5t-91 203.5zM190 1128q0 -50 18.5 -86.5t48.5 -55t59 -26.5t59 -8q29 0 58 8t59 26.5t48.5 55t18.5 86.5t-18.5 87t-48 56t-59 27.5t-58.5 8.5 q-30 0 -60 -8.5t-59 -27.5t-47.5 -56t-18.5 -87z" />
<glyph unicode="&#xbb;" horiz-adv-x="1003" d="M47 0l303 459l-303 461h178l303 -461l-303 -459h-178zM463 0l303 459l-303 461h178l303 -461l-303 -459h-178z" />
<glyph unicode="&#xbc;" horiz-adv-x="1728" d="M258 680v727h141v-727h-141zM354 -55l930 1470h139l-931 -1470h-138zM1100 236v51l420 450h67v-401h92v-100h-92v-236h-139v236h-348zM1288 336h160v172z" />
<glyph unicode="&#xbd;" horiz-adv-x="1728" d="M258 680v727h141v-727h-141zM293 -55l932 1470h137l-932 -1470h-137zM1126 0v14q140 140 254 285q53 67 71.5 111t18.5 86q0 47 -24 77.5t-51.5 40t-55.5 9.5q-33 0 -62.5 -10t-55.5 -32t-40 -36.5t-38 -42.5v162q105 73 211 73q114 0 187 -64t73 -163q0 -49 -18.5 -98 t-60 -104t-75.5 -93t-98 -104h311v-111h-547z" />
<glyph unicode="&#xbe;" horiz-adv-x="1728" d="M92 715v129q103 -60 193 -60q9 0 19.5 1t29.5 7t33 16.5t25 31.5t11 49q0 25 -7 44t-22 30.5t-28.5 19t-38 11t-37.5 5t-39 2.5v107q26 0 41 0.5t42 6t42.5 15.5t28 30.5t12.5 49.5q0 39 -31.5 69t-97.5 30q-67 0 -155 -41v112q73 35 168 35q48 0 91.5 -10.5t81.5 -32 t60.5 -61.5t22.5 -94q0 -104 -97 -154q42 -15 68.5 -47t34.5 -62t8 -61q0 -98 -77.5 -160.5t-188.5 -62.5q-87 0 -193 45zM330 -55l930 1470h139l-932 -1470h-137zM1100 236v51l420 450h67v-401h92v-100h-92v-236h-139v236h-348zM1288 336h160v172z" />
<glyph unicode="&#xbf;" horiz-adv-x="681" d="M133 -94q0 57 12.5 111t41 112t53 99t69.5 110q22 32 47.5 73.5t55.5 107.5t30 104q0 21 -6 45q21 -11 31 -16.5t31.5 -23t32.5 -35t20.5 -49t9.5 -69.5q0 -72 -28 -133t-109 -188q-45 -74 -64.5 -125t-19.5 -101q0 -41 15.5 -70t39.5 -42t44.5 -18t39.5 -5q41 0 115 33 l-133 -217q-114 0 -185 43q-75 42 -109 112.5t-34 141.5zM287 922q0 52 38 86t87 34q50 0 86.5 -32.5t36.5 -87.5t-37.5 -90t-85.5 -35q-46 0 -85.5 33t-39.5 92z" />
<glyph unicode="&#xc0;" horiz-adv-x="1366" d="M0 0l600 1405h141l625 -1405h-205l-186 412h-594l-176 -412h-205zM395 1800h293l150 -307h-107zM459 592h434l-225 506z" />
<glyph unicode="&#xc1;" horiz-adv-x="1366" d="M0 0l600 1405h141l625 -1405h-205l-186 412h-594l-176 -412h-205zM459 592h434l-225 506zM535 1493l149 307h293l-336 -307h-106z" />
<glyph unicode="&#xc2;" horiz-adv-x="1366" d="M0 0l600 1405h141l625 -1405h-205l-186 412h-594l-176 -412h-205zM344 1493l193 322h290l197 -322h-127l-213 195l-215 -195h-125zM459 592h434l-225 506z" />
<glyph unicode="&#xc3;" horiz-adv-x="1366" d="M0 0l600 1405h141l625 -1405h-205l-186 412h-594l-176 -412h-205zM348 1493q13 116 70 182t137 66q40 0 73 -12t115 -52q81 -37 103 -37q56 0 69 101h107q-7 -115 -64.5 -181.5t-134.5 -66.5q-36 0 -65.5 10.5t-136.5 57.5q-71 32 -97 32q-14 0 -24.5 -6.5t-16.5 -13.5 t-12 -24t-8.5 -25.5t-7.5 -30.5h-107zM459 592h434l-225 506z" />
<glyph unicode="&#xc4;" horiz-adv-x="1366" d="M0 0l600 1405h141l625 -1405h-205l-186 412h-594l-176 -412h-205zM365 1653q0 44 32 76t76 32t76.5 -32t32.5 -76t-32.5 -76.5t-76.5 -32.5t-76 32.5t-32 76.5zM459 592h434l-225 506zM786 1653q0 44 32.5 76t76.5 32t76.5 -32t32.5 -76t-32.5 -76.5t-76.5 -32.5 t-76.5 32.5t-32.5 76.5z" />
<glyph unicode="&#xc5;" horiz-adv-x="1366" d="M0 0l600 1405h141l625 -1405h-205l-186 412h-594l-176 -412h-205zM459 592h434l-225 506zM477 1700q0 86 60.5 146.5t146.5 60.5q92 0 149.5 -65t57.5 -142q0 -83 -57.5 -145t-149.5 -62q-91 0 -149 62t-58 145zM571 1700q0 -46 33.5 -79.5t79.5 -33.5t79.5 33.5 t33.5 79.5t-33.5 79t-79.5 33t-79.5 -33t-33.5 -79z" />
<glyph unicode="&#xc6;" horiz-adv-x="1867" d="M4 0l827 1397h912v-178h-574v-422h555v-181h-555v-436h596v-180h-796v616h-381l-365 -616h-219zM692 797h277v465z" />
<glyph unicode="&#xc7;" horiz-adv-x="1449" d="M98 700q0 109 33.5 213.5t100 195t157 159t212 108t257.5 39.5q98 0 197 -21t152 -41t136 -55v-215q-47 26 -78 40.5t-100 43t-144 43.5t-151 15q-162 0 -291 -69.5t-200.5 -191t-71.5 -270.5q0 -156 76.5 -279t200.5 -187t270 -64q251 0 504 158v-213 q-89 -54 -212.5 -91.5t-250.5 -40.5q72 -11 114 -51.5t42 -105.5q0 -68 -54 -118.5t-128.5 -73.5t-153.5 -23q-55 0 -133 8v129q20 -4 104 -4q156 0 156 65q0 24 -21 39.5t-48.5 18.5t-55 5t-39.5 -1l51 135q-143 15 -264 81t-200 163t-123 215.5t-44 240.5z" />
<glyph unicode="&#xc8;" horiz-adv-x="1067" d="M154 0v1397h792v-178h-592v-426h572v-179h-572v-434h611v-180h-811zM256 1800h293l149 -307h-106z" />
<glyph unicode="&#xc9;" horiz-adv-x="1067" d="M154 0v1397h792v-178h-592v-426h572v-179h-572v-434h611v-180h-811zM446 1493l150 307h293l-336 -307h-107z" />
<glyph unicode="&#xca;" horiz-adv-x="1067" d="M154 0v1397h792v-178h-592v-426h572v-179h-572v-434h611v-180h-811zM205 1493l192 322h291l197 -322h-127l-213 195l-215 -195h-125z" />
<glyph unicode="&#xcb;" horiz-adv-x="1067" d="M154 0v1397h792v-178h-592v-426h572v-179h-572v-434h611v-180h-811zM225 1653q0 44 32.5 76t76.5 32t76 -32t32 -76t-32 -76.5t-76 -32.5t-76.5 32.5t-32.5 76.5zM647 1653q0 44 32.5 76t76.5 32t76 -32t32 -76t-32 -76.5t-76 -32.5t-76.5 32.5t-32.5 76.5z" />
<glyph unicode="&#xcc;" horiz-adv-x="512" d="M-31 1800h293l150 -307h-107zM156 0v1397h200v-1397h-200z" />
<glyph unicode="&#xcd;" horiz-adv-x="512" d="M109 1493l149 307h293l-336 -307h-106zM156 0v1397h200v-1397h-200z" />
<glyph unicode="&#xce;" horiz-adv-x="512" d="M-82 1493l193 322h290l197 -322h-127l-213 195l-215 -195h-125zM156 0v1397h200v-1397h-200z" />
<glyph unicode="&#xcf;" horiz-adv-x="512" d="M-61 1653q0 44 32 76t76 32t76.5 -32t32.5 -76t-32.5 -76.5t-76.5 -32.5t-76 32.5t-32 76.5zM156 0v1397h200v-1397h-200zM360 1653q0 44 32.5 76t76.5 32t76.5 -32t32.5 -76t-32.5 -76.5t-76.5 -32.5t-76.5 32.5t-32.5 76.5z" />
<glyph unicode="&#xd0;" horiz-adv-x="1536" d="M-8 633v131h164v633h471q70 0 118 -3t129 -15t156.5 -44t140.5 -82q122 -93 195.5 -237.5t73.5 -317.5q0 -100 -27.5 -192.5t-65 -154.5t-88.5 -117t-86 -82t-69 -48q-60 -37 -126.5 -60t-140.5 -31.5t-119 -10.5t-120 -2h-442v633h-164zM354 180h258q255 0 387 80 q107 67 170.5 187.5t63.5 261.5q0 67 -16 131t-49 126t-91 114.5t-135 86.5q-54 24 -113 36t-101.5 14t-121.5 2h-252v-455h398v-131h-398v-453z" />
<glyph unicode="&#xd1;" horiz-adv-x="1599" d="M160 0v1397h162l942 -1084v1084h190v-1397h-172l-934 1075v-1075h-188zM465 1493q13 116 70 182t137 66q40 0 73 -12t115 -52q81 -37 103 -37q56 0 69 101h107q-7 -115 -64.5 -181.5t-134.5 -66.5q-37 0 -67 10.5t-136 57.5q-76 30 -96 32q-17 0 -29 -7.5t-20 -24.5 t-11.5 -29.5t-9.5 -38.5h-106z" />
<glyph unicode="&#xd2;" horiz-adv-x="1685" d="M92 694q0 140 50.5 269t143.5 230t237 161.5t317 60.5q169 0 313 -59t239 -158t148 -228t53 -270q0 -149 -55.5 -281t-154.5 -228.5t-242.5 -152.5t-311.5 -56q-161 0 -299.5 56.5t-234 153t-149.5 227t-54 275.5zM299 694q0 -154 75 -275.5t198 -186t270 -64.5 q114 0 225 44.5t182 121.5q64 70 102 172.5t38 195.5q0 71 -20.5 143.5t-65 141t-107 122t-153 86t-195.5 32.5q-95 0 -176.5 -23t-140 -63.5t-104 -92.5t-73 -112.5t-41.5 -121t-14 -120.5zM575 1800h293l150 -307h-107z" />
<glyph unicode="&#xd3;" horiz-adv-x="1685" d="M92 694q0 140 50.5 269t143.5 230t237 161.5t317 60.5q169 0 313 -59t239 -158t148 -228t53 -270q0 -149 -55.5 -281t-154.5 -228.5t-242.5 -152.5t-311.5 -56q-161 0 -299.5 56.5t-234 153t-149.5 227t-54 275.5zM299 694q0 -154 75 -275.5t198 -186t270 -64.5 q114 0 225 44.5t182 121.5q64 70 102 172.5t38 195.5q0 71 -20.5 143.5t-65 141t-107 122t-153 86t-195.5 32.5q-95 0 -176.5 -23t-140 -63.5t-104 -92.5t-73 -112.5t-41.5 -121t-14 -120.5zM694 1493l150 307h293l-336 -307h-107z" />
<glyph unicode="&#xd4;" horiz-adv-x="1685" d="M92 694q0 140 50.5 269t143.5 230t237 161.5t317 60.5q169 0 313 -59t239 -158t148 -228t53 -270q0 -149 -55.5 -281t-154.5 -228.5t-242.5 -152.5t-311.5 -56q-161 0 -299.5 56.5t-234 153t-149.5 227t-54 275.5zM299 694q0 -154 75 -275.5t198 -186t270 -64.5 q114 0 225 44.5t182 121.5q64 70 102 172.5t38 195.5q0 71 -20.5 143.5t-65 141t-107 122t-153 86t-195.5 32.5q-95 0 -176.5 -23t-140 -63.5t-104 -92.5t-73 -112.5t-41.5 -121t-14 -120.5zM504 1493l192 322h291l197 -322h-127l-213 195l-215 -195h-125z" />
<glyph unicode="&#xd5;" horiz-adv-x="1685" d="M92 694q0 140 50.5 269t143.5 230t237 161.5t317 60.5q169 0 313 -59t239 -158t148 -228t53 -270q0 -149 -55.5 -281t-154.5 -228.5t-242.5 -152.5t-311.5 -56q-161 0 -299.5 56.5t-234 153t-149.5 227t-54 275.5zM299 694q0 -154 75 -275.5t198 -186t270 -64.5 q114 0 225 44.5t182 121.5q64 70 102 172.5t38 195.5q0 71 -20.5 143.5t-65 141t-107 122t-153 86t-195.5 32.5q-95 0 -176.5 -23t-140 -63.5t-104 -92.5t-73 -112.5t-41.5 -121t-14 -120.5zM508 1493q13 116 70 182t137 66q40 0 73 -12t115 -52q81 -37 103 -37q56 0 69 101 h107q-7 -115 -64.5 -181.5t-134.5 -66.5q-37 0 -67 10.5t-136 57.5q-76 30 -96 32q-17 0 -29 -7.5t-20 -24.5t-11.5 -29.5t-9.5 -38.5h-106z" />
<glyph unicode="&#xd6;" horiz-adv-x="1685" d="M92 694q0 140 50.5 269t143.5 230t237 161.5t317 60.5q169 0 313 -59t239 -158t148 -228t53 -270q0 -149 -55.5 -281t-154.5 -228.5t-242.5 -152.5t-311.5 -56q-161 0 -299.5 56.5t-234 153t-149.5 227t-54 275.5zM299 694q0 -154 75 -275.5t198 -186t270 -64.5 q114 0 225 44.5t182 121.5q64 70 102 172.5t38 195.5q0 71 -20.5 143.5t-65 141t-107 122t-153 86t-195.5 32.5q-95 0 -176.5 -23t-140 -63.5t-104 -92.5t-73 -112.5t-41.5 -121t-14 -120.5zM524 1653q0 44 32.5 76t76.5 32t76 -32t32 -76t-32 -76.5t-76 -32.5t-76.5 32.5 t-32.5 76.5zM946 1653q0 44 32.5 76t76.5 32t76 -32t32 -76t-32 -76.5t-76 -32.5t-76.5 32.5t-32.5 76.5z" />
<glyph unicode="&#xd7;" horiz-adv-x="1193" d="M162 385l315 313l-315 314l121 123l315 -314l313 314l121 -123l-313 -314l313 -313l-121 -123l-313 316l-315 -316z" />
<glyph unicode="&#xd8;" horiz-adv-x="1685" d="M92 692q0 145 53 275.5t148 230t238 158.5t313 59q100 0 192.5 -22t138 -42.5t101.5 -52.5l98 121l94 -82l-94 -114q93 -83 156 -218t63 -303q0 -150 -55.5 -282.5t-153.5 -229t-238 -152.5t-302 -56q-260 0 -434 118l-101 -108l-96 67l96 119q-96 88 -156.5 222.5 t-60.5 291.5zM299 700q0 -142 63 -262q29 -54 80 -110l703 821q-135 80 -299 80q-131 0 -237.5 -46.5t-172.5 -123t-101.5 -169.5t-35.5 -190zM539 252q143 -82 303 -82q162 0 287.5 73t191 194t65.5 268q0 97 -37.5 195.5t-109.5 170.5z" />
<glyph unicode="&#xd9;" horiz-adv-x="1449" d="M125 604v793h201v-793q0 -141 17.5 -208t70.5 -120q112 -116 313 -116q79 0 144.5 18.5t107.5 49t66.5 58.5t41.5 58q39 71 39 260v793h199v-793q0 -56 -1 -89t-9 -93t-23.5 -103t-47.5 -94.5t-77 -91.5q-170 -151 -440 -151q-162 0 -304 59.5t-220 183.5 q-36 56 -54.5 136t-21 126.5t-2.5 116.5zM438 1800h293l150 -307h-107z" />
<glyph unicode="&#xda;" horiz-adv-x="1449" d="M125 604v793h201v-793q0 -141 17.5 -208t70.5 -120q112 -116 313 -116q79 0 144.5 18.5t107.5 49t66.5 58.5t41.5 58q39 71 39 260v793h199v-793q0 -56 -1 -89t-9 -93t-23.5 -103t-47.5 -94.5t-77 -91.5q-170 -151 -440 -151q-162 0 -304 59.5t-220 183.5 q-36 56 -54.5 136t-21 126.5t-2.5 116.5zM578 1493l149 307h293l-336 -307h-106z" />
<glyph unicode="&#xdb;" horiz-adv-x="1449" d="M125 604v793h201v-793q0 -141 17.5 -208t70.5 -120q112 -116 313 -116q79 0 144.5 18.5t107.5 49t66.5 58.5t41.5 58q39 71 39 260v793h199v-793q0 -56 -1 -89t-9 -93t-23.5 -103t-47.5 -94.5t-77 -91.5q-170 -151 -440 -151q-162 0 -304 59.5t-220 183.5 q-36 56 -54.5 136t-21 126.5t-2.5 116.5zM387 1493l193 322h290l197 -322h-127l-213 195l-215 -195h-125z" />
<glyph unicode="&#xdc;" horiz-adv-x="1449" d="M125 604v793h201v-793q0 -141 17.5 -208t70.5 -120q112 -116 313 -116q79 0 144.5 18.5t107.5 49t66.5 58.5t41.5 58q39 71 39 260v793h199v-793q0 -56 -1 -89t-9 -93t-23.5 -103t-47.5 -94.5t-77 -91.5q-170 -151 -440 -151q-162 0 -304 59.5t-220 183.5 q-36 56 -54.5 136t-21 126.5t-2.5 116.5zM408 1653q0 44 32 76t76 32t76.5 -32t32.5 -76t-32.5 -76.5t-76.5 -32.5t-76 32.5t-32 76.5zM829 1653q0 44 32.5 76t76.5 32t76.5 -32t32.5 -76t-32.5 -76.5t-76.5 -32.5t-76.5 32.5t-32.5 76.5z" />
<glyph unicode="&#xdd;" horiz-adv-x="1236" d="M0 1397h242l374 -482l379 482h242l-516 -658v-739h-205v739zM532 1493l150 307h293l-336 -307h-107z" />
<glyph unicode="&#xde;" horiz-adv-x="1044" d="M143 0v1397h201v-303h160q65 0 97 -1t84 -7t84.5 -18t72 -35t73.5 -58q109 -113 109 -279q0 -168 -117 -280q-66 -63 -159 -88t-256 -25h-148v-303h-201zM344 481h160q54 0 82.5 1t69.5 10t69 26q92 55 92 184q0 97 -61 156q-43 41 -91.5 50.5t-168.5 9.5h-152v-437z" />
<glyph unicode="&#xdf;" d="M121 0v920q0 58 1 90.5t8.5 92.5t21 96t42 82t68.5 71.5t103 44t143 18.5q92 0 163.5 -23t113 -58t68 -82t35.5 -88t9 -83q0 -31 -6 -64.5t-24 -82t-62 -93t-109 -71.5q92 -24 152.5 -84.5t84 -131.5t23.5 -153q0 -77 -21.5 -149.5t-63.5 -133.5t-112.5 -98.5 t-158.5 -37.5q-73 0 -143 18v178q51 -22 100 -22q60 0 104 25t67 65.5t33.5 82.5t10.5 85q0 54 -13.5 97t-31.5 70t-49 47t-54 29t-58.5 15t-50.5 6.5t-42 1.5v166q57 0 82 4q51 8 86.5 35t50 63t20 62t5.5 49q0 96 -60.5 155.5t-150.5 59.5q-30 0 -61.5 -8t-67 -34 t-53.5 -67q-14 -36 -17.5 -85.5t-3.5 -159.5v-920h-182z" />
<glyph unicode="&#xe0;" horiz-adv-x="874" d="M61 207q0 51 20.5 94t42 68t75 53.5t77 38t89.5 33.5q7 3 10 4l162 57v49q0 85 -40.5 123.5t-125.5 38.5q-162 0 -291 -152v199q107 125 305 125q148 0 241 -76.5t93 -226.5v-473q0 -47 35 -47q31 0 96 49v-111q-65 -42 -99.5 -56.5t-76.5 -14.5q-60 0 -93.5 22.5 t-45.5 71.5q-119 -94 -248 -94q-99 0 -162.5 66.5t-63.5 158.5zM186 1337h205l137 -301h-112zM246 240q0 -57 37 -93t94 -36q82 0 160 75v269q-55 -19 -91 -32.5t-78 -34.5t-65.5 -41t-40 -47.5t-16.5 -59.5z" />
<glyph unicode="&#xe1;" horiz-adv-x="874" d="M61 207q0 51 20.5 94t42 68t75 53.5t77 38t89.5 33.5q7 3 10 4l162 57v49q0 85 -40.5 123.5t-125.5 38.5q-162 0 -291 -152v199q107 125 305 125q148 0 241 -76.5t93 -226.5v-473q0 -47 35 -47q31 0 96 49v-111q-65 -42 -99.5 -56.5t-76.5 -14.5q-60 0 -93.5 22.5 t-45.5 71.5q-119 -94 -248 -94q-99 0 -162.5 66.5t-63.5 158.5zM246 240q0 -57 37 -93t94 -36q82 0 160 75v269q-55 -19 -91 -32.5t-78 -34.5t-65.5 -41t-40 -47.5t-16.5 -59.5zM272 1036l136 301h202l-225 -301h-113z" />
<glyph unicode="&#xe2;" horiz-adv-x="874" d="M61 207q0 51 20.5 94t42 68t75 53.5t77 38t89.5 33.5q7 3 10 4l162 57v49q0 85 -40.5 123.5t-125.5 38.5q-162 0 -291 -152v199q107 125 305 125q148 0 241 -76.5t93 -226.5v-473q0 -47 35 -47q31 0 96 49v-111q-65 -42 -99.5 -56.5t-76.5 -14.5q-60 0 -93.5 22.5 t-45.5 71.5q-119 -94 -248 -94q-99 0 -162.5 66.5t-63.5 158.5zM121 1036l186 310h191l192 -310h-112l-179 176l-170 -176h-108zM246 240q0 -57 37 -93t94 -36q82 0 160 75v269q-55 -19 -91 -32.5t-78 -34.5t-65.5 -41t-40 -47.5t-16.5 -59.5z" />
<glyph unicode="&#xe3;" horiz-adv-x="874" d="M61 207q0 51 20.5 94t42 68t75 53.5t77 38t89.5 33.5q7 3 10 4l162 57v49q0 85 -40.5 123.5t-125.5 38.5q-162 0 -291 -152v199q107 125 305 125q148 0 241 -76.5t93 -226.5v-473q0 -47 35 -47q31 0 96 49v-111q-65 -42 -99.5 -56.5t-76.5 -14.5q-60 0 -93.5 22.5 t-45.5 71.5q-119 -94 -248 -94q-99 0 -162.5 66.5t-63.5 158.5zM104 1073q1 70 17.5 119.5t43 73t51.5 33.5t52 10q54 0 146 -35q13 -5 35 -13q85 -31 104 -32q34 0 51 20t23 60h78q-3 -125 -52.5 -180.5t-107.5 -55.5q-39 0 -75 11.5t-105 41.5q-64 27 -109 27 q-25 0 -44.5 -19t-23.5 -61h-84zM246 240q0 -57 37 -93t94 -36q82 0 160 75v269q-55 -19 -91 -32.5t-78 -34.5t-65.5 -41t-40 -47.5t-16.5 -59.5z" />
<glyph unicode="&#xe4;" horiz-adv-x="874" d="M61 207q0 51 20.5 94t42 68t75 53.5t77 38t89.5 33.5q7 3 10 4l162 57v49q0 85 -40.5 123.5t-125.5 38.5q-162 0 -291 -152v199q107 125 305 125q148 0 241 -76.5t93 -226.5v-473q0 -47 35 -47q31 0 96 49v-111q-65 -42 -99.5 -56.5t-76.5 -14.5q-60 0 -93.5 22.5 t-45.5 71.5q-119 -94 -248 -94q-99 0 -162.5 66.5t-63.5 158.5zM119 1192q0 38 28 66t66 28t66 -28t28 -66t-28 -66t-66 -28t-66 28t-28 66zM246 240q0 -57 37 -93t94 -36q82 0 160 75v269q-55 -19 -91 -32.5t-78 -34.5t-65.5 -41t-40 -47.5t-16.5 -59.5zM504 1192 q0 38 28 66t66 28t66 -28t28 -66t-28 -66t-66 -28t-66 28t-28 66z" />
<glyph unicode="&#xe5;" horiz-adv-x="874" d="M61 207q0 51 20.5 94t42 68t75 53.5t77 38t89.5 33.5q7 3 10 4l162 57v49q0 85 -40.5 123.5t-125.5 38.5q-162 0 -291 -152v199q107 125 305 125q148 0 241 -76.5t93 -226.5v-473q0 -47 35 -47q31 0 96 49v-111q-65 -42 -99.5 -56.5t-76.5 -14.5q-60 0 -93.5 22.5 t-45.5 71.5q-119 -94 -248 -94q-99 0 -162.5 66.5t-63.5 158.5zM215 1225q0 83 58.5 136.5t134.5 53.5q73 0 129.5 -53.5t56.5 -134.5t-56 -136t-135 -55q-77 0 -132.5 55t-55.5 134zM246 240q0 -57 37 -93t94 -36q82 0 160 75v269q-55 -19 -91 -32.5t-78 -34.5t-65.5 -41 t-40 -47.5t-16.5 -59.5zM289 1225q0 -49 33.5 -83t83.5 -34q46 0 80 34t34 81q0 49 -35.5 79.5t-83.5 30.5q-51 0 -81.5 -29.5t-30.5 -78.5z" />
<glyph unicode="&#xe6;" horiz-adv-x="1343" d="M61 217q0 126 129 209q30 19 101 47.5t108 38.5l127 39v29q0 30 -1 47t-9 47.5t-22.5 48t-45.5 31.5t-75 14q-156 0 -291 -152v220q39 28 66.5 45t92.5 37t136 20q82 0 155 -30t121 -89q41 35 67.5 54.5t85 42t120.5 22.5q165 0 257.5 -115.5t92.5 -294.5v-28h-567 q1 -50 5 -83.5t24.5 -89.5t58.5 -98q74 -82 200 -82q132 0 279 111v-178q-46 -31 -78 -48t-96 -33.5t-139 -16.5q-111 0 -194.5 46.5t-115.5 96.5q-179 -143 -344 -143q-121 0 -184.5 69t-63.5 166zM242 252q0 -55 36 -100.5t95 -45.5q25 0 51 8t44 17t58 31v297l-98 -39 q-104 -41 -145 -80t-41 -88zM731 616h363q-6 46 -26 79.5t-40 49t-47 24.5t-38.5 10t-22.5 1t-22 -1t-37 -10t-47 -24.5t-45 -49t-38 -79.5z" />
<glyph unicode="&#xe7;" horiz-adv-x="894" d="M78 453q0 70 16.5 138t53 131.5t89 111t129.5 76t169 28.5q56 0 109.5 -11t83.5 -23t73 -32v-192q-40 25 -64 38.5t-80.5 31.5t-111.5 18q-61 0 -110.5 -20.5t-80.5 -53t-52.5 -75t-30.5 -83t-9 -79.5q0 -130 83 -217.5t230 -87.5q121 0 246 61v-180q-122 -44 -237 -49 l-21 -43q58 -9 92 -37q56 -46 56 -115q0 -11 -3 -26.5t-11.5 -39t-29.5 -46.5t-51 -39q-61 -31 -219 -31q-35 0 -75 4v119q9 1 59.5 2t58.5 2q86 13 86 57q0 62 -155 62l59 131q-116 29 -174 75q-77 62 -127.5 161t-50.5 233z" />
<glyph unicode="&#xe8;" horiz-adv-x="980" d="M82 465q0 213 120.5 343t309.5 130q157 0 262 -99.5t129 -256.5q10 -61 10 -138h-647q2 -53 21 -103t54 -92t92.5 -67.5t129.5 -25.5q182 0 334 112v-178q-34 -22 -58.5 -35.5t-70.5 -33t-104.5 -29.5t-126.5 -10q-89 0 -166 25.5t-152 103.5q-137 142 -137 354zM270 553 h463q-1 20 -3.5 39t-16.5 56t-35.5 63.5t-65.5 47.5t-102 21q-46 0 -93.5 -19.5t-82.5 -58.5q-50 -54 -64 -149zM303 1337h205l137 -301h-113z" />
<glyph unicode="&#xe9;" horiz-adv-x="980" d="M82 465q0 213 120.5 343t309.5 130q157 0 262 -99.5t129 -256.5q10 -61 10 -138h-647q2 -53 21 -103t54 -92t92.5 -67.5t129.5 -25.5q182 0 334 112v-178q-34 -22 -58.5 -35.5t-70.5 -33t-104.5 -29.5t-126.5 -10q-89 0 -166 25.5t-152 103.5q-137 142 -137 354zM270 553 h463q-1 20 -3.5 39t-16.5 56t-35.5 63.5t-65.5 47.5t-102 21q-46 0 -93.5 -19.5t-82.5 -58.5q-50 -54 -64 -149zM389 1036l135 301h203l-225 -301h-113z" />
<glyph unicode="&#xea;" horiz-adv-x="980" d="M82 465q0 213 120.5 343t309.5 130q157 0 262 -99.5t129 -256.5q10 -61 10 -138h-647q2 -53 21 -103t54 -92t92.5 -67.5t129.5 -25.5q182 0 334 112v-178q-34 -22 -58.5 -35.5t-70.5 -33t-104.5 -29.5t-126.5 -10q-89 0 -166 25.5t-152 103.5q-137 142 -137 354z M227 1036l187 310h190l193 -310h-113l-178 176l-170 -176h-109zM270 553h463q-1 20 -3.5 39t-16.5 56t-35.5 63.5t-65.5 47.5t-102 21q-46 0 -93.5 -19.5t-82.5 -58.5q-50 -54 -64 -149z" />
<glyph unicode="&#xeb;" horiz-adv-x="980" d="M82 465q0 213 120.5 343t309.5 130q157 0 262 -99.5t129 -256.5q10 -61 10 -138h-647q2 -53 21 -103t54 -92t92.5 -67.5t129.5 -25.5q182 0 334 112v-178q-34 -22 -58.5 -35.5t-70.5 -33t-104.5 -29.5t-126.5 -10q-89 0 -166 25.5t-152 103.5q-137 142 -137 354z M225 1192q0 38 28 66t66 28t66.5 -28t28.5 -66t-28.5 -66t-66.5 -28t-66 28t-28 66zM270 553h463q-1 20 -3.5 39t-16.5 56t-35.5 63.5t-65.5 47.5t-102 21q-46 0 -93.5 -19.5t-82.5 -58.5q-50 -54 -64 -149zM610 1192q0 38 28.5 66t66.5 28t66 -28t28 -66t-28 -66t-66 -28 t-66.5 28t-28.5 66z" />
<glyph unicode="&#xec;" horiz-adv-x="448" d="M6 1337h205l137 -301h-112zM131 0v920h184v-920h-184z" />
<glyph unicode="&#xed;" horiz-adv-x="448" d="M92 1036l135 301h203l-225 -301h-113zM131 0v920h184v-920h-184z" />
<glyph unicode="&#xee;" horiz-adv-x="448" d="M-59 1036l186 310h190l193 -310h-113l-178 176l-170 -176h-108zM131 0v920h184v-920h-184z" />
<glyph unicode="&#xef;" horiz-adv-x="448" d="M-61 1192q0 38 28 66t66 28t66 -28t28 -66t-28 -66t-66 -28t-66 28t-28 66zM131 0v920h184v-920h-184zM324 1192q0 38 28 66t66 28t66 -28t28 -66t-28 -66t-66 -28t-66 28t-28 66z" />
<glyph unicode="&#xf0;" horiz-adv-x="1153" d="M82 453q0 67 18.5 134t59.5 130.5t98.5 112.5t142 78.5t183.5 29.5q48 0 89 -7.5t64.5 -15.5t59.5 -24q-44 84 -91 138t-137 120l-297 -137l-45 112l215 103q-70 37 -170 59l95 127q81 -24 130.5 -44.5t120.5 -59.5l224 104l49 -110l-154 -76q34 -31 48 -43.5t47.5 -47 t61.5 -72.5t56 -83q127 -214 127 -459q0 -125 -33.5 -222.5t-85.5 -155.5t-122 -96t-135 -52t-132 -14q-113 0 -207.5 41.5t-154 109t-92.5 151t-33 169.5zM258 453q0 -130 91.5 -218t232.5 -88q139 0 227 84t88 232q0 79 -28.5 141t-75.5 98t-101 54t-112 18 q-141 0 -231.5 -95.5t-90.5 -225.5z" />
<glyph unicode="&#xf1;" d="M125 0v920h186v-117q59 66 134 100.5t143 34.5q26 0 55 -5.5t67 -20t74.5 -45.5t63.5 -76q26 -40 38.5 -96t12.5 -171v-524h-184v524q0 86 -7.5 126.5t-41.5 78.5q-51 57 -138 57q-62 0 -118.5 -34t-98.5 -95v-657h-186zM213 1073q1 70 17.5 119.5t43 73t51.5 33.5t52 10 q53 0 145 -35q10 -4 27 -10q94 -34 113 -35q34 0 50.5 19.5t22.5 60.5h78q-3 -125 -52.5 -180.5t-107.5 -55.5q-39 0 -75 11.5t-105 41.5q-64 27 -108 27q-25 0 -44.5 -19t-23.5 -61h-84z" />
<glyph unicode="&#xf2;" horiz-adv-x="1130" d="M74 461q0 130 58.5 237.5t173 173.5t263.5 66q209 0 348.5 -133t139.5 -348q0 -95 -29.5 -175t-79 -134.5t-114 -92.5t-133 -55.5t-138.5 -17.5q-144 0 -256.5 65t-172.5 174t-60 240zM260 459q0 -83 28.5 -146t75 -98t98 -52.5t105.5 -17.5q135 0 219 88t84 228 q0 66 -20 120.5t-51.5 89.5t-73.5 59t-83.5 34t-82.5 10q-128 0 -213.5 -84t-85.5 -231zM369 1337h204l138 -301h-113z" />
<glyph unicode="&#xf3;" horiz-adv-x="1130" d="M74 461q0 130 58.5 237.5t173 173.5t263.5 66q209 0 348.5 -133t139.5 -348q0 -95 -29.5 -175t-79 -134.5t-114 -92.5t-133 -55.5t-138.5 -17.5q-144 0 -256.5 65t-172.5 174t-60 240zM260 459q0 -83 28.5 -146t75 -98t98 -52.5t105.5 -17.5q135 0 219 88t84 228 q0 66 -20 120.5t-51.5 89.5t-73.5 59t-83.5 34t-82.5 10q-128 0 -213.5 -84t-85.5 -231zM434 1036l135 301h203l-225 -301h-113z" />
<glyph unicode="&#xf4;" horiz-adv-x="1130" d="M74 461q0 130 58.5 237.5t173 173.5t263.5 66q209 0 348.5 -133t139.5 -348q0 -95 -29.5 -175t-79 -134.5t-114 -92.5t-133 -55.5t-138.5 -17.5q-144 0 -256.5 65t-172.5 174t-60 240zM260 459q0 -83 28.5 -146t75 -98t98 -52.5t105.5 -17.5q135 0 219 88t84 228 q0 66 -20 120.5t-51.5 89.5t-73.5 59t-83.5 34t-82.5 10q-128 0 -213.5 -84t-85.5 -231zM303 1036l186 310h191l192 -310h-112l-178 176l-170 -176h-109z" />
<glyph unicode="&#xf5;" horiz-adv-x="1130" d="M74 461q0 130 58.5 237.5t173 173.5t263.5 66q209 0 348.5 -133t139.5 -348q0 -95 -29.5 -175t-79 -134.5t-114 -92.5t-133 -55.5t-138.5 -17.5q-144 0 -256.5 65t-172.5 174t-60 240zM260 459q0 -83 28.5 -146t75 -98t98 -52.5t105.5 -17.5q135 0 219 88t84 228 q0 66 -20 120.5t-51.5 89.5t-73.5 59t-83.5 34t-82.5 10q-128 0 -213.5 -84t-85.5 -231zM287 1073q1 70 17.5 119.5t43 73t51.5 33.5t52 10q53 0 145 -35q13 -5 35 -13q85 -31 104 -32q34 0 51 20t23 60h78q-3 -125 -52.5 -180.5t-107.5 -55.5q-39 0 -75 11.5t-105 41.5 q-64 27 -109 27q-25 0 -44 -19t-23 -61h-84z" />
<glyph unicode="&#xf6;" horiz-adv-x="1130" d="M74 461q0 130 58.5 237.5t173 173.5t263.5 66q209 0 348.5 -133t139.5 -348q0 -95 -29.5 -175t-79 -134.5t-114 -92.5t-133 -55.5t-138.5 -17.5q-144 0 -256.5 65t-172.5 174t-60 240zM260 459q0 -83 28.5 -146t75 -98t98 -52.5t105.5 -17.5q135 0 219 88t84 228 q0 66 -20 120.5t-51.5 89.5t-73.5 59t-83.5 34t-82.5 10q-128 0 -213.5 -84t-85.5 -231zM301 1192q0 38 28 66t66 28t66 -28t28 -66t-28 -66t-66 -28t-66 28t-28 66zM686 1192q0 38 28 66t66 28t66 -28t28 -66t-28 -66t-66 -28t-66 28t-28 66z" />
<glyph unicode="&#xf7;" horiz-adv-x="1193" d="M113 614v168h968v-168h-968zM489 399q0 45 32 77t77 32q44 0 76.5 -32.5t32.5 -76.5t-32.5 -76t-76.5 -32q-46 0 -77.5 31.5t-31.5 76.5zM489 997q0 45 32 77t77 32t77 -32t32 -77q0 -44 -32.5 -76t-76.5 -32q-46 0 -77.5 31.5t-31.5 76.5z" />
<glyph unicode="&#xf8;" horiz-adv-x="1130" d="M72 459q0 93 34 179t95 153t155.5 107t206.5 40q163 0 285 -82l94 113l68 -62l-90 -106q23 -26 30 -35t33.5 -48t38.5 -70.5t24.5 -84.5t12.5 -108q0 -204 -142.5 -338.5t-363.5 -134.5q-153 0 -270 75l-115 -133l-68 62l111 129q-139 142 -139 344zM248 453 q0 -118 78 -205l407 477q-81 47 -168 47q-142 0 -229.5 -94.5t-87.5 -224.5zM395 190q72 -51 168 -51q126 0 223 87t97 231q0 52 -14.5 98t-28 66.5t-35.5 48.5z" />
<glyph unicode="&#xf9;" d="M123 395v525h184v-525q0 -30 0.5 -48t4 -49t10.5 -50.5t20.5 -43.5t33 -38t49.5 -23.5t69 -9.5q63 0 120 34.5t99 94.5v658h184v-920h-184v117q-60 -66 -135.5 -100.5t-143.5 -34.5q-26 0 -55 5.5t-67 20t-74.5 45.5t-63.5 76q-26 40 -38.5 95.5t-12.5 170.5zM295 1337 h205l137 -301h-113z" />
<glyph unicode="&#xfa;" d="M123 395v525h184v-525q0 -30 0.5 -48t4 -49t10.5 -50.5t20.5 -43.5t33 -38t49.5 -23.5t69 -9.5q63 0 120 34.5t99 94.5v658h184v-920h-184v117q-60 -66 -135.5 -100.5t-143.5 -34.5q-26 0 -55 5.5t-67 20t-74.5 45.5t-63.5 76q-26 40 -38.5 95.5t-12.5 170.5zM381 1036 l135 301h203l-225 -301h-113z" />
<glyph unicode="&#xfb;" d="M123 395v525h184v-525q0 -30 0.5 -48t4 -49t10.5 -50.5t20.5 -43.5t33 -38t49.5 -23.5t69 -9.5q63 0 120 34.5t99 94.5v658h184v-920h-184v117q-60 -66 -135.5 -100.5t-143.5 -34.5q-26 0 -55 5.5t-67 20t-74.5 45.5t-63.5 76q-26 40 -38.5 95.5t-12.5 170.5zM229 1036 l187 310h190l193 -310h-113l-178 176l-170 -176h-109z" />
<glyph unicode="&#xfc;" d="M123 395v525h184v-525q0 -30 0.5 -48t4 -49t10.5 -50.5t20.5 -43.5t33 -38t49.5 -23.5t69 -9.5q63 0 120 34.5t99 94.5v658h184v-920h-184v117q-60 -66 -135.5 -100.5t-143.5 -34.5q-26 0 -55 5.5t-67 20t-74.5 45.5t-63.5 76q-26 40 -38.5 95.5t-12.5 170.5zM227 1192 q0 38 28.5 66t66.5 28t66 -28t28 -66t-28 -66t-66 -28t-66.5 28t-28.5 66zM612 1192q0 38 28.5 66t66.5 28t66 -28t28 -66t-28 -66t-66 -28t-66.5 28t-28.5 66z" />
<glyph unicode="&#xfd;" horiz-adv-x="894" d="M0 920h207l248 -519l237 519h205l-651 -1391h-203l313 668zM315 1036l136 301h202l-225 -301h-113z" />
<glyph unicode="&#xfe;" d="M117 -471v1868h186v-477h133q27 0 64.5 -2t122.5 -21.5t141 -54.5q58 -37 98.5 -89.5t58.5 -108.5t25.5 -100t7.5 -85q0 -204 -127 -340.5t-329 -136.5q-15 0 -29.5 0.5t-28.5 2.5l-24.5 3.5t-23.5 5t-20.5 5.5t-20 6.5t-17 6t-17 6t-14.5 5.5v-494h-186zM303 184 q84 -43 176 -43q125 0 207 87t82 231q0 60 -14.5 107.5t-35.5 77.5t-54.5 51.5t-60.5 31.5t-65.5 16t-57.5 6.5t-48 0.5h-129v-566z" />
<glyph unicode="&#xff;" horiz-adv-x="894" d="M0 920h207l248 -519l237 519h205l-651 -1391h-203l313 668zM182 1192q0 38 28 66t66 28t66.5 -28t28.5 -66t-28.5 -66t-66.5 -28t-66 28t-28 66zM567 1192q0 38 28.5 66t66.5 28t66 -28t28 -66t-28 -66t-66 -28t-66.5 28t-28.5 66z" />
<glyph unicode="&#x152;" horiz-adv-x="1916" d="M96 692q0 178 78.5 329t245.5 257q66 42 137.5 68.5t149.5 36t124.5 12t122.5 2.5h838v-174h-571v-426h551v-181h-551v-442h594v-174h-861q-197 0 -344.5 39t-281.5 151q-232 199 -232 502zM307 698q0 -102 41.5 -204t126.5 -175q47 -41 103.5 -70.5t101 -43.5t100 -21.5 t82 -8.5t64.5 -1h94v1049h-78q-160 0 -269.5 -31.5t-207.5 -122.5q-87 -80 -122.5 -180t-35.5 -191z" />
<glyph unicode="&#x153;" horiz-adv-x="1705" d="M72 459q0 92 34.5 178t97 153t158 107.5t209.5 40.5q82 0 149.5 -18.5t115 -52.5t73 -59t52.5 -60q48 81 129.5 135.5t187.5 54.5q96 0 178 -49t125 -139q47 -97 53 -250h-577q1 -48 2.5 -71.5t8 -59.5t20.5 -64.5t38 -58.5q77 -96 217 -96t291 114v-184 q-39 -24 -61 -35.5t-65 -29t-93.5 -25.5t-111.5 -8q-60 0 -117 14t-120.5 57t-104.5 111q-72 -89 -178 -135.5t-224 -46.5q-112 0 -206 41t-154 109t-93.5 153t-33.5 174zM262 453q0 -131 90 -213t217 -82q141 0 220 88t79 213q0 129 -85 215t-216 86q-129 0 -217 -86 t-88 -221zM1075 618h375q-7 52 -33 89q-51 73 -145 73q-12 0 -24.5 -1t-39.5 -10t-49.5 -24.5t-46.5 -48.5t-37 -78z" />
<glyph unicode="&#x178;" horiz-adv-x="1236" d="M0 1397h242l374 -482l379 482h242l-516 -658v-739h-205v739zM301 1653q0 44 32.5 76t76.5 32t76 -32t32 -76t-32 -76.5t-76 -32.5t-76.5 32.5t-32.5 76.5zM723 1653q0 44 32 76t76 32t76.5 -32t32.5 -76t-32.5 -76.5t-76.5 -32.5t-76 32.5t-32 76.5z" />
<glyph unicode="&#x2c6;" horiz-adv-x="681" d="M57 1036l187 310h190l193 -310h-113l-178 176l-170 -176h-109z" />
<glyph unicode="&#x2dc;" horiz-adv-x="681" d="M41 1073q1 70 17.5 119.5t43 73t51.5 33.5t52 10q53 0 145 -35q13 -5 35 -13q85 -31 104 -32q34 0 51 20t23 60h78q-3 -125 -52.5 -180.5t-107.5 -55.5q-39 0 -75 11.5t-105 41.5q-64 27 -108 27q-25 0 -44.5 -19t-23.5 -61h-84z" />
<glyph unicode="&#x2000;" horiz-adv-x="953" />
<glyph unicode="&#x2001;" horiz-adv-x="1907" />
<glyph unicode="&#x2002;" horiz-adv-x="953" />
<glyph unicode="&#x2003;" horiz-adv-x="1907" />
<glyph unicode="&#x2004;" horiz-adv-x="635" />
<glyph unicode="&#x2005;" horiz-adv-x="476" />
<glyph unicode="&#x2006;" horiz-adv-x="317" />
<glyph unicode="&#x2007;" horiz-adv-x="317" />
<glyph unicode="&#x2008;" horiz-adv-x="238" />
<glyph unicode="&#x2009;" horiz-adv-x="381" />
<glyph unicode="&#x200a;" horiz-adv-x="105" />
<glyph unicode="&#x2010;" horiz-adv-x="661" d="M82 356v195h498v-195h-498z" />
<glyph unicode="&#x2011;" horiz-adv-x="661" d="M82 356v195h498v-195h-498z" />
<glyph unicode="&#x2012;" horiz-adv-x="661" d="M82 356v195h498v-195h-498z" />
<glyph unicode="&#x2013;" d="M-18 449v129h1060v-129h-1060z" />
<glyph unicode="&#x2014;" horiz-adv-x="2048" d="M-18 453v131h2084v-131h-2084z" />
<glyph unicode="&#x2018;" horiz-adv-x="448" d="M111 1100q0 11 0.5 21.5t5 38t13 51.5t26 56t42 57.5t64 50.5t88.5 40v-37q-48 -47 -65 -93t-19 -114q37 -11 61 -30t32.5 -41.5t11 -34.5t2.5 -25q0 -53 -36.5 -93t-88.5 -40q-63 0 -100 57.5t-37 135.5z" />
<glyph unicode="&#x2019;" horiz-adv-x="448" d="M78 1282q0 54 36 93.5t87 39.5q63 0 101 -56.5t38 -135.5q0 -13 -1.5 -27t-7 -47.5t-21.5 -64.5t-40.5 -65.5t-68.5 -64t-101 -47.5v39q48 46 64.5 91.5t19.5 113.5q-106 33 -106 131z" />
<glyph unicode="&#x201a;" horiz-adv-x="448" d="M78 131q0 53 36.5 93t86.5 40q63 0 101 -57t38 -135q0 -13 -1.5 -27t-7 -47.5t-21.5 -64.5t-40.5 -65.5t-68.5 -64t-101 -47.5v37q48 48 64.5 93.5t19.5 113.5q-106 33 -106 131z" />
<glyph unicode="&#x201c;" horiz-adv-x="874" d="M68 1100q0 11 0.5 21.5t5 38t13 51.5t26 56t42 57.5t64 50.5t88.5 40v-37q-48 -46 -64.5 -91.5t-19.5 -115.5q37 -11 61 -30t32.5 -41.5t11 -34.5t2.5 -25q0 -53 -35.5 -93t-87.5 -40q-63 0 -101 57.5t-38 135.5zM526 1100q0 11 0.5 21.5t5.5 38t13 51.5t26 56t43 57.5 t64.5 50.5t89.5 40v-37q-49 -46 -66 -91.5t-20 -115.5q106 -31 106 -131q0 -54 -35 -93.5t-87 -39.5q-63 0 -101.5 57.5t-38.5 135.5z" />
<glyph unicode="&#x201d;" horiz-adv-x="874" d="M80 1282q0 55 35.5 94t87.5 39q63 0 101 -56.5t38 -135.5q0 -11 -0.5 -21.5t-5.5 -37.5t-13 -51.5t-26 -56.5t-43 -57.5t-64.5 -50.5t-89.5 -41v39q49 46 66 91t20 114q-106 33 -106 131zM539 1282q0 55 35.5 94t87.5 39q63 0 101 -56.5t38 -135.5q0 -13 -1.5 -27 t-7 -47.5t-21.5 -64.5t-40.5 -65.5t-68.5 -64t-101 -47.5v39q48 46 64.5 91.5t19.5 113.5q-106 33 -106 131z" />
<glyph unicode="&#x201e;" horiz-adv-x="917" d="M100 131q0 53 36.5 93t88.5 40q63 0 100 -57t37 -135q0 -17 -1.5 -35t-14 -63t-35 -81.5t-72 -76t-116.5 -60.5v37q48 48 65 94t19 113q-107 33 -107 131zM561 131q0 53 35.5 93t87.5 40q63 0 100 -57t37 -135q0 -17 -1.5 -35t-14 -63t-35 -81.5t-72 -76t-116.5 -60.5v37 q48 48 65 94t19 113q-105 33 -105 131z" />
<glyph unicode="&#x2022;" horiz-adv-x="724" d="M109 698q0 106 74.5 180t178.5 74t179 -75t75 -179q0 -105 -74.5 -179.5t-179.5 -74.5q-103 0 -178 74.5t-75 179.5z" />
<glyph unicode="&#x2026;" horiz-adv-x="2048" d="M217 104q0 51 36 87t87 36t87 -36t36 -87t-36 -86.5t-87 -35.5t-87 35.5t-36 86.5zM901 104q0 51 36 87t87 36t87 -36t36 -87t-36 -86.5t-87 -35.5t-87 35.5t-36 86.5zM1585 104q0 51 36 87t87 36t87 -36t36 -87t-36 -86.5t-87 -35.5t-87 35.5t-36 86.5z" />
<glyph unicode="&#x202f;" horiz-adv-x="381" />
<glyph unicode="&#x2039;" horiz-adv-x="638" d="M74 461l301 459h180l-303 -459l303 -461h-180z" />
<glyph unicode="&#x203a;" horiz-adv-x="638" d="M86 0l303 459l-303 461h178l303 -461l-303 -459h-178z" />
<glyph unicode="&#x205f;" horiz-adv-x="476" />
<glyph unicode="&#x20ac;" horiz-adv-x="1249" d="M57 487l29 156h115q-2 40 2 111h-146l27 155h141q15 66 42.5 131.5t76.5 134.5t112 121t154.5 85.5t196.5 33.5q158 0 350 -67l-39 -191q-57 23 -93.5 36t-99 25.5t-124.5 12.5q-279 0 -375 -322h594l-29 -155h-590q-5 -45 0 -111h570l-29 -156h-516q45 -167 145 -244 t232 -77q62 0 119 14t104 40.5t69.5 42t53.5 40.5v-219q-27 -19 -50.5 -32t-68 -31.5t-104 -28.5t-129.5 -10q-91 0 -169 21.5t-133 55.5t-101.5 82t-74.5 93t-50.5 97t-32.5 86.5t-17 69.5h-162z" />
<glyph unicode="&#x2122;" horiz-adv-x="2048" d="M225 1276v121h666v-121h-264v-692h-135v692h-267zM983 584v813h201l205 -652l198 652h197v-813h-125v682l-209 -682h-123l-219 692v-692h-125z" />
<glyph unicode="&#x25fc;" horiz-adv-x="921" d="M0 0v922h922v-922h-922z" />
</font>
</defs>
</svg>
