<?xml version="1.0" standalone="no"?>
<!DOCTYPE svg PUBLIC "-//W3C//DTD SVG 1.1//EN" "http://www.w3.org/Graphics/SVG/1.1/DTD/svg11.dtd" >
<svg xmlns="http://www.w3.org/2000/svg" xmlns:xlink="http://www.w3.org/1999/xlink" version="1.1">
<metadata></metadata>
<defs>
<font id="gill_sansheavy" horiz-adv-x="1216" >
<font-face units-per-em="2048" ascent="1397" descent="-651" />
<missing-glyph horiz-adv-x="608" />
<glyph unicode="&#xfb01;" horiz-adv-x="1333" d="M14 721v244h166v18q0 60 11.5 115t42 112.5t78 99.5t126 68.5t178.5 26.5q64 0 150 -16v-252q-63 10 -102 10q-58 0 -90.5 -38t-32.5 -108v-36h182v-244h-182v-721h-361v721h-166zM840 0v1018h360v-1018h-360zM868 1253q0 63 44.5 107.5t107.5 44.5t107 -44.5t44 -107.5 t-44 -107t-107 -44t-107.5 44t-44.5 107z" />
<glyph unicode="&#xfb02;" horiz-adv-x="1333" d="M14 721v244h166v18q0 90 25.5 165t77 133t136.5 91t197 33q76 0 150 -16v-252q-63 10 -102 10q-58 0 -90.5 -38t-32.5 -108v-36h182v-244h-182v-721h-361v721h-166zM840 0v1386h360v-1386h-360z" />
<glyph unicode="&#xfb03;" horiz-adv-x="1992" d="M14 721v244h166v18q0 61 12.5 118t44 113.5t79.5 98t125 67t175 25.5q79 0 181 -19v-258q-93 19 -133 19q-58 0 -90.5 -38t-32.5 -108v-36h299v18q0 60 11.5 115t42 112.5t78 99.5t126 68.5t178.5 26.5q63 0 149 -16v-252q-63 10 -102 10q-58 0 -90.5 -38t-32.5 -108v-36 h182v-244h-182v-721h-360v721h-299v-721h-361v721h-166zM1499 0v1018h361v-1018h-361zM1528 1253q0 63 44 107.5t107 44.5t107.5 -44.5t44.5 -107.5t-44.5 -107t-107.5 -44t-107 44t-44 107z" />
<glyph unicode="&#xfb04;" horiz-adv-x="1992" d="M14 721v244h166v18q0 61 12.5 118t44 113.5t79.5 98t125 67t175 25.5q79 0 181 -19v-258q-93 19 -133 19q-58 0 -90.5 -38t-32.5 -108v-36h299v18q0 90 25.5 165t77 133t136.5 91t197 33q75 0 149 -16v-252q-63 10 -102 10q-58 0 -90.5 -38t-32.5 -108v-36h182v-244h-182 v-721h-360v721h-299v-721h-361v721h-166zM1499 0v1386h361v-1386h-361z" />
<glyph horiz-adv-x="0" />
<glyph horiz-adv-x="682" />
<glyph unicode=" "  horiz-adv-x="608" />
<glyph unicode="&#x09;" horiz-adv-x="608" />
<glyph unicode="&#xa0;" horiz-adv-x="608" />
<glyph unicode="!" horiz-adv-x="618" d="M94 197q0 90 64 152.5t153 62.5t151 -63t62 -152t-62 -152t-151 -63q-88 0 -152.5 63t-64.5 152zM94 1098q0 84 21 147t55 96t69.5 48.5t71.5 15.5t71 -15.5t68 -48.5t53.5 -96t20.5 -147q0 -120 -45.5 -313.5t-87.5 -278.5q-13 -26 -29.5 -37t-50.5 -12q-34 1 -50.5 12 t-29.5 37q-43 89 -90 281t-47 311z" />
<glyph unicode="&#x22;" horiz-adv-x="1024" d="M49 1145v241h406v-241l-66 -295h-274zM569 1145v241h406v-241l-64 -295h-276z" />
<glyph unicode="#" horiz-adv-x="1366" d="M74 340v217h200l58 272h-258v218h303l78 372h215l-78 -372h330l77 372h218l-80 -372h155v-218h-200l-58 -272h258v-217h-303l-78 -373h-217l80 373h-330l-77 -373h-217l79 373h-155zM489 557h330l58 272h-330z" />
<glyph unicode="$" horiz-adv-x="1280" d="M106 965q0 40 9.5 81.5t38.5 94.5t75.5 95.5t129.5 77.5t190 48v88h153v-88q111 -15 201.5 -50t198.5 -102v-297q-65 55 -171 114t-229 87v-274q76 -26 134 -51t121 -65t104 -85.5t67.5 -110.5t26.5 -141q0 -63 -24 -125.5t-74 -122t-142 -102.5t-213 -55v-175h-153v175 q-96 11 -211.5 50.5t-212.5 100.5v285q214 -170 424 -197v334q-113 28 -196.5 68t-129.5 80t-73.5 89t-35.5 88t-8 85zM401 1012q0 -14 4.5 -28.5t18 -35t46 -39t79.5 -30.5v249q-61 -3 -104.5 -33t-43.5 -83zM702 219q29 6 49 13t48 22.5t43.5 42t15.5 63.5 q0 54 -35.5 87.5t-120.5 68.5v-297z" />
<glyph unicode="%" horiz-adv-x="1642" d="M104 1063q0 143 100 242.5t242 99.5q143 0 244 -100t101 -242t-101 -243t-244 -101q-142 0 -242 100.5t-100 243.5zM219 -37l1002 1442h202l-999 -1442h-205zM313 1061q0 -55 38.5 -94t94.5 -39t96 39t40 94t-40 95t-96 40q-55 0 -94 -39.5t-39 -95.5zM852 307 q0 143 100 242.5t242 99.5q143 0 243.5 -100t100.5 -242q0 -143 -101 -243.5t-243 -100.5t-242 100.5t-100 243.5zM1061 305q0 -55 38.5 -94t94.5 -39t95.5 39t39.5 94t-39.5 95t-95.5 40q-55 0 -94 -39.5t-39 -95.5z" />
<glyph unicode="&#x26;" horiz-adv-x="1685" d="M94 338q0 105 63 186.5t244 204.5q-80 83 -116.5 152.5t-36.5 148.5q0 156 127 265.5t346 109.5q87 0 161 -22.5t123 -59t84 -82t50.5 -91t15.5 -87.5q0 -107 -72.5 -197.5t-195.5 -152.5l186 -199q50 45 84 90t70 109h334q-58 -110 -137 -218t-162 -182l299 -313h-471 l-89 92q-165 -110 -421 -110q-122 0 -218 30.5t-153 82t-86 113.5t-29 130zM442 375q0 -50 47.5 -100t137.5 -50q102 0 192 62l-244 256q-133 -85 -133 -168zM596 1065q0 -24 18.5 -55t40.5 -55.5t56 -59.5q3 -2 4.5 -3.5t3.5 -4t4 -4.5q154 67 154 172q0 46 -36 83.5 t-108 37.5q-70 0 -103.5 -35t-33.5 -76z" />
<glyph unicode="'" horiz-adv-x="569" d="M82 1145v241h405v-241l-63 -295h-277z" />
<glyph unicode="(" horiz-adv-x="788" d="M76 457q0 106 22.5 209.5t55.5 183.5t84.5 161.5t94 135t101.5 112t89 84.5t73 62h264q-45 -48 -68.5 -74.5t-73 -89t-79 -112t-69 -129.5t-61.5 -156t-38 -176.5t-16 -206.5q0 -143 29.5 -276t63 -218.5t100 -184t98 -135.5t99.5 -111q10 -12 15 -17h-264 q-37 28 -71 56.5t-89 82.5t-100.5 109.5t-95.5 135t-84.5 160.5t-57 184.5t-22.5 209.5z" />
<glyph unicode=")" horiz-adv-x="788" d="M-72 -481q45 49 68.5 75t73.5 89t79 112t69 129t62 156t38 176.5t16 206.5q0 104 -14.5 201t-37 173.5t-56.5 150t-67 127t-74.5 108.5t-72.5 90t-68 75q-11 11 -16 17h265q37 -28 71 -56.5t89 -82.5t100.5 -109.5t95.5 -135t84.5 -160.5t57 -184.5t22.5 -209.5 t-22.5 -209.5t-55.5 -183.5t-84.5 -161.5t-94 -135t-101.5 -112t-89 -84.5t-73 -62h-265z" />
<glyph unicode="*" horiz-adv-x="1153" d="M78 958q0 62 34 145t72 83q22 0 36 -7.5t50 -35.5l224 -172q17 19 41 30l-84 252q-23 70 -23 84q0 68 154 68q145 0 145 -64q0 -11 -4 -26.5t-10 -33.5t-6 -19l-91 -261q24 -10 46 -30l215 166q8 6 19 14.5t15 11.5t10.5 8t9 6t7.5 2.5t8.5 2t9.5 0.5q16 0 27.5 -4.5 t30.5 -29t37 -71.5q24 -64 24 -119q0 -18 -6.5 -30.5t-15 -19t-27.5 -9.5t-32 -3.5t-40 -0.5h-268q-2 -30 -16 -53l215 -152q37 -25 56 -43.5t21.5 -25t2.5 -15.5q0 -49 -84.5 -110.5t-122.5 -61.5q-25 0 -41.5 25.5t-32.5 81.5l-78 252q-1 0 -11.5 -2.5t-16.5 -2.5t-17 2.5 t-12 2.5l-84 -254q-25 -71 -38 -86q-14 -15 -36 -15q-45 0 -126 63t-81 105q0 11 3 18t18.5 22t46.5 36l229 160q-14 33 -16 53l-275 -2q-66 0 -87 13q-25 16 -25 52z" />
<glyph unicode="+" horiz-adv-x="1366" d="M121 569v248h438v438h248v-438h438v-248h-438v-438h-248v438h-438z" />
<glyph unicode="," horiz-adv-x="618" d="M72 203q0 84 61.5 146.5t151.5 62.5q65 0 116 -29t81 -76t45.5 -101t15.5 -110q0 -54 -15.5 -107.5t-51 -108t-88.5 -99t-134.5 -78t-181.5 -47.5v63q166 62 157 287q-157 45 -157 197z" />
<glyph unicode="-" horiz-adv-x="1003" d="M174 348v334h655v-334h-655z" />
<glyph unicode="." horiz-adv-x="575" d="M74 197q0 90 64 152.5t153 62.5t151 -63t62 -152t-62 -152t-151 -63q-88 0 -152.5 63t-64.5 152z" />
<glyph unicode="/" horiz-adv-x="1083" d="M31 -18l753 1423h269l-754 -1423h-268z" />
<glyph unicode="0" d="M68 692q0 181 44 321t120.5 224t171.5 126t204 42q87 0 165 -26t147.5 -82t120 -138t79.5 -202t29 -265q0 -146 -29 -265.5t-79.5 -201t-120 -137t-147.5 -81t-165 -25.5q-109 0 -204 41.5t-171.5 125t-120.5 223t-44 320.5zM463 692q0 -47 0.5 -72t2 -70.5t5.5 -71.5 t10.5 -62.5t17 -57.5t25.5 -42t36.5 -30.5t47.5 -9.5t47.5 9.5t36.5 30t26 42t17.5 57.5t10.5 63t5.5 71.5t2 70.5t0.5 72q0 40 -0.5 64t-2 67.5t-5.5 71.5t-10.5 65.5t-17.5 61t-26 46t-36.5 33.5t-47.5 11t-47.5 -10.5t-36.5 -33.5t-26 -46.5t-17 -61t-10 -65t-5.5 -72 t-2 -67.5t-0.5 -64z" />
<glyph unicode="1" d="M418 0v1386h379v-1386h-379z" />
<glyph unicode="2" d="M84 0v27q103 98 322 358q47 55 75 89t67.5 90.5t61 101t38 101.5t16.5 112q0 97 -55.5 156t-141.5 59q-170 0 -338 -176v327q2 1 31 20t38 24t38.5 22.5t46 24.5t47.5 21t56 20t57.5 14t66 11t68.5 3q197 0 325.5 -116t128.5 -312q0 -32 -3.5 -63.5t-11.5 -61.5 t-15.5 -55t-21 -54t-22 -47t-24.5 -44.5t-22.5 -36.5t-22 -33.5t-17.5 -26.5q-86 -128 -184 -244h449v-311h-1053z" />
<glyph unicode="3" d="M147 82v311q163 -137 318 -137q93 0 146 49.5t53 112.5q0 79 -63 131t-169 53h-45v223h53q54 0 95.5 17t63 43.5t32 52.5t10.5 49q0 63 -49 111.5t-125 48.5q-138 0 -283 -96v266q63 26 106.5 41.5t120.5 31t152 15.5q97 0 178 -26t133 -66t88 -90.5t51 -98t15 -90.5 q0 -92 -56 -179.5t-132 -129.5q29 -16 51.5 -30.5t54.5 -44.5t53 -64t36.5 -87t15.5 -114q0 -88 -30.5 -159t-79 -115t-110.5 -74.5t-121.5 -42.5t-117.5 -12q-107 0 -233.5 29.5t-211.5 70.5z" />
<glyph unicode="4" d="M47 299v264l635 823h297v-849h164v-238h-164v-299h-369v299h-563zM266 537h344v444z" />
<glyph unicode="5" d="M111 115v299q66 -48 181 -97t202 -49q54 0 93 17.5t57.5 45t26 52.5t7.5 49q0 35 -12 65t-40 59t-82.5 45.5t-129.5 16.5q-109 0 -209 -40v808h803v-292h-496v-238q75 6 88 6q105 0 194 -35t147.5 -94.5t91 -136.5t32.5 -162q0 -89 -31 -169t-90 -144t-155.5 -101.5 t-217.5 -37.5q-265 0 -460 133z" />
<glyph unicode="6" d="M68 530q0 234 149 465t404 412l342 -113q-242 -206 -353 -374q38 10 92 10q187 0 318 -125.5t131 -325.5q0 -96 -38.5 -185.5t-106.5 -159t-169.5 -111t-220.5 -41.5q-132 0 -238.5 46t-173 123.5t-101.5 174.5t-35 204zM428 485q0 -81 50.5 -136.5t127.5 -55.5 q49 0 86.5 19.5t58 50t30.5 62t10 60.5q0 94 -54 140.5t-125 46.5q-50 0 -88.5 -19.5t-58 -50t-28.5 -60t-9 -57.5z" />
<glyph unicode="7" d="M92 1079v307h1051v-40l-592 -1364l-322 102l424 995h-561z" />
<glyph unicode="8" d="M68 373q0 106 60 198.5t163 143.5q-84 52 -130 120.5t-46 176.5q0 47 14 97t50 104t89.5 96t141.5 69t198 27q112 0 201.5 -27.5t143 -69t88.5 -96t48 -103.5t13 -97q0 -108 -44.5 -174.5t-131.5 -122.5q101 -51 162 -144t61 -198q0 -37 -9.5 -79.5t-44 -100.5 t-90 -102.5t-159 -76.5t-238.5 -32q-100 0 -183 16.5t-137.5 43t-96 63t-64.5 72t-37 75.5t-18 67.5t-4 53.5zM424 410q0 -100 57 -153.5t129 -53.5q73 0 128 56.5t55 150.5t-58 149t-127 55q-71 0 -127.5 -55t-56.5 -149zM465 985q0 -81 43 -132.5t100 -51.5t100.5 51.5 t43.5 132.5q0 27 -6.5 56t-21.5 60t-44 50.5t-68 19.5q-41 0 -71 -18t-46 -47.5t-23 -59.5t-7 -61z" />
<glyph unicode="9" d="M66 907q0 96 38 186t106 159t169.5 111t220.5 42q106 0 196.5 -30.5t154.5 -82.5t109.5 -122t67 -149.5t21.5 -164.5q0 -234 -149 -464.5t-404 -411.5l-342 112q238 203 352 375q-38 -10 -92 -10q-187 0 -317.5 125t-130.5 325zM426 901q0 -94 53.5 -140t124.5 -46 q50 0 88.5 19.5t58 49.5t28.5 59.5t9 57.5q0 81 -50.5 137t-127.5 56q-49 0 -86.5 -19.5t-57.5 -50.5t-30 -62.5t-10 -60.5z" />
<glyph unicode=":" horiz-adv-x="575" d="M74 197q0 90 64 152.5t153 62.5t151 -63t62 -152t-62 -152t-151 -63q-88 0 -152.5 63t-64.5 152zM74 819q0 94 65 155.5t150 61.5q86 0 149.5 -62t63.5 -153t-63 -154t-152 -63q-88 0 -150.5 63t-62.5 152z" />
<glyph unicode=";" horiz-adv-x="618" d="M72 203q0 44 21.5 90t72 82.5t119.5 36.5q65 0 116 -29t81 -76t45.5 -101t15.5 -110q0 -54 -15.5 -107.5t-51 -108t-88.5 -99t-134.5 -78t-181.5 -47.5v63q166 62 157 287q-157 45 -157 197zM74 819q0 94 65 155.5t150 61.5q86 0 149.5 -62t63.5 -153t-63 -154t-152 -63 q-88 0 -150.5 63t-62.5 152z" />
<glyph unicode="&#x3c;" horiz-adv-x="1366" d="M121 582v223l1124 467v-264l-778 -314l778 -313v-266z" />
<glyph unicode="=" horiz-adv-x="1366" d="M121 326v247h1124v-247h-1124zM121 809v248h1124v-248h-1124z" />
<glyph unicode="&#x3e;" horiz-adv-x="1366" d="M121 115v266l778 313l-778 314v264l1124 -467v-223z" />
<glyph unicode="?" horiz-adv-x="788" d="M74 1096l94 278q108 31 190 31q93 0 165.5 -26t115.5 -68.5t64.5 -93t21.5 -103.5q0 -95 -35.5 -160t-150.5 -166q-58 -50 -102 -132.5t-44 -135.5q0 -67 -76 -67q-59 0 -73 41q-21 59 -21 151q0 95 39 186q2 6 26 56t35 81t11 52q0 15 -4.5 30t-16.5 32.5t-39 28.5 t-65 11q-58 0 -119 -26h-16zM106 197q0 90 64.5 152.5t153.5 62.5t151 -63t62 -152t-62 -152t-151 -63q-88 0 -153 63t-65 152z" />
<glyph unicode="@" horiz-adv-x="1968" d="M59 414q0 104 19 205.5t59 200t98.5 185.5t142 160.5t184 126.5t230 83t275.5 30q196 0 356.5 -60.5t264.5 -164.5t160.5 -239.5t56.5 -287.5q0 -136 -49 -265t-133.5 -228t-206.5 -159t-259 -60q-89 0 -129 29t-55 83q-22 -21 -36.5 -32.5t-50 -34t-81.5 -34t-100 -11.5 q-164 0 -269.5 113.5t-105.5 307.5q0 80 21 167.5t65.5 172.5t105.5 152.5t148.5 109.5t187.5 42q179 0 263 -134l22 109h260l-147 -705q-15 -74 -15 -88q0 -13 4 -22.5t8.5 -14t11 -7t10 -3t5.5 -0.5q29 0 72 24t90 71t88 108.5t67.5 145.5t26.5 172q0 70 -18.5 142 t-66.5 149.5t-120 136.5t-190 97t-266 38q-143 0 -263.5 -32.5t-203.5 -85t-148 -125t-103 -147t-62.5 -157t-33.5 -148.5t-9 -127q0 -102 24.5 -197.5t85 -189t152.5 -162.5t238 -112t329 -43q129 0 239 20.5t177 47.5t126 68t83 66t51 58h209q-60 -121 -156 -209.5 t-214 -137t-240.5 -71t-258.5 -22.5q-284 0 -518 92q-106 41 -191.5 107.5t-144 145.5t-98 172t-57 187t-17.5 191zM696 350q0 -118 49.5 -173.5t114.5 -55.5q62 0 114 37t84 92t54.5 122.5t31.5 125t9 102.5q0 16 -1.5 35t-11 56.5t-25.5 65.5t-50.5 50t-81.5 22 q-59 0 -109 -32.5t-82 -84t-54.5 -116.5t-32 -127t-9.5 -119z" />
<glyph unicode="A" horiz-adv-x="1705" d="M10 0l613 1386h462l611 -1386h-428l-113 281h-602l-115 -281h-428zM651 522h408l-203 506z" />
<glyph unicode="B" horiz-adv-x="1533" d="M174 0v1386h670q253 0 376 -90t123 -235q0 -114 -61 -195.5t-133 -109.5q140 -55 215.5 -140.5t75.5 -222.5q0 -178 -122.5 -285.5t-342.5 -107.5h-801zM592 233h170q258 0 258 177q0 178 -258 178h-170v-355zM592 821h90q143 0 206.5 32.5t63.5 133.5q0 52 -18 86 t-56 51t-83.5 23t-114.5 6h-88v-332z" />
<glyph unicode="C" horiz-adv-x="1521" d="M84 694q0 143 42 261.5t115.5 200.5t174 139t216 83.5t242.5 26.5q107 0 221.5 -20.5t173.5 -38.5t140 -46v-368q-116 70 -185 98q-128 51 -255 51q-121 0 -224.5 -46.5t-169 -137.5t-65.5 -209q0 -161 123.5 -272t312.5 -111q78 0 152.5 15t138 42.5t99 46.5t79.5 46 v-351q-236 -122 -547 -122q-181 0 -328.5 51.5t-247.5 145t-154 225.5t-54 290z" />
<glyph unicode="D" horiz-adv-x="1683" d="M174 0v1386h576q125 0 226 -14.5t172.5 -41t118.5 -53.5t91 -63q107 -86 174 -226t67 -320q0 -348 -260 -551q-150 -117 -438 -117h-727zM592 287h178q38 0 70 2.5t75 12t77.5 26t69.5 46.5t58.5 71t38.5 103t15 138q0 105 -28.5 185t-70 123.5t-99.5 70.5t-106 35 t-100 8h-178v-821z" />
<glyph unicode="E" horiz-adv-x="1325" d="M174 0v1386h1028v-278h-610v-254h582v-279h-582v-296h627v-279h-1045z" />
<glyph unicode="F" horiz-adv-x="1273" d="M174 0v1386h993v-278h-575v-268h575v-279h-575v-561h-418z" />
<glyph unicode="G" horiz-adv-x="1636" d="M84 696q0 152 55.5 298t169.5 235q135 106 274 141t308 35q120 0 238.5 -18.5t178 -35.5t129.5 -40q12 -4 17 -6v-328q-45 26 -77 41.5t-92.5 39.5t-134.5 36t-157 12q-112 0 -200.5 -30t-140 -74.5t-85 -103t-45.5 -109t-12 -99.5q0 -78 28 -147.5t80.5 -124t137 -86 t190.5 -31.5q71 0 170 21v163h-188v279h553v-666q-126 -48 -224 -71q-187 -45 -389 -45q-125 0 -238.5 26t-213.5 82t-173.5 138t-116 202t-42.5 266z" />
<glyph unicode="H" horiz-adv-x="1812" d="M174 0v1386h418v-509h629v509h417v-1386h-417v541h-629v-541h-418z" />
<glyph unicode="I" horiz-adv-x="770" d="M176 0v1386h418v-1386h-418z" />
<glyph unicode="J" horiz-adv-x="811" d="M-47 -96q45 1 67.5 2.5t55 5t49 11t35.5 20t29.5 31.5t17.5 46q10 39 10 293v1073h418v-1214q0 -73 -2.5 -127t-13.5 -122.5t-30 -117t-54 -98.5t-83.5 -81t-121 -50.5t-164.5 -19.5q-75 0 -150 14z" />
<glyph unicode="K" horiz-adv-x="1640" d="M174 0v1386h418v-620l502 620h454l-516 -649l600 -737h-510l-530 649v-649h-418z" />
<glyph unicode="L" horiz-adv-x="1296" d="M174 0v1386h418v-1054h635v-332h-1053z" />
<glyph unicode="M" horiz-adv-x="1961" d="M174 0v1386h379l426 -520l428 520h379v-1386h-418v803l-377 -465h-33l-378 465v-803h-406z" />
<glyph unicode="N" horiz-adv-x="1853" d="M174 0v1386h371l717 -768v768h417v-1386h-372l-719 772v-772h-414z" />
<glyph unicode="O" horiz-adv-x="1742" d="M84 694q0 110 29 211.5t92 193t153.5 159.5t222 107.5t289.5 39.5q154 0 284 -38t221.5 -104.5t156 -156.5t95 -194t30.5 -218q0 -145 -50.5 -272.5t-146 -226t-247.5 -156t-343 -57.5q-158 0 -289.5 40t-222 107.5t-153.5 159t-92 193.5t-29 212zM510 694 q0 -160 96.5 -258t263.5 -98q170 0 265.5 98.5t95.5 257.5q0 158 -96 256.5t-265 98.5q-168 0 -264 -98t-96 -257z" />
<glyph unicode="P" horiz-adv-x="1431" d="M174 0v1386h692q111 0 200.5 -28t146 -72.5t94 -103t52.5 -116t15 -116.5t-15 -116t-52.5 -114.5t-94 -101t-146 -71t-200.5 -27.5h-274v-520h-418zM592 786h90q152 0 209 32.5t57 129.5q0 99 -58.5 135.5t-209.5 36.5h-88v-334z" />
<glyph unicode="Q" horiz-adv-x="1742" d="M84 694q0 110 29 211.5t92 193t153.5 159.5t222 107.5t289.5 39.5q159 0 290.5 -39.5t222.5 -107.5t153.5 -159.5t91.5 -193t29 -211.5q0 -127 -36 -237t-99 -189.5t-138 -136t-163 -92.5q50 -23 87.5 -38t103.5 -36.5t140 -32.5q69 -10 139 -10h13l12 -22l-293 -267 q-347 74 -682 261q-130 71 -200 139q-85 30 -161.5 83.5t-145 132.5t-109.5 194.5t-41 250.5zM510 694q0 -160 96.5 -258t263.5 -98q170 0 265.5 98.5t95.5 257.5q0 158 -96 256.5t-265 98.5q-168 0 -264 -98t-96 -257z" />
<glyph unicode="R" horiz-adv-x="1531" d="M174 0v1386h711q107 0 193.5 -30t140 -76t90 -105t51 -113.5t14.5 -105.5q0 -67 -19.5 -124.5t-42.5 -90.5t-62 -65t-56 -41.5t-47 -24.5q36 -22 54.5 -36t47 -46.5t58 -86.5t69.5 -140l140 -301h-449l-109 246q-30 69 -57 118.5t-53 82t-48 51.5t-50.5 28.5t-51.5 12 t-59 2.5h-47v-541h-418zM592 786h90q152 0 209 33.5t57 128.5t-63 133.5t-205 38.5h-88v-334z" />
<glyph unicode="S" horiz-adv-x="1253" d="M119 1004q0 82 30.5 153.5t90 127.5t157 88t221.5 32q90 0 175.5 -15t146 -37.5t92.5 -37.5t51 -27v-325q-228 157 -413 157q-79 0 -113.5 -30.5t-34.5 -73.5q0 -41 34.5 -71t125.5 -73q55 -26 89 -43t79.5 -41t74 -42.5t63 -43.5t55 -47.5t42 -51.5t32.5 -58.5 t18.5 -65.5t7.5 -76q0 -195 -146 -308t-379 -113q-235 0 -487 110v340q44 -28 76.5 -46t92.5 -46.5t125 -43.5t130 -15q47 0 81 9.5t50.5 22t26 29t11 25t1.5 16.5q0 29 -15.5 54t-49 47t-64 37t-82.5 36q-66 28 -117 54.5t-105.5 67t-90.5 85t-59 106.5t-23 134z" />
<glyph unicode="T" horiz-adv-x="1572" d="M70 1049v337h1433v-337h-508v-1049h-417v1049h-508z" />
<glyph unicode="U" horiz-adv-x="1771" d="M154 621v765h417v-657q0 -205 85.5 -302t230.5 -97q143 0 228 96t85 301v659h418v-765q0 -144 -47 -258t-121 -183.5t-173 -115.5t-195 -64t-195 -18q-69 0 -138 9t-142.5 30.5t-138 54.5t-123 84t-100.5 115.5t-66.5 153t-24.5 192.5z" />
<glyph unicode="V" horiz-adv-x="1546" d="M16 1386h435l317 -800l326 800h436l-625 -1404h-276z" />
<glyph unicode="W" horiz-adv-x="2437" d="M16 1386h433l288 -768l330 768h299l324 -768l301 768h428l-600 -1404h-242l-360 817l-369 -817h-244z" />
<glyph unicode="X" horiz-adv-x="1748" d="M10 0l588 721l-561 665h534l95 -116q38 -46 196 -252q95 142 174 237l109 131h524l-539 -665l609 -721h-537l-147 174q-2 2 -42.5 50t-83.5 101.5t-67 86.5q-134 -179 -196 -256l-127 -156h-529z" />
<glyph unicode="Y" horiz-adv-x="1538" d="M12 1386h434l318 -436l319 436h443l-543 -751v-635h-418v627z" />
<glyph unicode="Z" horiz-adv-x="1492" d="M39 0l717 1055h-658v331h1348l-715 -1054h715v-332h-1407z" />
<glyph unicode="[" horiz-adv-x="917" d="M164 -463v1849h706v-235h-364v-1378h364v-236h-706z" />
<glyph unicode="\" horiz-adv-x="1083" d="M31 1405h268l754 -1423h-269z" />
<glyph unicode="]" horiz-adv-x="917" d="M47 -227h365v1378h-365v235h707v-1849h-707v236z" />
<glyph unicode="^" horiz-adv-x="1351" d="M129 573l408 813h278l408 -813h-353l-192 492l-195 -492h-354z" />
<glyph unicode="_" horiz-adv-x="1024" d="M-12 -154h1048v-102h-1048v102z" />
<glyph unicode="`" horiz-adv-x="681" d="M0 1470h389l172 -317h-192z" />
<glyph unicode="a" horiz-adv-x="1169" d="M72 238q0 42 10.5 78t27 63.5t45.5 52.5t58.5 43.5t73 37t81 32t91.5 30.5q172 54 211 74q0 34 -5 57.5t-19.5 49t-49 38.5t-86.5 13q-218 0 -404 -186v276q195 139 480 139q221 0 332.5 -85t111.5 -236v-393q0 -57 10.5 -84t38.5 -27q27 0 92 29v-189 q-54 -22 -83.5 -32.5t-94 -23.5t-129.5 -13q-48 0 -82.5 10.5t-52.5 30.5t-25.5 33.5t-13.5 33.5q-37 -30 -68 -49.5t-98.5 -39t-148.5 -19.5q-85 0 -147.5 23.5t-94.5 63.5t-46.5 81.5t-14.5 87.5zM424 281q0 -52 29 -78.5t69 -26.5q54 0 148 70v241q-56 -24 -81.5 -35 t-64.5 -32.5t-56 -39t-30.5 -43.5t-13.5 -56z" />
<glyph unicode="b" horiz-adv-x="1304" d="M113 0v1386h360v-428q40 30 111 54t161 24q99 0 181.5 -30.5t138.5 -81.5t94.5 -120t56 -145t17.5 -157q0 -108 -28.5 -197.5t-75 -148t-108 -99t-124.5 -58t-127 -17.5q-61 0 -111.5 11t-89 32.5t-54.5 33t-42 33.5v-92h-360zM473 324q76 -72 182 -72q19 0 40.5 4.5 t51 20.5t52.5 42t39 76t16 115q0 130 -59.5 199t-139.5 69q-81 0 -182 -65v-389z" />
<glyph unicode="c" horiz-adv-x="1046" d="M72 512q0 37 6 78.5t23 93.5t43 100t71 94.5t102.5 81t141.5 55.5t184 21q76 0 141.5 -10t100 -20t86.5 -29v-283q-185 56 -275 56q-43 0 -84.5 -13t-78.5 -39.5t-59.5 -74.5t-22.5 -111q0 -62 22.5 -111t59.5 -77t78.5 -42t84.5 -14q94 0 291 62v-283q-58 -20 -92.5 -31 t-105.5 -22.5t-146 -11.5q-100 0 -184 21.5t-141.5 56t-102.5 82t-71 96t-43 101.5t-23 94.5t-6 78.5z" />
<glyph unicode="d" horiz-adv-x="1304" d="M72 502q0 81 17.5 157t56 145t94 120t138 81.5t181.5 30.5q72 0 131 -15t82.5 -27.5t58.5 -35.5v428h361v-1386h-361v92q-21 -18 -30.5 -25.5t-40.5 -27.5t-58 -29.5t-72.5 -18.5t-94.5 -9q-64 0 -127 17.5t-124.5 58t-108 99t-75 148t-28.5 197.5zM451 510 q0 -70 18 -122.5t48 -81t63 -41.5t69 -13q16 0 32 1.5t29.5 5.5t25 7t23.5 9.5t19 10t17.5 11l14 10t12.5 9.5l9 8v389q-4 2 -20 11t-21.5 12.5t-20 10.5t-22 10t-21.5 8t-24.5 7t-24.5 4t-28 2q-86 0 -142 -72t-56 -196z" />
<glyph unicode="e" horiz-adv-x="1220" d="M72 514q0 112 37 206.5t108 165t183.5 110.5t254.5 40q72 0 140 -16.5t135 -56.5t117 -100.5t81 -155.5t31 -213v-72h-717q20 -94 102 -152.5t187 -58.5q182 0 402 102v-223q-197 -108 -478 -108q-142 0 -254.5 41.5t-183.5 114t-108 168.5t-37 208zM432 600h389 q0 98 -49.5 156.5t-138.5 58.5q-88 0 -144.5 -59.5t-56.5 -155.5z" />
<glyph unicode="f" horiz-adv-x="755" d="M14 721v244h166v18q0 61 12.5 118t44 113.5t79.5 98t125 67t175 25.5q79 0 181 -19v-258q-93 19 -133 19q-58 0 -90.5 -38t-32.5 -108v-36h182v-244h-182v-721h-361v721h-166z" />
<glyph unicode="g" horiz-adv-x="1153" d="M51 -213q0 17 3.5 35.5t18 48.5t38.5 54t71.5 45.5t110.5 29.5q-37 14 -62.5 51t-25.5 78q0 31 12 63.5t49 65t94 43.5q-52 13 -99.5 39t-89 65.5t-66.5 97.5t-25 126q0 100 39 176t108 122t158 68.5t195 22.5h559v-217h-178q94 -80 94 -201q0 -132 -107.5 -227 t-296.5 -105q-125 -5 -125 -67q0 -34 33.5 -44t149.5 -20q25 -2 41 -3.5t49 -6.5t57 -11.5t57.5 -18t57.5 -26.5t50 -37t42 -49t26.5 -63.5t10.5 -79.5q0 -72 -27.5 -128.5t-87 -101.5t-162.5 -69t-245 -24q-273 0 -400 73t-127 195zM358 -195q0 -114 230 -114 q102 0 163.5 30t61.5 89q0 29 -19 50t-43.5 31.5t-59 16.5t-55 7t-42.5 1q-124 0 -180 -26t-56 -85zM393 625q0 -67 46.5 -114.5t121.5 -47.5q77 0 128.5 48.5t51.5 117.5q0 75 -52.5 122.5t-117.5 47.5q-84 0 -131 -55t-47 -119z" />
<glyph unicode="h" horiz-adv-x="1302" d="M115 0v1386h360v-514q88 94 175.5 129t185.5 35q174 0 270 -99t96 -312v-625h-360v528v3q1 14 1 27.5t-1.5 43.5t-11 54t-24.5 49t-44 39t-68 14q-30 0 -59.5 -11.5t-51 -27t-44.5 -39.5t-35.5 -41.5t-28.5 -40.5v-598h-360z" />
<glyph unicode="i" horiz-adv-x="626" d="M133 0v1018h361v-1018h-361zM162 1253q0 63 44 107.5t107 44.5t107.5 -44.5t44.5 -107.5t-44.5 -107t-107.5 -44t-107 44t-44 107z" />
<glyph unicode="j" horiz-adv-x="626" d="M-18 -207q97 31 124 93t27 223v909h361v-1077q0 -92 -27.5 -167t-69.5 -121t-95.5 -77.5t-103.5 -44t-96 -12.5zM162 1253q0 63 44 107.5t107 44.5t107.5 -44.5t44.5 -107.5t-44.5 -107t-107.5 -44t-107 44t-44 107z" />
<glyph unicode="k" horiz-adv-x="1325" d="M113 0v1386h364v-813l357 445h432l-398 -475l457 -543h-457l-391 483v-483h-364z" />
<glyph unicode="l" horiz-adv-x="626" d="M133 0v1386h361v-1386h-361z" />
<glyph unicode="m" horiz-adv-x="2027" d="M115 0v1018h360v-146q80 85 164.5 124.5t194.5 39.5q247 0 333 -198q87 99 180 148.5t216 49.5q184 0 275 -107t91 -308v-621h-360v543q0 215 -148 215q-17 0 -34.5 -3.5t-31.5 -9t-29 -15t-25.5 -17.5t-23.5 -21l-20.5 -20.5t-18 -22t-14.5 -20t-12.5 -18t-9.5 -13.5 v-598h-360v543q0 104 -33 159.5t-117 55.5q-33 0 -61 -9.5t-54.5 -33t-38 -35.5t-37 -46.5t-26.5 -35.5v-598h-360z" />
<glyph unicode="n" horiz-adv-x="1302" d="M115 0v1018h360v-146q83 89 170 126.5t191 37.5q59 0 109 -12t85.5 -30t64 -47t46 -55.5t30 -64t18.5 -63t9 -62.5t3.5 -53t0.5 -42v-9v-598h-360v528v9v35.5t-3 39t-8 42.5t-16 38.5t-26.5 34.5t-39.5 22t-55 9q-29 0 -56.5 -9.5t-46.5 -22t-40 -33.5t-31 -34t-26 -35 t-19 -26v-598h-360z" />
<glyph unicode="o" horiz-adv-x="1310" d="M72 510q0 113 37 208t108 166.5t183.5 111.5t254.5 40t254.5 -40t184 -111.5t108.5 -166.5t37 -208t-37 -208t-108.5 -167t-184 -112.5t-254.5 -40.5t-254.5 40.5t-183.5 112.5t-108 167t-37 208zM451 510q0 -120 52.5 -190t151.5 -70t152 70t53 190t-53 189t-152 69 t-151.5 -69t-52.5 -189z" />
<glyph unicode="p" horiz-adv-x="1304" d="M113 -463v1481h360v-92q26 22 42 33.5t54.5 33t89 32.5t111.5 11q64 0 127 -17.5t124.5 -58t108 -99t75 -148t28.5 -197.5q0 -81 -17.5 -157t-56 -145t-94.5 -120t-138.5 -81.5t-181.5 -30.5q-72 0 -131 14.5t-83 27.5t-58 35v-522h-360zM473 305q4 -2 20 -11t21.5 -12.5 t20 -10.5t22 -10t21.5 -8t24.5 -7t24.5 -4t28 -2q86 0 142.5 72t56.5 196q0 70 -18 122.5t-48 81t-63.5 41.5t-69.5 13q-16 0 -32 -1.5t-29.5 -5.5t-25 -7t-23.5 -9.5t-19 -10t-17.5 -11l-14 -10t-12.5 -9.5l-9 -8v-389z" />
<glyph unicode="q" horiz-adv-x="1304" d="M72 516q0 108 28.5 197.5t75 148t108 99t124.5 58t127 17.5q49 0 94.5 -9t72.5 -18.5t58 -29.5t40.5 -27.5t30.5 -25.5v92h361v-1481h-361v522q-34 -22 -58 -35t-83 -27.5t-131 -14.5q-99 0 -181.5 30.5t-138 81.5t-94 120t-56 145t-17.5 157zM451 508q0 -124 56 -196 t142 -72q16 0 30.5 1.5t30.5 6.5t24.5 7.5t26.5 11.5l22 11t25.5 14t22.5 13v389l-9 8q-9 7 -12.5 9.5l-14 10t-17.5 11t-19 10t-23.5 9.5t-25 7t-29.5 5.5t-32 1.5q-36 0 -69 -13t-63 -41.5t-48 -81t-18 -122.5z" />
<glyph unicode="r" horiz-adv-x="1009" d="M113 0v1018h360v-246q14 38 40.5 80t66.5 85t97 71t118 28q44 0 85 -11.5t65.5 -24t64.5 -37.5l-133 -361q-81 78 -166 78q-75 0 -131 -51.5t-107 -190.5v-438h-360z" />
<glyph unicode="s" horiz-adv-x="991" d="M94 731q0 55 25.5 108t74.5 97.5t130.5 72t183.5 27.5q190 0 350 -82v-249q-3 2 -25.5 15t-38 22t-45 22.5t-56 21.5t-61.5 14.5t-69 6.5q-33 0 -56 -8.5t-33.5 -21t-14.5 -23t-4 -19.5q0 -17 6.5 -29t36.5 -30.5t88 -40.5q182 -70 253.5 -145t71.5 -193 q0 -139 -102.5 -227t-304.5 -88q-113 0 -203.5 21t-189.5 58v256q55 -32 87.5 -49t96 -37t121.5 -20q57 0 96 17.5t39 56.5q0 36 -42 63t-175 84q-45 19 -84 45t-76 62t-58.5 86t-21.5 106z" />
<glyph unicode="t" horiz-adv-x="960" d="M23 768v63l483 492h41v-305h344v-250h-344v-326q0 -25 0.5 -37.5t3 -34t8 -33.5t16 -27t25.5 -23t38.5 -13.5t53.5 -5.5q53 0 104 18t122 54v-281q-57 -29 -155 -53t-188 -24q-389 0 -389 380v406h-163z" />
<glyph unicode="u" horiz-adv-x="1302" d="M100 412v8v598h361v-529v-10q0 -32 0.5 -51.5t8.5 -55.5t22 -57t44 -38t72 -17q22 0 43.5 5.5t38.5 13.5t34.5 22t28.5 24t25.5 27.5t20 25.5t16.5 24.5t12 17.5v598h361v-1018h-361v145q-75 -81 -159.5 -122t-200.5 -41q-59 0 -109.5 12t-86 30t-63.5 47t-46 55.5 t-30.5 64t-18.5 63.5t-9 62.5t-3.5 53t-0.5 42.5z" />
<glyph unicode="v" horiz-adv-x="1193" d="M6 1018h387l211 -533l234 533h350l-463 -1018h-266z" />
<glyph unicode="w" horiz-adv-x="1748" d="M14 1018h365l186 -514l199 514h229l201 -514l180 514h361l-402 -1018h-227l-227 555l-226 -555h-227z" />
<glyph unicode="x" horiz-adv-x="1259" d="M10 1018h443l188 -277l190 277h394l-385 -483l409 -535h-444l-197 289l-196 -289h-394l394 500z" />
<glyph unicode="y" horiz-adv-x="1193" d="M27 1018h387l207 -506l235 506h350l-692 -1481h-364l280 596z" />
<glyph unicode="z" horiz-adv-x="1130" d="M29 0v33l487 719h-446v266h1013v-33l-487 -719h477v-266h-1044z" />
<glyph unicode="{" horiz-adv-x="788" d="M43 319v285q114 0 160.5 65t46.5 230q0 88 1 129.5t8.5 108t23 96.5t45 71t74 58t110.5 30t154 13h92v-279q-54 0 -85 -4t-56 -14.5t-36 -34t-16.5 -58t-5.5 -91.5q0 -200 -36 -310.5t-144 -152.5q113 -57 146.5 -138t33.5 -278q0 -60 1.5 -94.5t9.5 -66t19.5 -45.5 t35.5 -25.5t54 -14t79 -2.5v-278h-92q-117 0 -196 22t-123 55t-66 98.5t-27.5 125t-5.5 162.5q0 196 -43 266.5t-162 70.5z" />
<glyph unicode="|" horiz-adv-x="598" d="M176 -481v1886h248v-1886h-248z" />
<glyph unicode="}" horiz-adv-x="788" d="M31 -203q67 0 101.5 5.5t59 28t31 60.5t6.5 109q0 77 4 133.5t15 113t31 96t52.5 71t78.5 49.5q-113 57 -147 138.5t-34 277.5q0 60 -1.5 94t-9 66t-19 45.5t-35.5 25t-54 14t-79 2.5v279h92q117 0 196 -22t123 -55t66 -98.5t27.5 -125t5.5 -162.5q0 -196 42.5 -267 t161.5 -71v-285q-114 0 -160 -64.5t-46 -229.5q0 -88 -1 -129.5t-8.5 -108t-23 -96.5t-45 -71t-74 -58t-110.5 -30t-154 -13h-92v278z" />
<glyph unicode="~" horiz-adv-x="1366" d="M121 500v256q165 141 328 141q29 0 51 -2.5t81 -22.5t138 -59q89 -43 135.5 -58.5t93.5 -15.5q23 0 47 4t45.5 11.5t41 16t39.5 21t34 21.5t31 23t25 20.5t20.5 18t13.5 12.5v-254q-161 -141 -319 -141q-59 0 -119 18.5t-176 75.5q-129 63 -201 63q-152 0 -309 -149z" />
<glyph unicode="&#xa1;" horiz-adv-x="618" d="M94 -174q0 120 45.5 313.5t87.5 278.5q13 26 29.5 37t50.5 12q34 -1 50.5 -12t29.5 -37q43 -89 90 -281t47 -311q0 -84 -21 -147t-55 -96t-69.5 -48.5t-71.5 -15.5t-71 15.5t-68 48.5t-53.5 96t-20.5 147zM94 727q0 89 62 152t151 63q88 0 152.5 -63t64.5 -152 q0 -90 -64 -152.5t-153 -62.5t-151 63t-62 152z" />
<glyph unicode="&#xa2;" horiz-adv-x="1067" d="M88 500q0 65 13.5 131t53 141t100.5 132t165.5 94.5t238.5 37.5q92 0 142 -10l98 309h121l-107 -334q10 -2 72 -24v-272q-75 38 -151 49l-158 -496q128 -19 325 68v-277q-64 -23 -106.5 -36t-128.5 -23.5t-176 -3.5l-115 -369h-121l121 385q-190 52 -288.5 188.5 t-98.5 309.5zM440 500q0 -50 12.5 -89.5t37 -66t38 -37t37.5 -26.5l156 487q-131 0 -206 -81t-75 -187z" />
<glyph unicode="&#xa3;" horiz-adv-x="1173" d="M80 -18q51 261 55 278q42 194 66 268l10 33h-123v264h199q69 178 106 252.5t101 147.5q159 180 378 180q53 0 111 -16l150 -312q-91 31 -156 31q-54 0 -98.5 -18.5t-72.5 -43t-54.5 -68.5t-38.5 -73t-31 -80h158v-264h-242l-66 -252q80 19 121 19q73 0 142 -17 q77 -18 141 -18q37 0 65 6t38.5 11.5t33.5 19.5v-320q-82 -28 -172 -28q-94 0 -227 18q-112 16 -197 16q-82 0 -154 -5t-116.5 -11t-126.5 -18z" />
<glyph unicode="&#xa4;" horiz-adv-x="1130" d="M33 356l127 133q-47 92 -47 209q0 101 47 207l-127 125l184 201l139 -133l20 10q19 9 41 18t63 17t85 8t85 -8t63 -17t40.5 -18.5t20.5 -9.5l133 133l191 -193l-131 -133q49 -95 49 -209q0 -106 -49 -207l131 -133l-191 -192l-133 131q-115 -47 -209 -47q-91 0 -209 47 l-123 -131zM387 698q0 -73 53 -125.5t125 -52.5t124 52.5t52 125.5t-52 126t-124 53q-73 0 -125.5 -52.5t-52.5 -126.5z" />
<glyph unicode="&#xa5;" horiz-adv-x="1538" d="M12 1386h506l283 -436l282 436h443l-426 -587h362v-172h-481v-201h481v-172h-481v-254h-416v254h-489v172h489v201h-489v172h364z" />
<glyph unicode="&#xa6;" horiz-adv-x="598" d="M176 334h248v-815h-248v815zM176 590v815h248v-815h-248z" />
<glyph unicode="&#xa7;" horiz-adv-x="1259" d="M94 526q0 57 14.5 108.5t44 99t52 76.5t61.5 73q-27 30 -42 50t-29.5 61t-14.5 89q0 41 12.5 82.5t45.5 85.5t83 77.5t133.5 55t188.5 21.5q205 0 313.5 -70t108.5 -170q0 -25 -8 -50.5t-25 -50.5t-49 -40.5t-74 -15.5q-98 0 -151 98q-33 61 -58.5 82.5t-76.5 21.5 q-54 0 -92.5 -26.5t-38.5 -69.5q0 -51 47.5 -86t220.5 -127q102 -54 170.5 -100.5t125 -104.5t83 -126.5t26.5 -151.5q0 -57 -13.5 -110t-30 -88t-44.5 -72t-43 -52.5t-39 -38.5q27 -35 40 -54t29.5 -67t16.5 -102q0 -76 -31.5 -134t-79 -91.5t-111.5 -54.5t-120 -28 t-114 -7q-181 0 -305.5 69t-124.5 172q0 55 38.5 95.5t108.5 40.5q97 0 162 -99q15 -23 23.5 -34t24.5 -25t36.5 -19.5t48.5 -5.5q45 0 89 24.5t44 78.5q0 35 -14.5 57t-78.5 65t-206 119q-113 60 -189.5 120.5t-116 119.5t-55.5 113t-16 116zM360 614q0 -97 172 -225 q24 -19 162.5 -103t155.5 -96q61 72 61 138q0 30 -14 60.5t-33.5 56.5t-59.5 58.5t-71.5 55t-91.5 58t-98 57t-111 61.5q-72 -48 -72 -121z" />
<glyph unicode="&#xa8;" horiz-adv-x="681" d="M-51 1290q0 56 39.5 96.5t97.5 40.5t97.5 -40.5t39.5 -96.5q0 -57 -39.5 -97t-97.5 -40t-97.5 40.5t-39.5 96.5zM459 1290q0 57 39 97t98 40q58 0 97.5 -40.5t39.5 -96.5q0 -57 -39.5 -97t-97.5 -40q-59 0 -98 40t-39 97z" />
<glyph unicode="&#xa9;" horiz-adv-x="1642" d="M57 643q0 157 61.5 298.5t164.5 243t243.5 161t294.5 59.5t295 -59.5t244 -161t164 -243t61 -298.5q0 -155 -60.5 -296.5t-163 -244t-244 -163t-296.5 -60.5t-296.5 60.5t-244 163t-163 244t-60.5 296.5zM205 643q0 -167 82.5 -309t224.5 -224.5t309 -82.5 q168 0 310 82.5t224.5 224.5t82.5 309q0 169 -83.5 310.5t-225 222.5t-308.5 81q-166 0 -307.5 -81t-225 -222.5t-83.5 -310.5zM410 645q0 187 119 306.5t298 119.5q130 0 235 -69.5t134 -206.5l-197 -31q-37 160 -182 160q-92 0 -138 -76t-46 -199q0 -291 186 -291 q138 0 180 191l205 -49q-8 -25 -13 -39.5t-21 -48.5t-33 -56t-47.5 -52t-66 -47.5t-87 -30.5t-111.5 -13q-132 0 -228 61t-141.5 157.5t-45.5 213.5z" />
<glyph unicode="&#xaa;" horiz-adv-x="768" d="M39 911q0 135 135 187q65 25 256 67q0 38 -26.5 56t-67.5 18q-61 0 -123.5 -23.5t-149.5 -99.5v201q166 88 324 88q185 0 262 -90q37 -43 37 -135v-217q0 -52 21 -52q19 0 71 21v-141q-9 -3 -35.5 -15t-41.5 -17t-46.5 -10.5t-68.5 -5.5q-79 0 -135 60 q-35 -20 -53.5 -29.5t-61 -20t-94.5 -10.5q-107 0 -155 51t-48 117zM293 938q0 -24 15 -36.5t36 -12.5q30 0 84 37v116q-77 -28 -106 -51.5t-29 -52.5z" />
<glyph unicode="&#xab;" horiz-adv-x="1304" d="M31 498l315 493h334l-315 -493l315 -498h-334zM610 498l316 493h334l-314 -493l314 -498h-334z" />
<glyph unicode="&#xac;" horiz-adv-x="1366" d="M121 809v248h1124v-731h-248v483h-876z" />
<glyph unicode="&#xad;" horiz-adv-x="1003" d="M174 348v334h655v-334h-655z" />
<glyph unicode="&#xae;" horiz-adv-x="1642" d="M57 643q0 157 61.5 298.5t164.5 243t243.5 161t294.5 59.5t295 -59.5t244 -161t164 -243t61 -298.5q0 -155 -60.5 -296.5t-163 -244t-244 -163t-296.5 -60.5t-296.5 60.5t-244 163t-163 244t-60.5 296.5zM205 643q0 -167 82.5 -309t224.5 -224.5t309 -82.5 q168 0 310 82.5t224.5 224.5t82.5 309q0 169 -83.5 310.5t-225 222.5t-308.5 81q-166 0 -307.5 -81t-225 -222.5t-83.5 -310.5zM475 233v818h365q134 0 214.5 -55.5t80.5 -176.5q0 -58 -23 -102.5t-61 -69t-70 -36.5t-68 -19q24 -12 44 -24t38.5 -32t28.5 -30.5t28.5 -41.5 t24 -40.5t27.5 -50.5l76 -140h-240q-137 281 -190 312q-34 17 -72 14v-326h-203zM678 705h88q77 0 118.5 23.5t41.5 78.5q0 51 -41.5 76.5t-110.5 25.5h-96v-204z" />
<glyph unicode="&#xaf;" horiz-adv-x="681" d="M-45 1176v245h772v-245h-772z" />
<glyph unicode="&#xb0;" horiz-adv-x="817" d="M123 1120q0 118 84 201.5t201 83.5q119 0 202.5 -83.5t83.5 -201.5q0 -119 -83 -202.5t-203 -83.5q-118 0 -201.5 83.5t-83.5 202.5zM307 1118q0 -41 30 -70.5t71 -29.5t71.5 29.5t30.5 70.5q0 42 -30 72.5t-72 30.5q-41 0 -71 -30t-30 -73z" />
<glyph unicode="&#xb1;" horiz-adv-x="1366" d="M121 0v248h1124v-248h-1124zM121 807v248h438v438h248v-438h438v-248h-438v-438h-248v438h-438z" />
<glyph unicode="&#xb2;" horiz-adv-x="724" d="M41 682v35q71 57 186 172q78 78 117 133t39 111q0 41 -27.5 65.5t-76.5 24.5q-101 0 -211 -101v201q46 25 76.5 39t86.5 28.5t113 14.5q138 0 209.5 -66t71.5 -159q0 -42 -11.5 -79.5t-41 -79.5t-54 -70.5t-76.5 -84.5h244v-184h-645z" />
<glyph unicode="&#xb3;" horiz-adv-x="724" d="M78 725v190q105 -79 201 -79q43 0 74.5 17t31.5 48q0 78 -166 78v139q35 0 54 1.5t46 7t39.5 20t12.5 37.5q0 25 -25.5 45t-71.5 20q-77 0 -174 -57v166q137 47 236 47q136 0 210.5 -61.5t74.5 -135.5q0 -87 -93 -153q107 -62 107 -170q0 -99 -84 -156t-209 -57 q-67 0 -141.5 16.5t-122.5 36.5z" />
<glyph unicode="&#xb4;" horiz-adv-x="681" d="M166 1153l172 317h389l-369 -317h-192z" />
<glyph unicode="&#xb5;" horiz-adv-x="1302" d="M100 -463v1481h361v-533v-37.5t3 -40t8 -44t15.5 -38t25.5 -35t39.5 -21.5t55.5 -9t61 11t50 24.5t43.5 39.5t34 40t30.5 41v602h361v-1018h-361v55q-21 -21 -38.5 -34t-59.5 -26t-96 -13q-61 0 -96.5 12t-75.5 37v-494h-361z" />
<glyph unicode="&#xb6;" horiz-adv-x="1193" d="M43 909q0 136 55 239.5t146 160.5q79 50 189 63.5t304 13.5h432v-139h-133v-1728h-139v1728h-156v-1728h-139v907q-31 0 -73 3.5t-112.5 19t-123.5 40.5q-121 58 -185.5 172t-64.5 248z" />
<glyph unicode="&#xb7;" horiz-adv-x="575" d="M74 694q0 90 64 152.5t153 62.5t151 -63t62 -152t-62 -152t-151 -63q-88 0 -152.5 63t-64.5 152z" />
<glyph unicode="&#xb8;" horiz-adv-x="681" d="M47 -293q43 0 74.5 3t62 10.5t46.5 24.5t16 42q0 31 -22 45.5t-74 17.5l124 170h168l-39 -79q82 -20 126 -64.5t44 -107.5q0 -86 -80.5 -142.5t-248.5 -56.5h-197v137z" />
<glyph unicode="&#xb9;" horiz-adv-x="724" d="M238 682v704h249v-704h-249z" />
<glyph unicode="&#xba;" horiz-adv-x="831" d="M25 1073q0 144 102 238t285 94t289 -94.5t106 -237.5t-106 -236.5t-289 -93.5t-285 93t-102 237zM295 1073q0 -143 117 -143q125 0 125 143q0 71 -32 108.5t-93 37.5q-117 0 -117 -146z" />
<glyph unicode="&#xbb;" horiz-adv-x="1304" d="M45 0l313 498l-313 493h334l315 -493l-315 -498h-334zM625 0l315 498l-315 493h333l316 -493l-316 -498h-333z" />
<glyph unicode="&#xbc;" horiz-adv-x="1662" d="M238 682v704h249v-704h-249zM250 -49l948 1454h207l-948 -1454h-207zM956 147v152l385 414h189v-420h96v-146h-96v-147h-223v147h-351zM1128 293h179v190z" />
<glyph unicode="&#xbd;" horiz-adv-x="1662" d="M205 -49l948 1454h207l-948 -1454h-207zM238 682v704h249v-704h-249zM979 0v35q71 57 186 172q78 78 117 133t39 111q0 38 -24.5 64t-79.5 26q-99 0 -211 -101v201q47 25 78 39t87 28.5t111 14.5q68 0 120.5 -16.5t82 -41t48 -56.5t24.5 -58.5t6 -52.5q0 -42 -11.5 -79.5 t-41 -79.5t-54 -70.5t-76.5 -84.5h244v-184h-645z" />
<glyph unicode="&#xbe;" horiz-adv-x="1662" d="M78 725v190q105 -79 201 -79q43 0 74.5 17t31.5 48q0 78 -166 78v139q35 0 54 1.5t46 7t39.5 20t12.5 37.5q0 25 -25.5 45t-71.5 20q-77 0 -174 -57v166q137 47 236 47q136 0 210.5 -61.5t74.5 -135.5q0 -87 -93 -153q107 -62 107 -170q0 -99 -84 -156t-209 -57 q-67 0 -141.5 16.5t-122.5 36.5zM266 -49l948 1454h207l-948 -1454h-207zM956 147v152l385 414h189v-420h96v-146h-96v-147h-223v147h-351zM1128 293h179v190z" />
<glyph unicode="&#xbf;" horiz-adv-x="788" d="M63 -190q0 95 35.5 159t151.5 166q63 56 104 138t41 130q0 32 19.5 50t56.5 18q60 0 74 -41q20 -56 20 -151q0 -38 -9 -83t-17 -68t-13 -36q-5 -12 -20 -44t-24.5 -53.5t-18 -48t-8.5 -42.5q0 -15 4.5 -30.5t16.5 -33t39 -28.5t65 -11q54 0 118 27h17l-94 -279 q-105 -30 -191 -30q-93 0 -165.5 26t-115.5 68.5t-64.5 93t-21.5 103.5zM252 727q0 89 62 152t151 63q88 0 152.5 -63t64.5 -152q0 -90 -64 -152.5t-153 -62.5t-151 63t-62 152z" />
<glyph unicode="&#xc0;" horiz-adv-x="1705" d="M10 0l613 1386h462l611 -1386h-428l-113 281h-602l-115 -281h-428zM512 1798h389l172 -317h-192zM651 522h408l-203 506z" />
<glyph unicode="&#xc1;" horiz-adv-x="1705" d="M10 0l613 1386h462l611 -1386h-428l-113 281h-602l-115 -281h-428zM651 522h408l-203 506zM678 1481l172 317h389l-369 -317h-192z" />
<glyph unicode="&#xc2;" horiz-adv-x="1705" d="M10 0l613 1386h462l611 -1386h-428l-113 281h-602l-115 -281h-428zM457 1481l182 346h428l182 -346h-215l-180 184l-182 -184h-215zM651 522h408l-203 506z" />
<glyph unicode="&#xc3;" horiz-adv-x="1705" d="M10 0l613 1386h462l611 -1386h-428l-113 281h-602l-115 -281h-428zM457 1481q0 82 22.5 146.5t58.5 100.5t75 54t77 18q43 0 174 -43q115 -45 146 -45q38 0 57.5 27.5t19.5 60.5h162q0 -152 -63.5 -235.5t-171.5 -83.5q-55 0 -171 43t-145 43q-40 0 -59 -25.5t-23 -60.5 h-159zM651 522h408l-203 506z" />
<glyph unicode="&#xc4;" horiz-adv-x="1705" d="M10 0l613 1386h462l611 -1386h-428l-113 281h-602l-115 -281h-428zM461 1618q0 56 39.5 96.5t97.5 40.5t97.5 -40.5t39.5 -96.5q0 -57 -39.5 -97t-97.5 -40t-97.5 40.5t-39.5 96.5zM651 522h408l-203 506zM971 1618q0 57 39 97t98 40q58 0 97.5 -40.5t39.5 -96.5 q0 -57 -39.5 -97t-97.5 -40q-59 0 -98 40t-39 97z" />
<glyph unicode="&#xc5;" horiz-adv-x="1705" d="M10 0l613 1386h462l611 -1386h-428l-113 281h-602l-115 -281h-428zM647 1686q0 86 59.5 145t145.5 59q87 0 147 -59t60 -145t-60.5 -146.5t-146.5 -60.5t-145.5 60.5t-59.5 146.5zM651 522h408l-203 506zM745 1686q0 -44 31.5 -76.5t75.5 -32.5t76.5 32.5t32.5 76.5 t-32 75t-77 31q-44 0 -75.5 -31t-31.5 -75z" />
<glyph unicode="&#xc6;" horiz-adv-x="2279" d="M10 0l877 1386h1272v-278h-605v-254h570v-279h-570v-296h619v-279h-1036v516h-400l-303 -516h-424zM881 756h256v436z" />
<glyph unicode="&#xc7;" horiz-adv-x="1521" d="M84 694q0 173 62 310t170.5 223.5t250.5 132t307 45.5q107 0 221.5 -20.5t173.5 -38.5t140 -46v-368q-116 70 -185 98q-128 51 -255 51q-85 0 -166 -25.5t-147 -73t-106 -124t-40 -170.5q0 -109 59.5 -197.5t159.5 -137t217 -48.5q78 0 152.5 15t138 42.5t99 46.5 t79.5 46v-351q-214 -110 -479 -120l-21 -43q51 -10 87.5 -32.5t53.5 -49t24 -49t7 -41.5q0 -74 -61 -127t-174 -66q-77 -8 -291 -6v137q40 -1 69 1t61.5 9t49.5 24.5t17 45.5q0 19 -8 31.5t-24.5 18.5t-29.5 8.5t-34 4.5l100 138q-153 15 -274 67t-195 122.5t-122.5 161.5 t-67.5 177.5t-19 177.5z" />
<glyph unicode="&#xc8;" horiz-adv-x="1325" d="M174 0v1386h1028v-278h-610v-254h582v-279h-582v-296h627v-279h-1045zM352 1798h389l172 -317h-192z" />
<glyph unicode="&#xc9;" horiz-adv-x="1325" d="M174 0v1386h1028v-278h-610v-254h582v-279h-582v-296h627v-279h-1045zM518 1481l172 317h389l-368 -317h-193z" />
<glyph unicode="&#xca;" horiz-adv-x="1325" d="M174 0v1386h1028v-278h-610v-254h582v-279h-582v-296h627v-279h-1045zM297 1481l182 346h428l183 -346h-216l-180 184l-182 -184h-215z" />
<glyph unicode="&#xcb;" horiz-adv-x="1325" d="M174 0v1386h1028v-278h-610v-254h582v-279h-582v-296h627v-279h-1045zM301 1618q0 56 39.5 96.5t97.5 40.5t97.5 -40.5t39.5 -96.5q0 -57 -39.5 -97t-97.5 -40t-97.5 40.5t-39.5 96.5zM811 1618q0 57 39 97t98 40q58 0 97.5 -40.5t39.5 -96.5q0 -57 -39.5 -97t-97.5 -40 q-59 0 -98 40t-39 97z" />
<glyph unicode="&#xcc;" horiz-adv-x="770" d="M45 1798h389l172 -317h-192zM176 0v1386h418v-1386h-418z" />
<glyph unicode="&#xcd;" horiz-adv-x="770" d="M176 0v1386h418v-1386h-418zM211 1481l172 317h389l-369 -317h-192z" />
<glyph unicode="&#xce;" horiz-adv-x="770" d="M-10 1481l182 346h428l182 -346h-215l-180 184l-182 -184h-215zM176 0v1386h418v-1386h-418z" />
<glyph unicode="&#xcf;" horiz-adv-x="770" d="M-6 1618q0 56 39.5 96.5t97.5 40.5t97.5 -40.5t39.5 -96.5q0 -57 -39.5 -97t-97.5 -40t-97.5 40.5t-39.5 96.5zM176 0v1386h418v-1386h-418zM504 1618q0 57 39 97t98 40q58 0 97.5 -40.5t39.5 -96.5q0 -57 -39.5 -97t-97.5 -40q-59 0 -98 40t-39 97z" />
<glyph unicode="&#xd0;" horiz-adv-x="1683" d="M20 586v215h154v585h576q125 0 226 -14.5t172.5 -41t118.5 -53.5t91 -63q107 -86 174 -226t67 -320q0 -348 -260 -551q-150 -117 -438 -117h-727v586h-154zM592 287h178q38 0 70 2.5t75 12t77.5 26t69.5 46.5t58.5 71t38.5 103t15 138q0 105 -28.5 185t-70 123.5 t-99.5 70.5t-106 35t-100 8h-178v-307h285v-215h-285v-299z" />
<glyph unicode="&#xd1;" horiz-adv-x="1853" d="M174 0v1386h371l717 -768v768h417v-1386h-372l-719 772v-772h-414zM530 1481q0 82 22.5 146.5t58.5 100.5t75.5 54t77.5 18q43 0 174 -43q115 -45 145 -45q38 0 58 27.5t20 60.5h162q0 -152 -64 -235.5t-172 -83.5q-55 0 -170.5 43t-144.5 43q-40 0 -59 -25.5t-23 -60.5 h-160z" />
<glyph unicode="&#xd2;" horiz-adv-x="1742" d="M84 694q0 110 29 211.5t92 193t153.5 159.5t222 107.5t289.5 39.5q154 0 284 -38t221.5 -104.5t156 -156.5t95 -194t30.5 -218q0 -145 -50.5 -272.5t-146 -226t-247.5 -156t-343 -57.5q-158 0 -289.5 40t-222 107.5t-153.5 159t-92 193.5t-29 212zM510 694 q0 -160 96.5 -258t263.5 -98q170 0 265.5 98.5t95.5 257.5q0 158 -96 256.5t-265 98.5q-168 0 -264 -98t-96 -257zM530 1798h390l172 -317h-193z" />
<glyph unicode="&#xd3;" horiz-adv-x="1742" d="M84 694q0 110 29 211.5t92 193t153.5 159.5t222 107.5t289.5 39.5q154 0 284 -38t221.5 -104.5t156 -156.5t95 -194t30.5 -218q0 -145 -50.5 -272.5t-146 -226t-247.5 -156t-343 -57.5q-158 0 -289.5 40t-222 107.5t-153.5 159t-92 193.5t-29 212zM510 694 q0 -160 96.5 -258t263.5 -98q170 0 265.5 98.5t95.5 257.5q0 158 -96 256.5t-265 98.5q-168 0 -264 -98t-96 -257zM696 1481l172 317h389l-368 -317h-193z" />
<glyph unicode="&#xd4;" horiz-adv-x="1742" d="M84 694q0 110 29 211.5t92 193t153.5 159.5t222 107.5t289.5 39.5q154 0 284 -38t221.5 -104.5t156 -156.5t95 -194t30.5 -218q0 -145 -50.5 -272.5t-146 -226t-247.5 -156t-343 -57.5q-158 0 -289.5 40t-222 107.5t-153.5 159t-92 193.5t-29 212zM475 1481l182 346h428 l183 -346h-215l-181 184l-182 -184h-215zM510 694q0 -160 96.5 -258t263.5 -98q170 0 265.5 98.5t95.5 257.5q0 158 -96 256.5t-265 98.5q-168 0 -264 -98t-96 -257z" />
<glyph unicode="&#xd5;" horiz-adv-x="1742" d="M84 694q0 110 29 211.5t92 193t153.5 159.5t222 107.5t289.5 39.5q154 0 284 -38t221.5 -104.5t156 -156.5t95 -194t30.5 -218q0 -145 -50.5 -272.5t-146 -226t-247.5 -156t-343 -57.5q-158 0 -289.5 40t-222 107.5t-153.5 159t-92 193.5t-29 212zM475 1481 q0 82 22.5 146.5t58.5 100.5t75.5 54t77.5 18q43 0 174 -43q115 -45 145 -45q38 0 58 27.5t20 60.5h162q0 -152 -64 -235.5t-172 -83.5q-56 0 -171 43t-144 43q-40 0 -59 -25.5t-23 -60.5h-160zM510 694q0 -160 96.5 -258t263.5 -98q170 0 265.5 98.5t95.5 257.5 q0 158 -96 256.5t-265 98.5q-168 0 -264 -98t-96 -257z" />
<glyph unicode="&#xd6;" horiz-adv-x="1742" d="M84 694q0 110 29 211.5t92 193t153.5 159.5t222 107.5t289.5 39.5q154 0 284 -38t221.5 -104.5t156 -156.5t95 -194t30.5 -218q0 -145 -50.5 -272.5t-146 -226t-247.5 -156t-343 -57.5q-158 0 -289.5 40t-222 107.5t-153.5 159t-92 193.5t-29 212zM479 1618 q0 56 39.5 96.5t97.5 40.5t98 -40.5t40 -96.5q0 -57 -40 -97t-98 -40t-97.5 40.5t-39.5 96.5zM510 694q0 -160 96.5 -258t263.5 -98q170 0 265.5 98.5t95.5 257.5q0 158 -96 256.5t-265 98.5q-168 0 -264 -98t-96 -257zM989 1618q0 57 39 97t98 40q58 0 98 -40.5t40 -96.5 q0 -57 -40 -97t-98 -40q-59 0 -98 40t-39 97z" />
<glyph unicode="&#xd7;" horiz-adv-x="1366" d="M147 334l361 360l-361 359l177 176l360 -359l358 359l177 -176l-361 -359l361 -360l-177 -174l-358 358l-360 -358z" />
<glyph unicode="&#xd8;" horiz-adv-x="1742" d="M84 694q0 110 29 211.5t92 193t153.5 159.5t222 107.5t289.5 39.5q298 0 498 -137l164 155l117 -118l-156 -150q164 -181 164 -461q0 -110 -29 -212t-92 -193.5t-153.5 -159t-222.5 -107.5t-290 -40q-284 0 -471 120l-188 -182l-117 121l176 168q-186 202 -186 485z M510 696q0 -117 53 -204l520 501q-86 56 -213 56q-171 0 -265.5 -100.5t-94.5 -252.5zM686 379q78 -41 186 -41q167 0 263 99.5t96 254.5q0 104 -37 176z" />
<glyph unicode="&#xd9;" horiz-adv-x="1771" d="M154 621v765h417v-657q0 -205 85.5 -302t230.5 -97q143 0 228 96t85 301v659h418v-765q0 -144 -47 -258t-121 -183.5t-173 -115.5t-195 -64t-195 -18q-69 0 -138 9t-142.5 30.5t-138 54.5t-123 84t-100.5 115.5t-66.5 153t-24.5 192.5zM545 1798h389l172 -317h-193z" />
<glyph unicode="&#xda;" horiz-adv-x="1771" d="M154 621v765h417v-657q0 -205 85.5 -302t230.5 -97q143 0 228 96t85 301v659h418v-765q0 -144 -47 -258t-121 -183.5t-173 -115.5t-195 -64t-195 -18q-69 0 -138 9t-142.5 30.5t-138 54.5t-123 84t-100.5 115.5t-66.5 153t-24.5 192.5zM711 1481l172 317h389l-369 -317 h-192z" />
<glyph unicode="&#xdb;" horiz-adv-x="1771" d="M154 621v765h417v-657q0 -205 85.5 -302t230.5 -97q143 0 228 96t85 301v659h418v-765q0 -144 -47 -258t-121 -183.5t-173 -115.5t-195 -64t-195 -18q-69 0 -138 9t-142.5 30.5t-138 54.5t-123 84t-100.5 115.5t-66.5 153t-24.5 192.5zM489 1481l183 346h428l182 -346 h-215l-180 184l-182 -184h-216z" />
<glyph unicode="&#xdc;" horiz-adv-x="1771" d="M154 621v765h417v-657q0 -205 85.5 -302t230.5 -97q143 0 228 96t85 301v659h418v-765q0 -144 -47 -258t-121 -183.5t-173 -115.5t-195 -64t-195 -18q-69 0 -138 9t-142.5 30.5t-138 54.5t-123 84t-100.5 115.5t-66.5 153t-24.5 192.5zM494 1618q0 56 39.5 96.5 t97.5 40.5t97.5 -40.5t39.5 -96.5q0 -57 -39.5 -97t-97.5 -40t-97.5 40.5t-39.5 96.5zM1004 1618q0 57 39 97t98 40q58 0 97.5 -40.5t39.5 -96.5q0 -57 -39.5 -97t-97.5 -40q-59 0 -98 40t-39 97z" />
<glyph unicode="&#xdd;" horiz-adv-x="1538" d="M12 1386h434l318 -436l319 436h443l-543 -751v-635h-418v627zM594 1481l172 317h389l-369 -317h-192z" />
<glyph unicode="&#xde;" horiz-adv-x="1431" d="M174 0v1386h418v-260h274q127 0 226.5 -36.5t159.5 -98.5t91 -138.5t31 -162.5t-31 -161.5t-91 -136.5t-159.5 -96.5t-226.5 -35.5h-274v-260h-418zM592 526h90q57 0 95 3t73 12.5t55 27.5t31.5 47.5t11.5 71.5q0 101 -65 136.5t-203 35.5h-88v-334z" />
<glyph unicode="&#xdf;" horiz-adv-x="1353" d="M150 0v905q0 133 12.5 205t60.5 131q58 70 174 117t295 47q112 0 200.5 -21.5t144.5 -56t92.5 -81t51.5 -93t15 -96.5q0 -48 -13.5 -90t-29.5 -67t-44.5 -49.5t-42 -33t-38.5 -22.5q242 -106 242 -383q0 -101 -36.5 -185t-96.5 -136t-132 -80.5t-147 -28.5q-80 0 -190 26 v250q4 0 23.5 -1t27 -1.5t25 1t29 4.5t27 9.5t29.5 16.5q39 28 59.5 79.5t20.5 108.5q0 115 -58.5 161.5t-164.5 49.5v201q87 0 127.5 48t40.5 105q0 60 -45.5 109t-124.5 49q-174 0 -174 -211v-987h-360z" />
<glyph unicode="&#xe0;" horiz-adv-x="1169" d="M72 238q0 42 10.5 78t27 63.5t45.5 52.5t58.5 43.5t73 37t81 32t91.5 30.5q172 54 211 74q0 34 -5 57.5t-19.5 49t-49 38.5t-86.5 13q-218 0 -404 -186v276q195 139 480 139q221 0 332.5 -85t111.5 -236v-393q0 -57 10.5 -84t38.5 -27q27 0 92 29v-189 q-54 -22 -83.5 -32.5t-94 -23.5t-129.5 -13q-48 0 -82.5 10.5t-52.5 30.5t-25.5 33.5t-13.5 33.5q-37 -30 -68 -49.5t-98.5 -39t-148.5 -19.5q-85 0 -147.5 23.5t-94.5 63.5t-46.5 81.5t-14.5 87.5zM244 1470h389l172 -317h-193zM424 281q0 -52 29 -78.5t69 -26.5 q54 0 148 70v241q-56 -24 -81.5 -35t-64.5 -32.5t-56 -39t-30.5 -43.5t-13.5 -56z" />
<glyph unicode="&#xe1;" horiz-adv-x="1169" d="M72 238q0 42 10.5 78t27 63.5t45.5 52.5t58.5 43.5t73 37t81 32t91.5 30.5q172 54 211 74q0 34 -5 57.5t-19.5 49t-49 38.5t-86.5 13q-218 0 -404 -186v276q195 139 480 139q221 0 332.5 -85t111.5 -236v-393q0 -57 10.5 -84t38.5 -27q27 0 92 29v-189 q-54 -22 -83.5 -32.5t-94 -23.5t-129.5 -13q-48 0 -82.5 10.5t-52.5 30.5t-25.5 33.5t-13.5 33.5q-37 -30 -68 -49.5t-98.5 -39t-148.5 -19.5q-85 0 -147.5 23.5t-94.5 63.5t-46.5 81.5t-14.5 87.5zM410 1153l172 317h389l-369 -317h-192zM424 281q0 -52 29 -78.5t69 -26.5 q54 0 148 70v241q-56 -24 -81.5 -35t-64.5 -32.5t-56 -39t-30.5 -43.5t-13.5 -56z" />
<glyph unicode="&#xe2;" horiz-adv-x="1169" d="M72 238q0 42 10.5 78t27 63.5t45.5 52.5t58.5 43.5t73 37t81 32t91.5 30.5q172 54 211 74q0 34 -5 57.5t-19.5 49t-49 38.5t-86.5 13q-218 0 -404 -186v276q195 139 480 139q221 0 332.5 -85t111.5 -236v-393q0 -57 10.5 -84t38.5 -27q27 0 92 29v-189 q-54 -22 -83.5 -32.5t-94 -23.5t-129.5 -13q-48 0 -82.5 10.5t-52.5 30.5t-25.5 33.5t-13.5 33.5q-37 -30 -68 -49.5t-98.5 -39t-148.5 -19.5q-85 0 -147.5 23.5t-94.5 63.5t-46.5 81.5t-14.5 87.5zM168 1153l182 346h428l183 -346h-216l-180 184l-182 -184h-215zM424 281 q0 -52 29 -78.5t69 -26.5q54 0 148 70v241q-56 -24 -81.5 -35t-64.5 -32.5t-56 -39t-30.5 -43.5t-13.5 -56z" />
<glyph unicode="&#xe3;" horiz-adv-x="1169" d="M72 238q0 42 10.5 78t27 63.5t45.5 52.5t58.5 43.5t73 37t81 32t91.5 30.5q172 54 211 74q0 34 -5 57.5t-19.5 49t-49 38.5t-86.5 13q-218 0 -404 -186v276q195 139 480 139q221 0 332.5 -85t111.5 -236v-393q0 -57 10.5 -84t38.5 -27q27 0 92 29v-189 q-54 -22 -83.5 -32.5t-94 -23.5t-129.5 -13q-48 0 -82.5 10.5t-52.5 30.5t-25.5 33.5t-13.5 33.5q-37 -30 -68 -49.5t-98.5 -39t-148.5 -19.5q-85 0 -147.5 23.5t-94.5 63.5t-46.5 81.5t-14.5 87.5zM188 1153q0 82 22.5 146.5t58.5 101t75.5 54.5t77.5 18q43 0 174 -43 q118 -46 145 -46q38 0 58 28t20 61h162q0 -152 -64 -236t-172 -84q-55 0 -171 43t-144 43q-40 0 -59 -25.5t-23 -60.5h-160zM424 281q0 -52 29 -78.5t69 -26.5q54 0 148 70v241q-56 -24 -81.5 -35t-64.5 -32.5t-56 -39t-30.5 -43.5t-13.5 -56z" />
<glyph unicode="&#xe4;" horiz-adv-x="1169" d="M72 238q0 42 10.5 78t27 63.5t45.5 52.5t58.5 43.5t73 37t81 32t91.5 30.5q172 54 211 74q0 34 -5 57.5t-19.5 49t-49 38.5t-86.5 13q-218 0 -404 -186v276q195 139 480 139q221 0 332.5 -85t111.5 -236v-393q0 -57 10.5 -84t38.5 -27q27 0 92 29v-189 q-54 -22 -83.5 -32.5t-94 -23.5t-129.5 -13q-48 0 -82.5 10.5t-52.5 30.5t-25.5 33.5t-13.5 33.5q-37 -30 -68 -49.5t-98.5 -39t-148.5 -19.5q-85 0 -147.5 23.5t-94.5 63.5t-46.5 81.5t-14.5 87.5zM193 1290q0 56 39.5 96.5t97.5 40.5t97.5 -40.5t39.5 -96.5 q0 -57 -39.5 -97t-97.5 -40t-97.5 40.5t-39.5 96.5zM424 281q0 -52 29 -78.5t69 -26.5q54 0 148 70v241q-56 -24 -81.5 -35t-64.5 -32.5t-56 -39t-30.5 -43.5t-13.5 -56zM702 1290q0 56 39.5 96.5t98.5 40.5q58 0 97.5 -40.5t39.5 -96.5q0 -57 -39.5 -97t-97.5 -40 q-59 0 -98.5 40.5t-39.5 96.5z" />
<glyph unicode="&#xe5;" horiz-adv-x="1169" d="M72 238q0 42 10.5 78t27 63.5t45.5 52.5t58.5 43.5t73 37t81 32t91.5 30.5q172 54 211 74q0 34 -5 57.5t-19.5 49t-49 38.5t-86.5 13q-218 0 -404 -186v276q195 139 480 139q221 0 332.5 -85t111.5 -236v-393q0 -57 10.5 -84t38.5 -27q27 0 92 29v-189 q-54 -22 -83.5 -32.5t-94 -23.5t-129.5 -13q-48 0 -82.5 10.5t-52.5 30.5t-25.5 33.5t-13.5 33.5q-37 -30 -68 -49.5t-98.5 -39t-148.5 -19.5q-85 0 -147.5 23.5t-94.5 63.5t-46.5 81.5t-14.5 87.5zM379 1358q0 86 59.5 145.5t145.5 59.5t146.5 -59.5t60.5 -145.5 t-60.5 -146.5t-146.5 -60.5t-145.5 60.5t-59.5 146.5zM424 281q0 -52 29 -78.5t69 -26.5q54 0 148 70v241q-56 -24 -81.5 -35t-64.5 -32.5t-56 -39t-30.5 -43.5t-13.5 -56zM477 1358q0 -44 31.5 -76.5t75.5 -32.5t76 32.5t32 76.5t-32 75t-76 31t-75.5 -31t-31.5 -75z" />
<glyph unicode="&#xe6;" horiz-adv-x="1708" d="M72 240q0 36 9.5 68.5t23.5 58t39 50t45.5 41t54.5 34t55 27.5t57 22.5t51 17.5t46 14q152 46 204 68q0 40 -2.5 63.5t-11 45.5t-24.5 33t-42.5 17.5t-66.5 6.5q-119 0 -212.5 -47.5t-191.5 -132.5v270q49 29 81.5 45.5t92.5 42t126.5 38.5t138.5 13q76 0 144 -16.5 t100.5 -32t76.5 -41.5q33 24 59 39t89.5 33t136.5 18q75 0 145.5 -19.5t134.5 -62t111.5 -104.5t76 -153.5t28.5 -202.5v-72h-656q3 -53 29 -93t59 -61.5t74.5 -35t70 -17.5t50.5 -4q145 0 350 104v-229q-240 -104 -448 -104q-236 0 -418 129q-189 -129 -400 -129 q-134 0 -210 77t-76 181zM426 285q0 -38 21.5 -73.5t70.5 -35.5q72 0 139 62v247q-60 -28 -84 -40t-61 -34t-50.5 -37.5t-24.5 -38.5t-11 -50zM985 600h326q-1 28 -5 53t-15 56t-27.5 53t-46 37.5t-68.5 15.5q-74 0 -118.5 -54.5t-45.5 -160.5z" />
<glyph unicode="&#xe7;" horiz-adv-x="1046" d="M72 512q0 37 6 78.5t23 93.5t43 100t71 94.5t102.5 81t141.5 55.5t184 21q76 0 141.5 -10t100 -20t86.5 -29v-283q-185 56 -275 56q-43 0 -84.5 -13t-78.5 -39.5t-59.5 -74.5t-22.5 -111q0 -62 22.5 -111t59.5 -77t78.5 -42t84.5 -14q94 0 291 62v-283 q-58 -20 -81.5 -27.5t-80 -18.5t-127.5 -17l-20 -43q51 -10 87 -32.5t53 -49t23.5 -48.5t6.5 -42q0 -91 -82.5 -145t-235.5 -54h-208v137q35 0 56.5 1t52 5t47.5 12t29.5 24t12.5 38q0 9 -2 17t-6.5 13.5t-8.5 10t-12.5 8t-13 5.5t-14.5 3.5t-13.5 2.5t-14 2t-11.5 1 l102 140q-106 15 -189 59.5t-131.5 101t-80 125.5t-42.5 126t-11 110z" />
<glyph unicode="&#xe8;" horiz-adv-x="1220" d="M72 514q0 112 37 206.5t108 165t183.5 110.5t254.5 40q72 0 140 -16.5t135 -56.5t117 -100.5t81 -155.5t31 -213v-72h-717q20 -94 102 -152.5t187 -58.5q182 0 402 102v-223q-197 -108 -478 -108q-142 0 -254.5 41.5t-183.5 114t-108 168.5t-37 208zM270 1470h389 l172 -317h-192zM432 600h389q0 98 -49.5 156.5t-138.5 58.5q-88 0 -144.5 -59.5t-56.5 -155.5z" />
<glyph unicode="&#xe9;" horiz-adv-x="1220" d="M72 514q0 112 37 206.5t108 165t183.5 110.5t254.5 40q72 0 140 -16.5t135 -56.5t117 -100.5t81 -155.5t31 -213v-72h-717q20 -94 102 -152.5t187 -58.5q182 0 402 102v-223q-197 -108 -478 -108q-142 0 -254.5 41.5t-183.5 114t-108 168.5t-37 208zM432 600h389 q0 98 -49.5 156.5t-138.5 58.5q-88 0 -144.5 -59.5t-56.5 -155.5zM436 1153l172 317h389l-368 -317h-193z" />
<glyph unicode="&#xea;" horiz-adv-x="1220" d="M72 514q0 112 37 206.5t108 165t183.5 110.5t254.5 40q72 0 140 -16.5t135 -56.5t117 -100.5t81 -155.5t31 -213v-72h-717q20 -94 102 -152.5t187 -58.5q182 0 402 102v-223q-197 -108 -478 -108q-142 0 -254.5 41.5t-183.5 114t-108 168.5t-37 208zM215 1153l182 346 h428l183 -346h-215l-181 184l-182 -184h-215zM432 600h389q0 98 -49.5 156.5t-138.5 58.5q-88 0 -144.5 -59.5t-56.5 -155.5z" />
<glyph unicode="&#xeb;" horiz-adv-x="1220" d="M72 514q0 112 37 206.5t108 165t183.5 110.5t254.5 40q72 0 140 -16.5t135 -56.5t117 -100.5t81 -155.5t31 -213v-72h-717q20 -94 102 -152.5t187 -58.5q182 0 402 102v-223q-197 -108 -478 -108q-142 0 -254.5 41.5t-183.5 114t-108 168.5t-37 208zM219 1290 q0 56 39.5 96.5t97.5 40.5t98 -40.5t40 -96.5q0 -57 -40 -97t-98 -40t-97.5 40.5t-39.5 96.5zM432 600h389q0 98 -49.5 156.5t-138.5 58.5q-88 0 -144.5 -59.5t-56.5 -155.5zM729 1290q0 57 39 97t98 40q58 0 98 -40.5t40 -96.5q0 -57 -40 -97t-98 -40q-59 0 -98 40t-39 97z " />
<glyph unicode="&#xec;" horiz-adv-x="626" d="M-27 1470h389l173 -317h-193zM133 0v1018h361v-1018h-361z" />
<glyph unicode="&#xed;" horiz-adv-x="626" d="M119 1153l172 317h389l-369 -317h-192zM133 0v1018h361v-1018h-361z" />
<glyph unicode="&#xee;" horiz-adv-x="626" d="M-82 1153l182 346h428l183 -346h-215l-181 184l-182 -184h-215zM133 0v1018h361v-1018h-361z" />
<glyph unicode="&#xef;" horiz-adv-x="626" d="M-78 1290q0 56 39.5 96.5t97.5 40.5t98 -40.5t40 -96.5q0 -57 -40 -97t-98 -40t-97.5 40.5t-39.5 96.5zM133 0v1018h361v-1018h-361zM432 1290q0 57 39 97t98 40q58 0 98 -40.5t40 -96.5q0 -57 -40 -97t-98 -40q-59 0 -98 40t-39 97z" />
<glyph unicode="&#xf0;" horiz-adv-x="1310" d="M72 498q0 104 31 191t82 147t119.5 101.5t142 61t149.5 19.5q66 0 141 -27q-27 42 -69.5 91.5t-77.5 78.5l-326 -108l-33 108l248 82q-45 31 -151 82l207 80q113 -32 194 -80l252 80l33 -105l-166 -57q115 -91 184 -176q207 -258 207 -547q0 -239 -149 -388.5 t-418 -149.5q-138 0 -246.5 34t-173.5 86.5t-107 123t-57.5 137t-15.5 135.5zM451 510q0 -120 52.5 -190t151.5 -70t152 70t53 190t-53 189t-152 69t-151.5 -69t-52.5 -189z" />
<glyph unicode="&#xf1;" horiz-adv-x="1302" d="M115 0v1018h360v-146q83 89 170 126.5t191 37.5q59 0 109 -12t85.5 -30t64 -47t46 -55.5t30 -64t18.5 -63t9 -62.5t3.5 -53t0.5 -42v-9v-598h-360v528v9v35.5t-3 39t-8 42.5t-16 38.5t-26.5 34.5t-39.5 22t-55 9q-29 0 -56.5 -9.5t-46.5 -22t-40 -33.5t-31 -34t-26 -35 t-19 -26v-598h-360zM256 1153q0 82 22.5 146.5t58.5 101t75 54.5t77 18q44 0 175 -43q118 -46 145 -46q38 0 58 28t20 61h162q0 -152 -64 -236t-172 -84q-56 0 -171.5 43t-143.5 43q-40 0 -59 -25.5t-23 -60.5h-160z" />
<glyph unicode="&#xf2;" horiz-adv-x="1310" d="M72 510q0 113 37 208t108 166.5t183.5 111.5t254.5 40t254.5 -40t184 -111.5t108.5 -166.5t37 -208t-37 -208t-108.5 -167t-184 -112.5t-254.5 -40.5t-254.5 40.5t-183.5 112.5t-108 167t-37 208zM315 1470h390l172 -317h-193zM451 510q0 -120 52.5 -190t151.5 -70 t152 70t53 190t-53 189t-152 69t-151.5 -69t-52.5 -189z" />
<glyph unicode="&#xf3;" horiz-adv-x="1310" d="M72 510q0 113 37 208t108 166.5t183.5 111.5t254.5 40t254.5 -40t184 -111.5t108.5 -166.5t37 -208t-37 -208t-108.5 -167t-184 -112.5t-254.5 -40.5t-254.5 40.5t-183.5 112.5t-108 167t-37 208zM451 510q0 -120 52.5 -190t151.5 -70t152 70t53 190t-53 189t-152 69 t-151.5 -69t-52.5 -189zM481 1153l172 317h389l-368 -317h-193z" />
<glyph unicode="&#xf4;" horiz-adv-x="1310" d="M72 510q0 113 37 208t108 166.5t183.5 111.5t254.5 40t254.5 -40t184 -111.5t108.5 -166.5t37 -208t-37 -208t-108.5 -167t-184 -112.5t-254.5 -40.5t-254.5 40.5t-183.5 112.5t-108 167t-37 208zM260 1153l182 346h428l183 -346h-215l-181 184l-182 -184h-215zM451 510 q0 -120 52.5 -190t151.5 -70t152 70t53 190t-53 189t-152 69t-151.5 -69t-52.5 -189z" />
<glyph unicode="&#xf5;" horiz-adv-x="1310" d="M72 510q0 113 37 208t108 166.5t183.5 111.5t254.5 40t254.5 -40t184 -111.5t108.5 -166.5t37 -208t-37 -208t-108.5 -167t-184 -112.5t-254.5 -40.5t-254.5 40.5t-183.5 112.5t-108 167t-37 208zM260 1153q0 82 22.5 146.5t58.5 101t75.5 54.5t77.5 18q43 0 174 -43 q118 -46 145 -46q38 0 58 28t20 61h162q0 -152 -64 -236t-172 -84q-55 0 -171 43t-144 43q-40 0 -59 -25.5t-23 -60.5h-160zM451 510q0 -120 52.5 -190t151.5 -70t152 70t53 190t-53 189t-152 69t-151.5 -69t-52.5 -189z" />
<glyph unicode="&#xf6;" horiz-adv-x="1310" d="M72 510q0 113 37 208t108 166.5t183.5 111.5t254.5 40t254.5 -40t184 -111.5t108.5 -166.5t37 -208t-37 -208t-108.5 -167t-184 -112.5t-254.5 -40.5t-254.5 40.5t-183.5 112.5t-108 167t-37 208zM264 1290q0 56 39.5 96.5t97.5 40.5t98 -40.5t40 -96.5q0 -57 -40 -97 t-98 -40t-97.5 40.5t-39.5 96.5zM451 510q0 -120 52.5 -190t151.5 -70t152 70t53 190t-53 189t-152 69t-151.5 -69t-52.5 -189zM774 1290q0 57 39 97t98 40q58 0 98 -40.5t40 -96.5q0 -57 -40 -97t-98 -40q-59 0 -98 40t-39 97z" />
<glyph unicode="&#xf7;" horiz-adv-x="1366" d="M121 575v234h1124v-234h-1124zM537 276q0 60 42.5 103t102.5 43t103.5 -43t43.5 -103t-43.5 -103.5t-103.5 -43.5t-102.5 43.5t-42.5 103.5zM537 1108q0 60 42.5 103.5t102.5 43.5t103.5 -43.5t43.5 -103.5t-43.5 -102.5t-103.5 -42.5t-102.5 42.5t-42.5 102.5z" />
<glyph unicode="&#xf8;" horiz-adv-x="1310" d="M72 504q0 82 21 158t66.5 144.5t112 119.5t164.5 80.5t217 29.5q201 0 334 -73l141 155l86 -78l-131 -147q156 -147 156 -383q0 -71 -17 -141t-60 -141t-106.5 -124.5t-165 -87.5t-228.5 -34q-203 0 -338 75l-142 -157l-86 75l133 150q-39 39 -57 61q-100 124 -100 318z M451 508q0 -66 18 -121l309 344q-49 41 -119 41q-56 0 -97.5 -21.5t-65 -59.5t-34.5 -83.5t-11 -99.5zM535 289q56 -43 122 -43q35 0 67.5 12t64.5 40t51.5 85t19.5 135q0 70 -16 113z" />
<glyph unicode="&#xf9;" horiz-adv-x="1302" d="M100 412v8v598h361v-529v-10q0 -32 0.5 -51.5t8.5 -55.5t22 -57t44 -38t72 -17q22 0 43.5 5.5t38.5 13.5t34.5 22t28.5 24t25.5 27.5t20 25.5t16.5 24.5t12 17.5v598h361v-1018h-361v145q-75 -81 -159.5 -122t-200.5 -41q-59 0 -109.5 12t-86 30t-63.5 47t-46 55.5 t-30.5 64t-18.5 63.5t-9 62.5t-3.5 53t-0.5 42.5zM311 1470h389l172 -317h-192z" />
<glyph unicode="&#xfa;" horiz-adv-x="1302" d="M100 412v8v598h361v-529v-10q0 -32 0.5 -51.5t8.5 -55.5t22 -57t44 -38t72 -17q22 0 43.5 5.5t38.5 13.5t34.5 22t28.5 24t25.5 27.5t20 25.5t16.5 24.5t12 17.5v598h361v-1018h-361v145q-75 -81 -159.5 -122t-200.5 -41q-59 0 -109.5 12t-86 30t-63.5 47t-46 55.5 t-30.5 64t-18.5 63.5t-9 62.5t-3.5 53t-0.5 42.5zM498 1153l172 317h389l-369 -317h-192z" />
<glyph unicode="&#xfb;" horiz-adv-x="1302" d="M100 412v8v598h361v-529v-10q0 -32 0.5 -51.5t8.5 -55.5t22 -57t44 -38t72 -17q22 0 43.5 5.5t38.5 13.5t34.5 22t28.5 24t25.5 27.5t20 25.5t16.5 24.5t12 17.5v598h361v-1018h-361v145q-75 -81 -159.5 -122t-200.5 -41q-59 0 -109.5 12t-86 30t-63.5 47t-46 55.5 t-30.5 64t-18.5 63.5t-9 62.5t-3.5 53t-0.5 42.5zM256 1153l182 346h428l183 -346h-215l-181 184l-182 -184h-215z" />
<glyph unicode="&#xfc;" horiz-adv-x="1302" d="M100 412v8v598h361v-529v-10q0 -32 0.5 -51.5t8.5 -55.5t22 -57t44 -38t72 -17q22 0 43.5 5.5t38.5 13.5t34.5 22t28.5 24t25.5 27.5t20 25.5t16.5 24.5t12 17.5v598h361v-1018h-361v145q-75 -81 -159.5 -122t-200.5 -41q-59 0 -109.5 12t-86 30t-63.5 47t-46 55.5 t-30.5 64t-18.5 63.5t-9 62.5t-3.5 53t-0.5 42.5zM260 1290q0 56 39.5 96.5t97.5 40.5t98 -40.5t40 -96.5q0 -57 -40 -97t-98 -40t-97.5 40.5t-39.5 96.5zM770 1290q0 57 39 97t98 40q58 0 97.5 -40.5t39.5 -96.5q0 -57 -39.5 -97t-97.5 -40q-59 0 -98 40t-39 97z" />
<glyph unicode="&#xfd;" horiz-adv-x="1193" d="M27 1018h387l207 -506l235 506h350l-692 -1481h-364l280 596zM422 1153l172 317h389l-369 -317h-192z" />
<glyph unicode="&#xfe;" horiz-adv-x="1304" d="M113 -463v1849h360v-460q26 22 42 33.5t54.5 33t89 32.5t111.5 11q64 0 127 -17.5t124.5 -58t108 -99t75 -148t28.5 -197.5q0 -81 -17.5 -157t-56 -145t-94.5 -120t-138.5 -81.5t-181.5 -30.5q-72 0 -131 14.5t-83 27.5t-58 35v-522h-360zM473 305q4 -2 20 -11 t21.5 -12.5t20 -10.5t22 -10t21.5 -8t24.5 -7t24.5 -4t28 -2q86 0 142.5 72t56.5 196q0 70 -18 122.5t-48 81t-63.5 41.5t-69.5 13q-16 0 -32 -1.5t-29.5 -5.5t-25 -7t-23.5 -9.5t-19 -10t-17.5 -11l-14 -10t-12.5 -9.5l-9 -8v-389z" />
<glyph unicode="&#xff;" horiz-adv-x="1193" d="M27 1018h387l207 -506l235 506h350l-692 -1481h-364l280 596zM205 1290q0 56 39.5 96.5t97.5 40.5t97.5 -40.5t39.5 -96.5q0 -57 -39.5 -97t-97.5 -40t-97.5 40.5t-39.5 96.5zM715 1290q0 57 39 97t98 40q58 0 97.5 -40.5t39.5 -96.5q0 -57 -39.5 -97t-97.5 -40 q-59 0 -98 40t-39 97z" />
<glyph unicode="&#x152;" horiz-adv-x="2217" d="M84 705q0 148 55.5 289t182.5 237q50 38 106 66t119.5 44.5t112 26t119.5 13.5t103 4.5t99 0.5h1120v-278h-604v-254h565v-279h-565v-296h614v-279h-1208q-51 0 -84 1t-100.5 8t-120.5 20.5t-120.5 41.5t-125.5 68q-68 47 -119 109.5t-78.5 121.5t-44.5 126t-21.5 114.5 t-4.5 94.5zM510 694q0 -229 120.5 -322t379.5 -93h69v829h-69q-259 0 -379.5 -92.5t-120.5 -321.5z" />
<glyph unicode="&#x153;" horiz-adv-x="1923" d="M72 498q0 117 37.5 215t108.5 170.5t181 112.5t248 40q73 0 135 -9.5t109 -27t70 -28.5t53 -29q53 30 85 45.5t100 32t144 16.5t147 -16.5t140 -56.5t119.5 -100.5t81.5 -155.5t31 -215v-70h-674q5 -55 32.5 -96.5t61 -62.5t76 -33.5t68.5 -15.5t47 -3q73 0 155.5 21.5 t115.5 36t93 42.5v-227q-69 -30 -115.5 -47t-141 -36t-189.5 -19q-125 0 -204 26t-151 76q-35 -24 -56.5 -36t-66.5 -30.5t-106 -27t-139 -8.5q-148 0 -264.5 41t-187.5 112.5t-107.5 163.5t-36.5 199zM451 510q0 -52 11 -97t34.5 -82.5t64 -59t94.5 -21.5q89 0 147 66 t58 194q0 126 -54.5 192t-150.5 66q-94 0 -149 -65.5t-55 -192.5zM1184 600h358q-29 213 -188 213q-170 0 -170 -213z" />
<glyph unicode="&#x178;" horiz-adv-x="1538" d="M12 1386h434l318 -436l319 436h443l-543 -751v-635h-418v627zM377 1618q0 56 39.5 96.5t97.5 40.5t97.5 -40.5t39.5 -96.5q0 -57 -39.5 -97t-97.5 -40t-97.5 40.5t-39.5 96.5zM887 1618q0 57 39 97t98 40q58 0 97.5 -40.5t39.5 -96.5q0 -57 -39.5 -97t-97.5 -40 q-59 0 -98 40t-39 97z" />
<glyph unicode="&#x2c6;" horiz-adv-x="681" d="M-55 1153l182 346h428l182 -346h-215l-180 184l-182 -184h-215z" />
<glyph unicode="&#x2dc;" horiz-adv-x="681" d="M-55 1153q0 82 22.5 146.5t58.5 101t75 54.5t77 18q43 0 174 -43q118 -46 146 -46q38 0 57.5 28t19.5 61h162q0 -153 -63.5 -236.5t-171.5 -83.5q-56 0 -172 43t-144 43q-40 0 -59 -25.5t-23 -60.5h-159z" />
<glyph unicode="&#x2000;" horiz-adv-x="945" />
<glyph unicode="&#x2001;" horiz-adv-x="1890" />
<glyph unicode="&#x2002;" horiz-adv-x="945" />
<glyph unicode="&#x2003;" horiz-adv-x="1890" />
<glyph unicode="&#x2004;" horiz-adv-x="630" />
<glyph unicode="&#x2005;" horiz-adv-x="472" />
<glyph unicode="&#x2006;" horiz-adv-x="315" />
<glyph unicode="&#x2007;" horiz-adv-x="315" />
<glyph unicode="&#x2008;" horiz-adv-x="236" />
<glyph unicode="&#x2009;" horiz-adv-x="378" />
<glyph unicode="&#x200a;" horiz-adv-x="105" />
<glyph unicode="&#x2010;" horiz-adv-x="1003" d="M174 348v334h655v-334h-655z" />
<glyph unicode="&#x2011;" horiz-adv-x="1003" d="M174 348v334h655v-334h-655z" />
<glyph unicode="&#x2012;" horiz-adv-x="1003" d="M174 348v334h655v-334h-655z" />
<glyph unicode="&#x2013;" horiz-adv-x="1024" d="M-12 387v250h1048v-250h-1048z" />
<glyph unicode="&#x2014;" horiz-adv-x="2048" d="M-12 387v250h2072v-250h-2072z" />
<glyph unicode="&#x2018;" horiz-adv-x="618" d="M76 965q0 54 15.5 107.5t51 108t88.5 99t134.5 78t181.5 47.5v-64q-166 -62 -158 -286q158 -45 158 -197q0 -84 -61.5 -146.5t-151.5 -62.5q-65 0 -116 29t-81 76t-45.5 101t-15.5 110z" />
<glyph unicode="&#x2019;" horiz-adv-x="618" d="M72 649v64q165 62 157 286q-157 45 -157 197q0 84 61.5 146.5t151.5 62.5q65 0 116 -28.5t81 -75.5t45.5 -101t15.5 -110q0 -68 -26 -135.5t-79 -131t-147.5 -110.5t-218.5 -64z" />
<glyph unicode="&#x201a;" horiz-adv-x="618" d="M72 203q0 84 61.5 146.5t151.5 62.5q65 0 116 -29t81 -76t45.5 -101t15.5 -110q0 -54 -15.5 -107.5t-51 -108t-88.5 -99t-134.5 -78t-181.5 -47.5v63q166 62 157 287q-157 45 -157 197z" />
<glyph unicode="&#x201c;" horiz-adv-x="1150" d="M76 965q0 54 15.5 107.5t51 108t88.5 99t134.5 78t181.5 47.5v-64q-166 -62 -158 -286q158 -45 158 -197q0 -84 -61.5 -146.5t-151.5 -62.5q-65 0 -116 29t-81 76t-45.5 101t-15.5 110zM627 965q0 54 15.5 107.5t51 108t88.5 99t134.5 78t181.5 47.5v-64 q-166 -62 -158 -286q158 -45 158 -197q0 -84 -61.5 -146.5t-151.5 -62.5q-65 0 -116 29t-81 76t-45.5 101t-15.5 110z" />
<glyph unicode="&#x201d;" horiz-adv-x="1150" d="M53 649v64q166 62 158 286q-158 45 -158 197q0 84 61.5 146.5t151.5 62.5q65 0 116 -28.5t81 -75.5t45.5 -101t15.5 -110q0 -68 -26 -135.5t-79 -131t-147.5 -110.5t-218.5 -64zM604 649v64q166 62 158 286q-158 45 -158 197q0 84 61.5 146.5t151.5 62.5q65 0 116 -28.5 t81 -75.5t45.5 -101t15.5 -110q0 -68 -26 -135.5t-79 -131t-147.5 -110.5t-218.5 -64z" />
<glyph unicode="&#x201e;" horiz-adv-x="1150" d="M53 203q0 84 61.5 146.5t151.5 62.5q65 0 116 -29t81 -76t45.5 -101t15.5 -110q0 -54 -15.5 -107.5t-51 -108t-88.5 -99t-134.5 -78t-181.5 -47.5v63q166 62 158 287q-158 45 -158 197zM604 203q0 84 61.5 146.5t151.5 62.5q65 0 116 -29t81 -76t45.5 -101t15.5 -110 q0 -54 -15.5 -107.5t-51 -108t-88.5 -99t-134.5 -78t-181.5 -47.5v63q166 62 158 287q-158 45 -158 197z" />
<glyph unicode="&#x2022;" horiz-adv-x="1024" d="M180 694q0 139 97.5 235.5t234.5 96.5t234.5 -96.5t97.5 -235.5q0 -137 -97 -234.5t-235 -97.5t-235 97.5t-97 234.5z" />
<glyph unicode="&#x2026;" horiz-adv-x="2048" d="M127 197q0 90 62.5 152.5t152.5 62.5q88 0 151.5 -63t63.5 -152t-63 -152t-152 -63t-152 63t-63 152zM809 197q0 90 63.5 152.5t151.5 62.5t151.5 -63t63.5 -152t-63 -152t-152 -63t-152 63t-63 152zM1491 197q0 90 63.5 152.5t151.5 62.5q89 0 152 -63t63 -152t-63 -152 t-152 -63q-88 0 -151.5 63t-63.5 152z" />
<glyph unicode="&#x202f;" horiz-adv-x="378" />
<glyph unicode="&#x2039;" horiz-adv-x="724" d="M31 498l315 493h334l-313 -493l313 -498h-334z" />
<glyph unicode="&#x203a;" horiz-adv-x="724" d="M45 0l313 498l-313 493h334l315 -493l-315 -498h-334z" />
<glyph unicode="&#x205f;" horiz-adv-x="472" />
<glyph unicode="&#x20ac;" horiz-adv-x="1273" d="M4 463l25 172h100q-2 20 -2 59v54h-123l25 172h123q28 121 88.5 215t142.5 152.5t179 88t204 29.5q238 0 432 -84v-338q-173 129 -356 129q-91 0 -162 -50.5t-111 -141.5h527l-25 -172h-545q-2 -18 -2 -60q0 -35 2 -53h541l-25 -172h-477q37 -86 102.5 -136.5 t155.5 -50.5q211 0 379 130v-322q-99 -64 -202 -83t-240 -19q-235 0 -393 128.5t-213 352.5h-150z" />
<glyph unicode="&#x2122;" horiz-adv-x="1941" d="M37 1194v192h801v-192h-285v-621h-236v621h-280zM932 573v813h356l113 -444l119 444h348v-813h-223v576l-154 -576h-184l-152 576v-576h-223z" />
<glyph unicode="&#x25fc;" horiz-adv-x="1013" d="M0 0v1014h1014v-1014h-1014z" />
</font>
</defs>
</svg>
