<?xml version="1.0" standalone="no"?>
<!DOCTYPE svg PUBLIC "-//W3C//DTD SVG 1.1//EN" "http://www.w3.org/Graphics/SVG/1.1/DTD/svg11.dtd" >
<svg xmlns="http://www.w3.org/2000/svg" xmlns:xlink="http://www.w3.org/1999/xlink" version="1.1">
<metadata></metadata>
<defs>
<font id="gill_sans_novalight" horiz-adv-x="1024" >
<font-face units-per-em="2048" ascent="1493" descent="-555" />
<missing-glyph horiz-adv-x="569" />
<glyph unicode="&#xfb03;" horiz-adv-x="1470" d="M33 834v86h141v137q0 172 84 265t231 93q78 0 129 -22v-95q-53 25 -120 25q-119 0 -172.5 -69.5t-53.5 -215.5v-118h433v137q0 166 81.5 262t231.5 96q35 0 63.5 -5t57.5 -15v-92q-55 20 -119 20q-104 0 -160.5 -67.5t-56.5 -202.5v-133h188v-86h-188v-834h-98v834h-433 v-834h-98v834h-141zM1237 0v920h96v-920h-96zM1237 1104v176h96v-176h-96z" />
<glyph unicode="&#xfb04;" horiz-adv-x="1462" d="M33 836v84h141v137q0 168 86 263t234 95q82 0 137 -22v-90q-29 10 -61.5 17t-71.5 7q-117 0 -171.5 -69.5t-54.5 -204.5v-133h430v137q0 170 79 264t225 94q41 0 71.5 -5t59.5 -15v-90q-53 23 -119 22q-111 0 -165 -69.5t-54 -204.5v-133h178v-84h-178v-836h-97v836h-430 v-836h-98v836h-141zM1227 0v1397h98v-1397h-98z" />
<glyph horiz-adv-x="0" />
<glyph horiz-adv-x="682" />
<glyph horiz-adv-x="0" />
<glyph horiz-adv-x="0" />
<glyph unicode="&#xd;" horiz-adv-x="569" />
<glyph unicode=" "  horiz-adv-x="569" />
<glyph unicode="&#x09;" horiz-adv-x="569" />
<glyph unicode="&#xa0;" horiz-adv-x="569" />
<glyph unicode="!" horiz-adv-x="413" d="M147 0v178h119v-178h-119zM152 1397h110l-12 -1000h-86z" />
<glyph unicode="&#x22;" horiz-adv-x="569" d="M84 1167v232h104v-232l-22 -262h-60zM381 1167v232h104v-232l-22 -262h-60z" />
<glyph unicode="#" horiz-adv-x="1329" d="M119 426v82h209l82 403h-291v80h307l90 430h84l-88 -430h426l90 430h82l-88 -430h195v-80h-211l-86 -403h297v-82h-312l-88 -424h-82l86 424h-428l-88 -424h-82l86 424h-190zM410 508h428l84 403h-428z" />
<glyph unicode="$" horiz-adv-x="987" d="M66 100v131q184 -133 385 -151v559q-195 59 -289 145t-94 228q0 63 25.5 120.5t73.5 102.5t119.5 74.5t164.5 38.5v98h94v-96q186 -12 323 -90v-121q-74 47 -156.5 75.5t-166.5 36.5v-528q203 -63 292 -154.5t89 -226.5q0 -147 -100.5 -243.5t-280.5 -116.5v-222h-94v222 q-102 4 -197.5 34.5t-187.5 83.5zM174 1014q0 -47 14.5 -84t47 -68t86 -57.5t129.5 -52.5v499q-131 -12 -204 -78.5t-73 -158.5zM545 82q133 16 202.5 81.5t69.5 168.5q0 55 -17.5 96t-52 72.5t-86 56.5t-116.5 47v-522z" />
<glyph unicode="%" horiz-adv-x="1472" d="M78 1094q0 68 25.5 126t68.5 101t101.5 68.5t125.5 25.5q66 0 125.5 -25.5t103.5 -68.5t69.5 -101.5t25.5 -125.5q0 -68 -25.5 -126.5t-68.5 -101.5t-102.5 -68.5t-127.5 -25.5t-126 25.5t-101 68.5t-68.5 101.5t-25.5 126.5zM164 1094q0 -49 18.5 -93.5t50 -77t74.5 -52 t92 -19.5q51 0 94.5 19.5t75 53t50 76.5t18.5 93q0 49 -18.5 92t-50 75.5t-74.5 52t-95 19.5q-49 0 -91 -18.5t-74.5 -51t-51 -76.5t-18.5 -93zM205 -8q31 47 106.5 157.5t175 252t211 298t211 298t175 251t106.5 156.5h92q-31 -47 -107.5 -156.5t-176 -251t-210 -298 t-210 -298t-176 -252t-107.5 -157.5h-90zM750 303q0 66 25.5 125t68.5 103t101.5 70t125.5 26q66 0 125 -26t103 -69t70 -102t26 -127q0 -66 -26 -124t-69 -102t-102 -69.5t-127 -25.5t-126 25.5t-101 69.5t-68.5 102.5t-25.5 123.5zM834 303q0 -49 18 -93t50 -76t76 -51.5 t93 -19.5q51 0 94 19.5t75 52.5t50.5 76t18.5 92t-18.5 92t-51.5 77t-76 53.5t-94 19.5q-49 0 -91 -19.5t-75 -52.5t-51 -77t-18 -93z" />
<glyph unicode="&#x26;" horiz-adv-x="1247" d="M51 317q0 70 30 129.5t79 110.5t114.5 95t139.5 85q-102 100 -152.5 180t-56.5 148q-2 16 -3 33.5t1 34.5q4 53 26.5 101t63.5 84t98.5 57.5t130.5 21.5q76 0 137.5 -23.5t103.5 -64.5t64.5 -95.5t22.5 -115.5q0 -49 -14.5 -95.5t-48 -92.5t-89 -92t-137.5 -97l330 -336 q49 72 90 151.5t70 159.5h102q-29 -92 -78 -188t-121 -193l76 -79l225 -236h-135l-231 240q-100 -117 -217 -187.5t-252 -70.5q-80 0 -147.5 24.5t-117 68.5t-77 106.5t-27.5 135.5zM156 326q0 -92 55 -156t147 -80q20 -4 41 -6t43 -2q115 8 208 67.5t173 161.5l-348 359 l-110 -70q-98 -63 -153.5 -127.5t-55.5 -146.5zM301 1112q0 -51 22.5 -98t54.5 -89t65.5 -75.5t56.5 -58.5q139 82 195.5 151.5t56.5 151.5q0 96 -61.5 154.5t-168.5 58.5q-96 0 -158.5 -53.5t-62.5 -141.5z" />
<glyph unicode="'" horiz-adv-x="368" d="M133 1167v232h105v-232l-23 -262h-59z" />
<glyph unicode="(" horiz-adv-x="634" d="M152 473q0 276 103 506.5t292 435.5h69q-174 -199 -266 -430t-92 -514q0 -272 93 -512t265 -428h-69q-86 90 -159 195.5t-125 223.5t-81.5 249t-29.5 274z" />
<glyph unicode=")" horiz-adv-x="634" d="M16 -469q180 205 269.5 433.5t89.5 508.5q0 270 -90 508t-269 434h72q96 -104 170 -210.5t123 -220.5t74.5 -240t25.5 -271q0 -276 -102.5 -506.5t-290.5 -435.5h-72z" />
<glyph unicode="*" horiz-adv-x="948" d="M41 932v82l367 -17l2 7l-279 253l59 60l256 -277l5 2l-17 373h84l-18 -373l4 -2l256 277l59 -60l-276 -253l2 -7l362 17v-82l-362 18l-2 -6l276 -256l-59 -59l-256 278l-4 -2l16 -377h-82l17 377l-5 2l-256 -278l-59 59l279 256v6z" />
<glyph unicode="+" horiz-adv-x="1064" d="M86 666v96h397v414h97v-414h399v-96h-399v-414h-97v414h-397z" />
<glyph unicode="," horiz-adv-x="344" d="M82 -197q74 57 74 197h-52v178h136v-137q-2 -125 -45 -190.5t-113 -98.5v51z" />
<glyph unicode="-" horiz-adv-x="649" d="M80 418v98h489v-98h-489z" />
<glyph unicode="." horiz-adv-x="339" d="M104 0v178h132v-178h-132z" />
<glyph unicode="/" horiz-adv-x="532" d="M12 -18l430 1433h78l-430 -1433h-78z" />
<glyph unicode="0" d="M66 698q0 168 32.5 301.5t93 225.5t143.5 141t181 49q104 0 186 -52t138.5 -146.5t87 -226.5t30.5 -290q0 -164 -31.5 -297t-90 -227t-140.5 -144t-184 -50q-104 0 -187 51t-140.5 145t-88 226.5t-30.5 293.5zM174 700q0 -293 89 -456.5t249 -163.5t249 163t89 455 q0 291 -90 455t-250 164q-154 0 -245 -161t-91 -456z" />
<glyph unicode="1" d="M182 1087l408 328h47v-1415h-107v1239l-288 -227z" />
<glyph unicode="2" d="M106 0v8q139 143 259 274.5t208.5 253t138.5 236.5t50 227q0 80 -25.5 139.5t-68.5 97.5t-98.5 57.5t-114.5 19.5q-94 0 -174 -39t-156 -113v129q76 59 158 92t180 33q92 0 167 -29.5t128 -83t82.5 -128t29.5 -162.5q0 -109 -36.5 -212.5t-107.5 -212t-173 -227 t-236 -258.5h633v-102h-844z" />
<glyph unicode="3" d="M145 59v115q80 -45 156 -67.5t156 -22.5q141 0 227 80t86 215q0 145 -96 224t-268 79v96q172 0 261 75t89 204q0 55 -21.5 102t-60.5 83t-95.5 56.5t-125.5 20.5q-96 0 -160 -22.5t-127 -61.5v104q76 43 144.5 59.5t154.5 16.5t159.5 -25.5t126 -71.5t82 -111.5 t29.5 -143.5q0 -117 -63.5 -202t-180.5 -124q129 -35 197 -129t68 -225q0 -90 -33 -164t-89 -127t-134 -81.5t-168 -28.5q-172 0 -314 77z" />
<glyph unicode="4" d="M39 518v60l698 837h45v-801h187v-96h-187v-518h-104v518h-639zM182 614h496v592z" />
<glyph unicode="5" d="M104 66v108q86 -47 162 -68.5t160 -21.5q80 0 145.5 25.5t112.5 71.5t72.5 110.5t25.5 140.5q0 84 -32.5 147.5t-87 105.5t-123 62.5t-140.5 20.5q-45 0 -94 -5t-84 -15v649h588v-99h-490v-442q33 4 60 6t45 2q106 0 192 -31.5t147.5 -88t95.5 -136.5t34 -176 q0 -100 -33 -183t-92 -142.5t-143 -92t-187 -32.5q-92 0 -173 21.5t-161 62.5z" />
<glyph unicode="6" d="M98 479q0 248 138.5 479.5t447.5 456.5l61 -80q-215 -154 -342 -317.5t-170 -347.5q76 55 152 80.5t154 25.5q86 0 158.5 -28.5t124.5 -81t82 -124t30 -159.5q0 -86 -31 -159.5t-86 -128t-130 -84t-161 -29.5t-163.5 30.5t-136 93t-93.5 155.5t-35 218zM207 461 q0 -94 25.5 -166t68.5 -119t101.5 -71.5t123.5 -24.5q63 0 118.5 21.5t95.5 61.5t62.5 95t22.5 123q0 137 -84 217t-225 80q-41 0 -94 -10.5t-101.5 -35t-81 -66.5t-32.5 -105z" />
<glyph unicode="7" d="M84 1294v103h909q-20 -47 -43.5 -97.5t-56.5 -121t-79 -169t-113.5 -239.5t-161 -334.5t-220.5 -453.5l-96 43l606 1269h-745z" />
<glyph unicode="8" d="M102 375q0 117 62.5 209t179.5 137q-111 55 -161 139t-50 189q0 78 31 145.5t83 116.5t121.5 76.5t147.5 27.5q80 0 149.5 -28.5t120 -77.5t80 -117t29.5 -143q0 -106 -54.5 -192.5t-158.5 -135.5q113 -45 176.5 -134t63.5 -212q0 -86 -31 -159t-85 -125t-130 -80.5 t-164 -28.5q-92 0 -168 30.5t-129 85t-83 126t-30 151.5zM213 379q0 -66 21.5 -120t61.5 -94t95 -61.5t123 -21.5q133 0 215 82t82 217q0 127 -82 207t-219 80q-68 0 -122 -21.5t-93 -60.5t-60.5 -92.5t-21.5 -114.5zM240 1047q0 -63 22.5 -114.5t60 -88.5t88 -56.5 t105.5 -19.5t104.5 19.5t87 56.5t59 88t21.5 115q0 57 -20 106t-56 85t-87.5 56.5t-112.5 20.5q-55 0 -105.5 -19.5t-87 -54.5t-58 -84t-21.5 -110z" />
<glyph unicode="9" d="M90 1012q0 88 31 161.5t86 128t130 84t161 29.5q98 0 178 -36t136 -101.5t87 -156.5t31 -203q0 -252 -151.5 -496t-434.5 -440l-63 77q225 166 350 331t160 339q-137 -106 -306 -106q-88 0 -160.5 29.5t-125 81.5t-81 124t-28.5 154zM199 1016q0 -66 23.5 -121t64.5 -94 t96 -60.5t121 -21.5q51 0 107.5 11t102.5 37t75.5 68t29.5 103q0 84 -21.5 153.5t-62.5 120t-101.5 78t-135.5 27.5q-66 0 -121 -22.5t-95 -63.5t-61.5 -96.5t-21.5 -118.5z" />
<glyph unicode=":" horiz-adv-x="339" d="M104 0v178h132v-178h-132zM104 741v179h132v-179h-132z" />
<glyph unicode=";" horiz-adv-x="344" d="M82 -197q74 57 74 197h-52v178h136v-137q-2 -125 -45 -190.5t-113 -98.5v51zM104 741v179h132v-179h-132z" />
<glyph unicode="&#x3c;" horiz-adv-x="1064" d="M86 653v72l893 412v-107l-762 -340q33 -14 92.5 -41.5t134 -60.5t155.5 -70t154.5 -70.5t134 -61.5t91.5 -42v-106z" />
<glyph unicode="=" horiz-adv-x="1064" d="M86 418v96h893v-96h-893zM86 911v97h893v-97h-893z" />
<glyph unicode="&#x3e;" horiz-adv-x="1064" d="M86 238v106l758 342q-74 35 -174.5 80t-206 92t-205.5 92t-172 80v107l893 -414v-74z" />
<glyph unicode="?" horiz-adv-x="600" d="M82 1231l47 153q55 31 133 31q47 0 93 -15.5t82 -50t57.5 -89t21.5 -130.5q0 -94 -40 -176t-101 -168q-66 -94 -104 -172.5t-38 -156.5q0 -29 6.5 -46.5t14.5 -29.5l-14 -14q-43 35 -59.5 70.5t-16.5 76.5q0 82 37 156.5t92 160.5q53 84 84 150t31 141q0 104 -50.5 151.5 t-121.5 47.5q-53 0 -82 -20.5t-58 -69.5h-14zM193 0v178h120v-178h-120z" />
<glyph unicode="@" horiz-adv-x="1802" d="M86 535q0 180 61.5 340.5t175 281.5t273.5 190.5t356 69.5q166 0 306.5 -47t243 -134t159.5 -213t57 -284q0 -135 -35.5 -247.5t-99 -193.5t-153 -127t-193.5 -46q-84 0 -123 43t-39 108q0 16 2 35t4 31q-84 -96 -169 -156.5t-181 -60.5q-127 0 -202.5 101.5t-75.5 269.5 q0 121 35.5 225t105.5 182t174 122t242 44q84 0 151.5 -12.5t124.5 -30.5l-115 -637q-4 -27 -6 -52.5t-2 -43.5q0 -47 19.5 -67.5t72.5 -20.5q76 0 143.5 38t120 107.5t83 168.5t30.5 222q0 141 -50 253t-140 190t-215 118.5t-275 40.5q-170 0 -313 -59t-247.5 -166.5 t-163 -256t-58.5 -326.5q0 -174 48 -313.5t136 -237t212 -149.5t276 -52q201 0 346 44t260 132l41 -57q-119 -92 -273.5 -141.5t-375.5 -49.5q-158 0 -295 53.5t-239.5 158t-161 258t-58.5 354.5zM547 504q0 -135 57.5 -217t155.5 -82q45 0 88 19.5t85 51t80 73.5t74 89 l95 525q-31 10 -82 18t-103 8q-104 0 -188 -35.5t-142.5 -100.5t-89 -154t-30.5 -195z" />
<glyph unicode="A" horiz-adv-x="1318" d="M6 0l610 1407h76l621 -1407h-113l-205 463h-678l-198 -463h-113zM360 559h592l-299 682z" />
<glyph unicode="B" horiz-adv-x="1081" d="M160 0v1397h319q88 0 167 -21.5t137.5 -64.5t93 -109.5t34.5 -157.5q0 -121 -64.5 -202.5t-182.5 -114.5q172 -18 268 -114.5t96 -245.5q0 -88 -35 -157t-96 -115t-146 -70.5t-186 -24.5h-405zM266 96h281q80 0 147.5 15.5t117.5 49.5t78 87t28 127q0 141 -100.5 214 t-305.5 73h-246v-566zM266 758h168q186 0 275.5 72.5t89.5 201.5q0 139 -87 203.5t-261 64.5h-185v-542z" />
<glyph unicode="C" horiz-adv-x="1366" d="M98 690q0 156 53.5 289t149.5 230.5t229 151.5t291 54q123 0 236.5 -27.5t224.5 -78.5v-121q-109 61 -224.5 94t-238.5 33q-137 0 -249.5 -48t-192.5 -132t-123 -197t-43 -242q0 -131 44 -242.5t124 -194.5t191.5 -130t248.5 -47q250 0 469 133v-123q-217 -110 -465 -110 h-4q-170 0 -304 58t-226 156.5t-141.5 226.5t-49.5 267z" />
<glyph unicode="D" horiz-adv-x="1507" d="M160 0v1397h497q168 0 306.5 -50.5t236.5 -140.5t152.5 -216t54.5 -277q0 -164 -54.5 -296t-152.5 -224.5t-236.5 -142.5t-304.5 -50h-499zM266 98h398q141 0 257.5 43t199.5 121t129 188.5t46 243.5q0 139 -46 251t-130 190.5t-203.5 120.5t-269.5 42h-381v-1200z" />
<glyph unicode="E" horiz-adv-x="989" d="M160 0v1397h735v-97h-629v-546h611v-99h-611v-559h647v-96h-753z" />
<glyph unicode="F" horiz-adv-x="886" d="M160 0v1397h690v-97h-584v-516h549v-98h-549v-686h-106z" />
<glyph unicode="G" horiz-adv-x="1443" d="M98 696q0 152 52.5 283t147.5 228.5t228 152.5t295 55q123 0 231.5 -26.5t231.5 -81.5v-117q-113 66 -232.5 96.5t-236.5 30.5q-129 0 -239.5 -46t-191.5 -127t-127 -192.5t-46 -240.5q0 -141 44 -258t125 -200t195.5 -129t255.5 -46q96 0 184.5 21.5t188.5 64.5v385 h-301v96h408v-551q-111 -55 -225.5 -83.5t-256.5 -28.5q-176 0 -312 57t-229 154.5t-141.5 227.5t-48.5 275z" />
<glyph unicode="H" horiz-adv-x="1443" d="M160 0v1397h106v-641h912v641h106v-1397h-106v655h-912v-655h-106z" />
<glyph unicode="I" horiz-adv-x="425" d="M160 0v1397h106v-1397h-106z" />
<glyph unicode="J" horiz-adv-x="425" d="M-121 -330q16 0 26.5 -1t24.5 -1q74 0 119 22.5t69.5 72t33 127t8.5 188.5v1319h106v-1422q0 -203 -77.5 -306t-235.5 -103q-27 0 -57 6z" />
<glyph unicode="K" horiz-adv-x="1122" d="M160 0v1397h106v-674l637 674h135l-643 -682l738 -715h-148l-719 696v-696h-106z" />
<glyph unicode="L" horiz-adv-x="974" d="M160 0v1397h106v-1299h686v-98h-792z" />
<glyph unicode="M" horiz-adv-x="1570" d="M160 0v1397h104l522 -654l523 654h102v-1397h-106v1227h-5l-505 -635h-17l-508 635h-4v-1227h-106z" />
<glyph unicode="N" horiz-adv-x="1554" d="M160 0v1397h92l1040 -1229v1229h103v-1397h-95l-1038 1225v-1225h-102z" />
<glyph unicode="O" horiz-adv-x="1640" d="M98 688q0 154 52.5 287t147.5 231.5t227 153.5t290 55q168 0 303 -57.5t229.5 -155.5t144.5 -226t50 -269q0 -152 -53 -284t-148.5 -230.5t-230.5 -154.5t-297 -56q-160 0 -292 57t-226 153.5t-145.5 225.5t-51.5 270zM209 696q0 -131 47 -242.5t128 -194.5t190.5 -129 t236.5 -46q154 0 270.5 54.5t194.5 141.5t117 197.5t39 220.5q0 123 -43 234.5t-122 195.5t-191 134.5t-251 50.5q-143 0 -257.5 -50.5t-194.5 -134.5t-122 -196.5t-42 -235.5z" />
<glyph unicode="P" horiz-adv-x="1034" d="M160 0v1397h370q207 0 326 -96.5t119 -276.5q0 -186 -121 -280.5t-344 -94.5h-244v-649h-106zM266 745h246q352 0 352 281q0 274 -352 274h-246v-555z" />
<glyph unicode="Q" horiz-adv-x="1640" d="M98 688q0 164 56.5 298t154 229.5t228.5 147.5t280 52q176 0 311.5 -60.5t227.5 -159.5t139 -227t47 -261q0 -143 -47 -268.5t-131 -219.5t-200.5 -153.5t-256.5 -73.5q51 -37 111.5 -69t122 -56.5t119 -37.5t102.5 -13q35 0 60.5 13t58.5 38l14 -14l-135 -140 q-168 20 -342 94t-340 197q-133 20 -240.5 83t-183.5 155t-116 205.5t-40 240.5zM209 696q0 -129 46 -240.5t127 -194.5t191.5 -130t241.5 -47q137 0 251 47t194.5 130t126 194.5t45.5 240.5q0 125 -42 236.5t-121 196.5t-191.5 134.5t-254.5 49.5q-143 0 -256.5 -50.5 t-193.5 -135.5t-122 -196.5t-42 -234.5z" />
<glyph unicode="R" horiz-adv-x="1165" d="M160 0v1397h352q211 0 318.5 -98.5t107.5 -264.5q0 -139 -77 -226t-216 -116q35 -16 62.5 -32.5t54 -42t53.5 -62.5t62 -90l297 -465h-130l-268 428q-45 70 -84 115t-79 70.5t-83 35.5t-94 10h-170v-659h-106zM266 758h162q88 0 162 12t127 43t81.5 84t28.5 137 q0 76 -25.5 127t-70.5 82t-107.5 44t-138.5 13h-219v-542z" />
<glyph unicode="S" horiz-adv-x="905" d="M84 1071q0 74 28.5 137.5t81 109.5t125 71.5t158.5 25.5q78 0 154 -20.5t145 -61.5v-121q-147 106 -301 107q-129 0 -205.5 -67.5t-76.5 -176.5q0 -41 8 -80t37.5 -76.5t85 -76.5t149.5 -80q104 -47 174 -92t110 -94.5t56 -105.5t16 -128q0 -80 -28.5 -145.5 t-79.5 -113.5t-124 -74.5t-161 -26.5q-193 0 -348 114v133q84 -76 169 -113.5t181 -37.5q123 0 202 70.5t79 193.5q0 51 -12.5 94t-46 81t-95 77t-159.5 86q-88 39 -149.5 80t-99.5 87t-55.5 101.5t-17.5 122.5z" />
<glyph unicode="T" horiz-adv-x="1179" d="M29 1300v97h1122v-97h-510v-1300h-106v1300h-506z" />
<glyph unicode="U" horiz-adv-x="1427" d="M143 596v801h107v-803q0 -115 28.5 -210t87 -162.5t145.5 -105.5t202 -38q117 0 205 38t146 106.5t87 162.5t29 209v803h106v-803q0 -133 -36 -244.5t-106.5 -193.5t-177 -128t-245.5 -46q-145 0 -253 44t-180.5 124.5t-108.5 193.5t-36 252z" />
<glyph unicode="V" horiz-adv-x="1210" d="M6 1397h109l491 -1188h2l488 1188h108l-588 -1420h-20z" />
<glyph unicode="W" horiz-adv-x="2111" d="M4 1397h111l454 -1164h2l443 1164h84l454 -1155h2l441 1155h110l-542 -1409h-23l-483 1239l-475 -1239h-21z" />
<glyph unicode="X" horiz-adv-x="1382" d="M6 0l623 719l-586 678h129l522 -604l523 604h129l-588 -678l620 -719h-129l-555 641q-94 -111 -232 -269.5t-325 -371.5h-131z" />
<glyph unicode="Y" horiz-adv-x="1173" d="M4 1397h129l453 -551l456 551h127l-528 -643v-754h-109v754z" />
<glyph unicode="Z" horiz-adv-x="1263" d="M16 0l60 92l960 1208h-983v97h1170l-60 -99l-956 -1202h1034v-96h-1225z" />
<glyph unicode="[" horiz-adv-x="608" d="M156 -451v1848h434v-90h-332v-1669h332v-89h-434z" />
<glyph unicode="\" horiz-adv-x="532" d="M12 1415h78l430 -1433h-78z" />
<glyph unicode="]" horiz-adv-x="608" d="M20 -362h332v1669h-332v90h435v-1848h-435v89z" />
<glyph unicode="^" horiz-adv-x="1064" d="M143 694l361 705h57l359 -705h-95l-293 590l-292 -590h-97z" />
<glyph unicode="_" d="M-10 -168h1044v-76h-1044v76z" />
<glyph unicode="`" horiz-adv-x="724" d="M178 1370h119l205 -315h-74z" />
<glyph unicode="a" horiz-adv-x="854" d="M61 209q0 137 130.5 218t396.5 120v94q0 106 -43 155.5t-154 49.5q-84 0 -154.5 -35t-136.5 -94v106q125 115 299 115q147 0 217 -73.5t70 -209.5v-553q0 -35 23 -34q29 0 120 71v-76q-55 -43 -94 -62t-73 -19q-43 0 -58.5 23.5t-15.5 57.5v48q-78 -72 -144.5 -100.5 t-140.5 -28.5q-111 0 -176.5 64.5t-65.5 162.5zM160 221q0 -72 48 -119t130 -47q63 0 120.5 28t129.5 97v305q-96 -10 -174 -31.5t-135.5 -54t-88 -78t-30.5 -100.5z" />
<glyph unicode="b" horiz-adv-x="1017" d="M137 49v1348h96v-594q129 135 312 135q92 0 164.5 -36t124 -98.5t78 -146.5t26.5 -178q0 -115 -35 -207t-96.5 -156.5t-147.5 -99t-186 -34.5q-92 0 -172 16t-164 51zM233 113q63 -23 120 -34t122 -11q82 0 148.5 29.5t114.5 84t75 129t27 166.5q0 80 -21.5 148.5 t-62.5 119t-99.5 79t-132.5 28.5q-84 0 -151.5 -34t-139.5 -111v-594z" />
<glyph unicode="c" horiz-adv-x="841" d="M78 453q0 111 33.5 200.5t94 152t144.5 97.5t182 35q63 0 121 -11.5t125 -37.5v-103q-66 33 -122 46.5t-119 13.5q-82 0 -147.5 -30t-113 -82t-73 -121.5t-25.5 -151.5q0 -80 24.5 -149.5t72 -123t117 -84t159.5 -30.5q66 0 120 13t113 36v-96q-59 -23 -118.5 -34 t-124.5 -11q-111 0 -197 37.5t-145.5 102t-90 150.5t-30.5 181z" />
<glyph unicode="d" horiz-adv-x="1017" d="M78 463q0 111 33.5 199t94 149t141.5 94t173 33q78 0 141.5 -19.5t122.5 -54.5v533h99v-1397h-344q-113 0 -199 38t-144.5 101.5t-88 147.5t-29.5 176zM178 461q0 -86 27.5 -155.5t77 -119t118 -75t152.5 -25.5h231v684q-61 41 -122.5 61.5t-137.5 20.5 q-78 0 -141.5 -27.5t-108.5 -79t-70.5 -124t-25.5 -160.5z" />
<glyph unicode="e" horiz-adv-x="942" d="M78 461q0 102 29.5 190t83 151.5t129 99.5t167.5 36q174 0 275.5 -116.5t111.5 -334.5h-694q0 -4 -1 -10t-1 -18q0 -80 24.5 -150.5t70.5 -123t112 -82t150 -29.5q178 0 327 112v-98q-86 -59 -168 -82.5t-170 -23.5q-96 0 -178 33.5t-141.5 97t-93 151.5t-33.5 197z M184 551h592q-18 145 -91 223t-200 78q-119 0 -201.5 -83t-99.5 -218z" />
<glyph unicode="f" horiz-adv-x="528" d="M33 834v86h141v118q0 182 81 279.5t224 97.5q41 0 76 -7t63 -17v-93q-59 25 -126 25q-111 0 -165.5 -69.5t-54.5 -217.5v-116h222v-86h-222v-834h-98v834h-141z" />
<glyph unicode="g" horiz-adv-x="845" d="M23 -215q0 92 56 154.5t183 89.5q-59 16 -87 49t-28 76q0 59 44.5 96t125.5 55q-113 33 -170 113t-57 184q0 141 97.5 229.5t269.5 88.5h368v-78h-227q72 -35 108.5 -100.5t36.5 -143.5q0 -109 -70.5 -197t-217.5 -116q-111 -23 -162 -47.5t-51 -73.5q0 -37 20.5 -56.5 t61.5 -30.5t101 -17.5t138 -18.5q76 -12 127 -35.5t83 -56.5t45 -71t13 -81q0 -63 -29.5 -112.5t-82.5 -84t-128 -53t-167 -18.5q-199 0 -300 69.5t-101 186.5zM117 -211q0 -90 78.5 -135t228.5 -45q147 0 229 48t82 136q0 180 -321 180q-135 0 -216 -45t-81 -139zM180 600 q0 -104 67.5 -166.5t168.5 -62.5q49 0 93 16t75.5 47t50 74t18.5 96q0 49 -17.5 91t-48 74t-72.5 49.5t-93 17.5q-104 0 -173 -65t-69 -171z" />
<glyph unicode="h" horiz-adv-x="999" d="M137 0v1397h96v-637q57 82 140.5 130t181.5 48q84 0 144.5 -27.5t98.5 -77t56 -116t18 -144.5v-573h-96v569q0 129 -58.5 207t-182.5 78q-94 0 -168 -47t-134 -139v-668h-96z" />
<glyph unicode="i" horiz-adv-x="370" d="M137 0v920h96v-920h-96zM137 1104v176h96v-176h-96z" />
<glyph unicode="j" horiz-adv-x="370" d="M-39 -397q92 16 134 86.5t42 214.5v1016h96v-1014q0 -170 -50 -258t-163 -119zM137 1104v176h96v-176h-96z" />
<glyph unicode="k" horiz-adv-x="849" d="M137 0v1397h96v-905l461 428h119l-469 -443l547 -477h-131l-527 463v-463h-96z" />
<glyph unicode="l" horiz-adv-x="370" d="M137 0v1397h96v-1397h-96z" />
<glyph unicode="m" horiz-adv-x="1568" d="M137 0v920h96v-160q63 86 142.5 132t171.5 46q100 0 172 -50t100 -155q80 109 156 157t168 48q147 0 223 -92t76 -273v-573h-96v559q0 293 -232 293q-78 0 -147.5 -46t-128.5 -140v-666h-97v580q0 274 -221 274q-90 0 -161.5 -49t-125.5 -135v-670h-96z" />
<glyph unicode="n" horiz-adv-x="999" d="M137 0v920h96v-158q59 84 146.5 130t173.5 46q164 0 241.5 -103.5t77.5 -271.5v-563h-96v553q0 147 -62.5 224t-183.5 77q-92 0 -167.5 -50t-129.5 -138v-666h-96z" />
<glyph unicode="o" horiz-adv-x="1093" d="M78 451q0 104 33.5 194t96 154.5t149.5 101.5t192 37q100 0 185 -36t147.5 -100.5t97.5 -151.5t35 -191q0 -111 -39 -200t-103.5 -150.5t-148.5 -94t-176 -32.5q-109 0 -196 38.5t-147.5 103t-93 150t-32.5 177.5zM178 459q0 -86 27.5 -159t77 -124t117 -79.5 t147.5 -28.5q82 0 149.5 29.5t116.5 81.5t75.5 124t26.5 156q0 88 -27.5 159.5t-77.5 124t-118.5 81t-148.5 28.5q-78 0 -144.5 -28.5t-116 -80t-77 -124t-27.5 -160.5z" />
<glyph unicode="p" horiz-adv-x="1040" d="M137 -471v1391h352q104 0 191.5 -32t150 -90.5t97.5 -144.5t35 -192q0 -102 -34 -189.5t-95.5 -152t-145.5 -101t-184 -36.5q-70 0 -130.5 14t-140.5 57v-524h-96zM233 141q66 -39 128.5 -56t134.5 -17q82 0 149.5 28.5t115.5 80.5t74.5 124t26.5 160q0 180 -102.5 276.5 t-276.5 96.5h-250v-693z" />
<glyph unicode="q" horiz-adv-x="1038" d="M78 444q0 106 33.5 194.5t95 151t147.5 96.5t189 34h360v-1391h-98v522q-66 -35 -133.5 -52t-153.5 -17q-96 0 -177 33.5t-139.5 94t-91 145.5t-32.5 189zM178 446q0 -176 94.5 -277t259.5 -101q78 0 142.5 15t130.5 56v695h-250q-80 0 -148.5 -25t-119.5 -73t-80 -120.5 t-29 -169.5z" />
<glyph unicode="r" horiz-adv-x="729" d="M131 0v920h98v-232q159 250 306 250q53 0 101 -25.5t95 -70.5l-53 -82q-53 45 -93 64.5t-77 19.5q-66 0 -144.5 -71t-134.5 -206v-567h-98z" />
<glyph unicode="s" horiz-adv-x="718" d="M80 57v107q70 -47 139.5 -71.5t128.5 -24.5q92 0 143.5 44t51.5 113q0 33 -9.5 58.5t-36 49t-71.5 48.5t-115 57q-117 53 -171 111.5t-54 152.5q0 104 75 170t204 66q119 0 241 -68v-100q-66 41 -123 61.5t-118 20.5q-88 0 -133.5 -40t-45.5 -105q0 -31 9.5 -55.5t33 -47 t65.5 -47.5t109 -55q117 -51 178.5 -111.5t61.5 -159.5q0 -49 -18.5 -94t-55.5 -79.5t-91 -55t-124 -20.5q-72 0 -135 17t-139 58z" />
<glyph unicode="t" horiz-adv-x="620" d="M-8 834v86h198v215l97 59v-274h274v-86h-274v-555q0 -100 24.5 -154.5t112.5 -54.5q41 0 87 14t89 37v-92q-43 -23 -93 -35t-93 -12q-123 0 -173.5 68.5t-50.5 228.5v555h-198z" />
<glyph unicode="u" horiz-adv-x="999" d="M127 369v551h96v-553q0 -143 60.5 -222t185.5 -79q94 0 169 50t128 138v666h96v-920h-96v158q-59 -80 -145 -128t-177 -48q-154 0 -235.5 97t-81.5 290z" />
<glyph unicode="v" horiz-adv-x="837" d="M2 920h107l313 -752l307 752h105l-394 -945h-37z" />
<glyph unicode="w" horiz-adv-x="1470" d="M2 920h104l310 -736l286 736h66l287 -736l309 736h104l-397 -938h-33l-303 770l-301 -770h-33z" />
<glyph unicode="x" horiz-adv-x="968" d="M12 0l406 465l-402 455h123l342 -383l340 383h123l-403 -455l415 -465h-125l-352 393l-346 -393h-121z" />
<glyph unicode="y" horiz-adv-x="860" d="M6 920h109l323 -635l314 635h102l-684 -1391h-102l319 649z" />
<glyph unicode="z" horiz-adv-x="811" d="M29 0v14l581 815h-563v91h729v-13l-586 -819h601v-88h-762z" />
<glyph unicode="{" horiz-adv-x="636" d="M109 420v86q119 16 161.5 84.5t42.5 206.5v247q0 98 13.5 166t47.5 110t94 59.5t153 17.5v-84q-68 0 -111 -13.5t-66.5 -44t-32 -82t-8.5 -126.5v-252q0 -72 -9 -126.5t-31.5 -94t-59.5 -66.5t-92 -45q98 -29 145 -103.5t47 -224.5v-270q0 -78 11.5 -127t36 -77t66.5 -39 t104 -11v-84q-86 0 -144.5 15.5t-94.5 54t-52.5 104.5t-16.5 166v266q0 139 -45 208t-159 79z" />
<glyph unicode="|" horiz-adv-x="425" d="M170 -473v1870h86v-1870h-86z" />
<glyph unicode="}" horiz-adv-x="636" d="M18 -389q61 0 102.5 11t67 40t35.5 78t10 125v270q0 150 47.5 224.5t145.5 103.5q-55 18 -92 45t-59.5 66.5t-32 94t-9.5 126.5v252q0 76 -8 127t-31.5 81.5t-65.5 44t-110 13.5v84q96 0 157 -19.5t93.5 -62.5t44 -109.5t11.5 -161.5v-247q0 -137 43 -206t161 -85v-86 q-113 -10 -158.5 -79t-45.5 -208v-266q0 -96 -15.5 -160.5t-50.5 -104.5t-93.5 -57.5t-146.5 -17.5v84z" />
<glyph unicode="~" d="M82 616v111q53 59 110.5 92t122.5 33q53 0 104.5 -24.5t100.5 -55.5t98.5 -55.5t98.5 -24.5q63 0 113.5 35t111.5 104v-108q-55 -59 -111.5 -92t-119.5 -33q-53 0 -104.5 24.5t-101.5 54.5t-99.5 54.5t-94.5 24.5q-63 0 -114.5 -34t-114.5 -106z" />
<glyph unicode="&#xa1;" horiz-adv-x="413" d="M147 741v179h119v-179h-119zM152 -477l12 999h86l12 -999h-110z" />
<glyph unicode="&#xa2;" d="M127 455q0 109 34 197.5t94 152t144 98.5t183 35q45 0 86 -6l127 360h63l-133 -372q31 -8 57.5 -16.5t40.5 -14.5v-103q-31 16 -63.5 29.5t-65.5 20.5l-260 -730q70 -35 160 -34q125 0 237 51v-94q-55 -23 -119.5 -35t-129.5 -12q-104 0 -181 30l-141 -399h-63l151 426 q-104 59 -162.5 165.5t-58.5 250.5zM225 459q0 -111 43 -194t115 -130l254 711q-6 0 -20.5 1t-32.5 1q-80 0 -145.5 -28.5t-114 -81t-74 -123t-25.5 -156.5z" />
<glyph unicode="&#xa3;" d="M104 -14l170 641h-159v94h184q47 162 101.5 291t121 218t146.5 137t178 48q45 0 84 -14l61 -115q-20 12 -58 20.5t-75 8.5q-57 0 -115.5 -23.5t-116 -88t-113.5 -181.5t-107 -301h227v-94h-256l-139 -521q29 6 68.5 12.5t86.5 6.5q59 0 111.5 -7t99.5 -15.5t90 -15.5 t86 -7q53 0 102.5 8t102.5 37v-102q-51 -20 -95 -30.5t-108 -10.5q-59 0 -108 7t-94 15t-90.5 15.5t-96.5 7.5q-29 0 -58.5 -1t-63 -5.5t-74.5 -12.5t-93 -22z" />
<glyph unicode="&#xa4;" horiz-adv-x="1110" d="M88 291l137 133q-47 57 -72.5 128t-25.5 144q0 76 25.5 146.5t72.5 128.5l-137 137l64 66l137 -140q59 51 129.5 75t142.5 24t143.5 -24t131.5 -75l137 140l63 -66l-135 -137q47 -59 71.5 -130t24.5 -145t-24.5 -143.5t-71.5 -128.5l135 -133l-63 -66l-137 137 q-59 -51 -131 -74.5t-144 -23.5t-142.5 22.5t-129.5 75.5l-137 -137zM219 698q0 -72 26.5 -134t74 -109t108.5 -74t133 -27q74 0 136.5 28t109.5 74t73.5 108.5t26.5 133.5q0 72 -26.5 134.5t-73.5 109.5t-110.5 73.5t-137.5 26.5q-70 0 -131 -26.5t-107.5 -73.5t-74 -109.5 t-27.5 -134.5z" />
<glyph unicode="&#xa5;" d="M12 1397h117l383 -555l381 555h117l-426 -621h381v-80h-400v-184h400v-82h-400v-430h-106v430h-402v82h402v184h-402v80h383z" />
<glyph unicode="&#xa6;" horiz-adv-x="425" d="M170 293h86v-766h-86v766zM170 631v766h86v-766h-86z" />
<glyph unicode="&#xa7;" horiz-adv-x="849" d="M59 598q0 96 49.5 168t135.5 137q-45 53 -73 113.5t-28 134.5q0 55 19.5 103.5t56.5 84t90 56t121 20.5q86 0 141.5 -20.5t98.5 -53.5v-102q-47 41 -104.5 64.5t-135.5 23.5q-84 0 -135 -44t-51 -130q0 -92 57 -167t156 -157q53 -45 108.5 -92t99.5 -101t71.5 -116.5 t27.5 -138.5q0 -88 -42 -166t-134 -158q53 -59 80.5 -120.5t27.5 -141.5q0 -63 -23.5 -113.5t-64.5 -84t-95 -51t-116 -17.5q-90 0 -154.5 24.5t-105.5 65.5v102q49 -47 115.5 -76.5t140.5 -29.5q92 0 148.5 47t56.5 135q0 94 -60.5 172t-160.5 168q-55 49 -111.5 99.5 t-102.5 105.5t-75 118.5t-29 137.5zM160 604q0 -70 36.5 -131t93 -119.5t124 -115t127.5 -117.5q66 61 94.5 121.5t28.5 128.5q0 70 -34 130t-87.5 115.5t-119 109.5t-128.5 116q-63 -53 -99 -107.5t-36 -130.5z" />
<glyph unicode="&#xa8;" horiz-adv-x="552" d="M72 1098v172h100v-172h-100zM381 1098v172h100v-172h-100z" />
<glyph unicode="&#xa9;" horiz-adv-x="1622" d="M90 702q0 147 56.5 278.5t154.5 230t229.5 155.5t282.5 57q150 0 281 -56t228 -154.5t153.5 -229.5t56.5 -281q0 -147 -56.5 -278t-152.5 -229.5t-227 -154.5t-281 -56q-147 0 -279.5 55t-231.5 152.5t-156.5 228t-57.5 282.5zM147 702q0 -139 53.5 -259.5t143.5 -211 t212 -142.5t259 -52t258 52t210 143.5t140.5 212t51.5 257.5t-52.5 259t-142.5 212.5t-210 143.5t-257 53t-258 -53t-212 -143.5t-143.5 -212.5t-52.5 -259zM408 702q0 90 28.5 168t83.5 135.5t136 90t186 32.5q72 0 135 -14t127 -43v-92q-61 35 -123.5 51.5t-126.5 16.5 q-84 0 -148.5 -26t-108.5 -71t-66.5 -108.5t-22.5 -136.5q0 -78 24.5 -140.5t69.5 -107.5t108.5 -68.5t139.5 -23.5q61 0 124.5 14t129.5 49v-88q-66 -29 -129.5 -43t-136.5 -14q-100 0 -180 31.5t-135.5 88t-85 133t-29.5 166.5z" />
<glyph unicode="&#xaa;" horiz-adv-x="602" d="M59 983q0 37 17.5 68.5t58.5 58.5t106.5 44t161.5 28v28q0 80 -29.5 109t-88.5 29q-47 0 -94.5 -17.5t-106.5 -64.5v80q53 37 103.5 53t103.5 16q92 0 142 -50t50 -155v-282q0 -31 17 -31q12 0 33.5 15.5t52.5 43.5v-59q-29 -29 -59.5 -44t-55.5 -15q-55 0 -68 63 q-31 -29 -77.5 -46t-100.5 -17q-74 0 -120 40t-46 105zM141 991q0 -49 29 -72.5t82 -23.5q37 0 73.5 13.5t77.5 45.5v183q-53 -6 -101 -15.5t-84 -27t-56.5 -42t-20.5 -61.5z" />
<glyph unicode="&#xab;" horiz-adv-x="956" d="M49 469l354 459h101l-352 -459l352 -461h-101zM463 469l352 459h103l-353 -459l353 -461h-103z" />
<glyph unicode="&#xac;" horiz-adv-x="1064" d="M86 903v96h881v-571h-97v475h-784z" />
<glyph unicode="&#xad;" horiz-adv-x="649" d="M80 418v98h489v-98h-489z" />
<glyph unicode="&#xae;" horiz-adv-x="1622" d="M90 702q0 147 56.5 278.5t154.5 230t229.5 155.5t282.5 57q150 0 281 -56t228 -154.5t153.5 -229.5t56.5 -281q0 -147 -56.5 -278t-152.5 -229.5t-227 -154.5t-281 -56q-147 0 -279.5 55t-231.5 152.5t-156.5 228t-57.5 282.5zM147 702q0 -139 53.5 -259.5t143.5 -211 t212 -142.5t259 -52t258 52t210 143.5t140.5 212t51.5 257.5t-52.5 259t-142.5 212.5t-210 143.5t-257 53t-258 -53t-212 -143.5t-143.5 -212.5t-52.5 -259zM539 307v805h276q137 0 209 -55.5t72 -159.5q0 -80 -57.5 -141.5t-161.5 -71.5q53 -16 86.5 -48t62.5 -75l174 -254 h-104l-154 230q-47 74 -91 97t-116 23h-106v-350h-90zM629 725h147q104 0 163.5 42t59.5 122q0 78 -50 116.5t-165 38.5h-155v-319z" />
<glyph unicode="&#xaf;" horiz-adv-x="681" d="M90 1176v84h502v-84h-502z" />
<glyph unicode="&#xb0;" horiz-adv-x="815" d="M125 1133q0 57 22.5 108t60.5 90t89 61.5t111 22.5q57 0 108 -21.5t90 -59.5t61.5 -90t22.5 -111t-22.5 -110.5t-60.5 -89.5t-90 -60.5t-109 -22.5t-108.5 21.5t-90.5 60.5t-61.5 90.5t-22.5 110.5zM193 1133q0 -45 16 -84t46 -69t69 -46t84 -16q43 0 82.5 16t68.5 46 t46.5 68.5t17.5 84.5q0 43 -17.5 82.5t-46.5 68.5t-67.5 46.5t-83.5 17.5q-43 0 -82 -17.5t-69 -46.5t-47 -67.5t-17 -83.5z" />
<glyph unicode="&#xb1;" horiz-adv-x="1064" d="M86 74v96h893v-96h-893zM86 713v96h397v395h97v-395h399v-96h-399v-396h-97v396h-397z" />
<glyph unicode="&#xb2;" horiz-adv-x="653" d="M74 1006v8q117 109 191.5 185.5t117.5 135t59.5 102.5t16.5 87q0 70 -46 110.5t-122 40.5q-53 0 -101.5 -22.5t-97.5 -69.5v92q47 35 96.5 52.5t108.5 17.5q109 0 178.5 -58.5t69.5 -158.5q0 -49 -14.5 -93t-50.5 -95.5t-97 -115t-154 -151.5h361v-67h-516z" />
<glyph unicode="&#xb3;" horiz-adv-x="653" d="M102 1036v78q53 -29 99.5 -40t91.5 -11q78 0 124 39t46 104q0 143 -209 146v65q98 0 150.5 35t52.5 100q0 53 -45 90t-121 37q-57 0 -97 -12t-77 -35v70q41 23 82 33t100 10q104 0 172 -52t68 -138q0 -53 -31 -96.5t-92 -69.5q135 -43 135 -183q0 -96 -72.5 -154.5 t-183.5 -58.5q-51 0 -97 10.5t-96 32.5z" />
<glyph unicode="&#xb4;" horiz-adv-x="632" d="M272 1055l205 315h117l-248 -315h-74z" />
<glyph unicode="&#xb5;" horiz-adv-x="1009" d="M137 -471v1391h96v-566q0 -131 63.5 -209.5t188.5 -78.5q178 0 291 192v662h96v-920h-96v156q-49 -82 -127 -128t-164 -46q-92 0 -152.5 36.5t-99.5 108.5v-598h-96z" />
<glyph unicode="&#xb6;" horiz-adv-x="1165" d="M96 1001q0 86 31 158t85 125t129 83t161 30h641v-92h-191v-1780h-94v1780h-270v-1780h-94v1087q-86 2 -159 33t-126 83t-83 122t-30 151z" />
<glyph unicode="&#xb7;" horiz-adv-x="339" d="M104 627v178h132v-178h-132z" />
<glyph unicode="&#xb8;" horiz-adv-x="673" d="M193 -365l2 68q31 -6 84 -6q80 0 109.5 26.5t29.5 69.5q0 47 -31 66.5t-76 19.5h-35l43 137h74l-24 -84q72 -4 109.5 -41.5t37.5 -97.5q0 -78 -62.5 -122t-168.5 -44q-33 0 -55.5 2t-36.5 6z" />
<glyph unicode="&#xb9;" horiz-adv-x="653" d="M98 1559l252 176h58v-729h-84v618l-181 -121z" />
<glyph unicode="&#xba;" horiz-adv-x="731" d="M61 1126q0 59 22.5 112.5t62.5 92.5t96.5 61.5t122.5 22.5q68 0 123 -22.5t96 -61.5t63.5 -91.5t22.5 -113.5t-22.5 -114.5t-63.5 -92t-97.5 -60t-121.5 -21.5q-66 0 -122.5 22.5t-96.5 61.5t-62.5 91t-22.5 113zM143 1126q0 -98 63 -158.5t161 -60.5t160.5 59.5 t62.5 159.5q0 102 -63.5 163t-161.5 61q-94 0 -158 -60.5t-64 -163.5z" />
<glyph unicode="&#xbb;" horiz-adv-x="956" d="M39 8l352 459l-352 461h100l355 -461l-355 -459h-100zM453 8l352 459l-352 461h100l354 -461l-354 -459h-100z" />
<glyph unicode="&#xbc;" horiz-adv-x="1759" d="M111 1208l256 193h55v-866h-84v753l-184 -135zM350 -23l993 1428h84l-993 -1428h-84zM1114 319v41l436 517h41v-492h119v-66h-119v-319h-82v319h-395zM1225 385h284v344z" />
<glyph unicode="&#xbd;" horiz-adv-x="1759" d="M111 1208l256 193h55v-866h-84v753l-184 -135zM326 -23l993 1428h86l-995 -1428h-84zM1149 0l51 59q102 106 172 187.5t112 147t60.5 118.5t18.5 106q0 82 -49.5 135.5t-135.5 53.5q-59 0 -109 -26.5t-104 -80.5v95q49 41 102.5 61.5t116.5 20.5q117 0 191 -69t74 -185 q0 -61 -15.5 -113.5t-54.5 -114t-105.5 -139.5t-168.5 -188h391v-68h-547z" />
<glyph unicode="&#xbe;" horiz-adv-x="1759" d="M106 571v80q113 -63 203 -63q86 0 136.5 49t50.5 131q0 90 -58.5 136t-169.5 48v66q104 0 161.5 43t57.5 127q0 68 -49 113t-131 45q-63 0 -105 -16.5t-83 -41.5v72q47 29 90 40t104 11q111 0 183.5 -60.5t72.5 -160.5q0 -66 -35.5 -119t-103.5 -82q152 -51 152 -219 q0 -55 -20.5 -101t-57.5 -79t-87 -51.5t-108 -18.5q-53 0 -101 11.5t-102 39.5zM340 -23l993 1428h86l-995 -1428h-84zM1114 319v41l436 517h41v-492h119v-66h-119v-319h-82v319h-395zM1225 385h284v344z" />
<glyph unicode="&#xbf;" horiz-adv-x="600" d="M84 -211q0 94 40 176t101 168q66 94 104 173t38 157q0 29 -6.5 46t-14.5 30l14 14q43 -35 59.5 -71t16.5 -76q0 -82 -37 -157t-92 -161q-53 -84 -83.5 -149.5t-30.5 -141.5q0 -104 50 -151t122 -47q53 0 81.5 20.5t57.5 69.5h14l-47 -154q-55 -31 -133 -31 q-47 0 -93 15.5t-82 50.5t-57.5 88t-21.5 131zM287 741v179h121v-179h-121z" />
<glyph unicode="&#xc0;" horiz-adv-x="1318" d="M6 0l610 1407h76l621 -1407h-113l-205 463h-678l-198 -463h-113zM360 559h592l-299 682zM401 1806h129l211 -315h-76z" />
<glyph unicode="&#xc1;" horiz-adv-x="1318" d="M6 0l610 1407h76l621 -1407h-113l-205 463h-678l-198 -463h-113zM360 559h592l-299 682zM573 1491l209 315h129l-264 -315h-74z" />
<glyph unicode="&#xc2;" horiz-adv-x="1318" d="M6 0l610 1407h76l621 -1407h-113l-205 463h-678l-198 -463h-113zM359 1491l227 315h144l229 -315h-74l-225 246l-227 -246h-74zM360 559h592l-299 682z" />
<glyph unicode="&#xc3;" horiz-adv-x="1318" d="M6 0l610 1407h76l621 -1407h-113l-205 463h-678l-198 -463h-113zM347 1532q0 104 47 157.5t121 53.5q45 0 84.5 -19.5t76.5 -43t70 -43t68 -19.5q49 0 71.5 31.5t26.5 93.5h63q0 -106 -48 -158.5t-118 -52.5q-47 0 -83.5 19.5t-71.5 43t-70 43t-74 19.5q-92 0 -98 -125 h-65zM360 559h592l-299 682z" />
<glyph unicode="&#xc4;" horiz-adv-x="1318" d="M6 0l610 1407h76l621 -1407h-113l-205 463h-678l-198 -463h-113zM360 559h592l-299 682zM453 1532v172h100v-172h-100zM770 1532v172h100v-172h-100z" />
<glyph unicode="&#xc5;" horiz-adv-x="1318" d="M6 0l610 1407h76l621 -1407h-113l-205 463h-678l-198 -463h-113zM360 559h592l-299 682zM467 1659q0 37 14 70.5t39.5 59.5t59.5 41t73 15t73.5 -15t59.5 -42t39 -59.5t14 -69.5q0 -78 -54 -132t-132 -54q-39 0 -73 14t-59.5 39.5t-39.5 59.5t-14 73zM528 1659 q0 -53 37 -90t88 -37q53 0 90 38t37 89q0 53 -38 90t-89 37t-88 -37t-37 -90z" />
<glyph unicode="&#xc6;" horiz-adv-x="1728" d="M16 0l846 1397h783v-97h-621v-546h604v-99h-604v-559h639v-96h-745v655h-388l-397 -655h-117zM588 754h330v540z" />
<glyph unicode="&#xc7;" horiz-adv-x="1366" d="M98 690q0 156 53.5 289t149.5 230.5t229 151.5t291 54q123 0 236.5 -27.5t224.5 -78.5v-121q-109 61 -224.5 94t-238.5 33q-137 0 -249.5 -48t-192.5 -132t-123 -197t-43 -242q0 -131 44 -242.5t124 -194.5t191.5 -130t248.5 -47q250 0 469 133v-123 q-104 -53 -215.5 -79.5t-232.5 -30.5l-15 -50q74 -4 111 -41.5t37 -97.5q0 -78 -61.5 -122t-168.5 -44q-33 0 -56 2t-38 6l2 68q31 -6 84 -6q80 0 109.5 26.5t29.5 69.5q0 47 -29.5 66.5t-76.5 19.5h-35l33 107q-158 8 -282 69.5t-210 156.5t-131 219t-45 259z" />
<glyph unicode="&#xc8;" horiz-adv-x="989" d="M160 0v1397h735v-97h-629v-546h611v-99h-611v-559h647v-96h-753zM280 1806h129l211 -315h-76z" />
<glyph unicode="&#xc9;" horiz-adv-x="989" d="M160 0v1397h735v-97h-629v-546h611v-99h-611v-559h647v-96h-753zM456 1491l209 315h129l-264 -315h-74z" />
<glyph unicode="&#xca;" horiz-adv-x="989" d="M160 0v1397h735v-97h-629v-546h611v-99h-611v-559h647v-96h-753zM225 1491l227 315h144l229 -315h-74l-225 246l-227 -246h-74z" />
<glyph unicode="&#xcb;" horiz-adv-x="989" d="M160 0v1397h735v-97h-629v-546h611v-99h-611v-559h647v-96h-753zM320 1532v172h100v-172h-100zM637 1532v172h100v-172h-100z" />
<glyph unicode="&#xcc;" horiz-adv-x="425" d="M-12 1806h129l211 -315h-76zM160 0v1397h106v-1397h-106z" />
<glyph unicode="&#xcd;" horiz-adv-x="425" d="M102 1491l209 315h129l-264 -315h-74zM160 0v1397h106v-1397h-106z" />
<glyph unicode="&#xce;" horiz-adv-x="425" d="M-86 1491l227 315h144l229 -315h-74l-225 246l-227 -246h-74zM160 0v1397h106v-1397h-106z" />
<glyph unicode="&#xcf;" horiz-adv-x="425" d="M5 1532v172h100v-172h-100zM160 0v1397h106v-1397h-106zM322 1532v172h100v-172h-100z" />
<glyph unicode="&#xd0;" horiz-adv-x="1507" d="M0 666v77h160v654h497q168 0 306.5 -50.5t236.5 -140.5t152.5 -216t54.5 -277q0 -164 -54.5 -296t-152.5 -224.5t-236.5 -142.5t-304.5 -50h-499v666h-160zM266 98h398q141 0 257.5 43t199.5 121t129 188.5t46 243.5q0 139 -46 251t-130 190.5t-203.5 120.5t-269.5 42 h-381v-555h396v-77h-396v-568z" />
<glyph unicode="&#xd1;" horiz-adv-x="1554" d="M160 0v1397h92l1040 -1229v1229h103v-1397h-95l-1038 1225v-1225h-102zM457 1532q0 104 47 157.5t121 53.5q45 0 84.5 -19.5t76.5 -43t70 -43t68 -19.5q49 0 71.5 31.5t26.5 93.5h63q0 -106 -48 -158.5t-118 -52.5q-47 0 -83.5 19.5t-71.5 43t-70 43t-74 19.5 q-92 0 -98 -125h-65z" />
<glyph unicode="&#xd2;" horiz-adv-x="1640" d="M98 688q0 154 52.5 287t147.5 231.5t227 153.5t290 55q168 0 303 -57.5t229.5 -155.5t144.5 -226t50 -269q0 -152 -53 -284t-148.5 -230.5t-230.5 -154.5t-297 -56q-160 0 -292 57t-226 153.5t-145.5 225.5t-51.5 270zM209 696q0 -131 47 -242.5t128 -194.5t190.5 -129 t236.5 -46q154 0 270.5 54.5t194.5 141.5t117 197.5t39 220.5q0 123 -43 234.5t-122 195.5t-191 134.5t-251 50.5q-143 0 -257.5 -50.5t-194.5 -134.5t-122 -196.5t-42 -235.5zM616 1806h129l211 -315h-76z" />
<glyph unicode="&#xd3;" horiz-adv-x="1640" d="M98 688q0 154 52.5 287t147.5 231.5t227 153.5t290 55q168 0 303 -57.5t229.5 -155.5t144.5 -226t50 -269q0 -152 -53 -284t-148.5 -230.5t-230.5 -154.5t-297 -56q-160 0 -292 57t-226 153.5t-145.5 225.5t-51.5 270zM209 696q0 -131 47 -242.5t128 -194.5t190.5 -129 t236.5 -46q154 0 270.5 54.5t194.5 141.5t117 197.5t39 220.5q0 123 -43 234.5t-122 195.5t-191 134.5t-251 50.5q-143 0 -257.5 -50.5t-194.5 -134.5t-122 -196.5t-42 -235.5zM708 1491l209 315h129l-264 -315h-74z" />
<glyph unicode="&#xd4;" horiz-adv-x="1640" d="M98 688q0 154 52.5 287t147.5 231.5t227 153.5t290 55q168 0 303 -57.5t229.5 -155.5t144.5 -226t50 -269q0 -152 -53 -284t-148.5 -230.5t-230.5 -154.5t-297 -56q-160 0 -292 57t-226 153.5t-145.5 225.5t-51.5 270zM209 696q0 -131 47 -242.5t128 -194.5t190.5 -129 t236.5 -46q154 0 270.5 54.5t194.5 141.5t117 197.5t39 220.5q0 123 -43 234.5t-122 195.5t-191 134.5t-251 50.5q-143 0 -257.5 -50.5t-194.5 -134.5t-122 -196.5t-42 -235.5zM522 1491l227 315h144l229 -315h-74l-225 246l-227 -246h-74z" />
<glyph unicode="&#xd5;" horiz-adv-x="1640" d="M98 688q0 154 52.5 287t147.5 231.5t227 153.5t290 55q168 0 303 -57.5t229.5 -155.5t144.5 -226t50 -269q0 -152 -53 -284t-148.5 -230.5t-230.5 -154.5t-297 -56q-160 0 -292 57t-226 153.5t-145.5 225.5t-51.5 270zM209 696q0 -131 47 -242.5t128 -194.5t190.5 -129 t236.5 -46q154 0 270.5 54.5t194.5 141.5t117 197.5t39 220.5q0 123 -43 234.5t-122 195.5t-191 134.5t-251 50.5q-143 0 -257.5 -50.5t-194.5 -134.5t-122 -196.5t-42 -235.5zM512 1532q0 104 47 157.5t121 53.5q45 0 84.5 -19.5t76.5 -43t70 -43t68 -19.5q49 0 71.5 31.5 t26.5 93.5h63q0 -106 -48 -158.5t-118 -52.5q-47 0 -83.5 19.5t-71.5 43t-70 43t-74 19.5q-92 0 -98 -125h-65z" />
<glyph unicode="&#xd6;" horiz-adv-x="1640" d="M98 688q0 154 52.5 287t147.5 231.5t227 153.5t290 55q168 0 303 -57.5t229.5 -155.5t144.5 -226t50 -269q0 -152 -53 -284t-148.5 -230.5t-230.5 -154.5t-297 -56q-160 0 -292 57t-226 153.5t-145.5 225.5t-51.5 270zM209 696q0 -131 47 -242.5t128 -194.5t190.5 -129 t236.5 -46q154 0 270.5 54.5t194.5 141.5t117 197.5t39 220.5q0 123 -43 234.5t-122 195.5t-191 134.5t-251 50.5q-143 0 -257.5 -50.5t-194.5 -134.5t-122 -196.5t-42 -235.5zM619 1532v172h100v-172h-100zM936 1532v172h100v-172h-100z" />
<glyph unicode="&#xd7;" horiz-adv-x="1232" d="M178 342l371 373l-359 358l66 68l360 -359l371 371l68 -68l-371 -370l358 -361l-67 -67l-359 360l-370 -373z" />
<glyph unicode="&#xd8;" horiz-adv-x="1640" d="M98 696q0 145 51.5 276.5t145.5 229.5t226 155.5t294 57.5q131 0 249 -38t216 -117l143 157l60 -53l-142 -156q94 -98 147.5 -227t53.5 -283q0 -145 -52 -275t-147.5 -228.5t-227.5 -155.5t-294 -57q-264 0 -452 147l-138 -149l-59 51l137 149q-102 98 -156.5 230.5 t-54.5 285.5zM209 696q0 -129 45 -238.5t127 -195.5l829 918q-74 59 -172 96t-217 37q-143 0 -256.5 -50.5t-192.5 -135.5t-121 -196.5t-42 -234.5zM438 211q78 -61 173.5 -95t205.5 -32q147 0 261 53t193 139t120 196t41 222q0 252 -162 432z" />
<glyph unicode="&#xd9;" horiz-adv-x="1427" d="M143 596v801h107v-803q0 -115 28.5 -210t87 -162.5t145.5 -105.5t202 -38q117 0 205 38t146 106.5t87 162.5t29 209v803h106v-803q0 -133 -36 -244.5t-106.5 -193.5t-177 -128t-245.5 -46q-145 0 -253 44t-180.5 124.5t-108.5 193.5t-36 252zM496 1806h129l211 -315h-76z " />
<glyph unicode="&#xda;" horiz-adv-x="1427" d="M143 596v801h107v-803q0 -115 28.5 -210t87 -162.5t145.5 -105.5t202 -38q117 0 205 38t146 106.5t87 162.5t29 209v803h106v-803q0 -133 -36 -244.5t-106.5 -193.5t-177 -128t-245.5 -46q-145 0 -253 44t-180.5 124.5t-108.5 193.5t-36 252zM614 1491l209 315h129 l-264 -315h-74z" />
<glyph unicode="&#xdb;" horiz-adv-x="1427" d="M143 596v801h107v-803q0 -115 28.5 -210t87 -162.5t145.5 -105.5t202 -38q117 0 205 38t146 106.5t87 162.5t29 209v803h106v-803q0 -133 -36 -244.5t-106.5 -193.5t-177 -128t-245.5 -46q-145 0 -253 44t-180.5 124.5t-108.5 193.5t-36 252zM424 1491l227 315h144 l229 -315h-74l-225 246l-227 -246h-74z" />
<glyph unicode="&#xdc;" horiz-adv-x="1427" d="M143 596v801h107v-803q0 -115 28.5 -210t87 -162.5t145.5 -105.5t202 -38q117 0 205 38t146 106.5t87 162.5t29 209v803h106v-803q0 -133 -36 -244.5t-106.5 -193.5t-177 -128t-245.5 -46q-145 0 -253 44t-180.5 124.5t-108.5 193.5t-36 252zM500 1532v172h100v-172h-100 zM817 1532v172h100v-172h-100z" />
<glyph unicode="&#xdd;" horiz-adv-x="1173" d="M4 1397h129l453 -551l456 551h127l-528 -643v-754h-109v754zM502 1491l209 315h129l-264 -315h-74z" />
<glyph unicode="&#xde;" horiz-adv-x="1034" d="M160 0v1397h106v-322h258q211 0 330 -96t119 -277q0 -188 -123 -281t-340 -93h-244v-328h-106zM266 424h228q193 0 281.5 70.5t88.5 210.5q0 276 -364 276h-234v-557z" />
<glyph unicode="&#xdf;" horiz-adv-x="1032" d="M139 0v987q0 199 93.5 313.5t285.5 114.5q170 0 267.5 -94t97.5 -244q0 -117 -58.5 -194.5t-167.5 -114.5q141 -29 216 -127.5t75 -245.5q0 -86 -24.5 -160.5t-70.5 -131t-112.5 -89t-152.5 -32.5q-66 0 -135 16v90q57 -18 118 -18q131 0 205 90t74 235q0 152 -81 236 t-243 88v88q117 12 188.5 78.5t71.5 191.5q0 117 -71.5 183.5t-196.5 66.5q-152 0 -217 -93t-65 -249v-985h-97z" />
<glyph unicode="&#xe0;" horiz-adv-x="854" d="M61 209q0 137 130.5 218t396.5 120v94q0 106 -43 155.5t-154 49.5q-84 0 -154.5 -35t-136.5 -94v106q125 115 299 115q147 0 217 -73.5t70 -209.5v-553q0 -35 23 -34q29 0 120 71v-76q-55 -43 -94 -62t-73 -19q-43 0 -58.5 23.5t-15.5 57.5v48q-78 -72 -144.5 -100.5 t-140.5 -28.5q-111 0 -176.5 64.5t-65.5 162.5zM160 221q0 -72 48 -119t130 -47q63 0 120.5 28t129.5 97v305q-96 -10 -174 -31.5t-135.5 -54t-88 -78t-30.5 -100.5zM170 1370h119l205 -315h-74z" />
<glyph unicode="&#xe1;" horiz-adv-x="854" d="M61 209q0 137 130.5 218t396.5 120v94q0 106 -43 155.5t-154 49.5q-84 0 -154.5 -35t-136.5 -94v106q125 115 299 115q147 0 217 -73.5t70 -209.5v-553q0 -35 23 -34q29 0 120 71v-76q-55 -43 -94 -62t-73 -19q-43 0 -58.5 23.5t-15.5 57.5v48q-78 -72 -144.5 -100.5 t-140.5 -28.5q-111 0 -176.5 64.5t-65.5 162.5zM160 221q0 -72 48 -119t130 -47q63 0 120.5 28t129.5 97v305q-96 -10 -174 -31.5t-135.5 -54t-88 -78t-30.5 -100.5zM340 1055l205 315h117l-248 -315h-74z" />
<glyph unicode="&#xe2;" horiz-adv-x="854" d="M61 209q0 137 130.5 218t396.5 120v94q0 106 -43 155.5t-154 49.5q-84 0 -154.5 -35t-136.5 -94v106q125 115 299 115q147 0 217 -73.5t70 -209.5v-553q0 -35 23 -34q29 0 120 71v-76q-55 -43 -94 -62t-73 -19q-43 0 -58.5 23.5t-15.5 57.5v48q-78 -72 -144.5 -100.5 t-140.5 -28.5q-111 0 -176.5 64.5t-65.5 162.5zM133 1055l220 315h114l223 -315h-73l-209 243l-203 -243h-72zM160 221q0 -72 48 -119t130 -47q63 0 120.5 28t129.5 97v305q-96 -10 -174 -31.5t-135.5 -54t-88 -78t-30.5 -100.5z" />
<glyph unicode="&#xe3;" horiz-adv-x="854" d="M61 209q0 137 130.5 218t396.5 120v94q0 106 -43 155.5t-154 49.5q-84 0 -154.5 -35t-136.5 -94v106q125 115 299 115q147 0 217 -73.5t70 -209.5v-553q0 -35 23 -34q29 0 120 71v-76q-55 -43 -94 -62t-73 -19q-43 0 -58.5 23.5t-15.5 57.5v48q-78 -72 -144.5 -100.5 t-140.5 -28.5q-111 0 -176.5 64.5t-65.5 162.5zM88 1104q0 102 47 155.5t121 53.5q45 0 84.5 -19.5t76.5 -42t70 -42t68 -19.5q49 0 71.5 30.5t26.5 92.5h63q0 -106 -48 -157.5t-118 -51.5q-47 0 -83.5 19.5t-71.5 42t-70 42t-74 19.5q-45 0 -69.5 -29t-28.5 -94h-65z M160 221q0 -72 48 -119t130 -47q63 0 120.5 28t129.5 97v305q-96 -10 -174 -31.5t-135.5 -54t-88 -78t-30.5 -100.5z" />
<glyph unicode="&#xe4;" horiz-adv-x="854" d="M61 209q0 137 130.5 218t396.5 120v94q0 106 -43 155.5t-154 49.5q-84 0 -154.5 -35t-136.5 -94v106q125 115 299 115q147 0 217 -73.5t70 -209.5v-553q0 -35 23 -34q29 0 120 71v-76q-55 -43 -94 -62t-73 -19q-43 0 -58.5 23.5t-15.5 57.5v48q-78 -72 -144.5 -100.5 t-140.5 -28.5q-111 0 -176.5 64.5t-65.5 162.5zM160 221q0 -72 48 -119t130 -47q63 0 120.5 28t129.5 97v305q-96 -10 -174 -31.5t-135.5 -54t-88 -78t-30.5 -100.5zM203 1098v172h100v-172h-100zM512 1098v172h100v-172h-100z" />
<glyph unicode="&#xe5;" horiz-adv-x="854" d="M61 209q0 137 130.5 218t396.5 120v94q0 106 -43 155.5t-154 49.5q-84 0 -154.5 -35t-136.5 -94v106q125 115 299 115q147 0 217 -73.5t70 -209.5v-553q0 -35 23 -34q29 0 120 71v-76q-55 -43 -94 -62t-73 -19q-43 0 -58.5 23.5t-15.5 57.5v48q-78 -72 -144.5 -100.5 t-140.5 -28.5q-111 0 -176.5 64.5t-65.5 162.5zM160 221q0 -72 48 -119t130 -47q63 0 120.5 28t129.5 97v305q-96 -10 -174 -31.5t-135.5 -54t-88 -78t-30.5 -100.5zM224 1217q0 37 14 69.5t38.5 57t58.5 39t73 14.5q78 0 130 -51t52 -129q0 -76 -52 -128.5t-130 -52.5 t-131 52.5t-53 128.5zM283 1217q0 -51 37 -87t88 -36t88 36.5t37 86.5q0 49 -37 85.5t-88 36.5q-49 0 -87 -35.5t-38 -86.5z" />
<glyph unicode="&#xe6;" horiz-adv-x="1368" d="M61 213q0 139 135.5 216t393.5 124v84q0 113 -45 162t-146 49q-76 0 -148.5 -34t-141.5 -93v115q78 53 153.5 77.5t147.5 24.5q102 0 166.5 -48t87.5 -153q47 100 123.5 150.5t168.5 50.5q164 0 250 -111.5t92 -318.5h-612q0 -223 72.5 -330.5t234.5 -107.5 q78 0 156 30.5t147 85.5v-98q-145 -106 -317 -106q-104 0 -187 40.5t-130 127.5q-92 -88 -173 -128t-182 -40q-113 0 -179.5 63.5t-66.5 167.5zM162 221q0 -78 47 -121t127 -43q70 0 140.5 34t154.5 114q-18 45 -29.5 106.5t-11.5 153.5v22q-106 -25 -186 -47t-134.5 -51 t-81 -69.5t-26.5 -98.5zM696 573h504q-27 281 -248 281q-98 0 -167.5 -72.5t-88.5 -208.5z" />
<glyph unicode="&#xe7;" horiz-adv-x="841" d="M78 457q0 94 29.5 181t88 153.5t143.5 106.5t196 40q66 0 122 -11.5t121 -37.5v-103q-63 33 -120.5 47.5t-118.5 14.5q-82 0 -148.5 -30t-114 -82t-73 -123.5t-25.5 -153.5q0 -84 27.5 -156t77 -123t118 -79.5t150.5 -28.5q115 0 235 51v-98q-63 -23 -120.5 -33 t-130.5 -10l-17 -50q68 -10 103.5 -48t35.5 -91q0 -76 -55 -121t-188 -45q-39 0 -78 6l2 72q16 -2 33.5 -3t38.5 -1q78 0 113.5 23.5t35.5 70.5t-41 63.5t-106 20.5l39 107q-90 14 -159 56t-117 104.5t-72.5 142.5t-24.5 168z" />
<glyph unicode="&#xe8;" horiz-adv-x="942" d="M78 461q0 102 29.5 190t83 151.5t129 99.5t167.5 36q174 0 275.5 -116.5t111.5 -334.5h-694q0 -4 -1 -10t-1 -18q0 -80 24.5 -150.5t70.5 -123t112 -82t150 -29.5q178 0 327 112v-98q-86 -59 -168 -82.5t-170 -23.5q-96 0 -178 33.5t-141.5 97t-93 151.5t-33.5 197z M184 551h592q-18 145 -91 223t-200 78q-119 0 -201.5 -83t-99.5 -218zM276 1370h119l205 -315h-74z" />
<glyph unicode="&#xe9;" horiz-adv-x="942" d="M78 461q0 102 29.5 190t83 151.5t129 99.5t167.5 36q174 0 275.5 -116.5t111.5 -334.5h-694q0 -4 -1 -10t-1 -18q0 -80 24.5 -150.5t70.5 -123t112 -82t150 -29.5q178 0 327 112v-98q-86 -59 -168 -82.5t-170 -23.5q-96 0 -178 33.5t-141.5 97t-93 151.5t-33.5 197z M184 551h592q-18 145 -91 223t-200 78q-119 0 -201.5 -83t-99.5 -218zM430 1055l205 315h117l-248 -315h-74z" />
<glyph unicode="&#xea;" horiz-adv-x="942" d="M78 461q0 102 29.5 190t83 151.5t129 99.5t167.5 36q174 0 275.5 -116.5t111.5 -334.5h-694q0 -4 -1 -10t-1 -18q0 -80 24.5 -150.5t70.5 -123t112 -82t150 -29.5q178 0 327 112v-98q-86 -59 -168 -82.5t-170 -23.5q-96 0 -178 33.5t-141.5 97t-93 151.5t-33.5 197z M184 551h592q-18 145 -91 223t-200 78q-119 0 -201.5 -83t-99.5 -218zM213 1055l220 315h114l223 -315h-73l-209 243l-203 -243h-72z" />
<glyph unicode="&#xeb;" horiz-adv-x="942" d="M78 461q0 102 29.5 190t83 151.5t129 99.5t167.5 36q174 0 275.5 -116.5t111.5 -334.5h-694q0 -4 -1 -10t-1 -18q0 -80 24.5 -150.5t70.5 -123t112 -82t150 -29.5q178 0 327 112v-98q-86 -59 -168 -82.5t-170 -23.5q-96 0 -178 33.5t-141.5 97t-93 151.5t-33.5 197z M184 551h592q-18 145 -91 223t-200 78q-119 0 -201.5 -83t-99.5 -218zM289 1098v172h100v-172h-100zM598 1098v172h100v-172h-100z" />
<glyph unicode="&#xec;" horiz-adv-x="374" d="M-31 1370h119l205 -315h-74zM139 0v920h97v-920h-97z" />
<glyph unicode="&#xed;" horiz-adv-x="374" d="M94 1055l205 315h117l-248 -315h-74zM139 0v920h97v-920h-97z" />
<glyph unicode="&#xee;" horiz-adv-x="374" d="M-91 1055l220 315h114l223 -315h-73l-209 243l-203 -243h-72zM139 0v920h97v-920h-97z" />
<glyph unicode="&#xef;" horiz-adv-x="374" d="M-16 1098v172h100v-172h-100zM139 0v920h97v-920h-97zM293 1098v172h100v-172h-100z" />
<glyph unicode="&#xf0;" horiz-adv-x="1101" d="M78 457q0 98 32.5 185t93 153.5t147.5 104.5t196 38q98 0 174 -36t133 -99q-41 115 -116.5 214t-170.5 171l-307 -144l-27 66l269 123q-51 31 -102.5 55.5t-106.5 46.5l45 68q70 -25 129 -55.5t119 -71.5l258 121l28 -64l-221 -104q178 -147 270.5 -341t92.5 -405 q0 -123 -38 -216t-102.5 -156.5t-150.5 -96t-180 -32.5q-104 0 -190.5 37.5t-147 103t-94 151.5t-33.5 183zM178 457q0 -84 26.5 -155t76 -123t117 -81.5t149.5 -29.5t149.5 29.5t116.5 81.5t75.5 124t26.5 158q0 84 -26.5 155.5t-75.5 124t-117.5 82t-150.5 29.5 t-149.5 -29.5t-116 -83t-75 -126t-26.5 -156.5z" />
<glyph unicode="&#xf1;" horiz-adv-x="999" d="M137 0v920h96v-158q59 84 146.5 130t173.5 46q164 0 241.5 -103.5t77.5 -271.5v-563h-96v553q0 147 -62.5 224t-183.5 77q-92 0 -167.5 -50t-129.5 -138v-666h-96zM199 1104q0 102 47 155.5t121 53.5q45 0 84.5 -19.5t76.5 -42t70 -42t68 -19.5q49 0 71.5 30.5t26.5 92.5 h63q0 -106 -48 -157.5t-118 -51.5q-47 0 -83.5 19.5t-71.5 42t-70 42t-74 19.5q-45 0 -69.5 -29t-28.5 -94h-65z" />
<glyph unicode="&#xf2;" horiz-adv-x="1093" d="M78 451q0 104 33.5 194t96 154.5t149.5 101.5t192 37q100 0 185 -36t147.5 -100.5t97.5 -151.5t35 -191q0 -111 -39 -200t-103.5 -150.5t-148.5 -94t-176 -32.5q-109 0 -196 38.5t-147.5 103t-93 150t-32.5 177.5zM178 459q0 -86 27.5 -159t77 -124t117 -79.5 t147.5 -28.5q82 0 149.5 29.5t116.5 81.5t75.5 124t26.5 156q0 88 -27.5 159.5t-77.5 124t-118.5 81t-148.5 28.5q-78 0 -144.5 -28.5t-116 -80t-77 -124t-27.5 -160.5zM330 1370h119l205 -315h-74z" />
<glyph unicode="&#xf3;" horiz-adv-x="1093" d="M78 451q0 104 33.5 194t96 154.5t149.5 101.5t192 37q100 0 185 -36t147.5 -100.5t97.5 -151.5t35 -191q0 -111 -39 -200t-103.5 -150.5t-148.5 -94t-176 -32.5q-109 0 -196 38.5t-147.5 103t-93 150t-32.5 177.5zM178 459q0 -86 27.5 -159t77 -124t117 -79.5 t147.5 -28.5q82 0 149.5 29.5t116.5 81.5t75.5 124t26.5 156q0 88 -27.5 159.5t-77.5 124t-118.5 81t-148.5 28.5q-78 0 -144.5 -28.5t-116 -80t-77 -124t-27.5 -160.5zM454 1055l205 315h117l-248 -315h-74z" />
<glyph unicode="&#xf4;" horiz-adv-x="1093" d="M78 451q0 104 33.5 194t96 154.5t149.5 101.5t192 37q100 0 185 -36t147.5 -100.5t97.5 -151.5t35 -191q0 -111 -39 -200t-103.5 -150.5t-148.5 -94t-176 -32.5q-109 0 -196 38.5t-147.5 103t-93 150t-32.5 177.5zM178 459q0 -86 27.5 -159t77 -124t117 -79.5 t147.5 -28.5q82 0 149.5 29.5t116.5 81.5t75.5 124t26.5 156q0 88 -27.5 159.5t-77.5 124t-118.5 81t-148.5 28.5q-78 0 -144.5 -28.5t-116 -80t-77 -124t-27.5 -160.5zM280 1055l220 315h114l223 -315h-73l-209 243l-203 -243h-72z" />
<glyph unicode="&#xf5;" horiz-adv-x="1093" d="M78 451q0 104 33.5 194t96 154.5t149.5 101.5t192 37q100 0 185 -36t147.5 -100.5t97.5 -151.5t35 -191q0 -111 -39 -200t-103.5 -150.5t-148.5 -94t-176 -32.5q-109 0 -196 38.5t-147.5 103t-93 150t-32.5 177.5zM178 459q0 -86 27.5 -159t77 -124t117 -79.5 t147.5 -28.5q82 0 149.5 29.5t116.5 81.5t75.5 124t26.5 156q0 88 -27.5 159.5t-77.5 124t-118.5 81t-148.5 28.5q-78 0 -144.5 -28.5t-116 -80t-77 -124t-27.5 -160.5zM242 1104q0 102 47 155.5t121 53.5q45 0 84.5 -19.5t76.5 -42t70 -42t68 -19.5q49 0 71.5 30.5 t26.5 92.5h63q0 -106 -48 -157.5t-118 -51.5q-47 0 -83.5 19.5t-71.5 42t-70 42t-74 19.5q-45 0 -69.5 -29t-28.5 -94h-65z" />
<glyph unicode="&#xf6;" horiz-adv-x="1093" d="M78 451q0 104 33.5 194t96 154.5t149.5 101.5t192 37q100 0 185 -36t147.5 -100.5t97.5 -151.5t35 -191q0 -111 -39 -200t-103.5 -150.5t-148.5 -94t-176 -32.5q-109 0 -196 38.5t-147.5 103t-93 150t-32.5 177.5zM178 459q0 -86 27.5 -159t77 -124t117 -79.5 t147.5 -28.5q82 0 149.5 29.5t116.5 81.5t75.5 124t26.5 156q0 88 -27.5 159.5t-77.5 124t-118.5 81t-148.5 28.5q-78 0 -144.5 -28.5t-116 -80t-77 -124t-27.5 -160.5zM355 1098v172h100v-172h-100zM664 1098v172h100v-172h-100z" />
<glyph unicode="&#xf7;" horiz-adv-x="1064" d="M86 666v96h893v-96h-893zM475 246v200h113v-200h-113zM475 981v201h113v-201h-113z" />
<glyph unicode="&#xf8;" horiz-adv-x="1101" d="M82 457q0 102 35 190t96 152.5t148.5 101.5t191.5 37q84 0 155.5 -25.5t131.5 -70.5l100 119l45 -41l-100 -115q61 -66 97 -154t36 -192q0 -111 -39 -200t-103.5 -150.5t-149.5 -94t-177 -32.5q-172 0 -291 96l-121 -139l-45 38l121 142q-66 66 -98.5 152.5t-32.5 185.5z M182 459q0 -164 92 -269l504 582q-45 37 -104 58.5t-127 21.5q-80 0 -146.5 -29.5t-114.5 -82t-76 -124t-28 -157.5zM317 147q49 -39 106.5 -59t127.5 -20q82 0 149.5 29.5t116.5 81.5t76 124t27 156t-26 151.5t-71 118.5z" />
<glyph unicode="&#xf9;" horiz-adv-x="999" d="M127 369v551h96v-553q0 -143 60.5 -222t185.5 -79q94 0 169 50t128 138v666h96v-920h-96v158q-59 -80 -145 -128t-177 -48q-154 0 -235.5 97t-81.5 290zM260 1370h119l205 -315h-74z" />
<glyph unicode="&#xfa;" horiz-adv-x="999" d="M127 369v551h96v-553q0 -143 60.5 -222t185.5 -79q94 0 169 50t128 138v666h96v-920h-96v158q-59 -80 -145 -128t-177 -48q-154 0 -235.5 97t-81.5 290zM434 1055l205 315h117l-248 -315h-74z" />
<glyph unicode="&#xfb;" horiz-adv-x="999" d="M127 369v551h96v-553q0 -143 60.5 -222t185.5 -79q94 0 169 50t128 138v666h96v-920h-96v158q-59 -80 -145 -128t-177 -48q-154 0 -235.5 97t-81.5 290zM211 1055l220 315h114l223 -315h-73l-209 243l-203 -243h-72z" />
<glyph unicode="&#xfc;" horiz-adv-x="999" d="M127 369v551h96v-553q0 -143 60.5 -222t185.5 -79q94 0 169 50t128 138v666h96v-920h-96v158q-59 -80 -145 -128t-177 -48q-154 0 -235.5 97t-81.5 290zM295 1098v172h100v-172h-100zM604 1098v172h100v-172h-100z" />
<glyph unicode="&#xfd;" horiz-adv-x="860" d="M6 920h109l323 -635l314 635h102l-684 -1391h-102l319 649zM376 1055l205 315h117l-248 -315h-74z" />
<glyph unicode="&#xfe;" horiz-adv-x="1054" d="M152 -471v1868h96v-477h256q104 0 191 -32t149.5 -90.5t97.5 -144.5t35 -192q0 -102 -34 -189.5t-95.5 -152t-145.5 -101t-184 -36.5q-70 0 -129 14t-141 57v-524h-96zM248 141q66 -39 129 -56t133 -17q82 0 149.5 28.5t115.5 80.5t75 124t27 160q0 180 -101.5 276.5 t-275.5 96.5h-252v-693z" />
<glyph unicode="&#xff;" horiz-adv-x="860" d="M6 920h109l323 -635l314 635h102l-684 -1391h-102l319 649zM232 1098v172h100v-172h-100zM541 1098v172h100v-172h-100z" />
<glyph unicode="&#x152;" horiz-adv-x="1812" d="M98 700q0 164 58.5 294t160 219.5t238.5 136.5t295 47h866v-94h-622v-549h604v-99h-604v-561h641v-94h-883q-174 0 -313.5 49t-237.5 141.5t-150.5 221.5t-52.5 288zM211 698q0 -133 43 -243.5t127 -190.5t207 -125t282 -45h117v1209h-119q-143 0 -264 -40t-208 -117 t-136 -190t-49 -258z" />
<glyph unicode="&#x153;" horiz-adv-x="1763" d="M78 457q0 102 33.5 190t95 152.5t147.5 101.5t189 37q137 0 243.5 -70.5t159.5 -195.5q47 123 140.5 194.5t218.5 71.5q174 0 275 -114.5t112 -336.5h-695q-2 -6 -2 -30q0 -84 26 -155t73 -121t112.5 -78.5t145.5 -28.5q176 0 327 112v-98q-88 -59 -167.5 -82.5 t-170.5 -23.5q-137 0 -239.5 70.5t-153.5 199.5q-53 -131 -163.5 -200.5t-245.5 -69.5q-102 0 -187.5 35.5t-146 99t-94 150.5t-33.5 190zM178 459q0 -86 27.5 -159t76 -124t115 -79.5t144.5 -28.5q80 0 147.5 29.5t114.5 81.5t73.5 124t26.5 156q0 92 -30.5 164.5t-81 124 t-117 78t-137.5 26.5q-76 0 -141.5 -28.5t-114 -80t-76 -124t-27.5 -160.5zM999 551h594q-14 147 -87.5 225t-202.5 78q-59 0 -110.5 -22.5t-91.5 -62.5t-66.5 -95.5t-35.5 -122.5z" />
<glyph unicode="&#x178;" horiz-adv-x="1173" d="M4 1397h129l453 -551l456 551h127l-528 -643v-754h-109v754zM383 1532v172h100v-172h-100zM700 1532v172h100v-172h-100z" />
<glyph unicode="&#x2c6;" horiz-adv-x="673" d="M59 1055l220 315h114l223 -315h-73l-209 243l-203 -243h-72z" />
<glyph unicode="&#x2dc;" horiz-adv-x="677" d="M25 1104q0 102 47 155.5t121 53.5q45 0 84.5 -19.5t76.5 -42t70 -42t68 -19.5q49 0 71.5 30.5t26.5 92.5h63q0 -106 -48 -157.5t-118 -51.5q-47 0 -83.5 19.5t-71.5 42t-70 42t-74 19.5q-45 0 -69.5 -29t-28.5 -94h-65z" />
<glyph unicode="&#x2000;" horiz-adv-x="922" />
<glyph unicode="&#x2001;" horiz-adv-x="1845" />
<glyph unicode="&#x2002;" horiz-adv-x="922" />
<glyph unicode="&#x2003;" horiz-adv-x="1845" />
<glyph unicode="&#x2004;" horiz-adv-x="615" />
<glyph unicode="&#x2005;" horiz-adv-x="461" />
<glyph unicode="&#x2006;" horiz-adv-x="307" />
<glyph unicode="&#x2007;" horiz-adv-x="307" />
<glyph unicode="&#x2008;" horiz-adv-x="230" />
<glyph unicode="&#x2009;" horiz-adv-x="369" />
<glyph unicode="&#x200a;" horiz-adv-x="102" />
<glyph unicode="&#x2010;" horiz-adv-x="649" d="M80 418v98h489v-98h-489z" />
<glyph unicode="&#x2011;" horiz-adv-x="649" d="M80 418v98h489v-98h-489z" />
<glyph unicode="&#x2012;" horiz-adv-x="649" d="M80 418v98h489v-98h-489z" />
<glyph unicode="&#x2013;" d="M-12 453v73h1048v-73h-1048z" />
<glyph unicode="&#x2014;" horiz-adv-x="2048" d="M-12 455v73h2072v-73h-2072z" />
<glyph unicode="&#x2018;" horiz-adv-x="387" d="M125 979v137q2 125 45 190.5t113 98.5v-51q-74 -61 -74 -197h51v-178h-135z" />
<glyph unicode="&#x2019;" horiz-adv-x="387" d="M104 971v51q74 61 74 197h-51v178h133v-137q0 -125 -43 -190.5t-113 -98.5z" />
<glyph unicode="&#x201a;" horiz-adv-x="387" d="M104 -197q74 57 74 197h-51v178h133v-137q0 -125 -43 -190.5t-113 -98.5v51z" />
<glyph unicode="&#x201c;" horiz-adv-x="722" d="M125 979v137q2 125 45 190.5t113 98.5v-51q-74 -61 -74 -197h51v-178h-135zM461 979v137q2 125 45 190.5t112 98.5v-51q-74 -61 -73 -197h51v-178h-135z" />
<glyph unicode="&#x201d;" horiz-adv-x="722" d="M104 971v51q74 61 74 197h-51v178h133v-137q0 -125 -43 -190.5t-113 -98.5zM440 971v51q74 61 74 197h-51v178h135v-137q-2 -125 -45 -190.5t-113 -98.5z" />
<glyph unicode="&#x201e;" horiz-adv-x="722" d="M104 -197q74 57 74 197h-51v178h133v-137q0 -125 -43 -190.5t-113 -98.5v51zM440 -197q74 57 74 197h-51v178h135v-137q-2 -125 -45 -190.5t-113 -98.5v51z" />
<glyph unicode="&#x2022;" horiz-adv-x="796" d="M195 698q0 41 15 79t43 65.5t65.5 44t80.5 16.5q86 0 144.5 -59.5t58.5 -145.5q0 -43 -15.5 -80.5t-43 -65.5t-64.5 -43t-80 -15t-79.5 15t-64.5 43t-44 65.5t-16 80.5z" />
<glyph unicode="&#x2026;" horiz-adv-x="1923" d="M256 0v178h131v-178h-131zM897 0v178h131v-178h-131zM1538 0v178h131v-178h-131z" />
<glyph unicode="&#x202f;" horiz-adv-x="369" />
<glyph unicode="&#x2039;" horiz-adv-x="555" d="M51 469l355 459h100l-352 -459l352 -461h-100z" />
<glyph unicode="&#x203a;" horiz-adv-x="555" d="M49 8l354 459l-354 461h103l354 -461l-354 -459h-103z" />
<glyph unicode="&#x205f;" horiz-adv-x="461" />
<glyph unicode="&#x20ac;" horiz-adv-x="1118" d="M49 526l14 86h117q-2 16 -3 39t-1 45q0 23 1 45.5t3 38.5h-131l14 86h127q20 129 66.5 230.5t116 172t159 108.5t193.5 38q98 0 177 -22.5t157 -63.5l-21 -102q-86 49 -158.5 69.5t-158.5 20.5q-164 0 -274.5 -118t-147.5 -333h619l-19 -86h-610q-2 -18 -3 -38.5 t-1 -43.5q0 -25 1 -47t3 -39h565l-18 -86h-537q35 -217 144.5 -331.5t279.5 -114.5q96 0 176 29.5t158 91.5v-119q-72 -47 -154 -73.5t-184 -26.5q-217 0 -355.5 141t-177.5 403h-137z" />
<glyph unicode="&#x2122;" horiz-adv-x="1775" d="M70 1323v74h647v-74h-281v-709h-84v709h-282zM868 614v783h111l264 -658l262 658h111v-783h-80v666l-262 -666h-64l-262 666v-666h-80z" />
<glyph unicode="&#x25fc;" horiz-adv-x="921" d="M0 0v922h922v-922h-922z" />
<glyph unicode="&#xfb01;" horiz-adv-x="942" />
<glyph unicode="&#xfb02;" horiz-adv-x="948" />
</font>
</defs>
</svg>
