<?xml version="1.0" standalone="no"?>
<!DOCTYPE svg PUBLIC "-//W3C//DTD SVG 1.1//EN" "http://www.w3.org/Graphics/SVG/1.1/DTD/svg11.dtd" >
<svg xmlns="http://www.w3.org/2000/svg" xmlns:xlink="http://www.w3.org/1999/xlink" version="1.1">
<metadata></metadata>
<defs>
<font id="gill_sans_novaultrabold" horiz-adv-x="1748" >
<font-face units-per-em="2048" ascent="1493" descent="-555" />
<missing-glyph horiz-adv-x="681" />
<glyph unicode="&#xfb03;" horiz-adv-x="2603" d="M43 586v254h133v8q0 164 41 294t119 221t189.5 139t250.5 48q86 0 154.5 -6t127 -21.5t111 -40t107.5 -61.5q86 66 193.5 97.5t224.5 31.5q96 0 182 -24v-322q63 -35 144 -52t173 -17q96 0 174 20.5t127 48.5v-1204h-618v586h-231v-586h-619v586h-231v-586h-619v586h-133 zM795 840h231q0 16 1 56t5 67q-25 25 -50.5 35t-57.5 10q-55 0 -91 -41t-38 -127zM1645 840h231v135q-49 37 -102 37q-55 0 -92 -43t-37 -115v-14zM2140 1376q0 37 14.5 69t38 55.5t55 36.5t68.5 13q72 0 123 -51t51 -123q0 -37 -13 -68.5t-36.5 -55t-55.5 -38t-69 -14.5 t-68.5 14.5t-55 38t-38 55t-14.5 68.5z" />
<glyph unicode="&#xfb04;" horiz-adv-x="2603" d="M43 586v254h133v10q0 164 42 294t120 220t188.5 138t249.5 48q92 0 164 -7t129 -23.5t107.5 -41t99.5 -57.5q92 68 200.5 98.5t225.5 30.5q47 0 97 -7t83 -17h612v-1526h-618v586h-231v-586h-619v586h-231v-586h-619v586h-133zM795 840h231q0 39 1 67.5t5 55.5 q-25 27 -52.5 36t-55.5 9q-55 0 -91 -41t-38 -127zM1645 840h231v135q-49 37 -102 37q-55 0 -92 -43t-37 -115v-14z" />
<glyph horiz-adv-x="0" />
<glyph horiz-adv-x="682" />
<glyph horiz-adv-x="0" />
<glyph horiz-adv-x="0" />
<glyph unicode="&#xd;" horiz-adv-x="681" />
<glyph unicode=" "  horiz-adv-x="681" />
<glyph unicode="&#x09;" horiz-adv-x="681" />
<glyph unicode="&#xa0;" horiz-adv-x="681" />
<glyph unicode="!" horiz-adv-x="831" d="M78 1135q0 92 25.5 167.5t71.5 131t107.5 86t135.5 30.5q72 0 133 -29.5t105 -84t70 -128t26 -161.5q0 -96 -21.5 -187.5t-57.5 -179.5t-83 -174t-98 -168q76 -29 118.5 -88t42.5 -137q0 -49 -18.5 -92t-51 -76t-75.5 -51.5t-92 -18.5t-93 19.5t-77 51.5t-51.5 75 t-18.5 92q0 78 43 137.5t117 87.5q-135 223 -196.5 392t-61.5 305z" />
<glyph unicode="&#x22;" horiz-adv-x="1024" d="M49 1284v242h406v-242l-64 -297h-278zM569 1284v242h406v-242l-64 -297h-278z" />
<glyph unicode="#" horiz-adv-x="1366" d="M66 309v277h186l45 217h-231v276h288l74 351h277l-74 -351h266l74 351h276l-73 -351h129v-276h-187l-45 -217h232v-277h-289l-74 -350h-276l73 350h-266l-74 -350h-276l74 350h-129zM528 586h267l45 217h-267z" />
<glyph unicode="$" horiz-adv-x="1556" d="M-12 -25l563 676q-125 45 -211 90t-138 98.5t-76 116t-24 140.5q0 106 46.5 191t125 143.5t184 89t222.5 30.5q172 0 306 -35.5t212 -84.5l100 120h269l-559 -671q217 -68 330.5 -175.5t113.5 -273.5q0 -92 -36 -175t-108.5 -145.5t-183 -98.5t-260.5 -36q-141 0 -264 27 t-254 84l-94 -111h-264zM565 350q16 -16 58.5 -37.5t85.5 -21.5q55 0 98 42t43 99q0 76 -98 139zM715 1102q0 -41 23.5 -71t78.5 -62l174 213q-63 53 -137 53q-59 0 -99 -38t-40 -95z" />
<glyph unicode="%" horiz-adv-x="2197" d="M51 1141q0 82 35 156.5t96.5 131t147.5 89t190 32.5q100 0 186.5 -31.5t150 -87t99 -131t35.5 -161.5t-35.5 -161t-98 -130t-149.5 -87t-188 -32q-102 0 -187 32t-148.5 88t-98.5 131t-35 161zM428 1161q0 -37 25.5 -60.5t66.5 -23.5t67.5 23.5t26.5 60.5 q0 35 -26.5 58.5t-67.5 23.5t-66.5 -23.5t-25.5 -58.5zM494 0l950 1526h248l-951 -1526h-247zM1206 397q0 82 35 157t96.5 131t147.5 89t190 33q100 0 186.5 -32t150 -87t99 -131t35.5 -162t-35.5 -160.5t-98 -130t-149.5 -87t-188 -31.5q-102 0 -187 31.5t-148.5 88 t-98.5 131t-35 160.5zM1583 418q0 -37 25.5 -60.5t66.5 -23.5t67.5 23.5t26.5 60.5q0 35 -26.5 58.5t-67.5 23.5t-66.5 -23.5t-25.5 -58.5z" />
<glyph unicode="&#x26;" horiz-adv-x="1921" d="M94 336q0 141 89 249.5t286 194.5q-82 86 -118 164t-36 162q0 96 40 177t110 140.5t166 93t211 33.5q102 0 187 -27.5t145.5 -75.5t94.5 -114.5t34 -146.5q0 -98 -53.5 -188.5t-157.5 -163.5l145 -148q35 39 66.5 87t56.5 101h387q-86 -135 -160 -224t-151 -167l473 -483 h-690l-154 156q-119 -90 -257 -135.5t-273 -45.5q-102 0 -183.5 27t-138.5 75t-88 113.5t-31 145.5zM606 395q0 -47 34 -76.5t83 -29.5q29 0 67.5 15t81.5 50l-167 168q-61 -39 -80 -65.5t-19 -61.5zM850 1106q0 -33 24.5 -68.5t69.5 -70.5q133 41 133 141q0 47 -31.5 75.5 t-80.5 28.5q-45 0 -80 -29.5t-35 -76.5z" />
<glyph unicode="'" horiz-adv-x="575" d="M84 1284v242h405v-242l-63 -297h-279z" />
<glyph unicode="(" horiz-adv-x="1153" d="M139 606q0 270 142.5 497.5t443.5 446.5h405q-96 -98 -181 -197.5t-149.5 -213t-101 -243.5t-36.5 -290q0 -129 27.5 -249.5t86 -236.5t147.5 -229.5t212 -228.5h-410q-117 86 -222.5 182.5t-186 211t-129 250.5t-48.5 300z" />
<glyph unicode=")" horiz-adv-x="1153" d="M18 1550h410q117 -86 222.5 -182t186.5 -211t129 -251t48 -300q0 -270 -142.5 -497.5t-443.5 -446.5h-405q96 98 181 197.5t149.5 213t101.5 243.5t37 290q0 129 -28 250t-86.5 236.5t-147.5 229.5t-212 228z" />
<glyph unicode="*" horiz-adv-x="1472" d="M74 774l364 103v4l-364 102q16 115 78.5 228.5t156.5 189.5l273 -268l4 4l-90 368q102 45 239 45q135 0 242 -45l-90 -368l4 -4l270 268q49 -37 89 -86t71 -104.5t51.5 -114t26.5 -113.5l-367 -102v-4l367 -103q-18 -123 -78.5 -234.5t-159.5 -183.5l-270 265l-4 -5 l90 -364q-66 -23 -122 -34t-120 -11q-61 0 -118.5 11t-120.5 34l90 364l-4 5l-273 -265q-47 37 -87 84t-70.5 101.5t-51 114t-26.5 118.5z" />
<glyph unicode="+" horiz-adv-x="1404" d="M100 479v414h396v391h413v-391h396v-414h-396v-393h-413v393h-396z" />
<glyph unicode="," horiz-adv-x="831" d="M88 299q0 74 25.5 137.5t71.5 111.5t107.5 74.5t133.5 26.5q74 0 134.5 -27.5t104.5 -75.5t67.5 -114.5t23.5 -144.5q0 -102 -42 -197.5t-115 -173.5t-171 -132t-213 -73l-18 13q68 39 109.5 108.5t47.5 147.5q-266 81 -266 319z" />
<glyph unicode="-" horiz-adv-x="854" d="M74 389v426h704v-426h-704z" />
<glyph unicode="." horiz-adv-x="831" d="M90 301q0 66 24.5 125t68.5 103t103.5 71t129.5 27q68 0 127 -27t103 -71t69.5 -103t25.5 -125q0 -68 -25.5 -127t-70.5 -103t-103.5 -70t-125.5 -26q-70 0 -129.5 26t-103.5 71t-68.5 104.5t-24.5 124.5z" />
<glyph unicode="/" horiz-adv-x="575" d="M-66 -178l379 1704h328l-379 -1704h-328z" />
<glyph unicode="0" d="M92 766q0 172 62.5 316.5t170 248t249 161.5t300.5 58q156 0 298.5 -56t250 -159.5t171 -249t63.5 -321.5q0 -168 -60.5 -312.5t-165 -250t-248 -166t-309.5 -60.5q-168 0 -311 61.5t-247.5 168t-164 251t-59.5 310.5zM719 805q0 -68 43.5 -114t111.5 -46q66 0 111 44 t45 116q0 70 -44 115t-114 45q-66 0 -109.5 -46.5t-43.5 -113.5z" />
<glyph unicode="1" d="M535 0v1354l679 196v-1550h-679z" />
<glyph unicode="2" d="M244 0q88 113 183 233.5t173 233.5q61 92 100 170t39 149q0 68 -43 112t-108 44q-86 0 -162 -68.5t-174 -205.5l12 692q55 37 110.5 71.5t118 61.5t136 42t164.5 15q129 0 243.5 -38.5t202.5 -117.5t139.5 -195.5t51.5 -272.5q0 -168 -60.5 -325t-189.5 -329h290v-272 h-1226z" />
<glyph unicode="3" d="M342 0v530q63 -80 142 -118.5t169 -38.5q86 0 133.5 39t47.5 104q0 82 -61.5 132t-172.5 50q-55 0 -115.5 -13t-142.5 -42v270q57 -16 115.5 -22t109.5 -6q117 0 184.5 46t67.5 124q0 68 -49 108.5t-135 40.5q-88 0 -167 -43t-126 -121v486h594q274 0 416.5 -101.5 t142.5 -298.5q0 -127 -63.5 -204.5t-194.5 -137.5q135 -49 203.5 -143t68.5 -225q0 -213 -149.5 -314.5t-413.5 -101.5h-604z" />
<glyph unicode="4" d="M98 512v326l609 688h679v-666h248v-348h-248v-512h-679v512h-609zM385 860h322v371z" />
<glyph unicode="5" d="M170 373l12 14q86 -57 167 -84t179 -27q68 0 124.5 15.5t98.5 44.5t64.5 67.5t22.5 88.5q0 98 -85 146t-243 48q-109 0 -181.5 -24.5t-109.5 -51.5l-16 13l225 903h1155v-273h-539l-53 -206q256 -16 391.5 -150.5t135.5 -349.5q0 -127 -49.5 -232.5t-136.5 -180.5 t-206.5 -117t-263.5 -42q-121 0 -235.5 27t-208.5 78t-161 125t-87 168z" />
<glyph unicode="6" d="M90 641q0 252 152.5 478.5t451.5 406.5h936v-27q-72 -20 -141.5 -54t-136 -76t-125 -90t-105.5 -97q258 -37 400.5 -187t142.5 -377q0 -141 -58.5 -259.5t-163 -203.5t-250.5 -132.5t-323 -47.5q-178 0 -322.5 49.5t-245.5 137.5t-156.5 211t-55.5 268zM729 676 q0 -57 39 -96t98 -39q61 0 99.5 38.5t38.5 96.5q0 59 -38 100t-100 41q-57 0 -97 -42t-40 -99z" />
<glyph unicode="7" d="M221 0l539 1253h-451v273h1307l-655 -1526h-740z" />
<glyph unicode="8" d="M115 397q0 147 84 237.5t264 131.5v4q-336 78 -336 350q0 211 176 320.5t533 109.5q410 0 598 -101.5t188 -324.5q0 -141 -85 -228t-257 -126v-4q180 -41 268 -132t88 -245q0 -213 -182 -313.5t-582 -100.5q-387 0 -572 103.5t-185 318.5zM745 426q0 -55 38.5 -92 t95.5 -37q53 0 89 37t36 88q0 55 -36 94t-94 39q-55 0 -92 -37t-37 -92zM748 1110q0 -51 36.5 -89t89.5 -38q51 0 89 37t38 90q0 51 -36.5 88t-90.5 37q-53 0 -89.5 -37t-36.5 -88z" />
<glyph unicode="9" d="M86 907q0 145 60.5 264t166 203t251 130t315.5 46q174 0 318 -48t246.5 -135t160 -209.5t57.5 -272.5q0 -252 -155.5 -481.5t-448.5 -403.5h-936v27q166 53 293 138t215 179q-131 18 -232.5 67.5t-170 123t-104.5 168t-36 204.5zM748 850q0 -63 39 -102t96 -39 q59 0 99 42t40 99t-40 96t-97 39q-59 0 -98 -39t-39 -96z" />
<glyph unicode=":" horiz-adv-x="831" d="M90 244q0 125 89 196.5t237 71.5q147 0 236 -71.5t89 -196.5t-89 -197t-236 -72t-236.5 72t-89.5 197zM90 1004q0 125 89 196.5t237 71.5q147 0 236 -71.5t89 -196.5t-89 -197t-236 -72t-236.5 72t-89.5 197z" />
<glyph unicode=";" horiz-adv-x="831" d="M88 274q0 68 25.5 123.5t69.5 95t106.5 61t136.5 21.5q150 0 239 -84t89 -225q0 -96 -42 -187t-115 -167t-171 -129t-211 -72l-18 13q68 39 109.5 108.5t47.5 147.5q-129 39 -197.5 114.5t-68.5 179.5zM90 1036q0 125 89 197t237 72q147 0 236 -72t89 -197t-89 -196.5 t-236 -71.5t-236.5 71.5t-89.5 196.5z" />
<glyph unicode="&#x3c;" horiz-adv-x="1404" d="M100 535v303l1200 516v-443l-608 -225l608 -225v-443z" />
<glyph unicode="=" horiz-adv-x="1404" d="M100 184v414h1205v-414h-1205zM100 776v414h1205v-414h-1205z" />
<glyph unicode="&#x3e;" horiz-adv-x="1404" d="M100 18v443l611 225l-611 225v443l1200 -516v-303z" />
<glyph unicode="?" horiz-adv-x="1173" d="M12 928q29 123 85.5 235.5t136 198.5t179 137t216.5 51q90 0 169 -31.5t137 -90t92 -138.5t34 -176q0 -176 -102.5 -331.5t-309.5 -325.5q82 -29 126 -90.5t44 -143.5q0 -53 -19.5 -98t-52 -78t-78.5 -52.5t-98 -19.5q-53 0 -99 18.5t-80 51.5t-53.5 78t-19.5 96 q0 80 40 140.5t87.5 118t87 122t39.5 152.5q0 125 -73.5 197.5t-190.5 72.5q-59 0 -127.5 -21.5t-169.5 -72.5z" />
<glyph unicode="@" horiz-adv-x="2150" d="M61 575q0 199 76 376t218.5 310.5t347 211t462.5 77.5q201 0 371 -51t293 -146.5t191.5 -228.5t68.5 -299q0 -315 -174 -488t-498 -173q-35 0 -74.5 6t-77.5 20.5t-69 39t-45 61.5q-72 -72 -145.5 -99.5t-169.5 -27.5q-72 0 -126.5 26.5t-90 73.5t-54 112.5t-18.5 143.5 q0 119 38 227.5t118.5 191.5t207.5 132t303 49q123 0 212.5 -17.5t160.5 -37.5l-98 -520q-4 -16 -6 -33.5t-2 -30.5q0 -23 9 -30t21 -7q72 0 124.5 33t86 86t50 124t16.5 144q0 102 -38 188.5t-116 148t-194.5 95t-274.5 33.5q-207 0 -358.5 -54t-250.5 -151.5 t-147.5 -229.5t-48.5 -286q0 -147 43 -268t127 -207t208 -132t284 -46q418 0 682 209l141 -209q-135 -113 -337.5 -180.5t-503.5 -67.5q-209 0 -383.5 61.5t-298 178.5t-192.5 284t-69 377zM903 553q0 -20 3 -39.5t12.5 -35t28 -25t48.5 -9.5q80 0 154 97l53 284 q-2 0 -20.5 1t-30.5 1q-61 0 -107.5 -22.5t-77 -61t-47 -88t-16.5 -102.5z" />
<glyph unicode="A" horiz-adv-x="2027" d="M2 0l530 1526h963l530 -1526h-675l-88 258h-496l-88 -258h-676zM889 618h250l-123 373h-4z" />
<glyph unicode="B" horiz-adv-x="1792" d="M147 0v1526h961q283 0 434.5 -110.5t151.5 -315.5q0 -119 -52.5 -197t-146.5 -131q119 -63 179.5 -145t60.5 -205q0 -98 -37 -176t-103.5 -133.5t-162 -84t-211.5 -28.5h-1074zM823 336h27q111 0 160 36t49 122q0 172 -189 172h-47v-330zM823 922h19q111 0 155.5 34.5 t44.5 114.5q0 78 -46 113t-132 35h-41v-297z" />
<glyph unicode="C" horiz-adv-x="1599" d="M106 752q0 182 67 329.5t181.5 252t269 160.5t332.5 56q86 0 172 -12t167 -33.5t152 -51.5t124 -64l-283 -539q-59 20 -130 31.5t-142 11.5q-217 0 -217 -117q0 -57 59.5 -88t171.5 -31q147 0 258 54l283 -578q-59 -37 -134 -65.5t-157 -49t-166 -32t-160 -11.5 q-201 0 -358.5 61.5t-266 168t-166 248t-57.5 299.5z" />
<glyph unicode="D" horiz-adv-x="1812" d="M152 0v1526h763q207 0 364 -63.5t261.5 -170t157.5 -245t53 -287.5q0 -123 -44 -257t-144.5 -246t-263 -184.5t-402.5 -72.5h-745zM827 584h19q121 0 175 42t54 140q0 176 -207 176h-41v-358z" />
<glyph unicode="E" horiz-adv-x="1472" d="M150 0v1526h1267v-383h-592v-189h412v-383h-412v-188h592v-383h-1267z" />
<glyph unicode="F" horiz-adv-x="1409" d="M150 0v1526h1255v-383h-580v-277h430v-383h-430v-483h-675z" />
<glyph unicode="G" d="M104 768q0 141 48.5 281.5t151 252t263 180t385.5 68.5q180 0 372 -50t368 -154l-326 -459q-201 98 -377 98q-117 0 -185.5 -59.5t-68.5 -157.5q0 -186 244 -186v239h676v-823q-80 -4 -167 -8t-164 -7t-137.5 -5.5t-88.5 -2.5q-330 0 -535 80q-102 39 -186 110 t-144.5 163t-94.5 204.5t-34 235.5z" />
<glyph unicode="H" horiz-adv-x="1984" d="M143 0v1526h676v-559h344v559h676v-1526h-676v567h-344v-567h-676z" />
<glyph unicode="I" horiz-adv-x="980" d="M154 0v1526h675v-1526h-675z" />
<glyph unicode="J" horiz-adv-x="1153" d="M10 354q61 -12 146 -12q61 0 100 7t62.5 27.5t32.5 57.5t9 96v996h676v-912v-71.5t-4 -126.5q-2 -41 -6 -84t-14.5 -86t-27.5 -81t-48 -67q-47 -47 -129 -85t-213 -38q-102 0 -196.5 26t-171 75t-133 119.5t-83.5 158.5z" />
<glyph unicode="K" horiz-adv-x="1941" d="M154 0v1526h675v-510q166 10 259.5 139t93.5 371h688q0 -276 -73 -457.5t-228 -302.5q154 -117 240.5 -303.5t103.5 -462.5h-729q-12 270 -100.5 410.5t-254.5 146.5v-557h-675z" />
<glyph unicode="L" horiz-adv-x="1429" d="M147 0v1526h676v-1143h592v-383h-1268z" />
<glyph unicode="M" horiz-adv-x="2154" d="M145 0v1526h656l276 -318l277 318h655v-1526h-676v764l-256 -295l-256 295v-764h-676z" />
<glyph unicode="N" horiz-adv-x="1812" d="M150 0v1526h483l352 -510h4v510h676v-1538h-512l-324 475h-4v-463h-675z" />
<glyph unicode="O" d="M92 764q0 162 59.5 305t164 250.5t247.5 169t311 61.5q166 0 308.5 -61.5t248 -168t166 -249.5t60.5 -307q0 -166 -60.5 -309.5t-166 -250t-249 -168t-309.5 -61.5q-164 0 -306 61.5t-247.5 168t-166 251t-60.5 308.5zM723 805q0 -72 44 -116t107 -44t107.5 44t44.5 116 q0 70 -43 115t-109 45t-108.5 -45t-42.5 -115z" />
<glyph unicode="P" horiz-adv-x="1705" d="M154 0v1526h929q164 0 279 -46t186.5 -120t104.5 -166t33 -184q0 -106 -40 -199.5t-109 -163t-161 -110.5t-198 -41q-92 0 -171 30.5t-178 102.5v-629h-675zM829 864q14 -4 28.5 -6t27.5 -2q76 0 123 47t47 127q0 78 -41 122t-113 44h-72v-332z" />
<glyph unicode="Q" d="M92 764q0 162 59.5 305t164 250.5t247.5 169t311 61.5q166 0 308.5 -61.5t248 -168t166 -249.5t60.5 -307q0 -123 -34 -232.5t-93 -203.5l256 -328h-510l-45 59q-80 -41 -170 -62.5t-189 -21.5q-164 0 -306 61.5t-247.5 168t-166 251t-60.5 308.5zM723 805q0 -72 44 -116 t107 -44t107.5 44t44.5 116q0 70 -43 115t-109 45t-108.5 -45t-42.5 -115z" />
<glyph unicode="R" horiz-adv-x="1835" d="M150 0v1526h1001q133 0 236.5 -36t173 -98.5t105.5 -145.5t36 -177q0 -217 -174 -338q123 -141 197.5 -324.5t97.5 -406.5h-701q-20 301 -90.5 433t-202.5 132h-4v-565h-675zM825 918h19q182 0 182 143q0 68 -40 109.5t-118 41.5h-43v-294z" />
<glyph unicode="S" horiz-adv-x="1492" d="M25 90l165 510q35 -55 80 -99t96.5 -77t103.5 -50.5t101 -17.5t82 25t33 61q0 45 -44 75t-110.5 57.5t-144.5 60.5t-144.5 84t-110.5 127t-44 192q0 254 183.5 383t545.5 129q80 0 164 -7t164 -21.5t153.5 -33t131.5 -40.5l-168 -481q-78 109 -176.5 166t-202.5 57 q-63 0 -91 -25.5t-28 -64.5q0 -23 19.5 -41.5t52 -36.5t75.5 -35.5t90 -36.5q49 -18 99.5 -39.5t97.5 -45t88 -51.5t72 -60q45 -49 71.5 -116t26.5 -161q0 -246 -183 -374t-550 -128q-193 0 -363 26t-335 89z" />
<glyph unicode="T" horiz-adv-x="1429" d="M37 850v676h1356v-676h-340v-850h-676v850h-340z" />
<glyph unicode="U" horiz-adv-x="1771" d="M127 795v731h676v-719q0 -78 17.5 -120t62.5 -42q49 0 67.5 37t18.5 125v719h676v-725q0 -401 -182.5 -613.5t-577.5 -212.5q-360 0 -559 203t-199 617z" />
<glyph unicode="V" horiz-adv-x="1728" d="M18 1526h674l170 -649h4l170 649h674l-518 -1526h-655z" />
<glyph unicode="W" horiz-adv-x="2516" d="M0 1526h659l177 -549l186 549h469l195 -549l167 549h660l-514 -1526h-498l-241 655l-224 -655h-497z" />
<glyph unicode="X" horiz-adv-x="1984" d="M18 0l596 772l-596 754h738l225 -332l215 332h733l-577 -750l614 -776h-739l-242 354l-233 -354h-734z" />
<glyph unicode="Y" horiz-adv-x="1855" d="M8 1526h684l236 -408l235 408h684l-581 -860v-666h-676v666z" />
<glyph unicode="Z" horiz-adv-x="1685" d="M29 0l702 1143h-645v383h1585l-702 -1143h667v-383h-1607z" />
<glyph unicode="[" horiz-adv-x="1087" d="M147 -307v1833h910v-338h-291v-1157h291v-338h-910z" />
<glyph unicode="\" horiz-adv-x="575" d="M-66 1526h328l379 -1704h-328z" />
<glyph unicode="]" horiz-adv-x="1087" d="M31 31h291v1157h-291v338h909v-1833h-909v338z" />
<glyph unicode="^" horiz-adv-x="1404" d="M127 729l418 797h334l399 -797h-422l-151 389l-156 -389h-422z" />
<glyph unicode="_" horiz-adv-x="1024" d="M-12 -113h1048v-204h-1048v204z" />
<glyph unicode="`" horiz-adv-x="669" d="M-102 1583h508l135 -297h-256z" />
<glyph unicode="a" horiz-adv-x="1449" d="M96 305q0 78 30 142.5t84 110.5t130 71.5t168 25.5q106 0 211 -28q0 88 -65.5 133t-178.5 45q-92 0 -173 -22.5t-175 -73.5v362q70 33 137.5 59.5t139 45t149.5 28.5t168 10q322 0 469 -138t147 -406v-670h-618v90q-63 -47 -146.5 -73.5t-154.5 -26.5q-68 0 -126.5 23.5 t-102.5 64.5t-68.5 99.5t-24.5 127.5zM494 348q0 -49 37 -82t92 -33q57 0 96 33v168q-33 10 -55.5 14.5t-45.5 4.5q-57 0 -90.5 -29t-33.5 -76z" />
<glyph unicode="b" horiz-adv-x="1622" d="M111 0v1526h618v-359q66 27 120 37t114 10q129 0 237.5 -45t188 -124.5t123.5 -189.5t44 -239q0 -117 -40.5 -228.5t-123.5 -197.5t-208 -138t-293 -52h-780zM729 438h16q45 0 85 3t70 18.5t46.5 46.5t16.5 88q0 68 -36 106.5t-98 38.5q-29 0 -52 -7t-48 -21v-273z" />
<glyph unicode="c" horiz-adv-x="1343" d="M88 598q0 135 50 251t141.5 200t219 132t285.5 48q104 0 223 -18.5t226 -53.5v-528q-92 43 -179 65.5t-159 22.5q-88 0 -138 -27.5t-50 -79.5q0 -55 54 -85.5t161 -30.5q88 0 173 17t138 46v-522q-88 -27 -188.5 -40t-198.5 -13q-215 0 -359.5 57t-233.5 147t-127 199 t-38 213z" />
<glyph unicode="d" horiz-adv-x="1642" d="M82 612q0 123 43 232.5t121 191.5t186.5 130t241.5 48q74 0 140.5 -14t92.5 -29v355h619v-1526h-738q-178 0 -310 49t-220 134t-132 195.5t-44 233.5zM676 586q0 -78 45 -113t139 -35h47v271q-20 14 -48 22t-54 8q-57 0 -93 -43.5t-36 -109.5z" />
<glyph unicode="e" horiz-adv-x="1429" d="M74 616q0 133 45 246t128 194t200 127t258 46t259.5 -46t205.5 -132t135.5 -209t48.5 -279v-39h-631q33 -92 112.5 -144t186.5 -52q98 0 186 34.5t146 96.5v-211q-106 -141 -252 -203.5t-332 -62.5q-158 0 -286 46t-219 129t-141 199.5t-50 259.5zM686 735h291 q-4 88 -44 139.5t-108 51.5q-57 0 -98 -50.5t-41 -127.5v-13z" />
<glyph unicode="f" horiz-adv-x="1153" d="M43 586v254h133v10q0 168 47 299t134 220t209 135t272 46q70 0 148.5 -12t158.5 -33v-606q-90 109 -195 109q-72 0 -113.5 -44t-41.5 -124h350v-254h-350v-586h-619v586h-133z" />
<glyph unicode="g" horiz-adv-x="1556" d="M86 745q0 129 51 225.5t121 143.5q43 29 90 46.5t105.5 26.5t131 12t165.5 3l698 2v-950q0 -305 -155.5 -448.5t-489.5 -143.5q-211 0 -393.5 44t-319.5 130v547q221 -215 492 -215q123 0 187.5 40t64.5 111q0 14 -5 35q-43 -29 -112.5 -47t-141.5 -18 q-115 0 -204.5 32.5t-153 92t-97.5 143.5t-34 188zM608 713q0 -61 37 -98t98 -37q31 0 50.5 7t35.5 19v260h-16q-100 0 -152.5 -34.5t-52.5 -116.5z" />
<glyph unicode="h" horiz-adv-x="1642" d="M106 0v1526h619v-479q142 167 362 167h3q209 0 325.5 -119.5t116.5 -328.5v-766h-584v696q0 76 -30.5 114t-86.5 38q-53 0 -106 -47v-801h-619z" />
<glyph unicode="i" horiz-adv-x="854" d="M119 0v1204q57 -33 140 -51t177 -18q78 0 161 17t140 52v-1204h-618zM383 1376q0 37 14.5 69t38 55.5t55 36.5t68.5 13q72 0 123 -50t51 -124q0 -37 -13 -68.5t-37 -55t-55.5 -38t-68.5 -14.5t-68.5 14.5t-55 38t-38 55t-14.5 68.5z" />
<glyph unicode="j" horiz-adv-x="1024" d="M18 174q31 -8 49.5 -13t51.5 -5q78 0 107.5 49t29.5 149v850q55 -23 100 -36t82 -20t70 -10t67 -3q74 0 152 17t147 52v-874q0 -164 -44 -289t-123.5 -209t-190 -127t-246.5 -43q-74 0 -136 13.5t-116 39.5v459zM520 1376q0 37 14.5 69t38 55.5t55 36.5t68.5 13 q72 0 123 -50t51 -124q0 -37 -13 -68.5t-36.5 -55t-55.5 -38t-69 -14.5t-68.5 14.5t-55 38t-38 55t-14.5 68.5z" />
<glyph unicode="k" horiz-adv-x="1599" d="M111 0v1526h618v-721q49 20 89 53t67.5 80t42 112.5t16.5 153.5h631q-8 -92 -25.5 -165.5t-48.5 -133t-75 -110t-105 -93.5q139 -109 196.5 -265t57.5 -380v-57h-612q0 135 -13.5 235.5t-41 171t-72.5 115.5t-107 70v-592h-618z" />
<glyph unicode="l" horiz-adv-x="854" d="M117 0v1526h618v-1526h-618z" />
<glyph unicode="m" horiz-adv-x="2453" d="M111 0v1204h618v-151q149 161 368 161h3q137 0 230 -51t159 -157q106 111 208.5 159.5t231.5 48.5q199 0 310.5 -119.5t111.5 -336.5v-758h-584v723q0 59 -31.5 95t-82.5 36q-27 0 -58.5 -11.5t-54.5 -27.5v-815h-584v721q0 59 -29.5 96t-84.5 37q-27 0 -56.5 -11.5 t-56.5 -29.5v-813h-618z" />
<glyph unicode="n" horiz-adv-x="1642" d="M113 0v1204h618v-151q86 88 174 124.5t199 36.5q217 0 326.5 -119.5t109.5 -340.5v-754h-584v705q0 70 -27.5 108.5t-86.5 38.5q-25 0 -56.5 -11.5t-54.5 -27.5v-813h-618z" />
<glyph unicode="o" horiz-adv-x="1472" d="M78 604q0 137 48 252t134 198t207 129t268 46q145 0 266 -45t209 -127t136.5 -197t48.5 -256q0 -137 -48.5 -251.5t-134.5 -196.5t-207.5 -128t-269.5 -46q-147 0 -268 46t-207 129t-134 196.5t-48 250.5zM600 616q0 -61 38 -99t97 -38q61 0 99 38t38 99 q0 63 -38.5 100.5t-98.5 37.5q-59 0 -97 -38t-38 -100z" />
<glyph unicode="p" horiz-adv-x="1642" d="M121 -338v1542h618v-92q139 102 297 102q115 0 212.5 -46t168 -125.5t109.5 -188.5t39 -233q0 -141 -44 -258t-122 -200t-183.5 -128t-228.5 -45q-59 0 -120.5 12t-127.5 41v-381h-618zM739 457q10 -6 40 -17.5t67 -11.5q55 0 90 41t35 109t-35 110.5t-90 42.5 q-61 0 -107 -57v-217z" />
<glyph unicode="q" horiz-adv-x="1642" d="M82 584q0 129 45 241.5t133 197.5t215 133t293 48h758v-1542h-619v358q-96 -45 -237 -45q-127 0 -235.5 46.5t-186.5 128t-122 193.5t-44 241zM676 600q0 -66 37 -110t92 -44q59 0 102 33v271h-57q-92 0 -133 -37t-41 -113z" />
<glyph unicode="r" horiz-adv-x="1366" d="M115 0v1204h618v-256h4q55 129 141.5 197.5t196.5 68.5q61 0 114.5 -21.5t91.5 -60t59.5 -92t21.5 -116.5q0 -68 -21.5 -122t-59.5 -92t-91 -59.5t-115 -21.5q-145 0 -250 110q-47 -41 -69.5 -111.5t-22.5 -168.5v-459h-618z" />
<glyph unicode="s" horiz-adv-x="1259" d="M12 117l138 338q59 -82 149 -132.5t182 -50.5q53 0 86 23.5t33 62.5q0 33 -17.5 53.5t-48 36t-70.5 26.5t-85 24q-145 39 -234.5 123t-89.5 229q0 180 152.5 279.5t435.5 99.5q154 0 290 -25.5t247 -77.5l-148 -307q-68 61 -142.5 96t-139.5 35q-45 0 -73 -19.5 t-28 -51.5q0 -47 39 -72t115 -43t149.5 -46t132 -71t94 -106.5t35.5 -157.5q0 -102 -44 -177t-117.5 -125t-172 -74.5t-206.5 -24.5q-78 0 -162 9t-169 26.5t-170 43t-161 56.5z" />
<glyph unicode="t" horiz-adv-x="1153" d="M-45 866l870 682v-344h258v-338h-258v-260q0 -59 29 -94t86 -35q88 0 150 86v-477q-70 -45 -161 -70.5t-194 -25.5q-111 0 -208 34.5t-167.5 98t-111.5 155t-41 201.5v387h-252z" />
<glyph unicode="u" horiz-adv-x="1642" d="M102 414v790h584v-655q0 -158 113 -158q74 0 112 64v749h619v-1204h-592v211h-4q-92 -117 -187.5 -169t-224.5 -52q-96 0 -173 28.5t-132 84t-85 134t-30 177.5z" />
<glyph unicode="v" horiz-adv-x="1492" d="M-4 1204h608l144 -450l141 450h608l-522 -1204h-457z" />
<glyph unicode="w" horiz-adv-x="2027" d="M2 1204h612l129 -381l119 381h287l123 -381l133 381h620l-534 -1204h-344l-143 391l-144 -391h-344z" />
<glyph unicode="x" d="M18 0l474 612l-474 592h711l168 -274l162 274h670l-474 -610l474 -594h-713l-168 279l-168 -279h-662z" />
<glyph unicode="y" horiz-adv-x="1515" d="M8 1204h615l145 -362l139 362h600l-651 -1542h-672l248 586z" />
<glyph unicode="z" horiz-adv-x="1343" d="M18 0l435 819h-379v385h1239l-426 -801h420v-403h-1289z" />
<glyph unicode="{" horiz-adv-x="819" d="M8 381v389h29q78 0 121 50t43 161v176q0 123 31.5 196.5t89 114.5t138.5 54.5t179 13.5h164v-377h-8q-45 0 -79 -3t-55.5 -19.5t-33 -52t-11.5 -101.5v-4q0 -66 -4 -129.5t-21.5 -116.5t-53 -94t-101.5 -64q55 -20 89 -49.5t54.5 -74.5t28.5 -107.5t8 -150.5 q0 -66 7.5 -107t27 -62.5t52 -28.5t85.5 -7h15v-375h-172q-127 0 -210 23.5t-132 71.5t-68.5 121t-19.5 171v193q0 84 -42 136t-120 52h-31z" />
<glyph unicode="|" horiz-adv-x="1366" d="M518 -178v1704h328v-1704h-328z" />
<glyph unicode="}" horiz-adv-x="819" d="M16 -12h9q45 0 77.5 3t55 19.5t34 53t11.5 102.5v4q0 66 3 129t20.5 116.5t53 94.5t101.5 63q-55 20 -89 49t-54.5 74t-27.5 108.5t-7 151.5q0 61 -6.5 101.5t-24.5 63t-52 30.5t-91 8h-13v377h170q125 0 209 -23.5t133.5 -71.5t69.5 -121t20 -171v-193q0 -86 41 -137 t121 -51h31v-389h-29q-164 0 -164 -211v-176q0 -123 -31.5 -197t-89 -114.5t-139.5 -54t-180 -13.5h-162v375z" />
<glyph unicode="~" horiz-adv-x="1404" d="M102 406v440q98 84 183.5 122t179.5 38q70 0 134.5 -26t126.5 -56.5t121.5 -56t121.5 -25.5q66 0 145.5 46t188.5 150v-438q-193 -164 -355 -164q-72 0 -136 25.5t-126.5 56.5t-122 56.5t-119.5 25.5q-70 0 -159.5 -51t-182.5 -143z" />
<glyph unicode="&#xa1;" horiz-adv-x="831" d="M80 57q0 94 21.5 186.5t57.5 180.5t83 173t98 169q-76 29 -119 88t-43 137q0 49 18.5 92t51.5 76t76 51.5t92 18.5t93 -19.5t76.5 -51.5t51 -75t18.5 -92q0 -78 -43 -137t-116 -88q135 -223 196.5 -392t61.5 -304q0 -92 -26 -168t-72 -131.5t-107.5 -86t-134.5 -30.5 q-72 0 -133.5 29.5t-105.5 84t-69.5 128t-25.5 161.5z" />
<glyph unicode="&#xa2;" horiz-adv-x="1343" d="M84 768q0 113 39 215t110.5 183t172 136.5t223.5 75.5v148h309v-142q100 -12 164.5 -27.5t130.5 -39.5v-520q-86 47 -175 70.5t-169 23.5q-86 0 -136.5 -31t-50.5 -84q0 -109 216 -108q78 0 159.5 15t155.5 48v-526q-119 -39 -295 -49v-156h-309v170q-129 23 -230.5 77 t-171 133t-106.5 177t-37 211z" />
<glyph unicode="&#xa3;" horiz-adv-x="1536" d="M78 657v211h178q49 328 224 505t462 177q113 0 214 -31.5t178 -89t122 -139.5t49 -182q-61 51 -133 80t-141 29q-125 0 -206 -85t-114 -264h187v-211h-224q-12 -74 -21 -134t-15 -130h587v-393h-1321q20 164 49 328t64 329h-139z" />
<glyph unicode="&#xa4;" horiz-adv-x="1366" d="M113 334l135 135q-27 57 -40 109.5t-13 113.5t14 120.5t41 107.5l-137 137l213 213l141 -142q41 20 98.5 35t114.5 15q53 0 113.5 -14.5t109.5 -39.5l146 146l213 -213l-148 -148q23 -45 37 -100t14 -117q0 -66 -14 -116t-35 -97l146 -145l-213 -213l-142 141 q-53 -27 -112.5 -41t-114.5 -14q-119 0 -217 51l-137 -137zM504 692q0 -37 14 -68.5t38 -56t56.5 -39t69.5 -14.5t68.5 14.5t55 38t38 56t14.5 69.5t-13.5 69t-38 56.5t-57 38.5t-69.5 14t-68.5 -14t-55.5 -38.5t-38 -56.5t-14 -69z" />
<glyph unicode="&#xa5;" d="M37 1526h643l194 -408l195 408h643l-426 -705h373v-205h-467v-143h467v-205h-467v-268h-635v268h-467v205h467v143h-467v205h373z" />
<glyph unicode="&#xa6;" horiz-adv-x="1366" d="M518 -178v739h328v-739h-328zM518 784v742h328v-742h-328z" />
<glyph unicode="&#xa7;" horiz-adv-x="1599" d="M92 592q0 119 57.5 196.5t186.5 135.5q-76 57 -111 116.5t-35 133.5q0 86 46.5 155.5t131.5 118.5t206.5 75.5t273.5 26.5q133 0 243.5 -17t237.5 -50v-398q-78 86 -189.5 132.5t-228.5 46.5q-193 0 -192 -95q0 -16 24.5 -31.5t67.5 -31.5t104.5 -34.5t135.5 -41.5 q141 -43 225 -84t121 -78q111 -111 110 -262q0 -109 -52 -178.5t-169 -140.5q82 -59 118 -124t36 -151q0 -168 -174 -259t-498 -91q-186 0 -339 29.5t-253 83.5v385q92 -102 238.5 -156.5t312.5 -54.5q86 0 129 21.5t43 58.5q0 20 -19.5 38.5t-47 32t-60.5 24.5t-59 21 q-104 35 -215 68t-213 90q-96 53 -144.5 117.5t-48.5 171.5zM526 666q0 -33 15.5 -54.5t66.5 -46t150.5 -57.5t265.5 -90q27 31 38 53.5t11 58.5q0 45 -24.5 77t-81 60.5t-147.5 60.5t-222 75q-41 -45 -56.5 -75t-15.5 -62z" />
<glyph unicode="&#xa8;" horiz-adv-x="681" d="M-80 1452q0 74 52.5 124t123.5 50q74 0 124 -50t50 -124q0 -72 -50 -124t-124 -52q-37 0 -68.5 14.5t-55 38t-38 55t-14.5 68.5zM416 1452q0 74 52 124t124 50q74 0 123 -50t49 -124q0 -72 -49 -124t-123 -52q-37 0 -68.5 14.5t-55.5 38t-38 55t-14 68.5z" />
<glyph unicode="&#xa9;" horiz-adv-x="1742" d="M82 766q0 156 59.5 298t166 250.5t250.5 172t314 63.5q162 0 305.5 -61.5t251 -166.5t170 -248.5t62.5 -307.5q0 -156 -60.5 -298t-166 -250.5t-251 -173t-313.5 -64.5q-156 0 -298 59t-251.5 164.5t-174 249t-64.5 313.5zM221 766q0 -135 52.5 -253t140.5 -205 t205.5 -137t250.5 -50q139 0 258 52t206 141t136.5 207t49.5 247q0 135 -51.5 252t-139.5 204t-205.5 137t-249.5 50q-135 0 -254.5 -51t-207.5 -138t-139.5 -205t-51.5 -251zM426 764q0 82 28.5 164t90 147.5t157 107.5t228.5 42q61 0 133 -10.5t149 -32.5v-285 q-59 25 -109 37t-99 12q-104 0 -160 -49t-56 -129q0 -78 60.5 -127t167.5 -49q37 0 79 10t124 45v-280q-47 -14 -82 -24.5t-67 -17t-62.5 -9.5t-67.5 -3q-129 0 -225.5 33t-161 92.5t-96 142.5t-31.5 183z" />
<glyph unicode="&#xaa;" horiz-adv-x="937" d="M59 997q0 96 76 153.5t195 57.5q31 0 55.5 -3t77.5 -15q0 49 -41 76.5t-115 27.5q-61 0 -111.5 -13t-115.5 -44v219q57 27 104 43.5t92.5 25.5t90.5 13t98 4q215 0 309 -84t94 -244v-401h-405v55q-49 -31 -93 -46t-102 -15q-90 0 -149.5 54t-59.5 136zM317 1022 q0 -29 24.5 -48.5t61.5 -19.5q25 0 38.5 7.5t21.5 11.5v102q-23 6 -35 8t-31 2q-31 0 -55.5 -15t-24.5 -48z" />
<glyph unicode="&#xab;" horiz-adv-x="1429" d="M18 606l267 535h413l-190 -535l190 -534h-413zM705 606l266 535h413l-190 -535l190 -534h-413z" />
<glyph unicode="&#xac;" horiz-adv-x="1404" d="M100 723v414h1205v-889h-414v475h-791z" />
<glyph unicode="&#xad;" horiz-adv-x="854" d="M74 389v426h704v-426h-704z" />
<glyph unicode="&#xae;" horiz-adv-x="1742" d="M82 766q0 156 59.5 298t166 250.5t250.5 172t314 63.5q162 0 305.5 -61.5t251 -166.5t170 -248.5t62.5 -307.5q0 -156 -60.5 -298t-166 -250.5t-251 -173t-313.5 -64.5q-156 0 -298 59t-251.5 164.5t-174 249t-64.5 313.5zM221 766q0 -135 52.5 -253t140.5 -205 t205.5 -137t250.5 -50q139 0 258 52t206 141t136.5 207t49.5 247q0 135 -51.5 252t-139.5 204t-205.5 137t-249.5 50q-135 0 -254.5 -51t-207.5 -138t-139.5 -205t-51.5 -251zM467 340v870h524q135 0 216 -66.5t81 -176.5q0 -104 -69.5 -170t-178.5 -78q59 -23 94 -63 t76 -109l117 -207h-375l-59 160q-16 41 -28.5 66.5t-24 40t-22.5 19.5t-27 7v-293h-324zM791 846h55q35 0 64.5 14t29.5 62q0 47 -33 62t-61 15h-55v-153z" />
<glyph unicode="&#xaf;" horiz-adv-x="681" d="M-49 1307v280h780v-280h-780z" />
<glyph unicode="&#xb0;" horiz-adv-x="811" d="M121 1266q0 59 23.5 111.5t63.5 90t91 60t109 22.5q57 0 109 -22.5t91 -60t61.5 -90t22.5 -111.5q0 -57 -22.5 -109.5t-60.5 -91.5t-90 -62.5t-111 -23.5t-110.5 22.5t-91.5 62.5t-62.5 91t-22.5 111zM307 1266q0 -39 29 -71t72 -32t72.5 31t29.5 72t-30.5 70.5 t-71.5 29.5t-71 -29.5t-30 -70.5z" />
<glyph unicode="&#xb1;" horiz-adv-x="1404" d="M100 0v414h1205v-414h-1205zM100 766v412h396v270h413v-270h396v-412h-396v-270h-413v270h-396z" />
<glyph unicode="&#xb2;" horiz-adv-x="1044" d="M145 1083q106 117 166 186.5t88 110.5q16 25 28.5 53.5t12.5 57.5q0 35 -26.5 57.5t-65.5 22.5q-23 0 -43 -6t-43.5 -22.5t-50.5 -43t-64 -69.5l9 360q86 51 157.5 74.5t159.5 23.5q86 0 156.5 -23.5t121 -65.5t78 -101t27.5 -133q0 -43 -8 -82t-25.5 -79t-46 -83 t-69.5 -96h174v-142h-736z" />
<glyph unicode="&#xb3;" horiz-adv-x="1044" d="M203 1083v275q49 -47 91 -64.5t95 -17.5t81 20.5t28 53.5q0 45 -37 70.5t-103 25.5q-41 0 -74.5 -7t-80.5 -22v139q47 -6 75.5 -10t57.5 -4q70 0 111.5 22.5t41.5 65.5q0 35 -29.5 56.5t-80.5 21.5q-59 0 -97 -20.5t-79 -63.5v252h327q365 0 365 -207q0 -61 -35 -102 t-121 -74v-4q80 -23 122 -73t42 -118q0 -104 -87 -159.5t-261 -55.5h-352z" />
<glyph unicode="&#xb4;" horiz-adv-x="694" d="M115 1286l135 297h508l-389 -297h-254z" />
<glyph unicode="&#xb5;" horiz-adv-x="1366" d="M-49 -432v1636h584v-674q0 -66 28.5 -102.5t85.5 -36.5q76 0 111 64v749h618v-1204h-592v111h-4q-18 -68 -47.5 -94.5t-70.5 -26.5q-47 0 -81 33.5t-44 87.5h-4v-543h-584z" />
<glyph unicode="&#xb6;" d="M135 1108q0 94 31 171t89 132t142 85t189 30h1032v-287h-133v-1577h-297v1577h-166v-1577h-297v1012h-143q-102 0 -184.5 29.5t-140.5 86t-90 137.5t-32 181z" />
<glyph unicode="&#xb7;" horiz-adv-x="831" d="M90 793q0 66 24.5 125t68.5 103t103.5 70.5t129.5 26.5q68 0 127 -26.5t103 -70.5t69.5 -103t25.5 -125q0 -68 -25.5 -127.5t-70.5 -103.5t-103.5 -69.5t-125.5 -25.5q-70 0 -129.5 25.5t-103.5 70.5t-68.5 104.5t-24.5 125.5z" />
<glyph unicode="&#xb8;" horiz-adv-x="684" d="M2 -410l21 154q25 -2 43 -2h47q49 0 88 16.5t39 57.5q0 27 -29 47t-88 20l57 68q57 18 118.5 28.5t121.5 10.5q129 0 190.5 -53.5t61.5 -137.5q0 -109 -102.5 -177t-284.5 -68q-37 0 -76 3t-77 8t-71.5 11t-58.5 14z" />
<glyph unicode="&#xb9;" horiz-adv-x="1044" d="M319 1083v703l408 102v-805h-408z" />
<glyph unicode="&#xba;" horiz-adv-x="960" d="M51 1178q0 82 32 150.5t89 117.5t136 76.5t171 27.5t171 -27.5t136.5 -76.5t89 -117.5t31.5 -150.5q0 -84 -31.5 -153t-89 -118t-135.5 -76.5t-172 -27.5t-173 27.5t-135 76.5t-88 118t-32 153zM391 1184q0 -35 25.5 -58.5t64.5 -23.5q37 0 61.5 23.5t24.5 58.5 q0 37 -23.5 59.5t-64.5 22.5q-37 0 -62.5 -22.5t-25.5 -59.5z" />
<glyph unicode="&#xbb;" horiz-adv-x="1429" d="M45 72l191 534l-191 535h414l266 -535l-266 -534h-414zM731 72l191 534l-191 535h414l266 -535l-266 -534h-414z" />
<glyph unicode="&#xbc;" horiz-adv-x="2197" d="M319 745v703l408 102v-805h-408zM499 0l899 1526h299l-899 -1526h-299zM1211 266v170l364 357h408v-344h151v-183h-151v-266h-408v266h-364zM1383 449h192v190z" />
<glyph unicode="&#xbd;" horiz-adv-x="2197" d="M319 745v703l408 102v-805h-408zM475 0l899 1526h299l-899 -1526h-299zM1296 0q106 117 166 186.5t88 110.5q16 25 28.5 53.5t12.5 57.5q0 35 -26.5 57t-65.5 22q-23 0 -43 -6t-43.5 -22.5t-50.5 -43t-64 -69.5l9 361q86 51 157.5 74.5t159.5 23.5q86 0 156.5 -23.5 t121 -65.5t78 -101.5t27.5 -133.5q0 -43 -8 -82t-25.5 -78.5t-46 -82.5t-69.5 -97h174v-141h-736z" />
<glyph unicode="&#xbe;" horiz-adv-x="2197" d="M203 745v275q49 -47 91 -64.5t95 -17.5t81 20.5t28 53.5q0 45 -37 70.5t-103 25.5q-41 0 -74.5 -7t-80.5 -22v140q47 -6 75.5 -10.5t57.5 -4.5q70 0 111.5 22.5t41.5 65.5q0 35 -29.5 56.5t-80.5 21.5q-59 0 -97 -20.5t-79 -63.5v252h327q365 0 365 -207q0 -61 -35 -102 t-121 -74v-4q80 -23 122 -73t42 -117q0 -104 -87 -160t-261 -56h-352zM499 0l899 1526h299l-899 -1526h-299zM1211 266v170l364 357h408v-344h151v-183h-151v-266h-408v266h-364zM1383 449h192v190z" />
<glyph unicode="&#xbf;" horiz-adv-x="1173" d="M113 90q0 176 102 332t309 326q-82 29 -126 90t-44 143q0 51 19.5 97t52.5 79t78 52.5t98 19.5t99.5 -18.5t80 -51.5t53 -78t19.5 -96q0 -80 -40 -140.5t-87 -117.5t-87 -121.5t-40 -152.5q0 -125 74 -198t190 -73q59 0 128 21.5t169 72.5q-29 -123 -85 -235.5 t-136 -198.5t-179 -137t-216 -51q-90 0 -169 31.5t-137.5 90t-92 138.5t-33.5 176z" />
<glyph unicode="&#xc0;" horiz-adv-x="2027" d="M2 0l530 1526h963l530 -1526h-675l-88 258h-496l-88 -258h-676zM572 1919h508l135 -297h-256zM889 618h250l-123 373h-4z" />
<glyph unicode="&#xc1;" horiz-adv-x="2027" d="M2 0l530 1526h963l530 -1526h-675l-88 258h-496l-88 -258h-676zM789 1622l135 297h508l-389 -297h-254zM889 618h250l-123 373h-4z" />
<glyph unicode="&#xc2;" horiz-adv-x="2027" d="M2 0l530 1526h963l530 -1526h-675l-88 258h-496l-88 -258h-676zM600 1622l176 317h484l172 -317h-279l-135 111l-139 -111h-279zM889 618h250l-123 373h-4z" />
<glyph unicode="&#xc3;" horiz-adv-x="2027" d="M2 0l530 1526h963l530 -1526h-675l-88 258h-496l-88 -258h-676zM608 1622q8 184 74 264t195 80q47 0 83 -12t67.5 -26.5t61 -27t64.5 -12.5q29 0 43.5 16.5t18.5 61.5h211q-16 -344 -265 -344q-35 0 -74.5 12.5t-77.5 27.5t-72 27.5t-58 12.5q-25 0 -43.5 -16.5 t-22.5 -63.5h-205zM889 618h250l-123 373h-4z" />
<glyph unicode="&#xc4;" horiz-adv-x="2027" d="M2 0l530 1526h963l530 -1526h-675l-88 258h-496l-88 -258h-676zM594 1788q0 74 52.5 124t123.5 50q74 0 124 -50t50 -124q0 -72 -50 -124t-124 -52q-37 0 -68.5 14t-55 38t-38 55.5t-14.5 68.5zM889 618h250l-123 373h-4zM1090 1788q0 74 52 124t124 50q74 0 123 -50 t49 -124q0 -72 -49 -124t-123 -52q-37 0 -68.5 14t-55.5 38t-38 55.5t-14 68.5z" />
<glyph unicode="&#xc5;" horiz-adv-x="2027" d="M2 0l530 1526h963l530 -1526h-675l-88 258h-496l-88 -258h-676zM783 1825q0 47 18 89t49 72.5t74 49t92 18.5t91 -18.5t73 -49t49 -72.5t18 -89q0 -49 -18 -91t-50 -73t-74 -49.5t-89 -18.5q-49 0 -92 18.5t-74 50.5t-49 74t-18 89zM889 618h250l-123 373h-4zM920 1825 q0 -41 27.5 -68.5t66.5 -27.5t67.5 27.5t28.5 68.5t-28.5 67.5t-67.5 26.5t-66.5 -26.5t-27.5 -67.5z" />
<glyph unicode="&#xc6;" horiz-adv-x="2496" d="M0 0l678 1526h1771v-383h-591v-187h413v-383h-413v-190h591v-383h-1267v285h-389l-117 -285h-676zM924 612h258v648h-4z" />
<glyph unicode="&#xc7;" horiz-adv-x="1599" d="M106 752q0 182 67 329.5t181.5 252t269 160.5t332.5 56q86 0 172 -12t167 -33.5t152 -51.5t124 -64l-283 -539q-59 20 -130 31.5t-142 11.5q-217 0 -217 -117q0 -57 59.5 -88t171.5 -31q147 0 258 54l283 -578q-100 -61 -240.5 -101t-279.5 -52q80 -18 118.5 -66.5 t38.5 -114.5q0 -109 -102 -177t-285 -68q-37 0 -75.5 3t-76.5 8t-72 11t-58 14l20 154q25 -2 43.5 -2h46.5q49 0 88 16.5t39 57.5q0 27 -28.5 47t-88.5 20l58 68q31 10 62.5 17t64.5 14q-176 16 -313.5 82.5t-231.5 170t-143.5 236.5t-49.5 281z" />
<glyph unicode="&#xc8;" horiz-adv-x="1472" d="M150 0v1526h1267v-383h-592v-189h412v-383h-412v-188h592v-383h-1267zM293 1919h508l135 -297h-256z" />
<glyph unicode="&#xc9;" horiz-adv-x="1472" d="M150 0v1526h1267v-383h-592v-189h412v-383h-412v-188h592v-383h-1267zM510 1622l135 297h508l-389 -297h-254z" />
<glyph unicode="&#xca;" horiz-adv-x="1472" d="M150 0v1526h1267v-383h-592v-189h412v-383h-412v-188h592v-383h-1267zM321 1622l176 317h484l172 -317h-279l-135 111l-139 -111h-279z" />
<glyph unicode="&#xcb;" horiz-adv-x="1472" d="M150 0v1526h1267v-383h-592v-189h412v-383h-412v-188h592v-383h-1267zM356 1788q0 74 52.5 124t123.5 50q74 0 124 -50t50 -124q0 -72 -50 -124t-124 -52q-37 0 -68.5 14t-55 38t-38 55.5t-14.5 68.5zM852 1788q0 74 52 124t124 50q74 0 123 -50t49 -124q0 -72 -49 -124 t-123 -52q-37 0 -68.5 14t-55.5 38t-38 55.5t-14 68.5z" />
<glyph unicode="&#xcc;" horiz-adv-x="980" d="M48 1919h508l135 -297h-256zM154 0v1526h675v-1526h-675z" />
<glyph unicode="&#xcd;" horiz-adv-x="980" d="M154 0v1526h675v-1526h-675zM265 1622l135 297h508l-389 -297h-254z" />
<glyph unicode="&#xce;" horiz-adv-x="980" d="M76 1622l176 317h484l172 -317h-279l-135 111l-139 -111h-279zM154 0v1526h675v-1526h-675z" />
<glyph unicode="&#xcf;" horiz-adv-x="980" d="M70 1788q0 74 52.5 124t123.5 50q74 0 124 -50t50 -124q0 -72 -50 -124t-124 -52q-37 0 -68.5 14t-55 38t-38 55.5t-14.5 68.5zM154 0v1526h675v-1526h-675zM566 1788q0 74 52 124t124 50q74 0 123 -50t49 -124q0 -72 -49 -124t-123 -52q-37 0 -68.5 14t-55.5 38 t-38 55.5t-14 68.5z" />
<glyph unicode="&#xd0;" horiz-adv-x="1812" d="M-61 618v287h213v621h763q207 0 364 -63.5t261.5 -170t157.5 -245t53 -287.5q0 -123 -44 -257t-144.5 -246t-263 -184.5t-402.5 -72.5h-745v618h-213zM827 584h19q121 0 175 42t54 140q0 176 -207 176h-41v-358z" />
<glyph unicode="&#xd1;" horiz-adv-x="1812" d="M150 0v1526h483l352 -510h4v510h676v-1538h-512l-324 475h-4v-463h-675zM499 1622q8 184 74 264t195 80q47 0 83 -12t67.5 -26.5t61 -27t64.5 -12.5q29 0 43.5 16.5t18.5 61.5h211q-16 -344 -265 -344q-35 0 -74.5 12.5t-77.5 27.5t-72 27.5t-58 12.5q-25 0 -43.5 -16.5 t-22.5 -63.5h-205z" />
<glyph unicode="&#xd2;" d="M92 764q0 162 59.5 305t164 250.5t247.5 169t311 61.5q166 0 308.5 -61.5t248 -168t166 -249.5t60.5 -307q0 -166 -60.5 -309.5t-166 -250t-249 -168t-309.5 -61.5q-164 0 -306 61.5t-247.5 168t-166 251t-60.5 308.5zM433 1919h508l135 -297h-256zM723 805 q0 -72 44 -116t107 -44t107.5 44t44.5 116q0 70 -43 115t-109 45t-108.5 -45t-42.5 -115z" />
<glyph unicode="&#xd3;" d="M92 764q0 162 59.5 305t164 250.5t247.5 169t311 61.5q166 0 308.5 -61.5t248 -168t166 -249.5t60.5 -307q0 -166 -60.5 -309.5t-166 -250t-249 -168t-309.5 -61.5q-164 0 -306 61.5t-247.5 168t-166 251t-60.5 308.5zM650 1622l135 297h508l-389 -297h-254zM723 805 q0 -72 44 -116t107 -44t107.5 44t44.5 116q0 70 -43 115t-109 45t-108.5 -45t-42.5 -115z" />
<glyph unicode="&#xd4;" d="M92 764q0 162 59.5 305t164 250.5t247.5 169t311 61.5q166 0 308.5 -61.5t248 -168t166 -249.5t60.5 -307q0 -166 -60.5 -309.5t-166 -250t-249 -168t-309.5 -61.5q-164 0 -306 61.5t-247.5 168t-166 251t-60.5 308.5zM461 1622l176 317h484l172 -317h-279l-135 111 l-139 -111h-279zM723 805q0 -72 44 -116t107 -44t107.5 44t44.5 116q0 70 -43 115t-109 45t-108.5 -45t-42.5 -115z" />
<glyph unicode="&#xd5;" d="M92 764q0 162 59.5 305t164 250.5t247.5 169t311 61.5q166 0 308.5 -61.5t248 -168t166 -249.5t60.5 -307q0 -166 -60.5 -309.5t-166 -250t-249 -168t-309.5 -61.5q-164 0 -306 61.5t-247.5 168t-166 251t-60.5 308.5zM469 1622q8 184 74 264t195 80q47 0 83 -12 t67.5 -26.5t61 -27t64.5 -12.5q29 0 43.5 16.5t18.5 61.5h211q-16 -344 -265 -344q-35 0 -74.5 12.5t-77.5 27.5t-72 27.5t-58 12.5q-25 0 -43.5 -16.5t-22.5 -63.5h-205zM723 805q0 -72 44 -116t107 -44t107.5 44t44.5 116q0 70 -43 115t-109 45t-108.5 -45t-42.5 -115z " />
<glyph unicode="&#xd6;" d="M92 764q0 162 59.5 305t164 250.5t247.5 169t311 61.5q166 0 308.5 -61.5t248 -168t166 -249.5t60.5 -307q0 -166 -60.5 -309.5t-166 -250t-249 -168t-309.5 -61.5q-164 0 -306 61.5t-247.5 168t-166 251t-60.5 308.5zM455 1788q0 74 52.5 124t123.5 50q74 0 124 -50 t50 -124q0 -72 -50 -124t-124 -52q-37 0 -68.5 14t-55 38t-38 55.5t-14.5 68.5zM723 805q0 -72 44 -116t107 -44t107.5 44t44.5 116q0 70 -43 115t-109 45t-108.5 -45t-42.5 -115zM951 1788q0 74 52 124t124 50q74 0 123 -50t49 -124q0 -72 -49 -124t-123 -52 q-37 0 -68.5 14t-55.5 38t-38 55.5t-14 68.5z" />
<glyph unicode="&#xd7;" horiz-adv-x="1404" d="M80 1006l299 297l321 -316l324 316l297 -299l-322 -320l324 -319l-299 -299l-324 325l-321 -323l-297 297l321 319z" />
<glyph unicode="&#xd8;" d="M41 76l207 211q-74 100 -115 221t-41 256q0 162 59.5 305t164 250.5t248 169t310.5 61.5q131 0 248 -38.5t215 -110.5l152 153l153 -143l-153 -158q78 -100 123 -224t45 -265q0 -166 -60.5 -309.5t-166 -250t-249 -168t-309.5 -61.5q-137 0 -257.5 42t-219.5 120 l-202 -207zM723 805q0 -72 44 -116t107 -44t107.5 44t44.5 116q0 70 -43 115t-109 45t-108.5 -45t-42.5 -115z" />
<glyph unicode="&#xd9;" horiz-adv-x="1771" d="M127 795v731h676v-719q0 -78 17.5 -120t62.5 -42q49 0 67.5 37t18.5 125v719h676v-725q0 -401 -182.5 -613.5t-577.5 -212.5q-360 0 -559 203t-199 617zM443 1919h508l135 -297h-256z" />
<glyph unicode="&#xda;" horiz-adv-x="1771" d="M127 795v731h676v-719q0 -78 17.5 -120t62.5 -42q49 0 67.5 37t18.5 125v719h676v-725q0 -401 -182.5 -613.5t-577.5 -212.5q-360 0 -559 203t-199 617zM660 1622l135 297h508l-389 -297h-254z" />
<glyph unicode="&#xdb;" horiz-adv-x="1771" d="M127 795v731h676v-719q0 -78 17.5 -120t62.5 -42q49 0 67.5 37t18.5 125v719h676v-725q0 -401 -182.5 -613.5t-577.5 -212.5q-360 0 -559 203t-199 617zM471 1622l176 317h484l172 -317h-279l-135 111l-139 -111h-279z" />
<glyph unicode="&#xdc;" horiz-adv-x="1771" d="M127 795v731h676v-719q0 -78 17.5 -120t62.5 -42q49 0 67.5 37t18.5 125v719h676v-725q0 -401 -182.5 -613.5t-577.5 -212.5q-360 0 -559 203t-199 617zM465 1788q0 74 52.5 124t123.5 50q74 0 124 -50t50 -124q0 -72 -50 -124t-124 -52q-37 0 -68.5 14t-55 38t-38 55.5 t-14.5 68.5zM961 1788q0 74 52 124t124 50q74 0 123 -50t49 -124q0 -72 -49 -124t-123 -52q-37 0 -68.5 14t-55.5 38t-38 55.5t-14 68.5z" />
<glyph unicode="&#xdd;" horiz-adv-x="1855" d="M8 1526h684l236 -408l235 408h684l-581 -860v-666h-676v666zM703 1622l135 297h508l-389 -297h-254z" />
<glyph unicode="&#xde;" horiz-adv-x="1705" d="M154 0v1526h675v-254h254q166 0 281 -47t186.5 -122t103.5 -167t32 -180q0 -104 -39 -198.5t-108 -164t-162 -110.5t-199 -41q-92 0 -171 30.5t-178 102.5v-375h-675zM829 610q14 -4 29.5 -6t26.5 -2q76 0 123 47t47 127q0 78 -40 122t-114 44h-72v-332z" />
<glyph unicode="&#xdf;" horiz-adv-x="1622" d="M106 0v817q0 356 194 544.5t556 188.5q152 0 275.5 -31.5t212 -92t136.5 -148.5t48 -201q0 -100 -46 -173t-151 -128q238 -106 238 -362q0 -92 -29 -172t-89 -139.5t-154.5 -93.5t-225.5 -34t-244 25v422q12 -2 19.5 -3t15.5 -1q53 0 83 33.5t30 91.5q0 66 -30 97.5 t-99 41.5v205q104 10 104 125q0 123 -112 123q-70 0 -91.5 -47.5t-21.5 -133.5v-954h-619z" />
<glyph unicode="&#xe0;" horiz-adv-x="1449" d="M96 305q0 78 30 142.5t84 110.5t130 71.5t168 25.5q106 0 211 -28q0 88 -65.5 133t-178.5 45q-92 0 -173 -22.5t-175 -73.5v362q70 33 137.5 59.5t139 45t149.5 28.5t168 10q322 0 469 -138t147 -406v-670h-618v90q-63 -47 -146.5 -73.5t-154.5 -26.5q-68 0 -126.5 23.5 t-102.5 64.5t-68.5 99.5t-24.5 127.5zM283 1583h508l135 -297h-256zM494 348q0 -49 37 -82t92 -33q57 0 96 33v168q-33 10 -55.5 14.5t-45.5 4.5q-57 0 -90.5 -29t-33.5 -76z" />
<glyph unicode="&#xe1;" horiz-adv-x="1449" d="M96 305q0 78 30 142.5t84 110.5t130 71.5t168 25.5q106 0 211 -28q0 88 -65.5 133t-178.5 45q-92 0 -173 -22.5t-175 -73.5v362q70 33 137.5 59.5t139 45t149.5 28.5t168 10q322 0 469 -138t147 -406v-670h-618v90q-63 -47 -146.5 -73.5t-154.5 -26.5q-68 0 -126.5 23.5 t-102.5 64.5t-68.5 99.5t-24.5 127.5zM494 348q0 -49 37 -82t92 -33q57 0 96 33v168q-33 10 -55.5 14.5t-45.5 4.5q-57 0 -90.5 -29t-33.5 -76zM500 1286l135 297h508l-389 -297h-254z" />
<glyph unicode="&#xe2;" horiz-adv-x="1449" d="M96 305q0 78 30 142.5t84 110.5t130 71.5t168 25.5q106 0 211 -28q0 88 -65.5 133t-178.5 45q-92 0 -173 -22.5t-175 -73.5v362q70 33 137.5 59.5t139 45t149.5 28.5t168 10q322 0 469 -138t147 -406v-670h-618v90q-63 -47 -146.5 -73.5t-154.5 -26.5q-68 0 -126.5 23.5 t-102.5 64.5t-68.5 99.5t-24.5 127.5zM311 1307l176 346h484l172 -346h-279l-135 139l-139 -139h-279zM494 348q0 -49 37 -82t92 -33q57 0 96 33v168q-33 10 -55.5 14.5t-45.5 4.5q-57 0 -90.5 -29t-33.5 -76z" />
<glyph unicode="&#xe3;" horiz-adv-x="1449" d="M96 305q0 78 30 142.5t84 110.5t130 71.5t168 25.5q106 0 211 -28q0 88 -65.5 133t-178.5 45q-92 0 -173 -22.5t-175 -73.5v362q70 33 137.5 59.5t139 45t149.5 28.5t168 10q322 0 469 -138t147 -406v-670h-618v90q-63 -47 -146.5 -73.5t-154.5 -26.5q-68 0 -126.5 23.5 t-102.5 64.5t-68.5 99.5t-24.5 127.5zM319 1290q8 184 74 264t195 80q47 0 83 -12t67.5 -26.5t61 -27t64.5 -12.5q29 0 43.5 16.5t18.5 61.5h211q-16 -344 -265 -344q-35 0 -74.5 12.5t-77.5 28t-72 27.5t-58 12q-25 0 -43.5 -16.5t-22.5 -63.5h-205zM494 348q0 -49 37 -82 t92 -33q57 0 96 33v168q-33 10 -55.5 14.5t-45.5 4.5q-57 0 -90.5 -29t-33.5 -76z" />
<glyph unicode="&#xe4;" horiz-adv-x="1449" d="M96 305q0 78 30 142.5t84 110.5t130 71.5t168 25.5q106 0 211 -28q0 88 -65.5 133t-178.5 45q-92 0 -173 -22.5t-175 -73.5v362q70 33 137.5 59.5t139 45t149.5 28.5t168 10q322 0 469 -138t147 -406v-670h-618v90q-63 -47 -146.5 -73.5t-154.5 -26.5q-68 0 -126.5 23.5 t-102.5 64.5t-68.5 99.5t-24.5 127.5zM305 1452q0 74 52.5 124t123.5 50q74 0 124 -50t50 -124q0 -72 -50 -124t-124 -52q-37 0 -68.5 14.5t-55 38t-38 55t-14.5 68.5zM494 348q0 -49 37 -82t92 -33q57 0 96 33v168q-33 10 -55.5 14.5t-45.5 4.5q-57 0 -90.5 -29t-33.5 -76z M801 1452q0 74 52 124t124 50q74 0 123 -50t49 -124q0 -72 -49 -124t-123 -52q-37 0 -68.5 14.5t-55.5 38t-38 55t-14 68.5z" />
<glyph unicode="&#xe5;" horiz-adv-x="1449" d="M96 305q0 78 30 142.5t84 110.5t130 71.5t168 25.5q106 0 211 -28q0 88 -65.5 133t-178.5 45q-92 0 -173 -22.5t-175 -73.5v362q70 33 137.5 59.5t139 45t149.5 28.5t168 10q322 0 469 -138t147 -406v-670h-618v90q-63 -47 -146.5 -73.5t-154.5 -26.5q-68 0 -126.5 23.5 t-102.5 64.5t-68.5 99.5t-24.5 127.5zM494 348q0 -49 37 -82t92 -33q57 0 96 33v168q-33 10 -55.5 14.5t-45.5 4.5q-57 0 -90.5 -29t-33.5 -76zM494 1491q0 47 18 89t49 72.5t74 49t92 18.5t91 -18.5t73 -49t49 -72.5t18 -89q0 -49 -18 -91t-50 -73t-74 -49t-89 -18 q-49 0 -92 18t-74 50t-49 74t-18 89zM631 1491q0 -41 27.5 -68.5t66.5 -27.5t67.5 27.5t28.5 68.5t-28.5 67.5t-67.5 26.5t-66.5 -26.5t-27.5 -67.5z" />
<glyph unicode="&#xe6;" horiz-adv-x="2068" d="M90 303q0 82 30 148.5t83 113.5t130 72t171 25q121 0 209 -35q-8 104 -67.5 148t-184.5 44q-88 0 -170 -22.5t-174 -73.5v364q123 68 262 105t287 37q117 0 212.5 -20.5t161.5 -59.5q57 39 135 59.5t177 20.5q141 0 261 -46t206 -132t134 -210t48 -280v-39h-629 q35 -92 118 -143t187 -51q92 0 176 33.5t148 95.5v-205q-125 -141 -265.5 -205.5t-314.5 -64.5q-334 0 -536 178q-121 -92 -238 -135t-231 -43q-74 0 -133.5 23.5t-102.5 65.5t-66.5 101t-23.5 131zM483 346q0 -51 36 -87t91 -36q53 0 103 35v178q-45 23 -99 23 q-57 0 -94 -31t-37 -82zM1335 733h289q-6 92 -44 141.5t-103 49.5q-63 0 -102.5 -49.5t-39.5 -129.5v-12z" />
<glyph unicode="&#xe7;" horiz-adv-x="1343" d="M88 598q0 135 50 251t141.5 200t219.5 132t285 48q104 0 223 -18.5t226 -53.5v-528q-92 43 -179 65.5t-159 22.5q-88 0 -138 -27.5t-50 -79.5q0 -55 54 -85.5t161 -30.5q88 0 173 17t138 46v-522q-78 -23 -167 -36t-179 -17q86 -16 127 -65.5t41 -117.5 q0 -109 -102.5 -177t-284.5 -68q-37 0 -76 3t-77 8t-71.5 11t-58.5 14l21 154q25 -2 43 -2h47q49 0 88 16.5t39 57.5q0 27 -29 47t-88 20l57 68q41 14 83 22.5t85 12.5q-180 16 -303 77.5t-198.5 147.5t-108.5 188.5t-33 198.5z" />
<glyph unicode="&#xe8;" horiz-adv-x="1429" d="M74 616q0 133 45 246t128 194t200 127t258 46t259.5 -46t205.5 -132t135.5 -209t48.5 -279v-39h-631q33 -92 112.5 -144t186.5 -52q98 0 186 34.5t146 96.5v-211q-106 -141 -252 -203.5t-332 -62.5q-158 0 -286 46t-219 129t-141 199.5t-50 259.5zM273 1583h508l135 -297 h-256zM686 735h291q-4 88 -44 139.5t-108 51.5q-57 0 -98 -50.5t-41 -127.5v-13z" />
<glyph unicode="&#xe9;" horiz-adv-x="1429" d="M74 616q0 133 45 246t128 194t200 127t258 46t259.5 -46t205.5 -132t135.5 -209t48.5 -279v-39h-631q33 -92 112.5 -144t186.5 -52q98 0 186 34.5t146 96.5v-211q-106 -141 -252 -203.5t-332 -62.5q-158 0 -286 46t-219 129t-141 199.5t-50 259.5zM490 1286l135 297h508 l-389 -297h-254zM686 735h291q-4 88 -44 139.5t-108 51.5q-57 0 -98 -50.5t-41 -127.5v-13z" />
<glyph unicode="&#xea;" horiz-adv-x="1429" d="M74 616q0 133 45 246t128 194t200 127t258 46t259.5 -46t205.5 -132t135.5 -209t48.5 -279v-39h-631q33 -92 112.5 -144t186.5 -52q98 0 186 34.5t146 96.5v-211q-106 -141 -252 -203.5t-332 -62.5q-158 0 -286 46t-219 129t-141 199.5t-50 259.5zM301 1307l176 346h484 l172 -346h-279l-135 139l-139 -139h-279zM686 735h291q-4 88 -44 139.5t-108 51.5q-57 0 -98 -50.5t-41 -127.5v-13z" />
<glyph unicode="&#xeb;" horiz-adv-x="1429" d="M74 616q0 133 45 246t128 194t200 127t258 46t259.5 -46t205.5 -132t135.5 -209t48.5 -279v-39h-631q33 -92 112.5 -144t186.5 -52q98 0 186 34.5t146 96.5v-211q-106 -141 -252 -203.5t-332 -62.5q-158 0 -286 46t-219 129t-141 199.5t-50 259.5zM295 1452 q0 74 52.5 124t123.5 50q74 0 124 -50t50 -124q0 -72 -50 -124t-124 -52q-37 0 -68.5 14.5t-55 38t-38 55t-14.5 68.5zM686 735h291q-4 88 -44 139.5t-108 51.5q-57 0 -98 -50.5t-41 -127.5v-13zM791 1452q0 74 52 124t124 50q74 0 123 -50t49 -124q0 -72 -49 -124t-123 -52 q-37 0 -68.5 14.5t-55.5 38t-38 55t-14 68.5z" />
<glyph unicode="&#xec;" horiz-adv-x="854" d="M-16 1583h508l135 -297h-256zM119 0v1204q57 -33 140 -51t177 -18q78 0 161 17t140 52v-1204h-618z" />
<glyph unicode="&#xed;" horiz-adv-x="854" d="M119 0v1204q57 -33 140 -51t177 -18q78 0 161 17t140 52v-1204h-618zM201 1286l135 297h508l-389 -297h-254z" />
<glyph unicode="&#xee;" horiz-adv-x="854" d="M12 1307l176 346h484l172 -346h-279l-135 139l-139 -139h-279zM119 0v1204q57 -33 140 -51t177 -18q78 0 161 17t140 52v-1204h-618z" />
<glyph unicode="&#xef;" horiz-adv-x="854" d="M6 1452q0 74 52.5 124t123.5 50q74 0 124 -50t50 -124q0 -72 -50 -124t-124 -52q-37 0 -68.5 14.5t-55 38t-38 55t-14.5 68.5zM119 0v1204q57 -33 140 -51t177 -18q78 0 161 17t140 52v-1204h-618zM502 1452q0 74 52 124t124 50q74 0 123 -50t49 -124q0 -72 -49 -124 t-123 -52q-37 0 -68.5 14.5t-55.5 38t-38 55t-14 68.5z" />
<glyph unicode="&#xf0;" horiz-adv-x="1482" d="M84 612q0 137 42 250t116.5 193t179 123t229.5 43q35 0 59.5 -1t43 -4.5t35 -8.5t34.5 -11q-12 27 -38.5 73t-75.5 113l-320 -122l-39 122l275 103q-37 39 -63.5 63.5t-53.5 43t-58.5 37t-78.5 42.5v17h444q39 -23 65.5 -39.5t59.5 -42.5l219 82l41 -115l-160 -62 q182 -195 270.5 -403.5t88.5 -458.5q0 -182 -56.5 -310t-147.5 -209t-208 -118t-239 -37q-172 0 -297 53.5t-207 142.5t-121 203.5t-39 237.5zM606 623q0 -53 40 -94.5t95 -41.5t95.5 40t40.5 96q0 53 -40 94t-98 41q-51 0 -92 -40t-41 -95z" />
<glyph unicode="&#xf1;" horiz-adv-x="1642" d="M113 0v1204h618v-151q86 88 174 124.5t199 36.5q217 0 326.5 -119.5t109.5 -340.5v-754h-584v705q0 70 -27.5 108.5t-86.5 38.5q-25 0 -56.5 -11.5t-54.5 -27.5v-813h-618zM415 1290q8 184 74 264t195 80q47 0 83 -12t67.5 -26.5t61 -27t64.5 -12.5q29 0 43.5 16.5 t18.5 61.5h211q-16 -344 -265 -344q-35 0 -74.5 12.5t-77.5 28t-72 27.5t-58 12q-25 0 -43.5 -16.5t-22.5 -63.5h-205z" />
<glyph unicode="&#xf2;" horiz-adv-x="1472" d="M78 604q0 137 48 252t134 198t207 129t268 46q145 0 266 -45t209 -127t136.5 -197t48.5 -256q0 -137 -48.5 -251.5t-134.5 -196.5t-207.5 -128t-269.5 -46q-147 0 -268 46t-207 129t-134 196.5t-48 250.5zM293 1583h508l135 -297h-256zM600 616q0 -61 38 -99t97 -38 q61 0 99 38t38 99q0 63 -38.5 100.5t-98.5 37.5q-59 0 -97 -38t-38 -100z" />
<glyph unicode="&#xf3;" horiz-adv-x="1472" d="M78 604q0 137 48 252t134 198t207 129t268 46q145 0 266 -45t209 -127t136.5 -197t48.5 -256q0 -137 -48.5 -251.5t-134.5 -196.5t-207.5 -128t-269.5 -46q-147 0 -268 46t-207 129t-134 196.5t-48 250.5zM510 1286l135 297h508l-389 -297h-254zM600 616q0 -61 38 -99 t97 -38q61 0 99 38t38 99q0 63 -38.5 100.5t-98.5 37.5q-59 0 -97 -38t-38 -100z" />
<glyph unicode="&#xf4;" horiz-adv-x="1472" d="M78 604q0 137 48 252t134 198t207 129t268 46q145 0 266 -45t209 -127t136.5 -197t48.5 -256q0 -137 -48.5 -251.5t-134.5 -196.5t-207.5 -128t-269.5 -46q-147 0 -268 46t-207 129t-134 196.5t-48 250.5zM321 1307l176 346h484l172 -346h-279l-135 139l-139 -139h-279z M600 616q0 -61 38 -99t97 -38q61 0 99 38t38 99q0 63 -38.5 100.5t-98.5 37.5q-59 0 -97 -38t-38 -100z" />
<glyph unicode="&#xf5;" horiz-adv-x="1472" d="M78 604q0 137 48 252t134 198t207 129t268 46q145 0 266 -45t209 -127t136.5 -197t48.5 -256q0 -137 -48.5 -251.5t-134.5 -196.5t-207.5 -128t-269.5 -46q-147 0 -268 46t-207 129t-134 196.5t-48 250.5zM329 1290q8 184 74 264t195 80q47 0 83 -12t67.5 -26.5t61 -27 t64.5 -12.5q29 0 43.5 16.5t18.5 61.5h211q-16 -344 -265 -344q-35 0 -74.5 12.5t-77.5 28t-72 27.5t-58 12q-25 0 -43.5 -16.5t-22.5 -63.5h-205zM600 616q0 -61 38 -99t97 -38q61 0 99 38t38 99q0 63 -38.5 100.5t-98.5 37.5q-59 0 -97 -38t-38 -100z" />
<glyph unicode="&#xf6;" horiz-adv-x="1472" d="M78 604q0 137 48 252t134 198t207 129t268 46q145 0 266 -45t209 -127t136.5 -197t48.5 -256q0 -137 -48.5 -251.5t-134.5 -196.5t-207.5 -128t-269.5 -46q-147 0 -268 46t-207 129t-134 196.5t-48 250.5zM315 1452q0 74 52.5 124t123.5 50q74 0 124 -50t50 -124 q0 -72 -50 -124t-124 -52q-37 0 -68.5 14.5t-55 38t-38 55t-14.5 68.5zM600 616q0 -61 38 -99t97 -38q61 0 99 38t38 99q0 63 -38.5 100.5t-98.5 37.5q-59 0 -97 -38t-38 -100zM811 1452q0 74 52 124t124 50q74 0 123 -50t49 -124q0 -72 -49 -124t-123 -52q-37 0 -68.5 14.5 t-55.5 38t-38 55t-14 68.5z" />
<glyph unicode="&#xf7;" horiz-adv-x="1404" d="M98 479v414h1207v-414h-1207zM469 170q0 49 19.5 91t51 73t73.5 49t87 18q47 0 90.5 -18t75 -49t50 -73t18.5 -91q0 -47 -18.5 -89t-49 -74t-73.5 -50t-93 -18q-47 0 -89 18t-73.5 50t-50 74t-18.5 89zM469 1202q0 49 19.5 91t51 73t73.5 49.5t87 18.5q47 0 90.5 -18.5 t75 -49.5t50 -73t18.5 -91q0 -47 -18.5 -89t-50 -73.5t-74.5 -50t-91 -18.5q-45 0 -87 18.5t-73.5 50t-51 73.5t-19.5 89z" />
<glyph unicode="&#xf8;" horiz-adv-x="1472" d="M61 45l152 160q-135 164 -135 399q0 137 48 252t134 198t207 129t268 46q104 0 194.5 -23.5t168.5 -66.5l141 151l129 -119l-133 -141q76 -80 118 -188.5t42 -237.5q0 -137 -48.5 -251.5t-134.5 -196.5t-207.5 -128t-269.5 -46q-115 0 -213 27.5t-178 78.5l-151 -160z M600 616q0 -61 38 -99t97 -38q61 0 99 38t38 99q0 63 -38.5 100.5t-98.5 37.5q-59 0 -97 -38t-38 -100z" />
<glyph unicode="&#xf9;" horiz-adv-x="1642" d="M102 414v790h584v-655q0 -158 113 -158q74 0 112 64v749h619v-1204h-592v211h-4q-92 -117 -187.5 -169t-224.5 -52q-96 0 -173 28.5t-132 84t-85 134t-30 177.5zM392 1583h508l135 -297h-256z" />
<glyph unicode="&#xfa;" horiz-adv-x="1642" d="M102 414v790h584v-655q0 -158 113 -158q74 0 112 64v749h619v-1204h-592v211h-4q-92 -117 -187.5 -169t-224.5 -52q-96 0 -173 28.5t-132 84t-85 134t-30 177.5zM609 1286l135 297h508l-389 -297h-254z" />
<glyph unicode="&#xfb;" horiz-adv-x="1642" d="M102 414v790h584v-655q0 -158 113 -158q74 0 112 64v749h619v-1204h-592v211h-4q-92 -117 -187.5 -169t-224.5 -52q-96 0 -173 28.5t-132 84t-85 134t-30 177.5zM420 1307l176 346h484l172 -346h-279l-135 139l-139 -139h-279z" />
<glyph unicode="&#xfc;" horiz-adv-x="1642" d="M102 414v790h584v-655q0 -158 113 -158q74 0 112 64v749h619v-1204h-592v211h-4q-92 -117 -187.5 -169t-224.5 -52q-96 0 -173 28.5t-132 84t-85 134t-30 177.5zM414 1452q0 74 52.5 124t123.5 50q74 0 124 -50t50 -124q0 -72 -50 -124t-124 -52q-37 0 -68.5 14.5t-55 38 t-38 55t-14.5 68.5zM910 1452q0 74 52 124t124 50q74 0 123 -50t49 -124q0 -72 -49 -124t-123 -52q-37 0 -68.5 14.5t-55.5 38t-38 55t-14 68.5z" />
<glyph unicode="&#xfd;" horiz-adv-x="1515" d="M8 1204h615l145 -362l139 362h600l-651 -1542h-672l248 586zM533 1286l135 297h508l-389 -297h-254z" />
<glyph unicode="&#xfe;" horiz-adv-x="1642" d="M121 -338v1854h618v-404q139 102 297 102q115 0 212.5 -46t168 -125.5t109.5 -188.5t39 -233q0 -141 -44 -258t-122 -200t-183.5 -128t-228.5 -45q-59 0 -120.5 12t-127.5 41v-381h-618zM739 457q10 -6 40 -17.5t67 -11.5q55 0 90 41t35 109t-35 110.5t-90 42.5 q-61 0 -107 -57v-217z" />
<glyph unicode="&#xff;" horiz-adv-x="1515" d="M8 1204h615l145 -362l139 362h600l-651 -1542h-672l248 586zM338 1452q0 74 52.5 124t123.5 50q74 0 124 -50t50 -124q0 -72 -50 -124t-124 -52q-37 0 -68.5 14.5t-55 38t-38 55t-14.5 68.5zM834 1452q0 74 52 124t124 50q74 0 123 -50t49 -124q0 -72 -49 -124t-123 -52 q-37 0 -68.5 14.5t-55.5 38t-38 55t-14 68.5z" />
<glyph unicode="&#x152;" horiz-adv-x="2347" d="M94 758q0 131 47 267t148.5 247.5t260.5 182.5t382 71h1370v-383h-592v-185h412v-383h-412v-192h592v-383h-1358q-221 0 -381 66.5t-264 174t-154.5 244t-50.5 273.5zM717 799q0 -70 45 -115t117 -45q68 0 111.5 43t43.5 113q0 74 -44 121t-113 47q-72 0 -116 -47.5 t-44 -116.5z" />
<glyph unicode="&#x153;" horiz-adv-x="2217" d="M86 596q0 137 45 253t130 201t208 132t281 47q225 0 383 -105q86 53 176 79t200 26q147 0 267 -46t204 -132t130.5 -209t46.5 -277v-43h-629q84 -195 305 -194q86 0 172 34.5t152 96.5v-201q-39 -63 -101.5 -114.5t-139.5 -87.5t-164 -55t-175 -19q-129 0 -239.5 30.5 t-188.5 87.5q-76 -59 -183.5 -88.5t-230.5 -29.5q-133 0 -250.5 43t-207 122.5t-140.5 193.5t-51 255zM608 618q0 -59 40.5 -97t101.5 -38q57 0 94 37t37 98t-37 99.5t-101 38.5q-57 0 -96 -39t-39 -99zM1491 733h291q-4 90 -40 142.5t-106 52.5q-63 0 -102 -46t-43 -149z " />
<glyph unicode="&#x178;" horiz-adv-x="1855" d="M8 1526h684l236 -408l235 408h684l-581 -860v-666h-676v666zM508 1788q0 74 52.5 124t123.5 50q74 0 124 -50t50 -124q0 -72 -50 -124t-124 -52q-37 0 -68.5 14t-55 38t-38 55.5t-14.5 68.5zM1004 1788q0 74 52 124t124 50q74 0 123 -50t49 -124q0 -72 -49 -124t-123 -52 q-37 0 -68.5 14t-55.5 38t-38 55.5t-14 68.5z" />
<glyph unicode="&#x2c6;" horiz-adv-x="684" d="M-74 1307l176 346h484l172 -346h-279l-135 139l-139 -139h-279z" />
<glyph unicode="&#x2dc;" horiz-adv-x="681" d="M-66 1290q8 184 74 264t195 80q47 0 83 -12t67.5 -26.5t61 -27t64.5 -12.5q29 0 43.5 16.5t18.5 61.5h211q-16 -344 -265 -344q-35 0 -74.5 12.5t-77.5 28t-72 27.5t-58 12q-25 0 -43.5 -16.5t-22.5 -63.5h-205z" />
<glyph unicode="&#x2000;" horiz-adv-x="1027" />
<glyph unicode="&#x2001;" horiz-adv-x="2054" />
<glyph unicode="&#x2002;" horiz-adv-x="1027" />
<glyph unicode="&#x2003;" horiz-adv-x="2054" />
<glyph unicode="&#x2004;" horiz-adv-x="684" />
<glyph unicode="&#x2005;" horiz-adv-x="513" />
<glyph unicode="&#x2006;" horiz-adv-x="342" />
<glyph unicode="&#x2007;" horiz-adv-x="342" />
<glyph unicode="&#x2008;" horiz-adv-x="256" />
<glyph unicode="&#x2009;" horiz-adv-x="410" />
<glyph unicode="&#x200a;" horiz-adv-x="114" />
<glyph unicode="&#x2010;" horiz-adv-x="854" d="M74 389v426h704v-426h-704z" />
<glyph unicode="&#x2011;" horiz-adv-x="854" d="M74 389v426h704v-426h-704z" />
<glyph unicode="&#x2012;" horiz-adv-x="854" d="M74 389v426h704v-426h-704z" />
<glyph unicode="&#x2013;" horiz-adv-x="1024" d="M-12 397v406h1048v-406h-1048z" />
<glyph unicode="&#x2014;" horiz-adv-x="2048" d="M-12 397v406h2072v-406h-2072z" />
<glyph unicode="&#x2018;" horiz-adv-x="831" d="M88 975q0 102 42 197.5t114.5 173t171 132t213.5 72.5l18 -12q-68 -39 -109.5 -108.5t-48.5 -147.5q267 -81 267 -319q0 -74 -25.5 -137.5t-72 -111.5t-108 -75t-132.5 -27q-74 0 -134.5 28t-104.5 76t-67.5 114.5t-23.5 144.5z" />
<glyph unicode="&#x2019;" horiz-adv-x="831" d="M76 1200q0 72 21.5 135.5t64.5 111.5t105.5 75.5t146.5 27.5q74 0 134 -27.5t104 -75.5t67.5 -114.5t23.5 -144.5q0 -102 -42 -197.5t-114.5 -173.5t-171 -132t-212.5 -73l-19 13q68 39 110 108.5t48 147.5q-266 81 -266 319z" />
<glyph unicode="&#x201a;" horiz-adv-x="831" d="M88 299q0 74 25.5 137.5t71.5 111.5t107.5 74.5t133.5 26.5q74 0 134.5 -27.5t104.5 -75.5t67.5 -114.5t23.5 -144.5q0 -102 -42 -197.5t-115 -173.5t-171 -132t-213 -73l-18 13q68 39 109.5 108.5t47.5 147.5q-266 81 -266 319z" />
<glyph unicode="&#x201c;" horiz-adv-x="1685" d="M86 975q0 102 42 197.5t114.5 173t171 132t213.5 72.5l18 -12q-68 -39 -109.5 -108.5t-48.5 -147.5q267 -81 267 -319q0 -74 -26 -137.5t-72 -111.5t-107.5 -75t-132.5 -27q-74 0 -134.5 28t-104.5 76t-67.5 114.5t-23.5 144.5zM942 975q0 102 42 197.5t114.5 173 t171 132t213.5 72.5l18 -12q-68 -39 -109.5 -108.5t-48.5 -147.5q267 -81 267 -319q0 -74 -25.5 -137.5t-72 -111.5t-108 -75t-132.5 -27q-74 0 -134.5 28t-104.5 76t-67.5 114.5t-23.5 144.5z" />
<glyph unicode="&#x201d;" horiz-adv-x="1685" d="M76 1200q0 74 25.5 137.5t71.5 111.5t107.5 74.5t133.5 26.5q74 0 134 -27.5t104 -75.5t67.5 -114.5t23.5 -144.5q0 -102 -42 -197.5t-114.5 -173.5t-171 -132t-212.5 -73l-19 13q68 39 110 108.5t48 147.5q-266 81 -266 319zM932 1200q0 74 25.5 137.5t71.5 111.5 t107.5 74.5t133.5 26.5q74 0 134 -27.5t104 -75.5t67.5 -114.5t23.5 -144.5q0 -102 -41.5 -197.5t-114.5 -173.5t-171 -132t-213 -73l-19 13q68 39 110 108.5t48 147.5q-266 81 -266 319z" />
<glyph unicode="&#x201e;" horiz-adv-x="1685" d="M86 299q0 74 25.5 137.5t71.5 111.5t107.5 74.5t133.5 26.5q74 0 134 -27.5t104.5 -75.5t68 -114.5t23.5 -144.5q0 -102 -42 -197.5t-115 -173.5t-171 -132t-213 -73l-18 13q68 39 109.5 108.5t47.5 147.5q-266 81 -266 319zM942 299q0 74 25.5 137.5t71.5 111.5 t107.5 74.5t133.5 26.5q74 0 134.5 -27.5t104.5 -75.5t67.5 -114.5t23.5 -144.5q0 -102 -42 -197.5t-115 -173.5t-171 -132t-213 -73l-18 13q68 39 109.5 108.5t47.5 147.5q-266 81 -266 319z" />
<glyph unicode="&#x2022;" horiz-adv-x="1024" d="M180 721q0 68 25.5 127t71 105t105.5 73t130 27q68 0 127 -26t105.5 -71t73 -105t26.5 -130t-26.5 -130.5t-73 -105.5t-105.5 -70.5t-127 -25.5t-127 25.5t-105.5 70.5t-73 105.5t-26.5 130.5z" />
<glyph unicode="&#x2026;" horiz-adv-x="2048" d="M82 236q0 53 20.5 100t55.5 83t82 56.5t102 20.5t102.5 -21.5t83 -56.5t55 -83t19.5 -99q0 -53 -20.5 -100.5t-56.5 -83.5t-83 -56.5t-100 -20.5t-101 20.5t-83 55.5t-55.5 83t-20.5 102zM764 236q0 53 20.5 100t55 83t82 56.5t102.5 20.5t102.5 -21.5t83 -56.5t55 -83 t19.5 -99q0 -53 -20.5 -100.5t-56.5 -83.5t-83 -56.5t-100 -20.5t-101.5 20.5t-83 55.5t-55 83t-20.5 102zM1446 236q0 53 20.5 100t55 83t82 56.5t102.5 20.5t102 -21.5t83 -56.5t55.5 -83t19.5 -99q0 -53 -20.5 -100.5t-56.5 -83.5t-83 -56.5t-100 -20.5t-101.5 20.5 t-83 55.5t-55 83t-20.5 102z" />
<glyph unicode="&#x202f;" horiz-adv-x="410" />
<glyph unicode="&#x2039;" horiz-adv-x="747" d="M20 606l267 535h413l-190 -535l190 -534h-413z" />
<glyph unicode="&#x203a;" horiz-adv-x="747" d="M47 72l191 534l-191 535h414l266 -535l-266 -534h-414z" />
<glyph unicode="&#x205f;" horiz-adv-x="513" />
<glyph unicode="&#x20ac;" d="M41 496l45 211h90q0 10 -1 27.5t-1 35.5v27.5t2 31.5h-135l49 211h125q37 121 103.5 216.5t156.5 161t198.5 100t231.5 34.5q262 0 441.5 -99t252.5 -298l-12 -14q-72 55 -163 82.5t-183 27.5q-70 0 -125 -12t-100 -37.5t-83 -65.5t-73 -96h578l-43 -211h-592 q-2 -23 -2 -30.5v-30.5t1 -37t3 -24h567l-47 -211h-457q57 -111 151.5 -165.5t221.5 -54.5q55 0 101.5 6.5t86 19.5t77.5 33.5t81 51.5l17 -22q-82 -193 -260.5 -291.5t-438.5 -98.5q-254 0 -435 136.5t-257 384.5h-172z" />
<glyph unicode="&#x2122;" horiz-adv-x="2265" d="M41 1286v240h907v-240h-307v-659h-293v659h-307zM1034 627v899h443l94 -439l90 439h440v-899h-278v608l-142 -608h-229l-139 608v-608h-279z" />
<glyph unicode="&#x25fc;" horiz-adv-x="1208" d="M0 0v1208h1208v-1208h-1208z" />
<glyph unicode="&#xfb01;" />
<glyph unicode="&#xfb02;" />
</font>
</defs>
</svg>
