<?xml version="1.0" standalone="no"?>
<!DOCTYPE svg PUBLIC "-//W3C//DTD SVG 1.1//EN" "http://www.w3.org/Graphics/SVG/1.1/DTD/svg11.dtd" >
<svg xmlns="http://www.w3.org/2000/svg" xmlns:xlink="http://www.w3.org/1999/xlink" version="1.1">
<metadata></metadata>
<defs>
<font id="gill_sans_novaextrabold" horiz-adv-x="1386" >
<font-face units-per-em="2048" ascent="1493" descent="-555" />
<missing-glyph horiz-adv-x="681" />
<glyph unicode="&#xfb03;" horiz-adv-x="2164" d="M29 733v271h166v8q0 190 123.5 296.5t343.5 106.5q53 0 100 -6t94 -16v-283q-20 6 -45 10t-74 4q-53 0 -84.5 -30.5t-31.5 -77.5v-12h286v8q0 186 115 294.5t321 108.5q49 0 93.5 -6t89.5 -16v-283q-16 6 -37 10t-59 4q-45 0 -71 -30.5t-26 -77.5v-12h185v-271h-185v-733 h-426v733h-286v-733h-426v733h-166zM1620 0v1081h426v-1081h-426zM1690 1303q0 61 42 102t101 41t101 -41t42 -102q0 -59 -42 -101.5t-101 -42.5t-101 42t-42 102z" />
<glyph unicode="&#xfb04;" horiz-adv-x="2168" d="M29 733v271h166v8q0 190 123.5 296.5t343.5 106.5q53 0 100 -6t94 -16v-283q-20 6 -45 10t-74 4q-53 0 -84.5 -30.5t-31.5 -77.5v-12h280v8q0 186 114.5 294.5t321.5 108.5q72 0 148 -21.5t135 -76.5v80h426v-1397h-426v958q0 80 -34 129.5t-118 49.5q-70 0 -105.5 -37 t-35.5 -84v-12h184v-271h-184v-733h-426v733h-280v-733h-426v733h-166z" />
<glyph horiz-adv-x="0" />
<glyph horiz-adv-x="682" />
<glyph horiz-adv-x="0" />
<glyph horiz-adv-x="0" />
<glyph unicode="&#xd;" horiz-adv-x="681" />
<glyph unicode=" "  horiz-adv-x="681" />
<glyph unicode="&#x09;" horiz-adv-x="681" />
<glyph unicode="&#xa0;" horiz-adv-x="681" />
<glyph unicode="!" horiz-adv-x="747" d="M123 227q0 106 72.5 180t179.5 74q100 0 175 -71.5t75 -178.5q0 -104 -71 -176.5t-175 -72.5q-100 0 -178 70.5t-78 174.5zM127 1153q0 135 66.5 198.5t183.5 63.5q121 0 182.5 -60.5t61.5 -195.5q0 -184 -89.5 -415.5t-150.5 -231.5q-78 0 -166 235.5t-88 405.5z" />
<glyph unicode="&#x22;" horiz-adv-x="1024" d="M49 1225v241h406v-241l-66 -297h-274zM569 1225v241h406v-241l-66 -297h-274z" />
<glyph unicode="#" horiz-adv-x="1366" d="M68 319v246h198l51 248h-249v246h303l75 360h246l-76 -360h302l75 360h246l-76 -360h146v-246h-199l-51 -248h250v-246h-303l-76 -360h-246l76 360h-301l-76 -360h-246l76 360h-145zM512 565h301l51 248h-301z" />
<glyph unicode="$" horiz-adv-x="1259" d="M80 977q0 174 137 288.5t352 114.5v50h138v-56q113 -12 207 -45t182 -88v-313q-111 86 -204 137t-185 68v-291q254 -66 371.5 -170.5t117.5 -270.5q0 -180 -130 -291.5t-359 -125.5v-138h-138v138q-137 6 -234 27.5t-198 62.5v297q117 -70 217.5 -106t214.5 -42v326 q-242 59 -365.5 166.5t-123.5 261.5zM383 1018q0 -53 44 -87t142 -59v275q-86 0 -136 -36t-50 -93zM707 225q186 18 186 140q0 66 -48 98.5t-138 54.5v-293z" />
<glyph unicode="%" horiz-adv-x="1878" d="M39 1047q0 163 101.5 265.5t265.5 102.5q166 0 265 -103.5t99 -264.5q0 -166 -100.5 -267.5t-263.5 -101.5q-162 0 -264.5 101.5t-102.5 267.5zM287 1047q0 -164 119 -164q59 0 87.5 41t28.5 123q0 81 -27.5 122t-88.5 41q-55 0 -87 -37.5t-32 -125.5zM401 -49l842 1497 h219l-839 -1497h-222zM1106 360q0 164 101.5 266.5t265.5 102.5q166 0 265 -103.5t99 -265.5q0 -166 -100.5 -267t-263.5 -101q-162 0 -264.5 101.5t-102.5 266.5zM1354 360q0 -164 119 -163q59 0 87.5 41t28.5 122q0 82 -27.5 123t-88.5 41q-55 0 -87 -37.5t-32 -126.5z " />
<glyph unicode="&#x26;" horiz-adv-x="1728" d="M121 344q0 117 70.5 208t220.5 169q-88 82 -129 151.5t-41 157.5q0 168 142 276.5t361 108.5q207 0 333 -100.5t126 -249.5q0 -223 -248 -328l187 -176q39 35 65.5 72t59.5 88h352q-55 -104 -125 -193.5t-147 -154.5q59 -49 102 -70.5t84 -21.5q37 0 64.5 11t56.5 38 l31 -29q-121 -162 -208 -240.5t-171 -78.5q-47 0 -99.5 30.5t-138.5 114.5q-203 -145 -475 -145q-217 0 -345 97t-128 265zM479 381q0 -66 52.5 -111t125.5 -45q53 0 105.5 21.5t105.5 68.5l-268 230q-121 -61 -121 -164zM616 1081q0 -80 154 -184q82 39 116 77t34 89 q0 55 -42 93t-114 38q-63 0 -105.5 -30.5t-42.5 -82.5z" />
<glyph unicode="'" horiz-adv-x="575" d="M86 1225v241h406v-241l-66 -297h-274z" />
<glyph unicode="(" horiz-adv-x="937" d="M94 477q0 266 138.5 492.5t426.5 445.5h320q-231 -229 -345 -455.5t-114 -482.5q0 -262 116 -490.5t343 -453.5h-320q-295 223 -430 452.5t-135 491.5z" />
<glyph unicode=")" horiz-adv-x="937" d="M-41 -467q231 229 345 455.5t114 482.5q0 260 -116 489.5t-343 454.5h320q295 -225 430 -451.5t135 -492.5q0 -262 -133 -484.5t-432 -453.5h-320z" />
<glyph unicode="*" horiz-adv-x="1302" d="M98 680q0 27 16.5 43t75.5 25l320 38q-4 10 -4 21v37q0 8 4 18l-320 41q-59 8 -75.5 24.5t-16.5 41.5q0 66 73 169t112 103q10 0 24.5 -8t42.5 -47l199 -256q25 25 65 37l-122 299q-10 29 -14.5 44t-4.5 25q0 33 48 50.5t132 17.5q86 0 133.5 -17.5t47.5 -50.5 q0 -12 -2.5 -27t-14.5 -42l-123 -299q35 -12 60 -37l198 256q29 39 44.5 47t25.5 8q41 0 111.5 -103.5t70.5 -168.5q0 -25 -15 -41.5t-75 -24.5l-319 -41l4 -18v-37l-4 -21l319 -38q59 -8 74.5 -24.5t15.5 -43.5q0 -66 -69.5 -168t-110.5 -102q-12 0 -27.5 8t-44.5 47 l-196 254q-29 -29 -62 -37l119 -299q12 -29 16.5 -43t4.5 -25q0 -33 -48.5 -51t-132.5 -18q-88 0 -134 17.5t-46 51.5l2 25q0 14 14 45l125 297q-41 10 -65 37l-199 -254q-29 -39 -43 -47t-28 -8q-41 0 -111 102t-70 168z" />
<glyph unicode="+" horiz-adv-x="1314" d="M98 535v317h402v410h317v-410h400v-317h-400v-408h-317v408h-402z" />
<glyph unicode="," horiz-adv-x="747" d="M41 -328q115 55 171 127t75 172q-92 25 -143.5 89.5t-51.5 150.5q0 111 75 182.5t181 71.5q129 0 215 -92t86 -242q0 -215 -168 -354t-440 -139v34z" />
<glyph unicode="-" horiz-adv-x="917" d="M70 356v371h778v-371h-778z" />
<glyph unicode="." horiz-adv-x="747" d="M123 233q0 102 74.5 176t177.5 74q104 0 177 -73.5t73 -176.5q0 -100 -74 -175.5t-176 -75.5q-100 0 -176 73.5t-76 177.5z" />
<glyph unicode="/" horiz-adv-x="575" d="M-29 -307l344 1704h289l-346 -1704h-287z" />
<glyph unicode="0" d="M70 698q0 318 172 517.5t452 199.5q279 0 451 -196.5t172 -520.5q0 -322 -171 -519t-452 -197q-283 0 -453.5 198.5t-170.5 517.5zM512 698q0 -367 180 -366q92 0 137 93t45 273q0 367 -182 367q-84 0 -132 -88t-48 -279z" />
<glyph unicode="1" d="M317 705v391q111 76 213.5 154.5t200.5 164.5h293v-1415h-463v874q-57 -47 -120.5 -90t-123.5 -79z" />
<glyph unicode="2" d="M115 0v20l174 175l139 137q96 94 193.5 236.5t97.5 265.5q0 100 -65.5 163.5t-164.5 63.5q-86 0 -159.5 -45t-147.5 -144v371q113 100 227.5 136t241.5 36q227 0 360.5 -131t133.5 -321q0 -147 -84 -301t-250 -320h453v-342h-1149z" />
<glyph unicode="3" d="M227 96v334q82 -66 147.5 -95.5t131.5 -29.5q78 0 128 40t50 110q0 88 -63.5 116.5t-192.5 28.5v240q139 0 199.5 34.5t60.5 116.5q0 63 -53 104.5t-146 41.5q-59 0 -116.5 -17.5t-118.5 -58.5v278q168 76 358 76q225 0 363.5 -108.5t138.5 -286.5q0 -193 -184 -299 q205 -100 205 -326q0 -172 -126 -292.5t-345 -120.5q-113 0 -225.5 30.5t-211.5 83.5z" />
<glyph unicode="4" d="M74 281v315l624 815h394v-872h229v-258h-229v-281h-426v281h-592zM268 539h398v518h-4z" />
<glyph unicode="5" d="M207 45v309q25 -6 85 -21.5t132 -15.5q111 0 171 41t60 115q0 78 -50 122t-161 44q-41 0 -77.5 -4t-83.5 -17v779h823v-324h-389v-248q215 -8 322.5 -106t107.5 -283q0 -215 -143.5 -334.5t-403.5 -119.5q-201 0 -393 63z" />
<glyph unicode="6" d="M98 578q0 291 225.5 535.5t553.5 301.5l372 -246q-266 -63 -415 -211q207 -16 335.5 -140t128.5 -314q0 -219 -155.5 -370.5t-431.5 -151.5q-293 0 -453 165.5t-160 430.5zM485 504q0 -88 57.5 -143.5t155.5 -55.5q95 0 154 55.5t59 143.5q0 98 -57 153.5t-156 55.5 q-92 0 -152.5 -57.5t-60.5 -151.5z" />
<glyph unicode="7" d="M150 1055v342h1249v-29l-684 -1368h-514l526 1055h-577z" />
<glyph unicode="8" d="M100 393q0 117 60.5 199t177.5 119q-209 102 -209 311q0 180 147.5 286.5t419.5 106.5q270 0 417 -106.5t147 -286.5q0 -209 -211 -311q117 -37 178 -119t61 -199q0 -193 -150.5 -302t-443.5 -109q-289 0 -441.5 109.5t-152.5 301.5zM487 420q0 -78 58.5 -135.5 t148.5 -57.5t148.5 57.5t58.5 137.5q0 92 -55 141t-154 49q-96 0 -150.5 -51t-54.5 -141zM510 1008q0 -80 49 -130.5t135 -50.5q82 0 133.5 51.5t51.5 129.5q0 80 -50.5 130t-136.5 50q-80 0 -131 -49t-51 -131z" />
<glyph unicode="9" d="M102 932q0 199 157 341t433 142q279 0 442.5 -153.5t168.5 -417.5q0 -266 -197 -504t-508 -358l-483 256q154 33 268.5 93t187.5 142q-207 23 -338 146.5t-131 312.5zM489 895q0 -88 58.5 -147.5t150.5 -59.5q93 0 155 58.5t62 150.5q0 86 -59 140.5t-158 54.5 q-92 0 -150.5 -55.5t-58.5 -141.5z" />
<glyph unicode=":" horiz-adv-x="747" d="M123 233q0 102 74.5 176t177.5 74q104 0 177 -73.5t73 -176.5q0 -100 -74 -175.5t-176 -75.5q-100 0 -176 73.5t-76 177.5zM123 897q0 102 74.5 176t177.5 74q104 0 177 -74t73 -176q0 -100 -74 -176t-176 -76q-100 0 -176 74t-76 178z" />
<glyph unicode=";" horiz-adv-x="747" d="M41 -328q115 55 171 127t75 172q-92 25 -143.5 89.5t-51.5 150.5q0 111 75 182.5t181 71.5q129 0 215 -92t86 -242q0 -215 -168 -354t-440 -139v34zM123 897q0 102 74.5 176t177.5 74q104 0 177 -74t73 -176q0 -100 -74 -176t-176 -76q-100 0 -176 74t-76 178z" />
<glyph unicode="&#x3c;" horiz-adv-x="1314" d="M98 569v236l1119 495v-337l-666 -277q14 -8 65 -29l121 -49q29 -12 135.5 -54t159.5 -65l185 -77v-340z" />
<glyph unicode="=" horiz-adv-x="1314" d="M98 252v317h1119v-317h-1119zM98 819v318h1119v-318h-1119z" />
<glyph unicode="&#x3e;" horiz-adv-x="1314" d="M98 72v340l666 274q-14 8 -66 31l-118 49l-416 168q-51 20 -66 29v337l1119 -495v-236z" />
<glyph unicode="?" horiz-adv-x="811" d="M47 1008l121 368q111 39 213 39q162 0 259 -84t97 -211t-149.5 -279.5t-149.5 -240.5q0 -29 4 -42t15 -26q-117 6 -158 43t-41 97q0 31 10.5 60.5t24.5 60.5l24 59q10 29 11 57q0 53 -45 86t-121 33q-27 0 -52.5 -5t-62.5 -15zM133 227q0 106 73 180t179 74 q100 0 175 -71.5t75 -178.5q0 -104 -70.5 -176.5t-175.5 -72.5q-100 0 -178 70.5t-78 174.5z" />
<glyph unicode="@" horiz-adv-x="1955" d="M49 514q0 383 279.5 643t730.5 260q379 0 613.5 -187.5t234.5 -486.5q0 -291 -160 -452.5t-451 -161.5q-92 0 -155.5 35t-79.5 94q-70 -72 -139.5 -100.5t-161.5 -28.5q-133 0 -200.5 94t-67.5 242q0 254 162.5 405.5t451.5 151.5q102 0 184 -14.5t154 -34.5l-92 -500 q-4 -16 -6.5 -33.5t-2.5 -29.5q0 -25 9.5 -32t25.5 -7q125 0 198 108.5t73 268.5q0 211 -154 331.5t-436 120.5q-354 0 -553 -184.5t-199 -501.5q0 -297 159 -458.5t445 -161.5q197 0 351.5 45t279.5 143l119 -176q-135 -113 -325.5 -170.5t-440.5 -57.5 q-385 0 -615.5 224.5t-230.5 611.5zM797 494q0 -47 18.5 -85t81.5 -38q45 0 85 27.5t77 76.5l55 293q-4 0 -24 4h-39q-115 0 -184.5 -79t-69.5 -199z" />
<glyph unicode="A" horiz-adv-x="1835" d="M25 0l637 1397h512l636 -1397h-485l-92 205h-635l-88 -205h-485zM707 489h423l-212 543z" />
<glyph unicode="B" horiz-adv-x="1595" d="M143 0v1397h791q242 0 364.5 -88t122.5 -250q0 -197 -219 -291q160 -57 230.5 -148.5t70.5 -222.5q0 -186 -129 -291.5t-373 -105.5h-858zM633 262h192q96 0 150.5 39t54.5 127q0 156 -219 156h-178v-322zM633 838h158q204 0 204 146q0 151 -207 151h-155v-297z" />
<glyph unicode="C" horiz-adv-x="1536" d="M82 705q0 303 221 506.5t588 203.5q141 0 260 -24.5t223 -69.5v-408q-104 68 -201.5 98.5t-203.5 30.5q-182 0 -290 -91t-108 -253t110 -253t292 -91q102 0 197.5 28t215.5 95v-373q-111 -61 -241.5 -91.5t-278.5 -30.5q-365 0 -574.5 199.5t-209.5 523.5z" />
<glyph unicode="D" horiz-adv-x="1681" d="M143 0v1397h707q336 0 544 -183.5t208 -517.5q0 -319 -200 -507.5t-546 -188.5h-713zM633 332h133q170 0 258 87t88 277q0 174 -90 271.5t-256 97.5h-133v-733z" />
<glyph unicode="E" horiz-adv-x="1296" d="M143 0v1397h1047v-316h-557v-215h510v-315h-510v-236h565v-315h-1055z" />
<glyph unicode="F" horiz-adv-x="1232" d="M143 0v1397h1020v-326h-530v-223h497v-326h-497v-522h-490z" />
<glyph unicode="G" horiz-adv-x="1574" d="M82 692q0 309 234.5 516t611.5 207q125 0 247.5 -24.5t239.5 -69.5v-350q-111 59 -215 89t-201 30q-193 0 -310.5 -111t-117.5 -287q0 -168 106.5 -267t287.5 -99h50t52 6v164h-174v295h549v-746q-129 -31 -277.5 -48t-271.5 -17q-375 0 -593 198.5t-218 513.5z" />
<glyph unicode="H" horiz-adv-x="1804" d="M143 0v1397h490v-508h538v508h490v-1397h-490v528h-538v-528h-490z" />
<glyph unicode="I" horiz-adv-x="776" d="M143 0v1397h490v-1397h-490z" />
<glyph unicode="J" horiz-adv-x="804" d="M-125 -43q27 -4 44.5 -4t41.5 -2q102 0 156.5 49t54.5 166v1231h490v-1352q0 -252 -118 -382t-329 -130q-29 0 -73 3t-81 13z" />
<glyph unicode="K" horiz-adv-x="1697" d="M143 0v1397h490v-674l559 674h514l-569 -649l589 -748h-583l-510 678v-678h-490z" />
<glyph unicode="L" horiz-adv-x="1222" d="M143 0v1397h490v-1047h549v-350h-1039z" />
<glyph unicode="M" horiz-adv-x="1998" d="M143 0v1397h439l417 -566l418 566h438v-1397h-489v737h-4l-358 -495h-9l-358 495h-4v-737h-490z" />
<glyph unicode="N" horiz-adv-x="1880" d="M143 0v1397h418l686 -703v703h490v-1397h-418l-686 702v-702h-490z" />
<glyph unicode="O" horiz-adv-x="1683" d="M82 698q0 307 201.5 512t558.5 205q352 0 556 -203.5t204 -513.5q0 -311 -203 -513.5t-557 -202.5q-346 0 -553 199.5t-207 516.5zM571 698q0 -143 73 -225t198 -82t197.5 84t72.5 223q0 142 -72.5 225t-199.5 83q-123 0 -196 -80t-73 -228z" />
<glyph unicode="P" horiz-adv-x="1468" d="M143 0v1397h678q293 0 445.5 -115t152.5 -326q0 -223 -155.5 -340.5t-442.5 -117.5h-188v-498h-490zM633 760h127q102 0 155.5 48t53.5 142q0 96 -52.5 140.5t-162.5 44.5h-121v-375z" />
<glyph unicode="Q" horiz-adv-x="1722" d="M82 705q0 305 207 507.5t563 202.5q362 0 575 -203.5t213 -521.5q0 -387 -360 -596q117 -61 238.5 -110.5t226.5 -79.5l-320 -295q-217 55 -462.5 168.5t-387.5 240.5q-231 70 -362 252.5t-131 434.5zM571 690q0 -137 82 -222t209 -85q133 0 211 85t78 226q0 142 -81 227 t-216 85q-125 0 -204 -85t-79 -231z" />
<glyph unicode="R" horiz-adv-x="1658" d="M143 0v1397h742q305 0 449.5 -100.5t144.5 -299.5q0 -225 -226 -323q74 -31 123 -104.5t111 -209.5l162 -360h-490l-149 332q-55 125 -111.5 169t-134.5 44h-131v-545h-490zM633 791h127q115 0 185.5 45t70.5 131q0 84 -59.5 130t-206.5 46h-117v-352z" />
<glyph unicode="S" horiz-adv-x="1173" d="M102 78v379q207 -139 381 -140q68 0 104 28t36 69q0 78 -260.5 191.5t-260.5 387.5q0 180 131.5 301t362.5 121q125 0 230.5 -36t209.5 -113v-369q-104 94 -186 138t-162 44q-61 0 -98 -25.5t-37 -70.5q0 -74 189.5 -165t269.5 -187t80 -234q0 -182 -142.5 -298.5 t-363.5 -116.5q-270 0 -484 96z" />
<glyph unicode="T" horiz-adv-x="1472" d="M55 1047v350h1362v-350h-436v-1047h-489v1047h-437z" />
<glyph unicode="U" horiz-adv-x="1742" d="M123 584v813h489v-748q0 -137 66.5 -213t189.5 -76q127 0 194.5 83t67.5 225v729h490v-764q0 -303 -192.5 -477t-546.5 -174q-362 0 -560 160.5t-198 441.5z" />
<glyph unicode="V" horiz-adv-x="1642" d="M27 1397h528l313 -869h4l299 869h447l-580 -1397h-424z" />
<glyph unicode="W" horiz-adv-x="2004" d="M27 1397h458l162 -627h4l174 627h355l184 -627h4l152 627h458l-473 -1397h-293l-204 692h-4l-193 -692h-293z" />
<glyph unicode="X" horiz-adv-x="1878" d="M55 0l602 692l-579 705h610l285 -414l299 414h538l-573 -660l610 -737h-610l-313 442l-330 -442h-539z" />
<glyph unicode="Y" horiz-adv-x="1613" d="M12 1397h584l266 -463l260 463h480l-558 -793v-604h-489v623z" />
<glyph unicode="Z" horiz-adv-x="1599" d="M55 1065v332h1497l-714 -1065h688v-332h-1452l714 1065h-733z" />
<glyph unicode="[" horiz-adv-x="897" d="M170 -467v1882h725v-246h-299v-1390h299v-246h-725z" />
<glyph unicode="\" horiz-adv-x="575" d="M-29 1397h289l344 -1704h-287z" />
<glyph unicode="]" horiz-adv-x="897" d="M2 -221h299v1390h-299v246h725v-1882h-725v246z" />
<glyph unicode="^" d="M90 602l485 795h238l485 -795h-350l-254 440l-252 -440h-352z" />
<glyph unicode="_" horiz-adv-x="1024" d="M-12 -143h1048v-236h-1048v236z" />
<glyph unicode="`" horiz-adv-x="681" d="M-90 1546h442l187 -334h-226z" />
<glyph unicode="a" horiz-adv-x="1236" d="M57 246q0 209 291 282.5t346 120.5v13q0 66 -41 93t-129 27q-109 0 -204 -41t-228 -143v317q117 94 240 139.5t270 45.5q219 0 352 -97.5t133 -271.5v-330q0 -61 25 -91.5t105 -35.5l-78 -288q-25 0 -52.5 -2t-56.5 -2q-100 0 -168.5 24.5t-105.5 79.5 q-76 -51 -165 -77.5t-190 -26.5q-166 0 -255 72.5t-89 191.5zM381 262q0 -51 34 -70.5t89 -19.5q47 0 98 17.5t94 50.5q0 16 -2 32v177q-31 -25 -129 -53.5t-141 -52.5t-43 -81z" />
<glyph unicode="b" horiz-adv-x="1417" d="M119 23v1374h426v-342q66 25 124 35t122 10q238 0 401.5 -157t163.5 -411t-176 -403t-500 -149q-117 0 -284 11t-277 32zM545 338q43 -8 74.5 -11t60.5 -3q117 0 183.5 60t66.5 155q0 90 -63.5 153.5t-174.5 63.5q-43 0 -74.5 -6.5t-72.5 -18.5v-393z" />
<glyph unicode="c" horiz-adv-x="1112" d="M61 535q0 238 163 401.5t442 163.5q80 0 167 -12.5t179 -43.5v-358q-141 63 -269 64q-117 0 -186.5 -58.5t-69.5 -152.5q0 -92 74 -149.5t193 -57.5q51 0 109.5 13t156.5 54v-350q-147 -49 -207.5 -58t-136.5 -9q-270 0 -442.5 154.5t-172.5 398.5z" />
<glyph unicode="d" horiz-adv-x="1411" d="M61 549q0 248 154 399.5t395 151.5q72 0 131.5 -11.5t124.5 -33.5v342h426v-1397h-643q-264 0 -426 147.5t-162 401.5zM487 545q0 -88 67 -141.5t177 -53.5h135v377q-39 10 -82 16.5t-71 6.5q-98 0 -162 -56.5t-64 -148.5z" />
<glyph unicode="e" horiz-adv-x="1228" d="M61 547q0 256 152 404.5t405 148.5q250 0 399.5 -145.5t149.5 -407.5v-42.5t-6 -43.5h-706q4 -88 92 -151.5t205 -63.5q84 0 178 28.5t188 94.5v-248q-115 -78 -225.5 -108.5t-251.5 -30.5q-268 0 -424 159.5t-156 405.5zM453 621h358q0 115 -50 178t-130 63 q-92 0 -135 -58.5t-43 -182.5z" />
<glyph unicode="f" horiz-adv-x="854" d="M29 733v271h166v8q0 186 114.5 294.5t321.5 108.5q49 0 93 -6t89 -16v-283q-16 6 -36.5 10t-59.5 4q-45 0 -70.5 -30.5t-25.5 -77.5v-12h184v-271h-184v-733h-426v733h-166z" />
<glyph unicode="g" horiz-adv-x="1236" d="M63 -199q0 86 72 156t197 86q-90 47 -90 131q0 100 127 148q-137 53 -200 143t-63 207q0 199 148.5 313.5t423.5 114.5h526v-232h-162q33 -47 49.5 -95t16.5 -114q0 -150 -98.5 -242.5t-251 -111t-152.5 -57.5q0 -43 181.5 -62.5t281.5 -92.5t100 -216 q0 -160 -159.5 -255t-417.5 -95q-528 0 -529 274zM406 -145q0 -117 202 -117h4q215 0 215 112q0 57 -59 92t-162 35q-82 0 -141 -30.5t-59 -91.5zM438 678q0 -66 46 -110t120 -44q78 0 125 45t47 113t-46 114t-126 46q-74 0 -120 -48.5t-46 -115.5z" />
<glyph unicode="h" horiz-adv-x="1380" d="M123 0v1397h426v-453q76 82 157.5 119t188.5 37q180 0 275.5 -103.5t95.5 -320.5v-676h-426v592q0 158 -125 158q-90 0 -166 -107v-643h-426z" />
<glyph unicode="i" horiz-adv-x="663" d="M119 0v1081h426v-1081h-426zM188 1303q0 61 42 102t102 41q59 0 101 -41t42 -102q0 -59 -42 -101.5t-101 -42.5t-101.5 42t-42.5 102z" />
<glyph unicode="j" horiz-adv-x="671" d="M-23 -213q94 37 120 86t26 150v1058h426v-1163q0 -180 -111.5 -291.5t-310.5 -111.5zM193 1303q0 61 41.5 102t101.5 41q59 0 101 -41t42 -102q0 -59 -42 -101.5t-101 -42.5t-101 42t-42 102z" />
<glyph unicode="k" horiz-adv-x="1447" d="M123 0v1397h426v-688l350 372h526l-452 -460l516 -621h-535l-405 506v-506h-426z" />
<glyph unicode="l" horiz-adv-x="671" d="M123 0v1397h426v-1397h-426z" />
<glyph unicode="m" horiz-adv-x="2056" d="M119 0v1081h426v-143q76 86 159.5 124t178.5 38q115 0 190.5 -46t134.5 -147q82 94 178.5 143.5t206.5 49.5q162 0 257.5 -111.5t95.5 -298.5v-690h-426v623q0 53 -30 90t-83 37q-45 0 -87 -28t-75 -83v-639h-426v616q0 53 -30.5 93.5t-88.5 40.5q-84 0 -155 -111v-639 h-426z" />
<glyph unicode="n" horiz-adv-x="1380" d="M123 0v1081h426v-137q76 82 157.5 119t188.5 37q180 0 275.5 -103.5t95.5 -320.5v-676h-426v592q0 158 -125 158q-90 0 -166 -107v-643h-426z" />
<glyph unicode="o" horiz-adv-x="1396" d="M61 541q0 242 170 400.5t467 158.5q293 0 465 -158t172 -401q0 -240 -170 -399.5t-463 -159.5q-297 0 -469 158.5t-172 400.5zM487 541q0 -92 58.5 -150.5t152.5 -58.5q95 0 153 58.5t58 150.5t-58 150.5t-153 58.5q-94 0 -152.5 -58.5t-58.5 -150.5z" />
<glyph unicode="p" horiz-adv-x="1415" d="M119 -467v1548h567q328 0 498 -134t170 -410q0 -248 -153.5 -401.5t-401.5 -153.5q-68 0 -128.5 11t-125.5 36v-496h-426zM545 367q84 -35 160 -35q104 0 163.5 57t59.5 152q0 92 -63.5 148t-192.5 56h-127v-378z" />
<glyph unicode="q" horiz-adv-x="1411" d="M61 537q0 260 181.5 402t496.5 142h553v-1548h-426v496q-121 -47 -254 -47q-246 0 -398.5 154.5t-152.5 400.5zM487 526q0 -88 61.5 -141t166.5 -53q39 0 74.5 5t76.5 17v377h-143q-104 0 -170 -53t-66 -152z" />
<glyph unicode="r" horiz-adv-x="1101" d="M119 0v1081h389v-288q57 154 145 230.5t201 76.5q61 0 123.5 -20.5t138.5 -63.5l-188 -430q-51 49 -96.5 69.5t-86.5 20.5q-86 0 -143 -76t-57 -207v-393h-426z" />
<glyph unicode="s" horiz-adv-x="1024" d="M82 86v307q104 -80 184 -113.5t156 -33.5q51 0 82 19.5t31 49.5q0 70 -149.5 125.5t-226.5 132t-77 209.5q0 141 111.5 229.5t324.5 88.5q115 0 204 -21.5t183 -66.5v-285q-98 59 -167.5 84t-129.5 25q-45 0 -72.5 -20.5t-27.5 -53.5q0 -63 125 -101t226.5 -122 t101.5 -230q0 -133 -110 -230t-306 -97q-143 0 -266 29.5t-197 74.5z" />
<glyph unicode="t" horiz-adv-x="1087" d="M12 737v174l518 494h97v-397h342v-271h-342v-254q0 -72 29.5 -105.5t97.5 -33.5q111 0 239 84v-326q-86 -63 -176 -91.5t-196 -28.5q-211 0 -315.5 95t-104.5 294v366h-189z" />
<glyph unicode="u" horiz-adv-x="1441" d="M115 387v694h426v-592q0 -157 125 -157h2q55 0 95 32.5t73 77.5v639h426v-688q0 -61 23.5 -87.5t70.5 -26.5q29 0 65 12l-98 -291q-51 -10 -97 -14t-91 -4q-129 0 -193.5 44t-89.5 142q-150 -186 -369 -186q-178 0 -273 106.5t-95 298.5z" />
<glyph unicode="v" horiz-adv-x="1296" d="M0 1081h457l225 -575l227 575h387l-467 -1081h-350z" />
<glyph unicode="w" horiz-adv-x="1849" d="M0 1081h434l166 -528h4l195 528h272l193 -528h4l155 528h426l-379 -1081h-315l-219 600l-221 -600h-312z" />
<glyph unicode="x" horiz-adv-x="1349" d="M0 1081h528l174 -278l179 278h428l-398 -501l439 -580h-531l-184 305l-189 -305h-428l410 514z" />
<glyph unicode="y" horiz-adv-x="1273" d="M0 1081h459l198 -530l217 530h400l-748 -1548h-403l305 625z" />
<glyph unicode="z" horiz-adv-x="1259" d="M51 0l477 760h-442v321h1104v-34l-469 -725h453v-322h-1123z" />
<glyph unicode="{" horiz-adv-x="788" d="M25 305v340q176 0 185 161t9 255q0 195 89 283t323 88h141v-328h-70q-55 0 -87.5 -43t-32.5 -150q0 -250 -45 -328.5t-134 -107.5q98 -37 138.5 -115.5t40.5 -283.5q0 -143 30.5 -187.5t147.5 -44.5h12v-327h-147q-211 0 -308.5 82t-97.5 295v194q0 115 -48 166t-146 51z " />
<glyph unicode="|" horiz-adv-x="1300" d="M508 -307v1704h287v-1704h-287z" />
<glyph unicode="}" horiz-adv-x="788" d="M16 -156l74 2q57 0 87 45.5t30 145.5q0 248 44 326.5t134 109.5q-98 37 -138 116t-40 283q0 143 -31 187.5t-147 44.5h-13v328h74q270 0 374.5 -76t104.5 -301q0 -74 7.5 -243t187.5 -169v-340q-115 0 -155 -60.5t-40 -234.5v-121q0 -188 -87 -279t-324 -91h-142v327z " />
<glyph unicode="~" d="M119 471v340q86 76 164.5 113t165.5 37q100 0 247.5 -82t233.5 -82q66 0 137.5 43t167.5 135v-338q-84 -74 -163 -114t-159 -40q-102 0 -249.5 82t-231.5 82q-68 0 -147.5 -45t-165.5 -131z" />
<glyph unicode="&#xa1;" horiz-adv-x="747" d="M123 797q0 104 70.5 177t175.5 73q100 0 178 -71t78 -175q0 -107 -73 -180.5t-179 -73.5q-100 0 -175 71.5t-75 178.5zM127 -131q0 184 89 415.5t151 231.5q76 0 165 -234.5t89 -406.5q0 -135 -67 -198.5t-183 -63.5q-121 0 -182.5 60.5t-61.5 195.5z" />
<glyph unicode="&#xa2;" horiz-adv-x="1130" d="M80 535q0 238 163 401.5t439 163.5q29 0 80 -3t92 -12l88 279h100l-94 -297q20 -4 43 -10t39 -13v-358q-49 23 -93 37t-91 20l-129 -407q33 -6 61 -6q57 0 127 20.5t133 48.5v-350q-117 -41 -194.5 -54t-147.5 -13q-27 0 -47 2l-43 2l-119 -379h-100l125 393 q-201 49 -316.5 194.5t-115.5 340.5zM506 539q0 -119 119 -177l123 388q-117 -8 -179.5 -66.5t-62.5 -144.5z" />
<glyph unicode="&#xa3;" horiz-adv-x="1259" d="M82 575v287h258q92 283 254 418t410 135h45l28 -4l127 -362q-37 10 -62.5 13t-41.5 3q-96 0 -167 -50t-108 -153h187v-287h-281l-67 -233h510l-56 -342h-1034q43 162 82 302t80 273h-164z" />
<glyph unicode="&#xa4;" horiz-adv-x="1366" d="M125 317l139 140q-31 47 -46 113.5t-15 117.5q0 55 15 119.5t46 112.5l-139 139l186 186l140 -139q45 29 110.5 45t120.5 16q70 0 132.5 -18.5t98.5 -42.5l140 139l186 -186l-139 -139q31 -49 46 -115t15 -119q0 -66 -16.5 -124t-44.5 -105l139 -140l-186 -188l-138 139 q-45 -25 -109.5 -42t-123.5 -17q-70 0 -127 17.5t-104 43.5l-140 -139zM489 688q0 -80 56.5 -136t136.5 -56q78 0 135 56t57 136t-57 136.5t-135 56.5q-80 0 -136.5 -57.5t-56.5 -135.5z" />
<glyph unicode="&#xa5;" d="M0 1397h465l237 -441l232 441h452l-395 -670h324v-184h-387v-142h387v-184h-387v-217h-441v217h-387v184h387v142h-387v184h328z" />
<glyph unicode="&#xa6;" horiz-adv-x="1300" d="M508 -307v735h287v-735h-287zM508 659v738h287v-738h-287z" />
<glyph unicode="&#xa7;" horiz-adv-x="1323" d="M86 459q0 117 47 193.5t154 131.5q-63 57 -92 115.5t-29 130.5q0 168 145.5 278.5t390.5 110.5q111 0 201.5 -20.5t190.5 -67.5v-313q-156 119 -338 119q-80 0 -119 -30t-39 -54q0 -39 26.5 -59.5t96.5 -47.5l147 -55q231 -86 300 -184.5t69 -233.5q0 -88 -31.5 -156.5 t-146.5 -158.5q66 -59 95.5 -122t29.5 -147q0 -166 -142.5 -264t-404.5 -98q-152 0 -275.5 29.5t-207.5 81.5v317q74 -66 198.5 -105.5t249.5 -39.5q72 0 107.5 21.5t35.5 55.5q0 27 -31.5 57.5t-72.5 53.5l-47 22l-195 72q-100 37 -206.5 122t-106.5 245zM387 551 q0 -45 57.5 -84t221.5 -105l231 -96q23 31 31 53.5t8 59.5q0 98 -167 172t-320 135q-35 -43 -48.5 -72.5t-13.5 -62.5z" />
<glyph unicode="&#xa8;" horiz-adv-x="681" d="M-66 1405q0 68 48.5 113t113.5 45q68 0 114 -45t46 -113q0 -66 -46 -114t-114 -48q-66 0 -114 48t-48 114zM426 1405q0 68 48 113t114 45q67 0 113.5 -45t46.5 -113q0 -66 -46.5 -114t-113.5 -48q-66 0 -114 48t-48 114z" />
<glyph unicode="&#xa9;" horiz-adv-x="1636" d="M82 713q0 295 214 514t523 219q297 0 516 -214t219 -519q0 -295 -215 -514t-520 -219q-301 0 -519 215t-218 518zM201 713q0 -254 182 -434.5t436 -180.5q258 0 437.5 183.5t179.5 433.5t-181.5 431t-433.5 181q-254 0 -437 -180t-183 -434zM403 702q0 184 126 307.5 t339 123.5q59 0 126 -10.5t139 -32.5v-236q-111 49 -205 49q-111 0 -169.5 -55t-58.5 -141q0 -88 63.5 -142.5t172.5 -54.5q41 0 84 10t119 43v-231q-66 -23 -129.5 -37t-132.5 -14q-225 0 -349.5 113.5t-124.5 307.5z" />
<glyph unicode="&#xaa;" horiz-adv-x="811" d="M49 889q0 129 182.5 174t221.5 67q0 39 -21.5 53.5t-77.5 14.5q-59 0 -117.5 -21.5t-168.5 -97.5v219q63 49 145 83t193 34q147 0 235 -61.5t88 -171.5v-197q0 -37 13.5 -48t41.5 -11h33l-59 -191q-35 -4 -70 -4q-41 0 -89 7t-101 44q-68 -35 -116 -46t-106 -11 q-106 0 -166.5 43t-60.5 121zM279 905q0 -27 21.5 -44t55.5 -17q16 0 41 6.5t62 26.5q-4 16 -4 28l-2 25v76q-41 -23 -107.5 -39.5t-66.5 -61.5z" />
<glyph unicode="&#xab;" horiz-adv-x="1449" d="M96 537l305 536h367l-307 -536l307 -537h-367zM711 537l305 536h366l-307 -536l307 -537h-366z" />
<glyph unicode="&#xac;" horiz-adv-x="1314" d="M98 780v318h1119v-799h-318v481h-801z" />
<glyph unicode="&#xad;" horiz-adv-x="917" d="M70 356v371h778v-371h-778z" />
<glyph unicode="&#xae;" horiz-adv-x="1636" d="M82 713q0 295 214 514t523 219q297 0 516 -214t219 -519q0 -295 -215 -514t-520 -219q-301 0 -519 215t-218 518zM201 713q0 -254 182 -434.5t436 -180.5q258 0 437.5 183.5t179.5 433.5t-181.5 431t-433.5 181q-254 0 -437 -180t-183 -434zM442 307v813h453 q129 0 204 -61.5t75 -165.5q0 -94 -63.5 -154.5t-166.5 -72.5q53 -23 88 -59t70 -95l121 -205h-308l-73 164q-31 68 -51.5 95.5t-73.5 27.5h-8v-287h-267zM709 770h67q45 0 78 19.5t33 68.5t-34 67.5t-75 18.5h-69v-174z" />
<glyph unicode="&#xaf;" horiz-adv-x="681" d="M12 1264v229h660v-229h-660z" />
<glyph unicode="&#xb0;" horiz-adv-x="811" d="M119 1206q0 119 86 203t201 84q114 0 200 -85t86 -202t-85 -201.5t-201 -84.5q-119 0 -203 86t-84 200zM303 1206q0 -43 29.5 -72.5t73.5 -29.5q43 0 72.5 29.5t29.5 72.5t-29.5 73t-72.5 30t-73 -30t-30 -73z" />
<glyph unicode="&#xb1;" horiz-adv-x="1314" d="M98 0v317h1119v-317h-1119zM98 748v317h402v317h317v-317h400v-317h-400v-318h-317v318h-402z" />
<glyph unicode="&#xb2;" horiz-adv-x="811" d="M51 1026v31l174 145q102 84 144.5 136.5t42.5 113.5q0 41 -35 68.5t-90 27.5q-59 0 -102.5 -26.5t-94.5 -83.5v223q72 49 139.5 70.5t149.5 21.5q141 0 223 -66.5t82 -173.5q0 -76 -43 -142t-131 -148h244v-197h-703z" />
<glyph unicode="&#xb3;" horiz-adv-x="811" d="M119 1077v199q51 -35 91 -52.5t85 -17.5q43 0 68.5 15.5t25.5 42.5q0 29 -29.5 45t-78.5 16l-68 -4v147q10 0 20 -2h19q63 0 100 17.5t37 44.5t-28.5 43t-77.5 16q-41 0 -72 -10t-76 -35v170q59 23 111.5 32t109.5 9q141 0 225.5 -58.5t84.5 -150.5q0 -47 -21.5 -80.5 t-69.5 -66.5q55 -35 79 -72t24 -90q0 -98 -80 -158.5t-211 -60.5q-70 0 -134.5 14t-133.5 47z" />
<glyph unicode="&#xb4;" horiz-adv-x="681" d="M143 1212l187 334h442l-405 -334h-224z" />
<glyph unicode="&#xb5;" horiz-adv-x="1409" d="M102 -471v1552h426v-632q18 -55 57.5 -86t73.5 -31q47 0 91.5 28.5t72.5 88.5v632h426v-647q0 -51 15.5 -79.5t50.5 -28.5q23 0 45 6v-332l-84 -10q-53 -8 -96 -8q-113 0 -180.5 39.5t-98.5 99.5q-45 -72 -92 -105.5t-119 -33.5q-55 0 -94 25.5t-68 72.5v-551h-426z" />
<glyph unicode="&#xb6;" horiz-adv-x="1748" d="M135 1049q0 193 121 305t340 112h1022v-317h-133v-1557h-297v1557h-166v-1557h-297v1022l-115 2q-268 4 -371.5 132.5t-103.5 300.5z" />
<glyph unicode="&#xb7;" horiz-adv-x="747" d="M123 698q0 102 74.5 176t177.5 74q104 0 177 -72.5t73 -177.5q0 -104 -75 -178t-175 -74q-104 0 -178 75t-74 177z" />
<glyph unicode="&#xb8;" horiz-adv-x="681" d="M6 -315q23 0 39 -2h23q76 0 116.5 19t40.5 60q0 29 -27.5 50.5t-76.5 21.5h-15l134 182h209l-56 -86q98 -6 153.5 -55t55.5 -127q0 -104 -95 -168.5t-265 -64.5q-57 0 -116.5 2t-119.5 8v160z" />
<glyph unicode="&#xb9;" horiz-adv-x="811" d="M115 1272v287q31 18 65 43l72 47q35 25 68.5 49t60.5 47h201v-719h-297v363q-47 -41 -89 -68t-81 -49z" />
<glyph unicode="&#xba;" horiz-adv-x="917" d="M49 1071q0 152 109.5 249t296.5 97q190 0 301.5 -96t111.5 -250q0 -152 -109.5 -248t-299.5 -96q-193 0 -301.5 92t-108.5 252zM342 1071q0 -49 32 -82t85 -33t84.5 33t31.5 82q0 47 -31.5 82t-84.5 35q-51 0 -84 -35t-33 -82z" />
<glyph unicode="&#xbb;" horiz-adv-x="1449" d="M68 0l307 537l-307 536h366l305 -536l-305 -537h-366zM682 0l307 537l-307 536h367l305 -536l-305 -537h-367z" />
<glyph unicode="&#xbc;" horiz-adv-x="1878" d="M115 934v287q31 18 65 43l72 47q35 25 68.5 49t60.5 47h201v-719h-297v363q-47 -41 -89 -68t-81 -49zM401 -49l842 1497h219l-839 -1497h-222zM1159 139v180l375 408h250v-428h135v-160h-135v-139h-276v139h-349zM1317 299h191v209z" />
<glyph unicode="&#xbd;" horiz-adv-x="1878" d="M115 934v287q31 18 65 43l72 47q35 25 68.5 49t60.5 47h201v-719h-297v363q-47 -41 -89 -68t-81 -49zM401 -49l842 1497h219l-839 -1497h-222zM1089 0v31l174 145q102 84 144.5 136.5t42.5 113.5q0 41 -35 68.5t-90 27.5q-59 0 -102.5 -26.5t-94.5 -83.5v223 q72 49 139.5 70.5t149.5 21.5q141 0 223 -66.5t82 -173.5q0 -76 -43 -142t-131 -148h244v-197h-703z" />
<glyph unicode="&#xbe;" horiz-adv-x="1878" d="M148 739v199q51 -35 91 -52.5t85 -17.5q43 0 68.5 15.5t25.5 42.5q0 29 -29.5 45t-78.5 16l-68 -4v147q10 0 20 -2h19q63 0 100 17.5t37 44.5t-28.5 43t-77.5 16q-41 0 -72 -10t-76 -35v170q59 23 111.5 32t109.5 9q141 0 225.5 -58.5t84.5 -150.5q0 -47 -21.5 -80.5 t-69.5 -66.5q55 -35 79 -72t24 -90q0 -98 -80 -158.5t-211 -60.5q-68 0 -133.5 14.5t-134.5 46.5zM401 -49l842 1497h219l-839 -1497h-222zM1052 139v180l375 408h250v-428h135v-160h-135v-139h-276v139h-349zM1210 299h191v209z" />
<glyph unicode="&#xbf;" horiz-adv-x="811" d="M74 -96q0 127 149.5 279.5t149.5 240.5q0 29 -4.5 42.5t-14.5 25.5q117 -6 158 -43t41 -97q0 -31 -10.5 -60.5t-24.5 -60.5l-22 -59q-12 -29 -13 -57q0 -53 45 -86t121 -33q27 0 52.5 5t62.5 15l-121 -368q-111 -39 -213 -39q-160 0 -258 83t-98 212zM176 793 q0 104 70.5 176.5t175.5 72.5q100 0 178 -70.5t78 -174.5q0 -106 -73 -180t-179 -74q-100 0 -175 71.5t-75 178.5z" />
<glyph unicode="&#xc0;" horiz-adv-x="1835" d="M25 0l637 1397h512l636 -1397h-485l-92 205h-635l-88 -205h-485zM488 1851h442l187 -333h-226zM707 489h423l-212 543z" />
<glyph unicode="&#xc1;" horiz-adv-x="1835" d="M25 0l637 1397h512l636 -1397h-485l-92 205h-635l-88 -205h-485zM707 489h423l-212 543zM721 1518l187 333h442l-405 -333h-224z" />
<glyph unicode="&#xc2;" horiz-adv-x="1835" d="M25 0l637 1397h512l636 -1397h-485l-92 205h-635l-88 -205h-485zM523 1518l172 342h450l170 -342h-245l-150 161l-152 -161h-245zM707 489h423l-212 543z" />
<glyph unicode="&#xc3;" horiz-adv-x="1835" d="M25 0l637 1397h512l636 -1397h-485l-92 205h-635l-88 -205h-485zM502 1520q6 172 79 256t196 84q47 0 82.5 -12.5t68.5 -24.5l66 -27q31 -12 67 -12q33 0 49.5 17.5t20.5 58.5h207q-6 -162 -80 -251t-191 -89q-39 0 -78.5 12t-76.5 27l-72 24q-35 12 -61 12 q-31 0 -47.5 -17t-26.5 -58h-203zM707 489h423l-212 543z" />
<glyph unicode="&#xc4;" horiz-adv-x="1835" d="M25 0l637 1397h512l636 -1397h-485l-92 205h-635l-88 -205h-485zM492 1712q0 68 48 113t114 45q67 0 113.5 -45t46.5 -113q0 -66 -46.5 -114t-113.5 -48q-66 0 -114 48.5t-48 113.5zM707 489h423l-212 543zM1024 1712q0 68 48.5 113t113.5 45q68 0 114 -45t46 -113 q0 -66 -46 -114t-114 -48q-66 0 -114 48.5t-48 113.5z" />
<glyph unicode="&#xc5;" horiz-adv-x="1835" d="M25 0l637 1397h512l636 -1397h-485l-92 205h-635l-88 -205h-485zM707 489h423l-212 543zM715 1686q0 86 59.5 144t145.5 58t144.5 -58t58.5 -144t-58.5 -145.5t-144.5 -59.5t-145.5 59t-59.5 146zM824 1686q0 -41 28.5 -70t67.5 -29q41 0 69.5 30t28.5 69q0 38 -28.5 67 t-69.5 29q-39 0 -67.5 -28t-28.5 -68z" />
<glyph unicode="&#xc6;" horiz-adv-x="2074" d="M20 0l734 1397h1214v-295h-483v-246h438v-295h-438v-266h491v-295h-981v334h-313l-150 -334h-512zM770 569h225v553h-4z" />
<glyph unicode="&#xc7;" horiz-adv-x="1536" d="M82 705q0 303 221 506.5t588 203.5q141 0 260 -24.5t223 -69.5v-408q-104 68 -201.5 98.5t-203.5 30.5q-182 0 -290 -91t-108 -253t110 -253t292 -91q102 0 197.5 28t215.5 95v-373q-111 -61 -241.5 -91.5t-278.5 -30.5l-22 2l-33 -54q98 -6 153.5 -55t55.5 -127 q0 -104 -95.5 -168.5t-265.5 -64.5l-135 4q-37 0 -63 2l-37 2v162q23 0 39 -2h22q76 0 117 19t41 60q0 29 -27.5 50.5t-76.5 21.5h-15l131 166q-270 55 -421.5 242.5t-151.5 462.5z" />
<glyph unicode="&#xc8;" horiz-adv-x="1296" d="M143 0v1397h1047v-316h-557v-215h510v-315h-510v-236h565v-315h-1055zM219 1851h442l187 -333h-226z" />
<glyph unicode="&#xc9;" horiz-adv-x="1296" d="M143 0v1397h1047v-316h-557v-215h510v-315h-510v-236h565v-315h-1055zM452 1518l187 333h442l-405 -333h-224z" />
<glyph unicode="&#xca;" horiz-adv-x="1296" d="M143 0v1397h1047v-316h-557v-215h510v-315h-510v-236h565v-315h-1055zM254 1518l172 342h450l170 -342h-245l-150 161l-152 -161h-245z" />
<glyph unicode="&#xcb;" horiz-adv-x="1296" d="M143 0v1397h1047v-316h-557v-215h510v-315h-510v-236h565v-315h-1055zM223 1712q0 68 48 113t114 45q67 0 113.5 -45t46.5 -113q0 -66 -46.5 -114t-113.5 -48q-66 0 -114 48.5t-48 113.5zM755 1712q0 68 48.5 113t113.5 45q68 0 114 -45t46 -113q0 -66 -46 -114t-114 -48 q-66 0 -114 48.5t-48 113.5z" />
<glyph unicode="&#xcc;" horiz-adv-x="776" d="M-37 1851h442l187 -333h-226zM143 0v1397h490v-1397h-490z" />
<glyph unicode="&#xcd;" horiz-adv-x="776" d="M143 0v1397h490v-1397h-490zM196 1518l187 333h442l-405 -333h-224z" />
<glyph unicode="&#xce;" horiz-adv-x="776" d="M-2 1518l172 342h450l170 -342h-245l-150 161l-152 -161h-245zM143 0v1397h490v-1397h-490z" />
<glyph unicode="&#xcf;" horiz-adv-x="776" d="M-33 1712q0 68 48 113t114 45q67 0 113.5 -45t46.5 -113q0 -66 -46.5 -114t-113.5 -48q-66 0 -114 48.5t-48 113.5zM143 0v1397h490v-1397h-490zM499 1712q0 68 48.5 113t113.5 45q68 0 114 -45t46 -113q0 -66 -46 -114t-114 -48q-66 0 -114 48.5t-48 113.5z" />
<glyph unicode="&#xd0;" horiz-adv-x="1705" d="M-18 590v213h168v594h706q338 0 545 -207t207 -510q0 -295 -184.5 -487.5t-475.5 -192.5h-798v590h-168zM639 332h133q170 0 258 86t88 278q0 174 -90 271.5t-256 97.5h-133v-262h270v-213h-270v-258z" />
<glyph unicode="&#xd1;" horiz-adv-x="1880" d="M143 0v1397h418l686 -703v703h490v-1397h-418l-686 702v-702h-490zM532 1520q6 172 79 256t196 84q47 0 82.5 -12.5t68.5 -24.5l66 -27q31 -12 67 -12q33 0 49.5 17.5t20.5 58.5h207q-6 -162 -80 -251t-191 -89q-39 0 -78.5 12t-76.5 27l-72 24q-35 12 -61 12 q-31 0 -47.5 -17t-26.5 -58h-203z" />
<glyph unicode="&#xd2;" horiz-adv-x="1683" d="M82 698q0 307 201.5 512t558.5 205q352 0 556 -203.5t204 -513.5q0 -311 -203 -513.5t-557 -202.5q-346 0 -553 199.5t-207 516.5zM422 1851h442l187 -333h-226zM571 698q0 -143 73 -225t198 -82t197.5 84t72.5 223q0 142 -72.5 225t-199.5 83q-123 0 -196 -80t-73 -228z " />
<glyph unicode="&#xd3;" horiz-adv-x="1683" d="M82 698q0 307 201.5 512t558.5 205q352 0 556 -203.5t204 -513.5q0 -311 -203 -513.5t-557 -202.5q-346 0 -553 199.5t-207 516.5zM571 698q0 -143 73 -225t198 -82t197.5 84t72.5 223q0 142 -72.5 225t-199.5 83q-123 0 -196 -80t-73 -228zM655 1518l187 333h442 l-405 -333h-224z" />
<glyph unicode="&#xd4;" horiz-adv-x="1683" d="M82 698q0 307 201.5 512t558.5 205q352 0 556 -203.5t204 -513.5q0 -311 -203 -513.5t-557 -202.5q-346 0 -553 199.5t-207 516.5zM457 1518l172 342h450l170 -342h-245l-150 161l-152 -161h-245zM571 698q0 -143 73 -225t198 -82t197.5 84t72.5 223q0 142 -72.5 225 t-199.5 83q-123 0 -196 -80t-73 -228z" />
<glyph unicode="&#xd5;" horiz-adv-x="1683" d="M82 698q0 307 201.5 512t558.5 205q352 0 556 -203.5t204 -513.5q0 -311 -203 -513.5t-557 -202.5q-346 0 -553 199.5t-207 516.5zM436 1520q6 172 79 256t196 84q47 0 82.5 -12.5t68.5 -24.5l66 -27q31 -12 67 -12q33 0 49.5 17.5t20.5 58.5h207q-6 -162 -80 -251 t-191 -89q-39 0 -78.5 12t-76.5 27l-72 24q-35 12 -61 12q-31 0 -47.5 -17t-26.5 -58h-203zM571 698q0 -143 73 -225t198 -82t197.5 84t72.5 223q0 142 -72.5 225t-199.5 83q-123 0 -196 -80t-73 -228z" />
<glyph unicode="&#xd6;" horiz-adv-x="1683" d="M82 698q0 307 201.5 512t558.5 205q352 0 556 -203.5t204 -513.5q0 -311 -203 -513.5t-557 -202.5q-346 0 -553 199.5t-207 516.5zM426 1712q0 68 48 113t114 45q67 0 113.5 -45t46.5 -113q0 -66 -46.5 -114t-113.5 -48q-66 0 -114 48.5t-48 113.5zM571 698 q0 -143 73 -225t198 -82t197.5 84t72.5 223q0 142 -72.5 225t-199.5 83q-123 0 -196 -80t-73 -228zM958 1712q0 68 48.5 113t113.5 45q68 0 114 -45t46 -113q0 -66 -46 -114t-114 -48q-66 0 -114 48.5t-48 113.5z" />
<glyph unicode="&#xd7;" horiz-adv-x="1314" d="M88 354l340 340l-336 334l227 229l338 -331l340 336l230 -230l-342 -338l338 -336l-230 -229l-336 338l-342 -342z" />
<glyph unicode="&#xd8;" horiz-adv-x="1705" d="M94 698q0 307 202 512t558 205q141 0 255 -32.5t202 -90.5l135 144l110 -105l-129 -137q94 -100 140.5 -230t46.5 -266q0 -311 -203 -513.5t-557 -202.5q-137 0 -251 31.5t-206 88.5l-178 -188l-110 104l170 183q-184 195 -185 497zM584 698q0 -86 24 -149l393 416 q-63 41 -149 41q-125 0 -196.5 -83t-71.5 -225zM707 430q66 -39 147 -39q125 0 197.5 84t72.5 223q0 78 -26 148z" />
<glyph unicode="&#xd9;" horiz-adv-x="1742" d="M123 584v813h489v-748q0 -137 66.5 -213t189.5 -76q127 0 194.5 83t67.5 225v729h490v-764q0 -303 -192.5 -477t-546.5 -174q-362 0 -560 160.5t-198 441.5zM422 1851h442l187 -333h-226z" />
<glyph unicode="&#xda;" horiz-adv-x="1742" d="M123 584v813h489v-748q0 -137 66.5 -213t189.5 -76q127 0 194.5 83t67.5 225v729h490v-764q0 -303 -192.5 -477t-546.5 -174q-362 0 -560 160.5t-198 441.5zM655 1518l187 333h442l-405 -333h-224z" />
<glyph unicode="&#xdb;" horiz-adv-x="1742" d="M123 584v813h489v-748q0 -137 66.5 -213t189.5 -76q127 0 194.5 83t67.5 225v729h490v-764q0 -303 -192.5 -477t-546.5 -174q-362 0 -560 160.5t-198 441.5zM457 1518l172 342h450l170 -342h-245l-150 161l-152 -161h-245z" />
<glyph unicode="&#xdc;" horiz-adv-x="1742" d="M123 584v813h489v-748q0 -137 66.5 -213t189.5 -76q127 0 194.5 83t67.5 225v729h490v-764q0 -303 -192.5 -477t-546.5 -174q-362 0 -560 160.5t-198 441.5zM426 1712q0 68 48 113t114 45q67 0 113.5 -45t46.5 -113q0 -66 -46.5 -114t-113.5 -48q-66 0 -114 48.5 t-48 113.5zM958 1712q0 68 48.5 113t113.5 45q68 0 114 -45t46 -113q0 -66 -46 -114t-114 -48q-66 0 -114 48.5t-48 113.5z" />
<glyph unicode="&#xdd;" horiz-adv-x="1613" d="M12 1397h584l266 -463l260 463h480l-558 -793v-604h-489v623zM604 1518l187 333h442l-405 -333h-224z" />
<glyph unicode="&#xde;" horiz-adv-x="1411" d="M143 0v1397h490v-250h233q264 0 408.5 -120t144.5 -318q0 -225 -158.5 -343t-517.5 -118h-110v-248h-490zM633 508h119q106 0 161.5 46t55.5 146q0 92 -49.5 139.5t-165.5 47.5h-121v-379z" />
<glyph unicode="&#xdf;" horiz-adv-x="1429" d="M127 0v985q0 199 140.5 314.5t437.5 115.5q276 0 424.5 -100.5t148.5 -284.5q0 -86 -39 -147.5t-125 -110.5q129 -49 189.5 -138t60.5 -231q0 -184 -111.5 -302.5t-316.5 -118.5q-59 0 -110.5 6t-106.5 22v324q27 -10 40 -13.5t29 -3.5q70 0 110 41t40 113t-41 114 t-154 42v260q141 8 142 117q0 57 -46 90.5t-126 33.5q-86 0 -123 -38.5t-37 -116.5v-973h-426z" />
<glyph unicode="&#xe0;" horiz-adv-x="1236" d="M57 246q0 209 291 282.5t346 120.5v13q0 66 -41 93t-129 27q-109 0 -204 -41t-228 -143v317q117 94 240 139.5t270 45.5q219 0 352 -97.5t133 -271.5v-330q0 -61 25 -91.5t105 -35.5l-78 -288q-25 0 -52.5 -2t-56.5 -2q-100 0 -168.5 24.5t-105.5 79.5 q-76 -51 -165 -77.5t-190 -26.5q-166 0 -255 72.5t-89 191.5zM168 1546h442l187 -334h-226zM381 262q0 -51 34 -70.5t89 -19.5q47 0 98 17.5t94 50.5q0 16 -2 32v177q-31 -25 -129 -53.5t-141 -52.5t-43 -81z" />
<glyph unicode="&#xe1;" horiz-adv-x="1236" d="M57 246q0 209 291 282.5t346 120.5v13q0 66 -41 93t-129 27q-109 0 -204 -41t-228 -143v317q117 94 240 139.5t270 45.5q219 0 352 -97.5t133 -271.5v-330q0 -61 25 -91.5t105 -35.5l-78 -288q-25 0 -52.5 -2t-56.5 -2q-100 0 -168.5 24.5t-105.5 79.5 q-76 -51 -165 -77.5t-190 -26.5q-166 0 -255 72.5t-89 191.5zM381 262q0 -51 34 -70.5t89 -19.5q47 0 98 17.5t94 50.5q0 16 -2 32v177q-31 -25 -129 -53.5t-141 -52.5t-43 -81zM401 1212l187 334h442l-405 -334h-224z" />
<glyph unicode="&#xe2;" horiz-adv-x="1236" d="M57 246q0 209 291 282.5t346 120.5v13q0 66 -41 93t-129 27q-109 0 -204 -41t-228 -143v317q117 94 240 139.5t270 45.5q219 0 352 -97.5t133 -271.5v-330q0 -61 25 -91.5t105 -35.5l-78 -288q-25 0 -52.5 -2t-56.5 -2q-100 0 -168.5 24.5t-105.5 79.5 q-76 -51 -165 -77.5t-190 -26.5q-166 0 -255 72.5t-89 191.5zM203 1212l172 342h450l170 -342h-245l-150 162l-152 -162h-245zM381 262q0 -51 34 -70.5t89 -19.5q47 0 98 17.5t94 50.5q0 16 -2 32v177q-31 -25 -129 -53.5t-141 -52.5t-43 -81z" />
<glyph unicode="&#xe3;" horiz-adv-x="1236" d="M57 246q0 209 291 282.5t346 120.5v13q0 66 -41 93t-129 27q-109 0 -204 -41t-228 -143v317q117 94 240 139.5t270 45.5q219 0 352 -97.5t133 -271.5v-330q0 -61 25 -91.5t105 -35.5l-78 -288q-25 0 -52.5 -2t-56.5 -2q-100 0 -168.5 24.5t-105.5 79.5 q-76 -51 -165 -77.5t-190 -26.5q-166 0 -255 72.5t-89 191.5zM203 1214q6 180 71.5 260t182.5 80q47 0 82.5 -12t68.5 -24l66 -27q31 -12 67 -12q33 0 49.5 17t20.5 58h186q-6 -162 -69.5 -251t-180.5 -89q-39 0 -78.5 12.5t-76.5 26.5l-72 25q-35 12 -61 12 q-31 0 -47.5 -17.5t-26.5 -58.5h-182zM381 262q0 -51 34 -70.5t89 -19.5q47 0 98 17.5t94 50.5q0 16 -2 32v177q-31 -25 -129 -53.5t-141 -52.5t-43 -81z" />
<glyph unicode="&#xe4;" horiz-adv-x="1236" d="M57 246q0 209 291 282.5t346 120.5v13q0 66 -41 93t-129 27q-109 0 -204 -41t-228 -143v317q117 94 240 139.5t270 45.5q219 0 352 -97.5t133 -271.5v-330q0 -61 25 -91.5t105 -35.5l-78 -288q-25 0 -52.5 -2t-56.5 -2q-100 0 -168.5 24.5t-105.5 79.5 q-76 -51 -165 -77.5t-190 -26.5q-166 0 -255 72.5t-89 191.5zM192 1405q0 68 48.5 113t113.5 45q68 0 114 -45t46 -113q0 -66 -46 -114t-114 -48q-66 0 -114 48t-48 114zM381 262q0 -51 34 -70.5t89 -19.5q47 0 98 17.5t94 50.5q0 16 -2 32v177q-31 -25 -129 -53.5 t-141 -52.5t-43 -81zM684 1405q0 68 48 113t114 45q67 0 113.5 -45t46.5 -113q0 -66 -46.5 -114t-113.5 -48q-66 0 -114 48t-48 114z" />
<glyph unicode="&#xe5;" horiz-adv-x="1236" d="M57 246q0 209 291 282.5t346 120.5v13q0 66 -41 93t-129 27q-109 0 -204 -41t-228 -143v317q117 94 240 139.5t270 45.5q219 0 352 -97.5t133 -271.5v-330q0 -61 25 -91.5t105 -35.5l-78 -288q-25 0 -52.5 -2t-56.5 -2q-100 0 -168.5 24.5t-105.5 79.5 q-76 -51 -165 -77.5t-190 -26.5q-166 0 -255 72.5t-89 191.5zM381 262q0 -51 34 -70.5t89 -19.5q47 0 98 17.5t94 50.5q0 16 -2 32v177q-31 -25 -129 -53.5t-141 -52.5t-43 -81zM395 1380q0 86 59.5 144.5t145.5 58.5t144.5 -58.5t58.5 -144.5t-58.5 -145t-144.5 -59 t-145.5 59t-59.5 145zM504 1380q0 -41 28.5 -69.5t67.5 -28.5q41 0 69.5 29.5t28.5 68.5t-28.5 68t-69.5 29q-39 0 -67.5 -28t-28.5 -69z" />
<glyph unicode="&#xe6;" horiz-adv-x="1855" d="M92 248q0 100 81 175t302 138l137 41q66 18 115 41v21q0 63 -36 99t-113 36q-100 0 -213 -52.5t-236 -150.5v319q104 86 233.5 135.5t262.5 49.5q82 0 165.5 -14.5t178.5 -65.5q74 45 139.5 62.5t140.5 17.5q262 0 400.5 -147.5t138.5 -422.5q0 -16 -2 -37.5t-4 -31.5 h-707q6 -104 89 -159.5t208 -55.5q84 0 178.5 28.5t188.5 94.5v-248q-115 -78 -225.5 -108.5t-251.5 -30.5q-127 0 -233.5 27.5t-199.5 99.5q-96 -63 -183 -95t-200 -32q-162 0 -258 73.5t-96 192.5zM416 242q0 -33 29.5 -53.5t76.5 -20.5q68 0 122 19.5t108 58.5 q-18 43 -25.5 82t-7.5 100q-82 -35 -192.5 -74t-110.5 -112zM1075 621h359q0 117 -48.5 179t-138.5 62q-78 0 -124 -56t-48 -185z" />
<glyph unicode="&#xe7;" horiz-adv-x="1112" d="M61 535q0 238 163 401.5t442 163.5q80 0 167 -12.5t179 -43.5v-358q-141 63 -269 64q-117 0 -186.5 -58.5t-69.5 -152.5q0 -92 74 -149.5t193 -57.5q51 0 109.5 13t156.5 54v-350q-147 -49 -207.5 -58t-136.5 -9h-23q-12 0 -22 2l-31 -54q98 -6 153.5 -55t55.5 -127 q0 -104 -96.5 -168.5t-263.5 -64.5l-136 4q-37 0 -63 2l-37 2v162q23 0 49 -2q170 0 170 79q0 29 -27.5 50.5t-76.5 21.5h-15l136 180q-180 55 -284 191.5t-104 329.5z" />
<glyph unicode="&#xe8;" horiz-adv-x="1228" d="M61 547q0 256 152 404.5t405 148.5q250 0 399.5 -145.5t149.5 -407.5v-42.5t-6 -43.5h-706q4 -88 92 -151.5t205 -63.5q84 0 178 28.5t188 94.5v-248q-115 -78 -225.5 -108.5t-251.5 -30.5q-268 0 -424 159.5t-156 405.5zM184 1546h442l187 -334h-226zM453 621h358 q0 115 -50 178t-130 63q-92 0 -135 -58.5t-43 -182.5z" />
<glyph unicode="&#xe9;" horiz-adv-x="1228" d="M61 547q0 256 152 404.5t405 148.5q250 0 399.5 -145.5t149.5 -407.5v-42.5t-6 -43.5h-706q4 -88 92 -151.5t205 -63.5q84 0 178 28.5t188 94.5v-248q-115 -78 -225.5 -108.5t-251.5 -30.5q-268 0 -424 159.5t-156 405.5zM417 1212l187 334h442l-405 -334h-224zM453 621 h358q0 115 -50 178t-130 63q-92 0 -135 -58.5t-43 -182.5z" />
<glyph unicode="&#xea;" horiz-adv-x="1228" d="M61 547q0 256 152 404.5t405 148.5q250 0 399.5 -145.5t149.5 -407.5v-42.5t-6 -43.5h-706q4 -88 92 -151.5t205 -63.5q84 0 178 28.5t188 94.5v-248q-115 -78 -225.5 -108.5t-251.5 -30.5q-268 0 -424 159.5t-156 405.5zM219 1212l172 342h450l170 -342h-245l-150 162 l-152 -162h-245zM453 621h358q0 115 -50 178t-130 63q-92 0 -135 -58.5t-43 -182.5z" />
<glyph unicode="&#xeb;" horiz-adv-x="1228" d="M61 547q0 256 152 404.5t405 148.5q250 0 399.5 -145.5t149.5 -407.5v-42.5t-6 -43.5h-706q4 -88 92 -151.5t205 -63.5q84 0 178 28.5t188 94.5v-248q-115 -78 -225.5 -108.5t-251.5 -30.5q-268 0 -424 159.5t-156 405.5zM208 1405q0 68 48.5 113t113.5 45q68 0 114 -45 t46 -113q0 -66 -46 -114t-114 -48q-66 0 -114 48t-48 114zM453 621h358q0 115 -50 178t-130 63q-92 0 -135 -58.5t-43 -182.5zM700 1405q0 68 48 113t114 45q67 0 113.5 -45t46.5 -113q0 -66 -46.5 -114t-113.5 -48q-66 0 -114 48t-48 114z" />
<glyph unicode="&#xec;" horiz-adv-x="671" d="M-96 1546h442l187 -334h-226zM123 0v1081h426v-1081h-426z" />
<glyph unicode="&#xed;" horiz-adv-x="671" d="M123 0v1081h426v-1081h-426zM137 1212l187 334h442l-405 -334h-224z" />
<glyph unicode="&#xee;" horiz-adv-x="671" d="M-61 1212l172 342h450l170 -342h-245l-150 162l-152 -162h-245zM123 0v1081h426v-1081h-426z" />
<glyph unicode="&#xef;" horiz-adv-x="671" d="M-72 1405q0 68 48.5 113t113.5 45q68 0 114 -45t46 -113q0 -66 -46 -114t-114 -48q-66 0 -114 48t-48 114zM123 0v1081h426v-1081h-426zM420 1405q0 68 48 113t114 45q67 0 113.5 -45t46.5 -113q0 -66 -46.5 -114t-113.5 -48q-66 0 -114 48t-48 114z" />
<glyph unicode="&#xf0;" horiz-adv-x="1431" d="M80 553q0 229 165 385t390 156q47 0 84 -7.5t78 -25.5l4 4l-31 51l-25 39l-61 80l-307 -109l-39 109l264 94q-53 53 -97 88t-124 82v10h407l41 -20q14 -8 24.5 -14.5t20.5 -14.5l33 -24l213 73l39 -102l-153 -57q182 -180 266 -365.5t84 -400.5q0 -285 -172 -443.5 t-455 -158.5q-299 0 -474 156.5t-175 414.5zM506 535q0 -92 58.5 -147.5t152.5 -55.5t152.5 55t58.5 148q0 92 -57.5 150t-155.5 58q-92 0 -150.5 -58t-58.5 -150z" />
<glyph unicode="&#xf1;" horiz-adv-x="1380" d="M123 0v1081h426v-137q76 82 157.5 119t188.5 37q180 0 275.5 -103.5t95.5 -320.5v-676h-426v592q0 158 -125 158q-90 0 -166 -107v-643h-426zM291 1214q6 180 71.5 260t182.5 80q47 0 82.5 -12t68.5 -24l66 -27q31 -12 67 -12q33 0 49.5 17t20.5 58h186 q-6 -162 -69.5 -251t-180.5 -89q-39 0 -78.5 12.5t-76.5 26.5l-72 25q-35 12 -61 12q-31 0 -47.5 -17.5t-26.5 -58.5h-182z" />
<glyph unicode="&#xf2;" horiz-adv-x="1396" d="M61 541q0 242 170 400.5t467 158.5q293 0 465 -158t172 -401q0 -240 -170 -399.5t-463 -159.5q-297 0 -469 158.5t-172 400.5zM268 1546h442l187 -334h-226zM487 541q0 -92 58.5 -150.5t152.5 -58.5q95 0 153 58.5t58 150.5t-58 150.5t-153 58.5q-94 0 -152.5 -58.5 t-58.5 -150.5z" />
<glyph unicode="&#xf3;" horiz-adv-x="1396" d="M61 541q0 242 170 400.5t467 158.5q293 0 465 -158t172 -401q0 -240 -170 -399.5t-463 -159.5q-297 0 -469 158.5t-172 400.5zM487 541q0 -92 58.5 -150.5t152.5 -58.5q95 0 153 58.5t58 150.5t-58 150.5t-153 58.5q-94 0 -152.5 -58.5t-58.5 -150.5zM501 1212l187 334 h442l-405 -334h-224z" />
<glyph unicode="&#xf4;" horiz-adv-x="1396" d="M61 541q0 242 170 400.5t467 158.5q293 0 465 -158t172 -401q0 -240 -170 -399.5t-463 -159.5q-297 0 -469 158.5t-172 400.5zM303 1212l172 342h450l170 -342h-245l-150 162l-152 -162h-245zM487 541q0 -92 58.5 -150.5t152.5 -58.5q95 0 153 58.5t58 150.5t-58 150.5 t-153 58.5q-94 0 -152.5 -58.5t-58.5 -150.5z" />
<glyph unicode="&#xf5;" horiz-adv-x="1396" d="M61 541q0 242 170 400.5t467 158.5q293 0 465 -158t172 -401q0 -240 -170 -399.5t-463 -159.5q-297 0 -469 158.5t-172 400.5zM303 1214q6 180 71.5 260t182.5 80q47 0 82.5 -12t68.5 -24l66 -27q31 -12 67 -12q33 0 49.5 17t20.5 58h186q-6 -162 -69.5 -251t-180.5 -89 q-39 0 -78.5 12.5t-76.5 26.5l-72 25q-35 12 -61 12q-31 0 -47.5 -17.5t-26.5 -58.5h-182zM487 541q0 -92 58.5 -150.5t152.5 -58.5q95 0 153 58.5t58 150.5t-58 150.5t-153 58.5q-94 0 -152.5 -58.5t-58.5 -150.5z" />
<glyph unicode="&#xf6;" horiz-adv-x="1396" d="M61 541q0 242 170 400.5t467 158.5q293 0 465 -158t172 -401q0 -240 -170 -399.5t-463 -159.5q-297 0 -469 158.5t-172 400.5zM292 1405q0 68 48.5 113t113.5 45q68 0 114 -45t46 -113q0 -66 -46 -114t-114 -48q-66 0 -114 48t-48 114zM487 541q0 -92 58.5 -150.5 t152.5 -58.5q95 0 153 58.5t58 150.5t-58 150.5t-153 58.5q-94 0 -152.5 -58.5t-58.5 -150.5zM784 1405q0 68 48 113t114 45q67 0 113.5 -45t46.5 -113q0 -66 -46.5 -114t-113.5 -48q-66 0 -114 48t-48 114z" />
<glyph unicode="&#xf7;" horiz-adv-x="1314" d="M98 535v317h1119v-317h-1119zM471 225q0 74 55.5 130.5t130.5 56.5q76 0 130.5 -54.5t54.5 -132.5t-53.5 -132t-131.5 -54t-132 54t-54 132zM471 1159q0 76 56.5 130t129.5 54q76 0 130.5 -53t54.5 -131t-54.5 -132t-130.5 -54t-131 56t-55 130z" />
<glyph unicode="&#xf8;" horiz-adv-x="1429" d="M78 541q0 242 170 400.5t467 158.5q115 0 208 -24.5t167 -67.5l145 155l68 -63l-136 -146q92 -78 138.5 -184t46.5 -229q0 -240 -170 -399.5t-463 -159.5q-117 0 -211 23.5t-168 66.5l-150 -158l-67 66l139 147q-94 80 -139 187.5t-45 226.5zM504 541q0 -68 33 -121 l284 303q-49 27 -106 27q-94 0 -152.5 -58.5t-58.5 -150.5zM606 356q45 -25 109 -24q94 0 152.5 58.5t58.5 150.5q0 70 -35 121z" />
<glyph unicode="&#xf9;" horiz-adv-x="1441" d="M115 387v694h426v-592q0 -158 127 -157q55 0 95 32.5t73 77.5v639h426v-688q0 -61 23.5 -87.5t70.5 -26.5q29 0 65 12l-98 -291q-51 -10 -97 -14t-91 -4q-129 0 -193.5 44t-89.5 142q-150 -186 -369 -186q-178 0 -273 106.5t-95 298.5zM297 1546h442l187 -334h-226z" />
<glyph unicode="&#xfa;" horiz-adv-x="1441" d="M115 387v694h426v-592q0 -158 127 -157q55 0 95 32.5t73 77.5v639h426v-688q0 -61 23.5 -87.5t70.5 -26.5q29 0 65 12l-98 -291q-51 -10 -97 -14t-91 -4q-129 0 -193.5 44t-89.5 142q-150 -186 -369 -186q-178 0 -273 106.5t-95 298.5zM530 1212l187 334h442l-405 -334 h-224z" />
<glyph unicode="&#xfb;" horiz-adv-x="1441" d="M115 387v694h426v-592q0 -158 127 -157q55 0 95 32.5t73 77.5v639h426v-688q0 -61 23.5 -87.5t70.5 -26.5q29 0 65 12l-98 -291q-51 -10 -97 -14t-91 -4q-129 0 -193.5 44t-89.5 142q-150 -186 -369 -186q-178 0 -273 106.5t-95 298.5zM332 1212l172 342h450l170 -342 h-245l-150 162l-152 -162h-245z" />
<glyph unicode="&#xfc;" horiz-adv-x="1441" d="M115 387v694h426v-592q0 -158 127 -157q55 0 95 32.5t73 77.5v639h426v-688q0 -61 23.5 -87.5t70.5 -26.5q29 0 65 12l-98 -291q-51 -10 -97 -14t-91 -4q-129 0 -193.5 44t-89.5 142q-150 -186 -369 -186q-178 0 -273 106.5t-95 298.5zM321 1405q0 68 48.5 113t113.5 45 q68 0 114 -45t46 -113q0 -66 -46 -114t-114 -48q-66 0 -114 48t-48 114zM813 1405q0 68 48 113t114 45q67 0 113.5 -45t46.5 -113q0 -66 -46.5 -114t-113.5 -48q-66 0 -114 48t-48 114z" />
<glyph unicode="&#xfd;" horiz-adv-x="1273" d="M0 1081h459l198 -530l217 530h400l-748 -1548h-403l305 625zM430 1212l187 334h442l-405 -334h-224z" />
<glyph unicode="&#xfe;" horiz-adv-x="1415" d="M119 -467v1864h426v-316h141q328 0 498 -134t170 -410q0 -248 -153.5 -401.5t-401.5 -153.5q-68 0 -128.5 11t-125.5 36v-496h-426zM545 367q84 -35 160 -35q104 0 163.5 57t59.5 152q0 92 -63.5 148t-192.5 56h-127v-378z" />
<glyph unicode="&#xff;" horiz-adv-x="1273" d="M0 1081h459l198 -530l217 530h400l-748 -1548h-403l305 625zM221 1405q0 68 48.5 113t113.5 45q68 0 114 -45t46 -113q0 -66 -46 -114t-114 -48q-66 0 -114 48t-48 114zM713 1405q0 68 48 113t114 45q67 0 113.5 -45t46.5 -113q0 -66 -46.5 -114t-113.5 -48 q-66 0 -114 48t-48 114z" />
<glyph unicode="&#x152;" horiz-adv-x="2115" d="M94 700q0 258 127 423t271.5 219.5t488.5 54.5h1030v-295h-485v-246h440v-295h-440v-266h491v-295h-1218q-313 0 -509 193.5t-196 506.5zM584 696q0 -195 104.5 -293t272.5 -98h75v797h-75q-174 0 -275.5 -107.5t-101.5 -298.5z" />
<glyph unicode="&#x153;" horiz-adv-x="2068" d="M78 549q0 236 170 393.5t430 157.5q156 0 248 -32t184 -103q86 80 175 107.5t185 27.5q244 0 381.5 -144.5t137.5 -400.5v-52.5t-7 -41.5h-686q18 -104 94 -159.5t183 -55.5q84 0 178 28.5t188 94.5v-248q-125 -84 -216 -110.5t-232 -26.5q-125 0 -224.5 31.5 t-183.5 115.5q-88 -78 -178 -113.5t-219 -35.5q-262 0 -435 160.5t-173 406.5zM504 539q0 -135 54 -197.5t149 -62.5q86 0 143 59t57 205q0 135 -56 197.5t-151 62.5q-88 0 -142 -61.5t-54 -202.5zM1296 621h336q0 242 -164 241q-84 0 -126 -65.5t-46 -175.5z" />
<glyph unicode="&#x178;" horiz-adv-x="1613" d="M12 1397h584l266 -463l260 463h480l-558 -793v-604h-489v623zM375 1712q0 68 48 113t114 45q67 0 113.5 -45t46.5 -113q0 -66 -46.5 -114t-113.5 -48q-66 0 -114 48.5t-48 113.5zM907 1712q0 68 48.5 113t113.5 45q68 0 114 -45t46 -113q0 -66 -46 -114t-114 -48 q-66 0 -114 48.5t-48 113.5z" />
<glyph unicode="&#x2c6;" horiz-adv-x="681" d="M-55 1212l172 342h450l170 -342h-245l-150 162l-152 -162h-245z" />
<glyph unicode="&#x2dc;" horiz-adv-x="681" d="M-55 1214q6 180 71.5 260t182.5 80q47 0 82.5 -12t68.5 -24l66 -27q31 -12 67 -12q33 0 49.5 17t20.5 58h186q-6 -162 -69.5 -251t-180.5 -89q-39 0 -78.5 12.5t-76.5 26.5l-72 25q-35 12 -61 12q-31 0 -47.5 -17.5t-26.5 -58.5h-182z" />
<glyph unicode="&#x2000;" horiz-adv-x="944" />
<glyph unicode="&#x2001;" horiz-adv-x="1888" />
<glyph unicode="&#x2002;" horiz-adv-x="944" />
<glyph unicode="&#x2003;" horiz-adv-x="1888" />
<glyph unicode="&#x2004;" horiz-adv-x="629" />
<glyph unicode="&#x2005;" horiz-adv-x="472" />
<glyph unicode="&#x2006;" horiz-adv-x="314" />
<glyph unicode="&#x2007;" horiz-adv-x="314" />
<glyph unicode="&#x2008;" horiz-adv-x="236" />
<glyph unicode="&#x2009;" horiz-adv-x="377" />
<glyph unicode="&#x200a;" horiz-adv-x="104" />
<glyph unicode="&#x2010;" horiz-adv-x="917" d="M70 356v371h778v-371h-778z" />
<glyph unicode="&#x2011;" horiz-adv-x="917" d="M70 356v371h778v-371h-778z" />
<glyph unicode="&#x2012;" horiz-adv-x="917" d="M70 356v371h778v-371h-778z" />
<glyph unicode="&#x2013;" horiz-adv-x="1024" d="M-12 459v348h1048v-348h-1048z" />
<glyph unicode="&#x2014;" horiz-adv-x="2048" d="M-12 459v348h2072v-348h-2072z" />
<glyph unicode="&#x2018;" horiz-adv-x="747" d="M119 932q0 205 154.5 344t394.5 139v-45q-106 -49 -153.5 -118.5t-51.5 -170.5q82 -10 130 -66.5t48 -142.5q0 -100 -73.5 -175.5t-178.5 -75.5q-115 0 -192.5 88t-77.5 223z" />
<glyph unicode="&#x2019;" horiz-adv-x="747" d="M80 621v45q106 49 153.5 118.5t51.5 169.5q-82 10 -130.5 66.5t-48.5 142.5q0 98 73 175t179 77q115 0 193 -89t78 -222q0 -205 -155 -344t-394 -139z" />
<glyph unicode="&#x201a;" horiz-adv-x="747" d="M98 -285q106 49 153.5 119t51.5 170q-82 10 -130 66.5t-48 142.5q0 98 72.5 175t179.5 77q115 0 192.5 -89t77.5 -222q0 -205 -154.5 -344.5t-394.5 -139.5v45z" />
<glyph unicode="&#x201c;" horiz-adv-x="1429" d="M125 932q0 205 154.5 344t394.5 139v-45q-106 -49 -153.5 -118.5t-51.5 -170.5q82 -10 130 -66.5t48 -142.5q0 -100 -73.5 -175.5t-178.5 -75.5q-115 0 -192.5 88t-77.5 223zM807 932q0 205 154.5 344t394.5 139v-45q-106 -49 -153.5 -118.5t-51.5 -170.5 q82 -10 130 -66.5t48 -142.5q0 -100 -73.5 -175.5t-178.5 -75.5q-115 0 -192.5 88t-77.5 223z" />
<glyph unicode="&#x201d;" horiz-adv-x="1429" d="M74 621v45q106 49 153 118.5t52 169.5q-82 10 -130.5 66.5t-48.5 142.5q0 98 73 175t179 77q115 0 193 -89t78 -222q0 -205 -155 -344t-394 -139zM756 621v45q106 49 153 118.5t52 169.5q-82 10 -130.5 66.5t-48.5 142.5q0 98 73 175t179 77q115 0 193 -89t78 -222 q0 -205 -155 -344t-394 -139z" />
<glyph unicode="&#x201e;" horiz-adv-x="1429" d="M78 -285q106 49 153.5 119t51.5 170q-82 10 -130.5 66.5t-48.5 142.5q0 98 73 175t179 77q115 0 193 -89t78 -222q0 -205 -155 -344.5t-394 -139.5v45zM760 -285q106 49 153.5 119t51.5 170q-82 10 -130.5 66.5t-48.5 142.5q0 98 73 175t179 77q115 0 193 -89t78 -222 q0 -205 -155 -344.5t-394 -139.5v45z" />
<glyph unicode="&#x2022;" horiz-adv-x="1024" d="M180 721q0 135 97.5 233.5t234.5 98.5t234.5 -98.5t97.5 -233.5t-97.5 -233.5t-234.5 -98.5t-234.5 98.5t-97.5 233.5z" />
<glyph unicode="&#x2026;" horiz-adv-x="2048" d="M90 233q0 102 75 176t177 74q104 0 177 -73.5t73 -176.5q0 -100 -74 -175.5t-176 -75.5q-100 0 -176 73.5t-76 177.5zM772 233q0 102 75 176t177 74q104 0 177 -73.5t73 -176.5q0 -100 -74 -175.5t-176 -75.5q-100 0 -176 73.5t-76 177.5zM1454 233q0 102 75 176t177 74 q104 0 177 -73.5t73 -176.5q0 -100 -74 -175.5t-176 -75.5q-100 0 -176 73.5t-76 177.5z" />
<glyph unicode="&#x202f;" horiz-adv-x="377" />
<glyph unicode="&#x2039;" horiz-adv-x="831" d="M92 537l305 536h367l-307 -536l307 -537h-367z" />
<glyph unicode="&#x203a;" horiz-adv-x="831" d="M68 0l307 537l-307 536h366l305 -536l-305 -537h-366z" />
<glyph unicode="&#x205f;" horiz-adv-x="472" />
<glyph unicode="&#x20ac;" d="M27 502l26 137h88q0 14 -2 29v53q0 14 2 31h-114l26 137h107q51 240 225 383t430 143q121 0 219.5 -24.5t184.5 -69.5l-72 -338q-70 41 -138.5 60.5t-138.5 19.5q-106 0 -186 -43t-119 -131h522l-28 -137h-529q0 -14 -2 -29v-57q0 -14 2 -27h508l-26 -137h-441 q41 -86 120 -128t181 -42q88 0 173 28.5t184 94.5v-351q-92 -61 -201.5 -91.5t-232.5 -30.5q-256 0 -419 136t-216 384h-133z" />
<glyph unicode="&#x2122;" horiz-adv-x="2048" d="M55 1202v195h801v-195h-283v-620h-235v620h-283zM948 582v815h355l116 -447l117 447h352v-815h-225v575l-154 -575h-184l-151 575v-575h-226z" />
<glyph unicode="&#x25fc;" horiz-adv-x="1085" d="M0 0v1085h1085v-1085h-1085z" />
<glyph unicode="&#xfb01;" horiz-adv-x="1452" />
<glyph unicode="&#xfb02;" horiz-adv-x="1462" />
</font>
</defs>
</svg>
